<?xml version="1.0" standalone="no"?>
<!DOCTYPE svg PUBLIC "-//W3C//DTD SVG 1.1//EN" "http://www.w3.org/Graphics/SVG/1.1/DTD/svg11.dtd" >
<svg xmlns="http://www.w3.org/2000/svg" xmlns:xlink="http://www.w3.org/1999/xlink" version="1.1">
<metadata>
Created by FontForge 20150504 at Fri Jun 12 11:26:44 2015
 By Jimmy Wärting
Copyright (c) Mark Simonson, 2010. All rights reserved.
</metadata>
<defs>
<font id="ProximaNovaSoft-Bold" horiz-adv-x="579" >
  <font-face 
    font-family="Proxima Nova Soft"
    font-weight="700"
    font-stretch="normal"
    units-per-em="1000"
    panose-1="2 0 5 6 3 0 0 2 0 4"
    ascent="775"
    descent="-225"
    x-height="483"
    cap-height="673"
    bbox="-150 -282 1096 909"
    underline-thickness="20"
    underline-position="-133"
    stemh="144"
    stemv="154"
    unicode-range="U+000D-FB02"
  />
<missing-glyph horiz-adv-x="483" 
d="M417 -52c0 -20 -18 -38 -38 -38h-275c-20 0 -38 18 -38 38v766c0 20 18 38 38 38h275c20 0 38 -18 38 -38v-766zM385 -60v782h-288v-782h288z" />
    <glyph glyph-name="fi" unicode="fi" horiz-adv-x="580" 
d="M453 686c42 0 76 -33 76 -75s-34 -76 -76 -76c-41 0 -76 34 -76 76s35 75 76 75zM517 57c0 -35 -28 -63 -64 -63c-35 0 -63 28 -63 63v370c0 34 28 62 65 62c34 0 62 -28 62 -62v-370zM335 626c0 -25 -16 -49 -44 -49h-11c-35 0 -61 -23 -61 -68v-26h50
c29 0 54 -25 54 -56c0 -30 -25 -55 -54 -55h-50v-315c0 -35 -28 -63 -65 -63c-35 0 -63 28 -63 63v315h-31c-30 0 -55 25 -55 57c0 29 25 54 55 54h31v26c0 105 68 168 163 168c55 0 81 -15 81 -51z" />
    <glyph glyph-name="fl" unicode="fl" horiz-adv-x="580" 
d="M517 57c0 -35 -28 -63 -64 -63c-35 0 -63 28 -63 63v554c0 34 28 62 65 62c34 0 62 -28 62 -62v-554zM335 626c0 -25 -16 -49 -44 -49h-11c-35 0 -61 -23 -61 -68v-26h50c29 0 54 -25 54 -56c0 -30 -25 -55 -54 -55h-50v-315c0 -35 -28 -63 -65 -63c-35 0 -63 28 -63 63
v315h-31c-30 0 -55 25 -55 57c0 29 25 54 55 54h31v26c0 105 68 168 163 168c55 0 81 -15 81 -51z" />
    <glyph glyph-name=".notdef" horiz-adv-x="483" 
d="M417 -52c0 -20 -18 -38 -38 -38h-275c-20 0 -38 18 -38 38v766c0 20 18 38 38 38h275c20 0 38 -18 38 -38v-766zM385 -60v782h-288v-782h288z" />
    <glyph glyph-name="NULL" horiz-adv-x="0" 
 />
    <glyph glyph-name="NULL" horiz-adv-x="0" 
 />
    <glyph glyph-name="CR" unicode="&#xd;" horiz-adv-x="0" 
 />
    <glyph glyph-name="space" unicode=" " horiz-adv-x="256" 
 />
    <glyph glyph-name="exclam" unicode="!" horiz-adv-x="256" 
d="M201 600c0 -20 -10 -223 -15 -334c-1 -31 -26 -55 -59 -55c-31 0 -56 24 -57 55c-5 111 -16 314 -16 334c0 41 32 73 75 73c41 0 72 -32 72 -73zM209 70c0 -43 -37 -80 -81 -80s-80 37 -80 80c0 44 36 81 80 81s81 -37 81 -81z" />
    <glyph glyph-name="quotedbl" unicode="&#x22;" horiz-adv-x="406" 
d="M182 608c0 -14 -25 -153 -36 -212c-3 -16 -17 -27 -34 -27c-15 0 -29 11 -32 27c-11 59 -36 198 -36 212c0 38 31 69 69 69c37 0 69 -31 69 -69zM362 608c0 -14 -25 -154 -36 -213c-3 -15 -16 -26 -34 -26c-15 0 -28 11 -31 26c-11 59 -36 199 -36 213c0 38 31 69 69 69
s68 -31 68 -69z" />
    <glyph glyph-name="numbersign" unicode="#" horiz-adv-x="618" 
d="M589 455c0 -21 -18 -39 -39 -39h-73l-55 -166h50c21 0 39 -18 39 -41c0 -22 -18 -40 -39 -40h-77l-48 -145c-6 -19 -24 -30 -43 -30c-27 0 -45 19 -45 43c0 4 0 9 2 14l41 118h-95l-49 -146c-6 -18 -24 -30 -43 -30c-26 -1 -44 21 -44 43c0 5 0 9 2 14l40 119h-43
c-22 0 -40 18 -40 42c0 21 18 39 40 39h71l54 166h-46c-21 0 -39 18 -39 41c0 21 18 39 39 39h74l48 147c6 17 23 29 42 29c27 0 45 -21 45 -43c0 -5 -1 -9 -2 -13l-39 -120h94l48 146c6 18 24 30 43 30c27 0 45 -20 45 -43c0 -5 -1 -10 -2 -14l-41 -119h46
c21 0 39 -18 39 -41zM383 416h-94l-54 -166h93z" />
    <glyph glyph-name="dollar" unicode="$" horiz-adv-x="614" 
d="M579 202c0 -111 -72 -196 -218 -211v-51c0 -25 -21 -46 -46 -46c-28 0 -49 21 -49 46v50c-80 7 -178 38 -209 87c-6 10 -10 20 -10 32c0 37 31 66 66 66c14 0 27 -4 39 -12c32 -22 70 -39 114 -47v158c-103 26 -215 64 -215 200c0 101 80 187 215 201v53
c0 25 21 46 49 46c25 0 46 -21 46 -46v-55c59 -7 144 -30 173 -73c6 -9 10 -20 10 -31c0 -38 -36 -65 -71 -65c-6 0 -12 1 -19 3c-29 8 -62 31 -93 38v-141c103 -26 218 -66 218 -202zM266 429v122c-45 -6 -70 -31 -70 -65c0 -29 28 -45 70 -57zM435 186c0 33 -31 50 -74 64
v-134c49 10 74 39 74 70z" />
    <glyph glyph-name="percent" unicode="%" horiz-adv-x="757" 
d="M365 509c0 -93 -67 -164 -170 -164c-102 0 -169 71 -169 164c0 94 67 168 169 168c103 0 170 -74 170 -168zM605 625l-394 -617c-6 -9 -16 -14 -26 -14c-18 0 -33 14 -33 31c0 6 2 12 5 17l394 617c6 9 16 14 26 14c17 0 33 -15 33 -32c0 -5 -2 -11 -5 -16zM732 153
c0 -93 -68 -165 -170 -165s-169 72 -169 165c0 94 67 168 169 168s170 -74 170 -168zM116 509c0 -52 34 -86 79 -86c46 0 79 34 79 86c0 56 -33 89 -79 89c-45 0 -79 -33 -79 -89zM483 153c0 -54 33 -87 79 -87s80 33 80 87c0 55 -34 89 -80 89s-79 -34 -79 -89z" />
    <glyph glyph-name="ampersand" unicode="&#x26;" horiz-adv-x="646" 
d="M509 134c22 -24 55 -47 55 -82c0 -29 -24 -59 -57 -59c-34 0 -66 40 -81 57c-50 -38 -111 -62 -182 -62c-122 0 -220 64 -220 193c0 101 67 154 143 192c-26 49 -44 99 -44 144c0 90 80 160 191 160c94 0 175 -52 175 -141c0 -102 -82 -145 -164 -183
c44 -60 79 -98 114 -140c17 26 32 55 44 83c8 19 28 32 49 32c31 0 55 -26 55 -54c0 -8 -3 -18 -8 -30c-15 -35 -49 -82 -70 -110zM159 193c0 -65 48 -105 103 -105c34 0 67 13 96 34c-75 82 -98 112 -141 173c-35 -25 -58 -56 -58 -102zM320 585c-39 0 -70 -30 -70 -71
c0 -27 12 -58 29 -90c56 27 100 56 100 105c0 35 -26 56 -59 56z" />
    <glyph glyph-name="quotesingle" unicode="'" horiz-adv-x="225" 
d="M182 608c0 -14 -25 -153 -36 -212c-3 -16 -17 -27 -34 -27c-15 0 -29 11 -32 27c-11 59 -36 198 -36 212c0 38 31 69 69 69c37 0 69 -31 69 -69z" />
    <glyph glyph-name="parenleft" unicode="(" horiz-adv-x="297" 
d="M266 -126c0 -30 -23 -59 -55 -59c-15 0 -30 6 -39 19c-80 109 -131 266 -131 409c0 142 52 300 131 410c9 12 25 18 39 18c33 0 55 -29 55 -57c0 -9 -2 -18 -6 -26c-53 -107 -82 -213 -82 -345s29 -237 82 -342c4 -9 6 -18 6 -27z" />
    <glyph glyph-name="parenright" unicode=")" horiz-adv-x="297" 
d="M257 243c0 -143 -52 -300 -132 -409c-9 -13 -24 -19 -39 -19c-32 0 -55 29 -55 59c0 9 2 18 6 27c53 105 82 210 82 342s-29 238 -82 345c-4 8 -6 17 -6 26c0 28 22 57 54 57c15 0 31 -6 40 -18c79 -110 132 -267 132 -410z" />
    <glyph glyph-name="asterisk" unicode="*" horiz-adv-x="351" 
d="M177 683c15 0 30 -14 29 -30l-4 -86l71 45c5 3 10 5 16 5c13 0 30 -11 30 -31c0 -11 -5 -21 -15 -26l-75 -39l75 -39c10 -5 15 -15 15 -25c0 -17 -14 -31 -31 -31c-5 0 -10 1 -15 4l-71 46l4 -86c1 -16 -14 -30 -31 -30s-31 14 -30 30l4 86l-73 -46c-4 -3 -10 -5 -15 -5
c-13 0 -30 13 -30 31c0 10 6 21 16 26l75 39l-75 39c-10 5 -16 15 -16 25c0 19 15 32 31 32c5 0 10 -1 15 -4l72 -46l-4 86c-1 16 13 30 32 30z" />
    <glyph glyph-name="plus" unicode="+" horiz-adv-x="504" 
d="M481 339c0 -24 -17 -41 -38 -41h-147v-166c0 -24 -19 -43 -44 -43c-24 0 -43 19 -43 43v166h-147c-22 0 -39 17 -39 41c0 21 17 38 39 38h147v159c0 23 19 42 45 42c23 0 42 -19 42 -42v-159h147c21 0 38 -17 38 -38z" />
    <glyph glyph-name="comma" unicode="," horiz-adv-x="256" 
d="M215 49c0 -64 -31 -124 -81 -169c-7 -7 -16 -10 -26 -10c-17 0 -38 12 -38 32c0 8 3 16 10 22c26 21 48 52 54 78c-3 -1 -12 -3 -19 -3c-38 0 -68 29 -68 72c0 44 36 80 78 80c47 0 90 -37 90 -102z" />
    <glyph glyph-name="hyphen" unicode="-" horiz-adv-x="300" 
d="M276 243c0 -31 -24 -55 -53 -55h-146c-29 0 -53 24 -53 55c0 29 24 53 53 53h146c29 0 53 -24 53 -53z" />
    <glyph glyph-name="period" unicode="." horiz-adv-x="256" 
d="M209 70c0 -44 -37 -81 -81 -81s-81 37 -81 81s37 81 81 81s81 -37 81 -81z" />
    <glyph glyph-name="slash" unicode="/" horiz-adv-x="329" 
d="M314 650c0 -4 -1 -9 -2 -13l-211 -633c-6 -19 -24 -30 -43 -30c-25 0 -44 19 -44 42c0 5 1 9 3 14l211 633c6 18 23 30 43 30c25 0 43 -20 43 -43z" />
    <glyph glyph-name="zero" unicode="0" horiz-adv-x="620" 
d="M586 333c0 -172 -86 -345 -276 -345c-191 0 -276 173 -276 345s85 344 276 344c190 0 276 -172 276 -344zM441 333c0 123 -36 218 -131 218c-96 0 -132 -95 -132 -218s36 -219 132 -219c95 0 131 96 131 219z" />
    <glyph glyph-name="one" unicode="1" horiz-adv-x="411" 
d="M345 64c0 -38 -32 -70 -72 -70c-38 0 -70 32 -70 70v420l-75 -77c-11 -11 -25 -16 -39 -16c-31 0 -59 26 -59 59c0 15 6 30 18 42l154 156c15 15 37 24 60 24c45 0 83 -36 83 -81v-527z" />
    <glyph glyph-name="two" unicode="2" horiz-adv-x="600" 
d="M555 64c0 -36 -28 -64 -61 -64h-386c-35 0 -67 29 -67 69c0 23 11 46 30 60c249 184 329 257 329 335c0 58 -53 87 -108 87c-53 0 -99 -15 -137 -41c-13 -9 -26 -13 -41 -13c-33 0 -62 28 -62 64c0 10 3 20 9 29c32 51 144 87 228 87c142 0 255 -80 255 -213
c0 -114 -94 -213 -267 -339h217c33 0 61 -28 61 -61z" />
    <glyph glyph-name="three" unicode="3" horiz-adv-x="587" 
d="M546 184c0 -115 -103 -196 -263 -196c-96 0 -209 36 -240 88c-5 8 -8 17 -8 27c0 36 32 63 65 63c12 0 24 -3 35 -10c44 -26 97 -42 143 -42c81 0 126 35 126 85c0 53 -41 77 -134 77c-52 -7 -89 18 -89 63c0 35 26 62 65 62c87 -4 147 16 147 71c0 53 -54 79 -124 79
c-46 0 -90 -13 -129 -38c-10 -7 -22 -10 -34 -10c-31 0 -62 25 -62 60c0 16 7 32 21 43c55 44 127 71 219 71c156 0 252 -70 252 -181c0 -84 -72 -139 -146 -152c68 -7 156 -60 156 -160z" />
    <glyph glyph-name="four" unicode="4" horiz-adv-x="597" 
d="M578 200c0 -34 -28 -62 -61 -62h-31v-74c0 -38 -32 -70 -72 -70c-38 0 -70 32 -70 70v74h-251c-40 0 -73 33 -73 78c0 16 4 32 13 46l223 352c23 36 66 59 109 59c61 10 121 -18 121 -80v-330h31c33 0 61 -28 61 -63zM344 263v278l-180 -278h180z" />
    <glyph glyph-name="five" unicode="5" horiz-adv-x="608" 
d="M573 219c0 -142 -106 -231 -267 -231c-87 0 -200 29 -231 81c-5 9 -8 19 -8 29c0 37 33 64 68 64c12 0 25 -4 37 -11c39 -24 85 -37 133 -37c79 0 124 45 124 99c0 59 -44 99 -120 99c-41 0 -76 -8 -112 -32c-16 -11 -35 -17 -55 -17c-44 0 -72 29 -72 68v256
c0 44 36 80 80 80h323c33 0 61 -28 61 -63c0 -34 -28 -62 -61 -62h-261v-163c32 32 86 56 147 56c113 0 214 -81 214 -216z" />
    <glyph glyph-name="six" unicode="6" horiz-adv-x="608" 
d="M577 217c0 -130 -103 -229 -255 -229c-203 0 -288 156 -288 344c0 202 114 345 311 345c65 0 149 -19 174 -63c4 -8 7 -17 7 -27c0 -38 -34 -62 -65 -62c-10 0 -20 2 -29 7c-25 13 -53 19 -87 19c-98 0 -167 -83 -167 -189c0 -5 0 -9 1 -14c31 45 98 86 171 86
c120 0 227 -75 227 -217zM433 212c0 70 -60 100 -124 100c-50 0 -98 -23 -130 -63c6 -64 42 -135 135 -135c77 0 119 51 119 98z" />
    <glyph glyph-name="seven" unicode="7" horiz-adv-x="545" 
d="M531 595c0 -10 -2 -20 -6 -28l-232 -530c-11 -26 -38 -43 -67 -43c-42 0 -71 34 -71 70c0 9 2 18 6 27l199 451h-280c-34 0 -62 28 -62 64c0 33 28 61 62 61h382c35 0 69 -30 69 -72z" />
    <glyph glyph-name="eight" unicode="8" horiz-adv-x="606" 
d="M571 173c0 -124 -128 -185 -268 -185s-268 60 -268 185c0 81 63 143 143 171c-74 26 -132 74 -132 157c0 125 133 176 257 176c123 0 257 -51 257 -176c0 -83 -59 -131 -133 -157c80 -28 144 -90 144 -171zM415 479c0 48 -47 76 -112 76c-66 0 -113 -28 -113 -76
c0 -50 72 -73 113 -79c41 6 112 29 112 79zM427 191c0 56 -83 83 -124 89c-42 -6 -124 -33 -124 -89c0 -49 54 -81 124 -81c68 0 124 32 124 81z" />
    <glyph glyph-name="nine" unicode="9" horiz-adv-x="608" 
d="M573 334c0 -202 -114 -345 -311 -345c-65 0 -149 19 -174 62c-5 9 -8 18 -8 28c0 38 35 62 66 62c10 0 20 -2 29 -7c25 -13 53 -19 87 -19c98 0 167 83 167 189c0 5 0 9 -1 14c-31 -45 -98 -86 -171 -86c-120 0 -227 75 -227 217c0 130 103 229 255 229
c203 0 288 -156 288 -344zM428 417c-6 64 -42 135 -135 135c-77 0 -119 -51 -119 -98c0 -70 60 -100 124 -100c50 0 98 23 130 63z" />
    <glyph glyph-name="colon" unicode=":" horiz-adv-x="251" 
d="M209 409c0 -44 -37 -81 -81 -81s-81 37 -81 81s37 81 81 81s81 -37 81 -81zM209 70c0 -44 -37 -81 -81 -81s-81 37 -81 81s37 81 81 81s81 -37 81 -81z" />
    <glyph glyph-name="semicolon" unicode=";" horiz-adv-x="256" 
d="M209 409c0 -43 -37 -81 -81 -81s-81 38 -81 81c0 44 37 81 81 81s81 -37 81 -81zM215 49c0 -64 -31 -124 -81 -169c-7 -7 -16 -10 -26 -10c-17 0 -38 12 -38 32c0 8 3 16 10 22c26 21 48 52 54 78c-3 -1 -12 -3 -19 -3c-38 0 -68 29 -68 72c0 44 36 80 78 80
c47 0 90 -37 90 -102z" />
    <glyph glyph-name="less" unicode="&#x3c;" horiz-adv-x="504" 
d="M480 153c0 -26 -22 -42 -42 -42c-6 0 -11 1 -16 3l-361 161c-23 10 -38 34 -38 61c0 24 15 48 38 58l361 162c5 2 10 3 16 3c21 0 42 -17 42 -43c0 -16 -9 -32 -25 -39l-335 -143l335 -142c16 -7 25 -22 25 -39z" />
    <glyph glyph-name="equal" unicode="=" horiz-adv-x="504" 
d="M481 241c0 -23 -17 -40 -38 -40h-382c-21 0 -38 17 -38 40c0 21 17 38 38 38h382c21 0 38 -17 38 -38zM481 429c0 -23 -18 -41 -39 -41h-380c-21 0 -39 18 -39 41c0 21 18 39 39 39h380c21 0 39 -18 39 -39z" />
    <glyph glyph-name="greater" unicode="&#x3e;" horiz-adv-x="504" 
d="M481 336c0 -27 -15 -51 -38 -61l-361 -161c-5 -2 -11 -3 -16 -3c-21 0 -42 17 -42 42c0 17 9 32 25 39l335 142l-335 143c-17 7 -26 23 -26 39c-1 26 21 43 43 43c5 0 11 -1 16 -3l361 -162c23 -10 38 -34 38 -58z" />
    <glyph glyph-name="question" unicode="?" horiz-adv-x="456" 
d="M436 519c0 -146 -167 -157 -167 -240c0 -13 3 -17 3 -27c0 -25 -19 -53 -56 -53c-38 0 -71 32 -71 93c0 119 146 133 146 202c0 31 -23 57 -78 57c-30 0 -58 -10 -82 -26c-12 -8 -27 -12 -42 -12c-32 0 -59 22 -59 58c0 10 2 19 6 27c27 53 128 79 192 79
c129 0 208 -65 208 -158zM307 70c0 -44 -37 -81 -81 -81s-81 37 -81 81s37 81 81 81s81 -37 81 -81z" />
    <glyph glyph-name="at" unicode="@" horiz-adv-x="783" 
d="M747 332c0 -168 -111 -247 -198 -247c-60 0 -91 36 -97 77c-36 -46 -91 -77 -145 -77c-97 0 -155 71 -155 168c0 134 110 245 226 245c60 0 104 -29 125 -67l3 14c5 25 28 44 55 44c32 0 55 -25 55 -53c0 -4 0 -8 -1 -11l-39 -185c-1 -6 -3 -18 -3 -24
c0 -31 16 -45 37 -45c39 0 94 47 94 161c0 158 -108 267 -276 267c-189 0 -354 -166 -354 -353c0 -157 120 -278 282 -278c62 0 118 17 168 46c3 2 6 2 9 2c9 0 20 -8 20 -18c0 -6 -3 -11 -8 -14c-58 -34 -125 -54 -193 -54c-182 0 -317 137 -317 314c0 213 189 394 397 394
c191 0 315 -140 315 -306zM487 357c-11 22 -37 51 -81 51c-80 0 -138 -72 -138 -145c0 -52 32 -88 83 -88c53 0 89 35 111 65z" />
    <glyph glyph-name="A" unicode="A" horiz-adv-x="684" 
d="M656 70c0 -37 -30 -76 -76 -76c-30 0 -58 18 -69 47l-26 72h-286l-27 -72c-11 -29 -39 -47 -70 -47c-45 0 -75 38 -75 76c0 9 1 18 5 27l195 501c17 45 62 75 109 75c51 4 102 -26 121 -75l194 -501c3 -9 5 -18 5 -27zM446 238l-104 287l-104 -287h208z" />
    <glyph glyph-name="B" unicode="B" horiz-adv-x="663" 
d="M622 180c0 -100 -67 -180 -194 -180h-282c-44 0 -80 36 -80 80v507c0 44 36 80 80 80h271c127 0 192 -81 192 -170c0 -84 -52 -140 -115 -153c71 -11 128 -80 128 -164zM464 472c0 42 -30 73 -78 73h-178v-145h178c48 0 78 30 78 72zM477 200c0 42 -30 78 -86 78h-183
v-155h183c54 0 86 29 86 77z" />
    <glyph glyph-name="C" unicode="C" horiz-adv-x="687" 
d="M389 678c115 0 192 -49 243 -110c9 -11 14 -26 14 -39c0 -36 -31 -64 -68 -64c-19 0 -38 8 -52 23c-38 40 -87 64 -137 64c-121 0 -209 -93 -209 -219s88 -219 209 -219c50 0 100 22 137 63c14 15 34 23 54 23c36 0 65 -28 65 -62c0 -14 -4 -28 -14 -39
c-50 -61 -127 -111 -242 -111c-200 0 -355 140 -355 345s155 345 355 345z" />
    <glyph glyph-name="D" unicode="D" horiz-adv-x="718" 
d="M683 333c0 -201 -145 -333 -354 -333h-183c-44 0 -80 36 -80 80v507c0 44 36 80 80 80h183c209 0 354 -133 354 -334zM538 333c0 118 -72 209 -209 209h-121v-417h121c132 0 209 95 209 208z" />
    <glyph glyph-name="E" unicode="E" horiz-adv-x="583" 
d="M544 64c0 -36 -28 -64 -61 -64h-337c-44 0 -80 36 -80 80v507c0 44 36 80 80 80h337c33 0 61 -28 61 -63c0 -34 -28 -62 -61 -62h-275v-141h268c33 0 61 -28 61 -63c0 -34 -28 -62 -61 -62h-268v-151h275c33 0 61 -28 61 -61z" />
    <glyph glyph-name="F" unicode="F" horiz-adv-x="571" 
d="M544 604c0 -34 -28 -62 -61 -62h-275v-141h268c33 0 61 -28 61 -63c0 -34 -28 -62 -61 -62h-268v-212c0 -38 -32 -70 -72 -70c-38 0 -70 32 -70 70v523c0 44 36 80 80 80h337c33 0 61 -28 61 -63z" />
    <glyph glyph-name="G" unicode="G" horiz-adv-x="720" 
d="M673 176c0 -121 -149 -189 -284 -189c-195 0 -355 136 -355 346c0 211 160 345 355 345c108 0 185 -42 237 -98c11 -12 17 -28 17 -43c0 -35 -32 -64 -67 -64c-17 0 -35 7 -48 20c-38 37 -88 59 -139 59c-121 0 -209 -93 -209 -219s88 -219 209 -219c59 0 115 26 142 51
v80h-121c-34 0 -61 27 -61 63c0 34 27 61 61 61h183c44 0 80 -36 80 -80v-113z" />
    <glyph glyph-name="H" unicode="H" horiz-adv-x="731" 
d="M666 65c0 -39 -32 -71 -72 -71c-39 0 -71 32 -71 71v215h-315v-216c0 -38 -32 -70 -72 -70c-38 0 -70 32 -70 70v539c0 38 32 70 72 70c38 0 70 -32 70 -70v-198h315v198c0 38 32 70 73 70c38 0 70 -32 70 -70v-538z" />
    <glyph glyph-name="I" unicode="I" horiz-adv-x="274" 
d="M208 64c0 -38 -32 -70 -72 -70c-38 0 -70 32 -70 70v539c0 38 32 70 72 70c38 0 70 -32 70 -70v-539z" />
    <glyph glyph-name="J" unicode="J" horiz-adv-x="486" 
d="M420 219c0 -158 -98 -231 -235 -231c-50 0 -133 13 -159 57c-5 8 -8 18 -8 29c0 36 31 63 64 63c6 0 11 -1 17 -3c22 -6 47 -20 75 -20c63 0 104 42 104 107v382c0 38 32 70 72 70c38 0 70 -32 70 -70v-384z" />
    <glyph glyph-name="K" unicode="K" horiz-adv-x="636" 
d="M569 63c0 -35 -30 -69 -69 -69c-21 0 -41 9 -54 27l-186 246l-52 -62v-141c0 -38 -32 -70 -72 -70c-38 0 -70 32 -70 70v539c0 38 32 70 72 70c38 0 70 -32 70 -70v-234l220 278c12 16 32 24 51 24c36 0 68 -29 68 -65c0 -15 -5 -30 -15 -42l-178 -210l201 -251
c9 -12 14 -26 14 -40z" />
    <glyph glyph-name="L" unicode="L" horiz-adv-x="523" 
d="M496 64c0 -36 -28 -64 -61 -64h-289c-44 0 -80 36 -80 80v523c0 38 32 70 72 70c38 0 70 -32 70 -70v-478h227c33 0 61 -28 61 -61z" />
    <glyph glyph-name="M" unicode="M" horiz-adv-x="855" 
d="M789 65c0 -39 -32 -71 -72 -71c-39 0 -71 32 -71 71v402l-180 -447c-6 -15 -21 -26 -40 -26c-17 0 -32 11 -38 26l-180 447v-403c0 -38 -32 -70 -72 -70c-38 0 -70 32 -70 70v523c0 44 36 80 80 80c65 7 121 -7 145 -65l136 -338l136 338c16 39 53 65 97 65
c64 10 129 -14 129 -80v-522z" />
    <glyph glyph-name="N" unicode="N" horiz-adv-x="729" 
d="M663 80c0 -45 -37 -86 -88 -86c-27 0 -54 13 -71 36l-296 405v-371c0 -38 -32 -70 -72 -70c-38 0 -70 32 -70 70v518c0 47 40 91 93 91c30 0 60 -14 78 -39l284 -386v355c0 38 32 70 72 70c38 0 70 -32 70 -70v-523z" />
    <glyph glyph-name="O" unicode="O" horiz-adv-x="765" 
d="M731 333c0 -201 -147 -345 -349 -345c-201 0 -348 144 -348 345s147 345 348 345c202 0 349 -144 349 -345zM585 333c0 125 -80 219 -203 219s-202 -94 -202 -219c0 -124 79 -219 202 -219s203 95 203 219z" />
    <glyph glyph-name="P" unicode="P" horiz-adv-x="624" 
d="M602 452c0 -116 -80 -215 -224 -215h-170v-173c0 -38 -32 -70 -72 -70c-38 0 -70 32 -70 70v523c0 44 36 80 80 80h232c145 0 224 -98 224 -215zM457 452c0 56 -42 90 -98 90h-151v-180h151c56 0 98 35 98 90z" />
    <glyph glyph-name="Q" unicode="Q" horiz-adv-x="765" 
d="M731 333c0 -94 -32 -176 -87 -236l12 -14c10 -12 14 -26 14 -40c0 -32 -27 -64 -64 -64c-19 0 -36 8 -49 23l-17 19c-47 -21 -100 -33 -158 -33c-201 0 -348 144 -348 345s147 345 348 345c202 0 349 -144 349 -345zM585 333c0 125 -80 219 -203 219s-202 -94 -202 -219
c0 -124 79 -219 202 -219c25 0 48 4 70 11l-37 43c-10 11 -14 25 -14 39c0 32 27 64 64 64c18 0 35 -7 48 -22l38 -44c22 36 34 80 34 128z" />
    <glyph glyph-name="R" unicode="R" horiz-adv-x="643" 
d="M602 452c0 -118 -74 -181 -146 -198l92 -156c6 -11 9 -23 9 -34c0 -34 -28 -70 -70 -70c-25 0 -48 13 -61 36l-114 207h-104v-173c0 -38 -32 -70 -72 -70c-38 0 -70 32 -70 70v523c0 44 36 80 80 80h232c139 0 224 -91 224 -215zM357 542h-149v-180h149
c57 0 100 34 100 90s-43 90 -100 90z" />
    <glyph glyph-name="S" unicode="S" horiz-adv-x="600" 
d="M570 202c0 -122 -87 -214 -267 -214c-97 0 -217 32 -254 87c-7 10 -11 22 -11 34c0 38 33 66 67 66c13 0 27 -3 38 -11c45 -31 102 -52 167 -52c78 0 116 36 116 74c0 118 -384 37 -384 288c0 111 96 203 253 203c76 0 192 -25 229 -74c8 -10 12 -22 12 -34
c0 -38 -37 -64 -71 -64c-12 0 -24 3 -36 10c-46 26 -98 38 -147 38c-61 0 -95 -27 -95 -67c0 -106 383 -35 383 -284z" />
    <glyph glyph-name="T" unicode="T" horiz-adv-x="582" 
d="M563 604c0 -34 -28 -62 -61 -62h-139v-477c0 -39 -32 -71 -72 -71c-39 0 -71 32 -71 71v477h-139c-34 0 -62 28 -62 64c0 33 28 61 62 61h421c33 0 61 -28 61 -63z" />
    <glyph glyph-name="U" unicode="U" horiz-adv-x="733" 
d="M668 267c0 -166 -98 -279 -301 -279s-301 114 -301 278v336c0 39 32 71 73 71c39 0 71 -32 71 -71v-331c0 -93 54 -157 157 -157s156 64 156 157v331c0 39 32 71 74 71c39 0 71 -32 71 -71v-335z" />
    <glyph glyph-name="V" unicode="V" horiz-adv-x="684" 
d="M657 599c0 -9 -2 -18 -5 -26l-194 -504c-17 -45 -62 -75 -109 -75h-14c-47 0 -92 30 -109 75l-195 504c-4 8 -5 17 -5 26c0 36 30 74 75 74c31 0 60 -19 71 -49l170 -470l169 470c10 29 39 49 70 49c45 0 76 -36 76 -74z" />
    <glyph glyph-name="W" unicode="W" horiz-adv-x="918" 
d="M897 605c0 -7 -1 -14 -3 -20l-149 -521c-12 -41 -50 -70 -92 -70h-2c-44 0 -81 29 -91 70l-101 394l-100 -394c-10 -41 -49 -70 -90 -70h-2c-43 0 -81 29 -93 70l-150 522c-2 6 -3 13 -3 19c0 38 31 74 76 74c34 0 65 -23 74 -58l106 -436l114 436c8 30 36 52 70 52
c31 0 58 -22 66 -52l114 -436l104 435c8 35 40 59 76 59c45 0 76 -35 76 -74z" />
    <glyph glyph-name="X" unicode="X" horiz-adv-x="668" 
d="M611 63c0 -31 -26 -69 -69 -69c-22 0 -44 11 -57 30l-151 220l-152 -221c-13 -19 -34 -29 -56 -29c-36 0 -69 27 -69 68c0 14 4 27 12 39l170 241l-158 226c-8 11 -11 23 -11 36c0 34 27 68 69 68c23 0 45 -11 59 -31l136 -202l134 201c13 20 35 32 59 32
c39 0 71 -31 71 -67c0 -13 -4 -27 -12 -38l-157 -224l170 -241c8 -12 12 -25 12 -39z" />
    <glyph glyph-name="Y" unicode="Y" horiz-adv-x="645" 
d="M597 607c0 -12 -3 -24 -10 -35l-193 -299v-209c0 -38 -32 -70 -72 -70c-38 0 -70 32 -70 70v209l-195 300c-7 10 -10 22 -10 34c0 32 28 65 68 65c22 0 45 -11 58 -32l150 -241l147 240c13 21 35 33 59 33c41 0 68 -32 68 -65z" />
    <glyph glyph-name="Z" unicode="Z" horiz-adv-x="592" 
d="M556 64c0 -36 -28 -64 -61 -64h-381c-40 0 -78 34 -78 80c0 17 5 33 15 47l306 415h-259c-34 0 -62 28 -62 64c0 33 28 61 62 61h377c38 0 73 -33 73 -78c0 -18 -6 -37 -17 -52l-303 -412h267c33 0 61 -28 61 -61z" />
    <glyph glyph-name="bracketleft" unicode="[" horiz-adv-x="280" 
d="M269 -147c0 -24 -19 -43 -41 -43h-101c-44 0 -80 36 -80 80v708c0 44 36 80 80 80h101c22 0 41 -19 41 -43c0 -23 -19 -42 -41 -42h-90v-698h90c22 0 41 -19 41 -42z" />
    <glyph glyph-name="backslash" unicode="\" horiz-adv-x="329" 
d="M314 16c0 -21 -18 -42 -44 -42c-19 0 -36 11 -42 30l-211 633c-2 4 -2 9 -2 13c0 22 18 43 44 43c18 0 36 -12 42 -30l211 -633c1 -5 2 -9 2 -14z" />
    <glyph glyph-name="bracketright" unicode="]" horiz-adv-x="280" 
d="M233 -110c0 -44 -36 -80 -80 -80h-100c-23 0 -42 19 -42 43c0 23 19 42 42 42h89v698h-89c-23 0 -42 19 -42 44c0 22 19 41 42 41h100c44 0 80 -36 80 -80v-708z" />
    <glyph glyph-name="asciicircum" unicode="^" horiz-adv-x="441" 
d="M401 369c0 -20 -17 -42 -43 -42c-16 0 -32 9 -39 25l-99 228l-98 -228c-7 -16 -23 -25 -39 -25c-25 0 -43 19 -43 41c0 6 1 11 4 17l116 249c11 24 35 39 63 39c25 0 49 -16 60 -39l115 -249c2 -5 3 -11 3 -16z" />
    <glyph glyph-name="underscore" unicode="_" horiz-adv-x="564" 
d="M573 -82c0 -24 -19 -43 -41 -43h-499c-23 0 -42 19 -42 43c0 23 19 42 42 42h499c22 0 41 -19 41 -42z" />
    <glyph glyph-name="grave" unicode="`" horiz-adv-x="251" 
d="M214 583c0 -17 -15 -33 -33 -33c-8 0 -15 3 -21 8l-93 82c-8 7 -12 17 -12 27c0 20 18 39 39 39c10 0 20 -4 28 -12l83 -89c6 -6 9 -14 9 -22z" />
    <glyph glyph-name="a" unicode="a" horiz-adv-x="543" 
d="M480 57c0 -35 -28 -63 -62 -63h-10c-10 0 -55 8 -55 56v0c-33 -39 -90 -62 -153 -62c-77 0 -168 52 -168 160c0 113 91 156 168 156c64 0 121 -21 153 -59v65c0 49 -42 81 -106 81c-38 0 -75 -9 -108 -31c-7 -4 -15 -7 -23 -7c-23 0 -48 19 -48 49c0 9 3 18 7 25
c30 48 138 68 194 68c110 0 211 -44 211 -183v-255zM353 116v60c-21 28 -61 42 -102 42c-50 0 -91 -26 -91 -73c0 -45 41 -71 91 -71c41 0 81 14 102 42z" />
    <glyph glyph-name="b" unicode="b" horiz-adv-x="586" 
d="M553 241c0 -161 -92 -253 -214 -253c-58 0 -111 26 -149 74v-5c0 -35 -28 -63 -64 -63c-35 0 -63 28 -63 63v554c0 34 28 62 65 62c34 0 62 -28 62 -62v-190c38 49 92 74 149 74c123 0 214 -96 214 -254zM422 241c0 84 -49 141 -123 141c-41 0 -88 -24 -109 -56v-171
c21 -31 68 -54 109 -54c74 0 123 56 123 140z" />
    <glyph glyph-name="c" unicode="c" horiz-adv-x="499" 
d="M461 77c0 -15 -7 -31 -20 -41c-35 -28 -85 -48 -153 -48c-149 0 -256 105 -256 254c0 148 107 253 256 253c75 0 145 -27 166 -66c4 -7 6 -15 6 -23c0 -34 -32 -54 -60 -54c-12 0 -24 3 -35 10c-21 13 -46 20 -71 20c-77 0 -131 -56 -131 -140s54 -141 131 -141
c26 0 50 7 72 21c11 7 22 10 34 10c31 0 61 -22 61 -55z" />
    <glyph glyph-name="d" unicode="d" horiz-adv-x="586" 
d="M523 57c0 -35 -28 -63 -65 -63c-35 0 -63 28 -63 63v5c-38 -48 -91 -74 -149 -74c-122 0 -214 92 -214 253c0 158 91 254 214 254c57 0 111 -25 149 -74v189c0 35 28 63 65 63c35 0 63 -28 63 -63v-553zM395 156v171c-21 32 -67 55 -110 55c-72 0 -122 -57 -122 -141
c0 -83 50 -140 122 -140c43 0 89 23 110 55z" />
    <glyph glyph-name="e" unicode="e" horiz-adv-x="553" 
d="M522 259c0 -31 -26 -58 -59 -58h-298c8 -61 57 -112 139 -112c27 0 64 8 94 24c8 4 17 6 25 6c27 0 54 -21 54 -51c0 -57 -123 -80 -187 -80c-147 0 -258 99 -258 254c0 140 103 253 250 253c109 0 192 -63 226 -163c7 -22 14 -49 14 -73zM401 287
c-3 46 -35 107 -119 107c-79 0 -113 -59 -119 -107h238z" />
    <glyph glyph-name="f" unicode="f" horiz-adv-x="327" 
d="M368 618c0 -32 -23 -48 -43 -48c-15 0 -24 7 -46 7c-35 0 -60 -23 -60 -68v-26h50c29 0 54 -25 54 -56c0 -30 -25 -55 -54 -55h-50v-315c0 -35 -28 -63 -65 -63c-35 0 -63 28 -63 63v315h-31c-30 0 -55 25 -55 57c0 29 25 54 55 54h31v26c0 103 66 168 163 168
c69 0 114 -25 114 -59z" />
    <glyph glyph-name="g" unicode="g" horiz-adv-x="585" 
d="M522 33c0 -184 -142 -229 -261 -229c-59 0 -158 15 -187 60c-5 8 -8 18 -8 28c0 31 25 53 53 53c9 0 18 -2 27 -7c34 -21 72 -30 115 -30c61 0 133 27 133 122v49c-38 -48 -90 -76 -149 -76c-121 0 -213 85 -213 246c0 158 91 246 213 246c58 0 110 -25 149 -74v5
c0 35 28 63 65 63c35 0 63 -28 63 -63v-393zM394 171v156c-21 32 -67 55 -109 55c-72 0 -122 -50 -122 -133s50 -133 122 -133c42 0 88 24 109 55z" />
    <glyph glyph-name="h" unicode="h" horiz-adv-x="580" 
d="M517 57c0 -35 -28 -63 -64 -63c-35 0 -63 28 -63 63v237c0 67 -35 88 -90 88c-49 0 -88 -28 -110 -57v-268c0 -35 -28 -63 -64 -63c-35 0 -63 28 -63 63v554c0 34 28 62 65 62c34 0 62 -28 62 -62v-191c31 37 91 75 170 75c106 0 157 -58 157 -152v-286z" />
    <glyph glyph-name="i" unicode="i" horiz-adv-x="253" 
d="M126 686c42 0 76 -33 76 -75s-34 -76 -76 -76c-41 0 -76 34 -76 76s35 75 76 75zM190 57c0 -35 -28 -63 -64 -63c-35 0 -63 28 -63 63v370c0 34 28 62 65 62c34 0 62 -28 62 -62v-370z" />
    <glyph glyph-name="j" unicode="j" horiz-adv-x="253" 
d="M126 686c42 0 76 -33 76 -75s-34 -76 -76 -76c-41 0 -76 34 -76 76s35 75 76 75zM190 -13c0 -110 -56 -183 -172 -183c-73 0 -114 16 -114 59c0 29 23 51 50 51c15 0 21 -6 43 -6c39 0 66 25 66 79v440c0 34 28 62 65 62c34 0 62 -28 62 -62v-440z" />
    <glyph glyph-name="k" unicode="k" horiz-adv-x="535" 
d="M477 58c0 -31 -26 -64 -63 -64c-20 0 -41 9 -53 27l-113 165l-58 -62v-67c0 -35 -28 -63 -64 -63c-35 0 -63 28 -63 63v554c0 34 28 62 65 62c34 0 62 -28 62 -62v-343l171 202c11 13 27 20 43 20c32 0 60 -28 60 -60c0 -14 -5 -27 -14 -38l-112 -128l127 -170
c8 -11 12 -24 12 -36z" />
    <glyph glyph-name="l" unicode="l" horiz-adv-x="253" 
d="M190 57c0 -35 -28 -63 -64 -63c-35 0 -63 28 -63 63v554c0 34 28 62 65 62c34 0 62 -28 62 -62v-554z" />
    <glyph glyph-name="m" unicode="m" horiz-adv-x="852" 
d="M790 57c0 -35 -28 -63 -65 -63c-35 0 -63 28 -63 63v248c0 45 -20 77 -72 77c-45 0 -82 -30 -100 -56v-269c0 -35 -28 -63 -65 -63c-35 0 -63 28 -63 63v248c0 45 -20 77 -72 77c-44 0 -81 -30 -100 -57v-268c0 -35 -28 -63 -64 -63c-35 0 -63 28 -63 63v370
c0 34 28 62 65 62c34 0 62 -28 62 -62v-7c20 29 84 75 158 75c71 0 116 -33 134 -88c28 44 92 88 166 88c89 0 142 -47 142 -146v-292z" />
    <glyph glyph-name="n" unicode="n" 
d="M516 57c0 -35 -28 -63 -64 -63c-35 0 -63 28 -63 63v235c0 67 -35 90 -89 90c-50 0 -89 -28 -110 -57v-268c0 -35 -28 -63 -64 -63c-35 0 -63 28 -63 63v370c0 34 28 62 65 62c34 0 62 -28 62 -62v-7c31 37 90 75 169 75c106 0 157 -60 157 -154v-284z" />
    <glyph glyph-name="o" unicode="o" horiz-adv-x="574" 
d="M543 242c0 -138 -96 -254 -256 -254c-159 0 -255 116 -255 254c0 137 96 253 255 253c160 0 256 -116 256 -253zM411 242c0 75 -45 140 -124 140s-123 -65 -123 -140c0 -76 44 -141 123 -141s124 65 124 141z" />
    <glyph glyph-name="p" unicode="p" horiz-adv-x="583" 
d="M553 242c0 -161 -90 -254 -214 -254c-57 0 -110 24 -149 74v-190c0 -34 -28 -62 -64 -62c-35 0 -63 28 -63 62v555c0 34 28 62 65 62c34 0 62 -28 62 -62v-5c37 47 90 73 149 73c124 0 214 -92 214 -253zM421 242c0 83 -49 140 -122 140c-41 0 -88 -24 -109 -55v-171
c21 -30 68 -55 109 -55c73 0 122 57 122 141z" />
    <glyph glyph-name="q" unicode="q" horiz-adv-x="583" 
d="M521 -127c0 -35 -28 -63 -65 -63c-35 0 -63 28 -63 63v189c-39 -50 -92 -74 -149 -74c-124 0 -214 93 -214 254s90 253 214 253c59 0 112 -26 149 -73v4c0 35 28 63 65 63c35 0 63 -28 63 -63v-553zM393 156v171c-21 31 -68 55 -109 55c-72 0 -122 -57 -122 -140
c0 -84 50 -141 122 -141c41 0 88 25 109 55z" />
    <glyph glyph-name="r" unicode="r" horiz-adv-x="360" 
d="M350 435c0 -38 -26 -60 -61 -65c-39 -5 -76 -21 -99 -51v-262c0 -35 -28 -63 -62 -63h-2c-35 0 -63 28 -63 63v370c0 34 28 62 65 62c34 0 62 -28 62 -62v-10c24 32 56 70 104 70c37 0 56 -23 56 -52z" />
    <glyph glyph-name="s" unicode="s" horiz-adv-x="477" 
d="M446 143c0 -88 -75 -155 -209 -155c-63 0 -164 21 -194 64c-6 8 -9 17 -9 27c0 30 26 53 53 53c9 0 18 -2 26 -7c38 -22 88 -39 130 -39c55 0 81 22 81 52c0 80 -287 15 -287 205c0 81 71 152 198 152c63 0 149 -20 176 -59c5 -7 8 -16 8 -25c0 -27 -24 -48 -50 -48
c-8 0 -17 2 -24 6c-31 18 -70 29 -109 29c-46 0 -76 -21 -76 -48c0 -72 286 -12 286 -207z" />
    <glyph glyph-name="t" unicode="t" horiz-adv-x="338" 
d="M327 46c0 -32 -19 -58 -102 -58c-89 0 -137 46 -137 132v252h-31c-30 0 -55 25 -55 57c0 29 25 54 55 54h31v75c0 35 28 63 65 63c35 0 63 -28 63 -63v-75h50c29 0 54 -25 54 -56c0 -30 -25 -55 -54 -55h-50v-218c0 -38 24 -53 44 -53h11c36 0 56 -24 56 -55z" />
    <glyph glyph-name="u" unicode="u" 
d="M516 57c0 -35 -28 -63 -64 -63c-35 0 -63 28 -63 63v4c-33 -37 -91 -73 -170 -73c-106 0 -156 58 -156 152v287c0 34 28 62 65 62c34 0 62 -28 62 -62v-237c0 -67 35 -89 89 -89c49 0 88 27 110 55v271c0 34 28 62 65 62c34 0 62 -28 62 -62v-370z" />
    <glyph glyph-name="v" unicode="v" horiz-adv-x="513" 
d="M491 425c0 -7 -1 -15 -4 -22l-141 -349c-15 -36 -50 -60 -88 -60h-2c-39 0 -75 24 -89 60l-141 349c-3 7 -5 15 -5 23c0 30 26 62 65 62c25 0 48 -15 57 -39l113 -302l113 301c9 25 33 40 58 40c39 0 64 -31 64 -63z" />
    <glyph glyph-name="w" unicode="w" horiz-adv-x="769" 
d="M750 428c0 -6 -1 -12 -3 -18l-108 -354c-11 -36 -46 -62 -83 -62h-2c-39 0 -73 25 -84 62l-85 273l-85 -273c-11 -36 -46 -62 -84 -62h-2c-38 0 -73 26 -84 62l-108 354c-2 6 -3 12 -3 18c0 31 26 61 64 61c27 0 53 -18 60 -45l79 -286l91 280c10 30 39 51 73 51
c31 0 60 -21 70 -51l91 -280l79 286c7 27 33 45 61 45c37 0 63 -29 63 -61z" />
    <glyph glyph-name="x" unicode="x" horiz-adv-x="504" 
d="M455 52c0 -28 -22 -58 -58 -58c-19 0 -37 8 -48 25l-97 144l-99 -145c-11 -16 -28 -24 -46 -24c-32 0 -59 27 -59 58c0 11 3 22 10 32l113 164l-103 151c-7 10 -10 21 -10 32c0 28 24 57 59 57c19 0 37 -9 49 -26l86 -128l84 127c11 17 30 27 50 27c34 0 59 -28 59 -57
c0 -11 -3 -22 -10 -32l-104 -151l114 -164c7 -10 10 -21 10 -32z" />
    <glyph glyph-name="y" unicode="y" horiz-adv-x="513" 
d="M491 427c0 -8 -1 -16 -4 -23l-195 -483c-34 -84 -95 -117 -166 -117c-44 0 -78 22 -78 57c0 30 24 56 60 56c5 0 11 0 16 1c21 4 39 14 48 34l18 41l-165 412c-3 7 -4 14 -4 21c0 31 25 63 64 63c25 0 49 -16 59 -42l112 -300l112 300c9 25 34 42 61 42
c38 0 62 -31 62 -62z" />
    <glyph glyph-name="z" unicode="z" horiz-adv-x="479" 
d="M442 57c0 -32 -25 -57 -54 -57h-289c-33 0 -63 28 -63 65c0 14 5 28 14 40l210 267h-169c-30 0 -55 25 -55 57c0 29 25 54 55 54h285c30 0 61 -26 61 -62c0 -15 -4 -29 -13 -40l-213 -270h177c29 0 54 -25 54 -54z" />
    <glyph glyph-name="braceleft" unicode="{" horiz-adv-x="288" 
d="M277 -148c0 -23 -15 -42 -49 -42h-18c-80 0 -155 60 -155 159v172c0 24 -6 47 -24 58c-23 14 -34 22 -34 45s11 31 34 45c18 11 24 34 24 58v171c0 99 75 160 155 160h18c34 0 49 -19 49 -42c0 -24 -15 -43 -49 -43h-18c-34 0 -62 -29 -62 -74v-185
c0 -42 -13 -76 -46 -90c33 -14 46 -48 46 -90v-184c0 -45 28 -75 62 -75h18c34 0 49 -19 49 -43z" />
    <glyph glyph-name="bar" unicode="|" horiz-adv-x="216" 
d="M151 16c0 -23 -19 -42 -43 -42c-23 0 -42 19 -42 42v636c0 22 19 41 44 41c22 0 41 -19 41 -41v-636z" />
    <glyph glyph-name="braceright" unicode="}" horiz-adv-x="288" 
d="M291 244c0 -23 -11 -31 -34 -45c-18 -11 -24 -34 -24 -58v-172c0 -99 -75 -159 -155 -159h-18c-34 0 -49 19 -49 42c0 24 15 43 49 43h18c34 0 62 30 62 75v184c0 42 13 76 46 90c-33 14 -46 48 -46 90v185c0 45 -28 74 -62 74h-18c-34 0 -49 19 -49 43c0 23 15 42 49 42
h18c80 0 155 -61 155 -160v-171c0 -24 6 -47 24 -58c23 -14 34 -22 34 -45z" />
    <glyph glyph-name="asciitilde" unicode="~" horiz-adv-x="510" 
d="M480 615c-13 -106 -45 -203 -145 -203c-130 0 -100 176 -160 176c-33 0 -49 -63 -58 -133c-3 -22 -21 -38 -43 -38c-31 0 -44 23 -44 48c14 104 47 201 145 201c130 0 101 -177 160 -177c34 0 51 63 59 136c2 21 21 37 43 37c28 0 43 -22 43 -47z" />
    <glyph glyph-name="uni00A0" unicode="&#xa0;" horiz-adv-x="256" 
 />
    <glyph glyph-name="exclamdown" unicode="&#xa1;" horiz-adv-x="256" 
d="M207 414c0 -44 -36 -81 -80 -81s-81 37 -81 81c0 43 37 80 81 80s80 -37 80 -80zM201 -116c0 -41 -32 -73 -75 -73c-41 0 -72 32 -72 73c0 20 10 223 15 334c1 31 26 55 59 55c31 0 56 -24 57 -55c5 -111 16 -314 16 -334z" />
    <glyph glyph-name="cent" unicode="&#xa2;" horiz-adv-x="499" 
d="M461 77c0 -8 -2 -15 -5 -22c-17 -33 -71 -56 -123 -64v-46c0 -25 -20 -45 -45 -45c-27 0 -47 20 -47 45v47c-124 19 -209 117 -209 250c0 132 85 230 209 249v29c0 25 20 45 47 45c25 0 45 -20 45 -45v-28c54 -8 106 -32 122 -65c3 -7 5 -14 5 -21c0 -34 -32 -54 -60 -54
c-6 0 -11 1 -16 2c-18 6 -33 17 -51 22v-269c17 5 33 17 51 22c5 2 11 3 16 3c31 0 61 -22 61 -55zM241 111v261c-48 -20 -78 -67 -78 -130s30 -111 78 -131z" />
    <glyph glyph-name="sterling" unicode="&#xa3;" horiz-adv-x="550" 
d="M524 60c0 -54 -59 -73 -133 -73c-87 0 -120 44 -181 44c-23 0 -52 -8 -81 -21c-8 -4 -17 -5 -25 -5c-30 0 -53 24 -53 53c0 18 9 37 29 50c47 31 75 68 75 107c0 19 -5 37 -12 54h-86c-22 0 -40 18 -40 42c0 21 18 39 40 39h34c-25 34 -46 71 -46 120
c0 127 124 207 243 207c90 0 181 -33 202 -85c2 -7 4 -14 4 -22c0 -37 -29 -60 -62 -60c-8 0 -17 1 -25 4c-43 17 -58 47 -102 47c-59 0 -105 -37 -105 -94c0 -50 26 -81 49 -117h111c21 0 39 -18 39 -41c0 -22 -18 -40 -39 -40h-80c0 -6 1 -13 1 -19
c0 -47 -28 -89 -64 -111c15 5 34 7 49 7c58 0 81 -33 131 -33c22 0 43 10 63 10c32 0 64 -25 64 -63z" />
    <glyph glyph-name="currency" unicode="&#xa4;" horiz-adv-x="623" 
d="M582 116c0 -27 -24 -53 -54 -53c-14 0 -27 5 -37 15l-43 42c-38 -22 -84 -34 -137 -34c-54 0 -100 13 -138 35l-41 -42c-10 -10 -25 -15 -38 -15c-27 0 -53 23 -53 52c0 14 5 27 15 37l41 41c-26 40 -40 88 -40 139s14 99 40 139l-42 43c-10 10 -15 22 -15 36
c0 26 22 53 53 53c14 0 28 -5 38 -15l44 -44c37 21 83 34 136 34s98 -13 136 -34l44 44c10 10 23 15 37 15c28 0 54 -23 54 -53c0 -14 -5 -27 -15 -37l-41 -41c26 -40 41 -89 41 -140c0 -52 -15 -101 -42 -141l41 -40c10 -10 16 -23 16 -36zM439 333c0 71 -45 132 -128 132
c-81 0 -127 -61 -127 -132c0 -72 46 -133 127 -133c83 0 128 61 128 133z" />
    <glyph glyph-name="yen" unicode="&#xa5;" horiz-adv-x="645" 
d="M629 153c0 -21 -17 -38 -38 -38h-197v-51c0 -38 -32 -70 -72 -70c-38 0 -70 32 -70 70v51h-196c-21 0 -38 17 -38 40c0 21 17 38 38 38h196v80h-195c-22 0 -39 17 -39 41c0 21 17 38 39 38h143l-143 221c-7 10 -10 22 -10 34c0 31 27 65 67 65c23 0 46 -12 59 -32
l150 -241l147 240c13 21 35 33 59 33c41 0 68 -32 68 -65c0 -12 -3 -24 -10 -35l-142 -220h146c21 0 38 -17 38 -40c0 -22 -17 -39 -38 -39h-197v-80h197c21 0 38 -17 38 -40z" />
    <glyph glyph-name="brokenbar" unicode="&#xa6;" horiz-adv-x="216" 
d="M151 16c0 -23 -19 -42 -43 -42c-23 0 -42 19 -42 42v245c0 22 19 41 44 41c22 0 41 -19 41 -41v-245zM151 407c0 -23 -19 -42 -43 -42c-23 0 -42 19 -42 42v245c0 22 19 41 44 41c22 0 41 -19 41 -41v-245z" />
    <glyph glyph-name="section" unicode="&#xa7;" horiz-adv-x="484" 
d="M446 75c0 -99 -88 -156 -209 -156c-74 0 -163 26 -192 65c-7 8 -10 17 -10 26c0 27 22 49 46 49c10 0 19 -2 27 -8c35 -24 82 -44 129 -44c52 0 87 20 87 58c0 95 -287 30 -287 216c0 68 53 109 98 125c-63 24 -98 66 -98 126c0 82 80 145 198 145c93 0 184 -33 184 -80
c0 -26 -21 -46 -46 -46c-8 0 -17 2 -24 7c-33 20 -72 30 -109 30c-49 0 -80 -20 -80 -54c0 -85 286 -20 286 -208c0 -55 -29 -101 -83 -128c48 -21 83 -57 83 -123zM321 302c0 43 -40 62 -83 72c-61 -14 -78 -40 -78 -74c0 -47 52 -61 103 -72c39 17 58 39 58 74z" />
    <glyph glyph-name="dieresis" unicode="&#xa8;" horiz-adv-x="295" 
d="M109 611c0 -38 -30 -68 -67 -68c-38 0 -68 30 -68 68c0 37 30 67 68 67c37 0 67 -30 67 -67zM321 611c0 -38 -31 -68 -68 -68s-68 30 -68 68c0 37 31 67 68 67s68 -30 68 -67z" />
    <glyph glyph-name="copyright" unicode="&#xa9;" horiz-adv-x="778" 
d="M734 334c0 -190 -154 -345 -345 -345c-190 0 -345 155 -345 345c0 191 155 345 345 345c191 0 345 -154 345 -345zM698 334c0 170 -139 309 -309 309c-169 0 -309 -139 -309 -309c0 -169 140 -309 309 -309c170 0 309 140 309 309zM535 190c0 -5 -2 -10 -6 -14
c-35 -33 -81 -53 -135 -53c-115 0 -208 90 -208 212s93 210 208 210c54 0 100 -19 134 -51c4 -4 6 -9 6 -14c0 -11 -9 -22 -22 -22c-6 0 -11 2 -15 6c-26 25 -64 41 -103 41c-88 0 -162 -69 -162 -170c0 -99 74 -172 162 -172c40 0 78 16 105 42c3 4 9 6 14 6
c12 0 22 -9 22 -21z" />
    <glyph glyph-name="ordfeminine" unicode="&#xaa;" horiz-adv-x="385" 
d="M335 365c0 -25 -20 -45 -45 -45c-23 -4 -47 13 -47 37v1c-18 -20 -51 -40 -102 -40c-53 0 -110 34 -110 104c0 69 57 101 110 101c51 0 84 -18 102 -38v40c0 33 -28 54 -69 54c-22 0 -48 -9 -71 -24c-5 -3 -11 -5 -16 -5c-16 0 -35 14 -35 35c0 6 2 12 5 17
c21 33 97 46 133 46c74 0 145 -28 145 -125v-158zM243 404v36c-13 17 -39 27 -64 27c-30 0 -57 -16 -57 -45c0 -31 27 -47 57 -47c25 0 51 11 64 29z" />
    <glyph glyph-name="guillemotleft" unicode="&#xab;" horiz-adv-x="527" 
d="M257 102c0 -21 -17 -45 -43 -45c-11 0 -23 5 -31 14l-100 112c-15 17 -22 38 -22 59s8 43 23 60l99 110c8 9 19 13 30 13c22 0 44 -18 44 -43c0 -10 -3 -20 -10 -28l-100 -111l100 -112c7 -8 10 -18 10 -29zM447 102c0 -21 -17 -45 -43 -45c-11 0 -23 5 -31 14l-100 112
c-15 17 -22 38 -22 59s8 43 23 60l99 110c8 9 19 13 30 13c22 0 44 -18 44 -43c0 -10 -3 -20 -10 -28l-100 -111l100 -112c7 -8 10 -18 10 -29z" />
    <glyph glyph-name="logicalnot" unicode="&#xac;" horiz-adv-x="515" 
d="M475 235c0 -22 -18 -40 -41 -40c-22 0 -40 18 -40 40v153h-332c-21 0 -39 18 -39 41c0 21 18 39 39 39h333c44 0 80 -36 80 -80v-153z" />
    <glyph glyph-name="uni00AD" unicode="&#xad;" horiz-adv-x="300" 
d="M223 296c29 0 53 -24 53 -53c0 -31 -24 -55 -53 -55h-146c-29 0 -53 24 -53 55c0 29 24 53 53 53h146z" />
    <glyph glyph-name="registered" unicode="&#xae;" horiz-adv-x="494" 
d="M459 465c0 -117 -94 -212 -212 -212c-117 0 -212 95 -212 212c0 118 95 212 212 212c118 0 212 -94 212 -212zM427 465c0 100 -81 180 -180 180c-100 0 -180 -80 -180 -180c0 -99 80 -180 180 -180c99 0 180 81 180 180zM344 512c0 -54 -48 -72 -62 -72l50 -73
c3 -4 4 -8 4 -12c0 -10 -9 -17 -18 -17c-6 0 -12 3 -16 10l-60 91h-42v-86c0 -9 -7 -16 -18 -16c-9 0 -16 7 -16 16v201c0 18 14 32 33 32h66c41 0 79 -29 79 -74zM309 512c0 27 -23 44 -44 44h-65v-86h65c21 0 44 17 44 42z" />
    <glyph glyph-name="macron" unicode="&#xaf;" horiz-adv-x="363" 
d="M363 599c0 -21 -16 -37 -35 -37h-293c-19 0 -35 16 -35 37c0 19 16 35 35 35h293c19 0 35 -16 35 -35z" />
    <glyph glyph-name="degree" unicode="&#xb0;" horiz-adv-x="311" 
d="M290 541c0 -75 -60 -134 -135 -134s-135 59 -135 134s60 136 135 136s135 -61 135 -136zM221 541c0 37 -30 67 -66 67c-37 0 -65 -30 -65 -67c0 -36 28 -65 65 -65c36 0 66 29 66 65z" />
    <glyph glyph-name="plusminus" unicode="&#xb1;" horiz-adv-x="504" 
d="M481 366c0 -23 -17 -40 -38 -40h-147v-167c0 -24 -19 -43 -44 -43c-24 0 -43 19 -43 43v167h-148c-21 0 -38 17 -38 40c0 21 17 38 38 38h148v161c0 23 19 42 45 42c23 0 42 -19 42 -42v-161h147c21 0 38 -17 38 -38zM481 40c0 -23 -17 -40 -38 -40h-382
c-21 0 -38 17 -38 40c0 21 17 38 38 38h382c21 0 38 -17 38 -38z" />
    <glyph glyph-name="twosuperior" unicode="&#xb2;" horiz-adv-x="397" 
d="M366 461c0 -23 -17 -40 -37 -40h-251c-21 0 -38 17 -38 41c0 15 7 29 20 38c161 111 202 153 202 195c0 37 -30 55 -68 55c-31 0 -61 -11 -85 -28c-7 -5 -16 -8 -25 -8c-20 0 -38 15 -38 38c0 8 2 15 7 22c22 36 100 53 143 53c92 0 161 -44 161 -125
c0 -65 -56 -122 -172 -204h144c20 0 37 -17 37 -37z" />
    <glyph glyph-name="threesuperior" unicode="&#xb3;" horiz-adv-x="397" 
d="M363 532c0 -70 -66 -118 -166 -118c-70 0 -157 28 -157 72c0 23 20 40 41 40c8 0 15 -2 22 -6c29 -20 63 -29 91 -29c47 0 73 19 73 47c0 39 -37 49 -88 49h-15c-19 0 -36 11 -36 37c0 25 17 37 36 37h14c53 0 82 11 82 45c0 30 -31 44 -73 44c-28 0 -58 -8 -83 -26
c-7 -5 -15 -7 -23 -7c-19 0 -35 16 -35 37c0 7 2 13 6 20c20 29 79 53 145 53c102 0 159 -44 159 -109c0 -49 -42 -83 -89 -91c41 -3 96 -35 96 -95z" />
    <glyph glyph-name="acute" unicode="&#xb4;" horiz-adv-x="251" 
d="M196 667c0 -10 -4 -20 -12 -27l-93 -82c-6 -5 -13 -8 -21 -8c-16 0 -33 14 -33 33c0 8 3 16 9 22l83 89c7 8 17 12 27 12c20 0 40 -17 40 -39z" />
    <glyph glyph-name="mu" unicode="&#xb5;" horiz-adv-x="593" 
d="M580 47c0 -34 -20 -60 -62 -60c-45 0 -104 20 -123 87c-28 -49 -77 -86 -135 -86c-36 0 -59 13 -70 28v-144c0 -34 -28 -62 -64 -62c-35 0 -63 28 -63 62v555c0 34 28 62 65 62c34 0 62 -28 62 -62v-237c0 -65 35 -90 90 -90c48 0 87 28 109 56v271c0 34 28 62 65 62
c34 0 62 -28 62 -62v-282c0 -54 64 -38 64 -98z" />
    <glyph glyph-name="paragraph" unicode="&#xb6;" horiz-adv-x="449" 
d="M403 -76c0 -16 -14 -30 -32 -30c-17 0 -31 14 -31 30v681h-78v-681c0 -16 -14 -30 -32 -30c-17 0 -31 14 -31 30v399c-95 0 -172 77 -172 172s77 172 172 172h142c34 0 62 -28 62 -62v-681z" />
    <glyph glyph-name="periodcentered" unicode="&#xb7;" horiz-adv-x="256" 
d="M209 244c0 -43 -37 -80 -81 -80s-81 37 -81 80c0 44 37 81 81 81s81 -37 81 -81z" />
    <glyph glyph-name="cedilla" unicode="&#xb8;" horiz-adv-x="221" 
d="M221 -111c0 -53 -51 -85 -111 -85c-47 0 -107 15 -107 46c0 16 13 28 28 28c4 0 8 -1 12 -3c21 -11 44 -17 63 -17c27 0 52 11 52 33c0 16 -10 26 -29 26c-16 0 -24 -12 -40 -12c-20 0 -33 16 -33 31c0 4 1 7 2 11l21 56c6 17 21 29 37 29c13 0 24 -9 24 -22
c0 -5 -1 -10 -3 -15l-19 -46c10 6 23 10 36 10c37 0 67 -28 67 -70z" />
    <glyph glyph-name="onesuperior" unicode="&#xb9;" horiz-adv-x="286" 
d="M226 463c0 -27 -21 -48 -49 -48c-27 0 -48 21 -48 48v235l-45 -46c-7 -7 -17 -11 -26 -11c-20 0 -40 17 -40 40c0 10 4 20 12 28l102 101c10 10 24 16 39 16c30 0 55 -23 55 -52v-311z" />
    <glyph glyph-name="ordmasculine" unicode="&#xba;" horiz-adv-x="405" 
d="M375 483c0 -89 -65 -165 -173 -165c-106 0 -172 76 -172 165s66 165 172 165c108 0 173 -76 173 -165zM280 483c0 55 -29 89 -78 89s-77 -34 -77 -89s28 -91 77 -91s78 36 78 91z" />
    <glyph glyph-name="guillemotright" unicode="&#xbb;" horiz-adv-x="527" 
d="M276 242c0 -21 -7 -42 -22 -59l-100 -112c-8 -9 -19 -14 -31 -14c-22 0 -44 20 -44 45c0 10 3 20 11 29l100 112l-100 111c-7 8 -10 17 -10 27c0 22 18 44 43 44c12 0 23 -4 31 -13l99 -110c15 -17 23 -39 23 -60zM466 242c0 -21 -7 -42 -22 -59l-100 -112
c-8 -9 -19 -14 -31 -14c-22 0 -44 20 -44 45c0 10 3 20 11 29l100 112l-100 111c-7 8 -10 17 -10 27c0 22 18 44 43 44c12 0 23 -4 31 -13l99 -110c15 -17 23 -39 23 -60z" />
    <glyph glyph-name="onequarter" unicode="&#xbc;" horiz-adv-x="833" 
d="M814 125c0 -22 -17 -39 -36 -39h-23v-45c0 -26 -21 -47 -48 -47c-26 0 -47 21 -47 47v45h-163c-21 0 -39 18 -39 43c0 9 2 17 7 25l136 213c15 24 42 39 71 39c46 0 83 -36 83 -79v-166h23c19 0 36 -17 36 -36zM618 641c0 -5 -2 -11 -5 -16l-394 -617
c-6 -9 -16 -14 -26 -14c-18 0 -33 14 -33 31c0 6 2 12 5 17l394 617c6 9 16 14 26 14c17 0 33 -15 33 -32zM226 309c0 -27 -21 -48 -49 -48c-27 0 -48 21 -48 48v235l-45 -46c-7 -7 -17 -11 -26 -11c-20 0 -40 17 -40 40c0 10 4 20 12 28l102 101c10 10 24 16 39 16
c30 0 55 -23 55 -52v-311zM660 161v158l-101 -158h101z" />
    <glyph glyph-name="onehalf" unicode="&#xbd;" horiz-adv-x="867" 
d="M835 40c0 -23 -17 -40 -37 -40h-251c-21 0 -38 17 -38 41c0 15 7 29 20 38c161 111 202 153 202 195c0 37 -30 55 -68 55c-31 0 -61 -11 -85 -28c-7 -5 -16 -8 -25 -8c-20 0 -38 15 -38 38c0 51 98 75 150 75c92 0 161 -44 161 -125c0 -65 -56 -122 -172 -204h144
c20 0 37 -17 37 -37zM618 641c0 -5 -2 -11 -5 -16l-394 -617c-6 -9 -16 -14 -26 -14c-18 0 -33 14 -33 31c0 6 2 12 5 17l394 617c6 9 16 14 26 14c17 0 33 -15 33 -32zM226 309c0 -27 -21 -48 -49 -48c-27 0 -48 21 -48 48v235l-45 -46c-7 -7 -17 -11 -26 -11
c-20 0 -40 17 -40 40c0 10 4 20 12 28l102 101c10 10 24 16 39 16c30 0 55 -23 55 -52v-311z" />
    <glyph glyph-name="threequarters" unicode="&#xbe;" horiz-adv-x="921" 
d="M902 125c0 -22 -17 -39 -36 -39h-23v-45c0 -26 -21 -47 -48 -47c-26 0 -47 21 -47 47v45h-163c-21 0 -39 18 -39 43c0 9 2 17 7 25l136 213c15 24 42 39 71 39c46 0 83 -36 83 -79v-166h23c19 0 36 -17 36 -36zM705 641c0 -5 -2 -11 -5 -16l-394 -617
c-6 -9 -16 -14 -26 -14c-18 0 -33 14 -33 31c0 6 2 12 5 17l394 617c6 9 16 14 26 14c17 0 33 -15 33 -32zM363 378c0 -70 -66 -118 -166 -118c-70 0 -157 28 -157 72c0 23 20 40 41 40c8 0 15 -2 22 -6c29 -20 63 -29 91 -29c47 0 73 19 73 47c0 39 -37 49 -88 49h-15
c-19 0 -36 11 -36 37c0 25 17 37 36 37h14c53 0 82 11 82 45c0 30 -31 44 -73 44c-28 0 -58 -8 -83 -26c-7 -5 -15 -7 -23 -7c-19 0 -35 16 -35 37c0 38 71 73 151 73c102 0 159 -44 159 -109c0 -49 -42 -83 -89 -91c41 -3 96 -35 96 -95zM748 161v158l-101 -158h101z" />
    <glyph glyph-name="questiondown" unicode="&#xbf;" horiz-adv-x="398" 
d="M311 413c0 -44 -37 -81 -81 -81s-81 37 -81 81s37 81 81 81s81 -37 81 -81zM426 -88c0 -72 -125 -106 -198 -106c-129 0 -208 65 -208 158c0 146 167 156 167 240c0 13 -3 17 -3 26c0 27 19 54 56 54c38 0 71 -32 71 -93c0 -119 -146 -133 -146 -202c0 -31 23 -57 78 -57
c49 0 82 38 124 38c32 0 59 -22 59 -58z" />
    <glyph glyph-name="Agrave" unicode="&#xc0;" horiz-adv-x="684" 
d="M656 70c0 -37 -30 -76 -76 -76c-30 0 -58 18 -69 47l-26 72h-286l-27 -72c-11 -29 -39 -47 -70 -47c-45 0 -75 38 -75 76c0 9 1 18 5 27l195 501c17 45 62 75 109 75c51 4 102 -26 121 -75l194 -501c3 -9 5 -18 5 -27zM446 238l-104 287l-104 -287h208zM369 750
c0 -17 -15 -33 -33 -33c-8 0 -15 3 -21 8l-93 82c-8 7 -12 17 -12 27c0 20 18 39 39 39c10 0 20 -4 28 -12l83 -89c6 -6 9 -14 9 -22z" />
    <glyph glyph-name="Aacute" unicode="&#xc1;" horiz-adv-x="684" 
d="M656 70c0 -37 -30 -76 -76 -76c-30 0 -58 18 -69 47l-26 72h-286l-27 -72c-11 -29 -39 -47 -70 -47c-45 0 -75 38 -75 76c0 9 1 18 5 27l195 501c17 45 62 75 109 75c51 4 102 -26 121 -75l194 -501c3 -9 5 -18 5 -27zM446 238l-104 287l-104 -287h208zM475 834
c0 -10 -4 -20 -12 -27l-93 -82c-6 -5 -13 -8 -21 -8c-16 0 -33 14 -33 33c0 8 3 16 9 22l83 89c7 8 17 12 27 12c20 0 40 -17 40 -39z" />
    <glyph glyph-name="Acircumflex" unicode="&#xc2;" horiz-adv-x="684" 
d="M656 70c0 -37 -30 -76 -76 -76c-30 0 -58 18 -69 47l-26 72h-286l-27 -72c-11 -29 -39 -47 -70 -47c-45 0 -75 38 -75 76c0 9 1 18 5 27l195 501c17 45 62 75 109 75c51 4 102 -26 121 -75l194 -501c3 -9 5 -18 5 -27zM446 238l-104 287l-104 -287h208zM469 750
c0 -15 -13 -34 -34 -34c-10 0 -19 4 -25 13l-68 83l-67 -83c-7 -8 -16 -12 -25 -12c-18 0 -35 14 -35 32c0 6 2 13 6 18l40 62c17 27 48 44 82 44c32 0 62 -17 80 -44l41 -62c4 -5 5 -11 5 -17z" />
    <glyph glyph-name="Atilde" unicode="&#xc3;" horiz-adv-x="684" 
d="M656 70c0 -37 -30 -76 -76 -76c-30 0 -58 18 -69 47l-26 72h-286l-27 -72c-11 -29 -39 -47 -70 -47c-45 0 -75 38 -75 76c0 9 1 18 5 27l195 501c17 45 62 75 109 75c51 4 102 -26 121 -75l194 -501c3 -9 5 -18 5 -27zM446 238l-104 287l-104 -287h208zM504 829
c0 -32 -21 -108 -105 -108c-68 0 -79 68 -117 68c-15 0 -27 -10 -33 -36c-4 -18 -21 -32 -40 -32c-17 0 -28 15 -28 32c0 32 22 108 106 108c66 0 78 -67 116 -67c15 0 27 10 33 35c4 18 21 32 39 32s29 -15 29 -32z" />
    <glyph glyph-name="Adieresis" unicode="&#xc4;" horiz-adv-x="684" 
d="M656 70c0 -37 -30 -76 -76 -76c-30 0 -58 18 -69 47l-26 72h-286l-27 -72c-11 -29 -39 -47 -70 -47c-45 0 -75 38 -75 76c0 9 1 18 5 27l195 501c17 45 62 75 109 75c51 4 102 -26 121 -75l194 -501c3 -9 5 -18 5 -27zM446 238l-104 287l-104 -287h208zM304 778
c0 -38 -30 -68 -67 -68c-38 0 -68 30 -68 68c0 37 30 67 68 67c37 0 67 -30 67 -67zM516 778c0 -38 -31 -68 -68 -68s-68 30 -68 68c0 37 31 67 68 67s68 -30 68 -67z" />
    <glyph glyph-name="Aring" unicode="&#xc5;" horiz-adv-x="684" 
d="M656 70c0 -37 -30 -76 -76 -76c-30 0 -58 18 -69 47l-26 72h-286l-27 -72c-11 -29 -39 -47 -70 -47c-45 0 -75 38 -75 76c0 9 1 18 5 27l195 501c17 45 62 75 109 75c51 4 102 -26 121 -75l194 -501c3 -9 5 -18 5 -27zM446 238l-104 287l-104 -287h208zM447 793
c0 -58 -46 -105 -104 -105c-57 0 -105 47 -105 105c0 57 48 106 105 106c58 0 104 -49 104 -106zM389 793c0 26 -20 47 -46 47c-25 0 -47 -21 -47 -47c0 -25 22 -47 47 -47c26 0 46 22 46 47z" />
    <glyph glyph-name="AE" unicode="&#xc6;" horiz-adv-x="968" 
d="M932 64c0 -36 -28 -64 -61 -64h-337c-44 0 -80 36 -80 80v33h-235l-51 -88c-12 -21 -34 -32 -57 -32c-40 0 -69 34 -69 70c0 13 3 25 10 37l303 499c26 42 74 68 122 68h394c33 0 61 -28 61 -63c0 -34 -28 -62 -61 -62h-274v-141h267c33 0 61 -28 61 -63
c0 -34 -28 -62 -61 -62h-267v-151h274c33 0 61 -28 61 -61zM454 238v287l-167 -287h167z" />
    <glyph glyph-name="Ccedilla" unicode="&#xc7;" horiz-adv-x="687" 
d="M389 678c115 0 192 -49 243 -110c9 -11 14 -26 14 -39c0 -36 -31 -64 -68 -64c-19 0 -38 8 -52 23c-38 40 -87 64 -137 64c-121 0 -209 -93 -209 -219s88 -219 209 -219c50 0 100 22 137 63c14 15 34 23 54 23c37 0 65 -29 65 -62c0 -14 -4 -28 -14 -39
c-48 -58 -119 -105 -225 -110l-16 -40c10 6 23 10 36 10c37 0 67 -28 67 -70c0 -53 -51 -85 -111 -85c-47 0 -107 15 -107 46c0 16 13 28 28 28c4 0 8 -1 12 -3c21 -11 44 -17 63 -17c27 0 52 11 52 33c0 16 -10 26 -29 26c-16 0 -24 -12 -40 -12c-20 0 -33 16 -33 31
c0 4 1 7 2 11l16 44c-179 18 -312 152 -312 342c0 205 155 345 355 345z" />
    <glyph glyph-name="Egrave" unicode="&#xc8;" horiz-adv-x="583" 
d="M544 64c0 -36 -28 -64 -61 -64h-337c-44 0 -80 36 -80 80v507c0 44 36 80 80 80h337c33 0 61 -28 61 -63c0 -34 -28 -62 -61 -62h-275v-141h268c33 0 61 -28 61 -63c0 -34 -28 -62 -61 -62h-268v-151h275c33 0 61 -28 61 -61zM327 750c0 -17 -15 -33 -33 -33
c-8 0 -15 3 -21 8l-93 82c-8 7 -12 17 -12 27c0 20 18 39 39 39c10 0 20 -4 28 -12l83 -89c6 -6 9 -14 9 -22z" />
    <glyph glyph-name="Eacute" unicode="&#xc9;" horiz-adv-x="583" 
d="M544 64c0 -36 -28 -64 -61 -64h-337c-44 0 -80 36 -80 80v507c0 44 36 80 80 80h337c33 0 61 -28 61 -63c0 -34 -28 -62 -61 -62h-275v-141h268c33 0 61 -28 61 -63c0 -34 -28 -62 -61 -62h-268v-151h275c33 0 61 -28 61 -61zM434 834c0 -10 -4 -20 -12 -27l-93 -82
c-6 -5 -13 -8 -21 -8c-16 0 -33 14 -33 33c0 8 3 16 9 22l83 89c7 8 17 12 27 12c20 0 40 -17 40 -39z" />
    <glyph glyph-name="Ecircumflex" unicode="&#xca;" horiz-adv-x="583" 
d="M544 64c0 -36 -28 -64 -61 -64h-337c-44 0 -80 36 -80 80v507c0 44 36 80 80 80h337c33 0 61 -28 61 -63c0 -34 -28 -62 -61 -62h-275v-141h268c33 0 61 -28 61 -63c0 -34 -28 -62 -61 -62h-268v-151h275c33 0 61 -28 61 -61zM428 750c0 -15 -13 -34 -34 -34
c-10 0 -19 4 -25 13l-68 83l-67 -83c-7 -8 -16 -12 -25 -12c-18 0 -35 14 -35 32c0 6 2 13 6 18l40 62c17 27 48 44 82 44c32 0 62 -17 80 -44l41 -62c4 -5 5 -11 5 -17z" />
    <glyph glyph-name="Edieresis" unicode="&#xcb;" horiz-adv-x="583" 
d="M544 64c0 -36 -28 -64 -61 -64h-337c-44 0 -80 36 -80 80v507c0 44 36 80 80 80h337c33 0 61 -28 61 -63c0 -34 -28 -62 -61 -62h-275v-141h268c33 0 61 -28 61 -63c0 -34 -28 -62 -61 -62h-268v-151h275c33 0 61 -28 61 -61zM264 778c0 -38 -30 -68 -67 -68
c-38 0 -68 30 -68 68c0 37 30 67 68 67c37 0 67 -30 67 -67zM476 778c0 -38 -31 -68 -68 -68s-68 30 -68 68c0 37 31 67 68 67s68 -30 68 -67z" />
    <glyph glyph-name="Igrave" unicode="&#xcc;" horiz-adv-x="274" 
d="M208 64c0 -38 -32 -70 -72 -70c-38 0 -70 32 -70 70v539c0 38 32 70 72 70c38 0 70 -32 70 -70v-539zM165 750c0 -17 -15 -33 -33 -33c-8 0 -15 3 -21 8l-93 82c-8 7 -12 17 -12 27c0 20 18 39 39 39c10 0 20 -4 28 -12l83 -89c6 -6 9 -14 9 -22z" />
    <glyph glyph-name="Iacute" unicode="&#xcd;" horiz-adv-x="274" 
d="M208 64c0 -38 -32 -70 -72 -70c-38 0 -70 32 -70 70v539c0 38 32 70 72 70c38 0 70 -32 70 -70v-539zM271 834c0 -10 -4 -20 -12 -27l-93 -82c-6 -5 -13 -8 -21 -8c-16 0 -33 14 -33 33c0 8 3 16 9 22l83 89c7 8 17 12 27 12c20 0 40 -17 40 -39z" />
    <glyph glyph-name="Icircumflex" unicode="&#xce;" horiz-adv-x="274" 
d="M208 64c0 -38 -32 -70 -72 -70c-38 0 -70 32 -70 70v539c0 38 32 70 72 70c38 0 70 -32 70 -70v-539zM264 750c0 -15 -13 -34 -34 -34c-10 0 -19 4 -25 13l-68 83l-67 -83c-7 -8 -16 -12 -25 -12c-18 0 -35 14 -35 32c0 6 2 13 6 18l40 62c17 27 48 44 82 44
c32 0 62 -17 80 -44l41 -62c4 -5 5 -11 5 -17z" />
    <glyph glyph-name="Idieresis" unicode="&#xcf;" horiz-adv-x="274" 
d="M208 64c0 -38 -32 -70 -72 -70c-38 0 -70 32 -70 70v539c0 38 32 70 72 70c38 0 70 -32 70 -70v-539zM100 778c0 -38 -30 -68 -67 -68c-38 0 -68 30 -68 68c0 37 30 67 68 67c37 0 67 -30 67 -67zM312 778c0 -38 -31 -68 -68 -68s-68 30 -68 68c0 37 31 67 68 67
s68 -30 68 -67z" />
    <glyph glyph-name="Eth" unicode="&#xd0;" horiz-adv-x="742" 
d="M708 333c0 -201 -145 -333 -354 -333h-183c-44 0 -80 36 -80 80v197h-37c-29 0 -52 23 -52 54c0 28 23 51 52 51h37v205c0 44 36 80 80 80h183c209 0 354 -133 354 -334zM563 333c0 118 -72 209 -209 209h-121v-160h104c28 0 51 -23 51 -53c0 -29 -23 -52 -51 -52h-104
v-152h121c132 0 209 95 209 208z" />
    <glyph glyph-name="Ntilde" unicode="&#xd1;" horiz-adv-x="729" 
d="M663 80c0 -45 -37 -86 -88 -86c-27 0 -54 13 -71 36l-296 405v-371c0 -38 -32 -70 -72 -70c-38 0 -70 32 -70 70v518c0 47 40 91 93 91c30 0 60 -14 78 -39l284 -386v355c0 38 32 70 72 70c38 0 70 -32 70 -70v-523zM525 829c0 -32 -21 -108 -105 -108
c-68 0 -79 68 -117 68c-15 0 -27 -10 -33 -36c-4 -18 -21 -32 -40 -32c-17 0 -28 15 -28 32c0 32 22 108 106 108c66 0 78 -67 116 -67c15 0 27 10 33 35c4 18 21 32 39 32s29 -15 29 -32z" />
    <glyph glyph-name="Ograve" unicode="&#xd2;" horiz-adv-x="765" 
d="M731 333c0 -201 -147 -345 -349 -345c-201 0 -348 144 -348 345s147 345 348 345c202 0 349 -144 349 -345zM585 333c0 125 -80 219 -203 219s-202 -94 -202 -219c0 -124 79 -219 202 -219s203 95 203 219zM410 750c0 -17 -15 -33 -33 -33c-8 0 -15 3 -21 8l-93 82
c-8 7 -12 17 -12 27c0 20 18 39 39 39c10 0 20 -4 28 -12l83 -89c6 -6 9 -14 9 -22z" />
    <glyph glyph-name="Oacute" unicode="&#xd3;" horiz-adv-x="765" 
d="M731 333c0 -201 -147 -345 -349 -345c-201 0 -348 144 -348 345s147 345 348 345c202 0 349 -144 349 -345zM585 333c0 125 -80 219 -203 219s-202 -94 -202 -219c0 -124 79 -219 202 -219s203 95 203 219zM515 834c0 -10 -4 -20 -12 -27l-93 -82c-6 -5 -13 -8 -21 -8
c-16 0 -33 14 -33 33c0 8 3 16 9 22l83 89c7 8 17 12 27 12c20 0 40 -17 40 -39z" />
    <glyph glyph-name="Ocircumflex" unicode="&#xd4;" horiz-adv-x="765" 
d="M731 333c0 -201 -147 -345 -349 -345c-201 0 -348 144 -348 345s147 345 348 345c202 0 349 -144 349 -345zM585 333c0 125 -80 219 -203 219s-202 -94 -202 -219c0 -124 79 -219 202 -219s203 95 203 219zM511 750c0 -15 -13 -34 -34 -34c-10 0 -19 4 -25 13l-68 83
l-67 -83c-7 -8 -16 -12 -25 -12c-18 0 -35 14 -35 32c0 6 2 13 6 18l40 62c17 27 48 44 82 44c32 0 62 -17 80 -44l41 -62c4 -5 5 -11 5 -17z" />
    <glyph glyph-name="Otilde" unicode="&#xd5;" horiz-adv-x="765" 
d="M731 333c0 -201 -147 -345 -349 -345c-201 0 -348 144 -348 345s147 345 348 345c202 0 349 -144 349 -345zM585 333c0 125 -80 219 -203 219s-202 -94 -202 -219c0 -124 79 -219 202 -219s203 95 203 219zM544 829c0 -32 -21 -108 -105 -108c-68 0 -79 68 -117 68
c-15 0 -27 -10 -33 -36c-4 -18 -21 -32 -40 -32c-17 0 -28 15 -28 32c0 32 22 108 106 108c66 0 78 -67 116 -67c15 0 27 10 33 35c4 18 21 32 39 32s29 -15 29 -32z" />
    <glyph glyph-name="Odieresis" unicode="&#xd6;" horiz-adv-x="765" 
d="M731 333c0 -201 -147 -345 -349 -345c-201 0 -348 144 -348 345s147 345 348 345c202 0 349 -144 349 -345zM585 333c0 125 -80 219 -203 219s-202 -94 -202 -219c0 -124 79 -219 202 -219s203 95 203 219zM345 778c0 -38 -30 -68 -67 -68c-38 0 -68 30 -68 68
c0 37 30 67 68 67c37 0 67 -30 67 -67zM557 778c0 -38 -31 -68 -68 -68s-68 30 -68 68c0 37 31 67 68 67s68 -30 68 -67z" />
    <glyph glyph-name="multiply" unicode="&#xd7;" horiz-adv-x="504" 
d="M438 187c0 -23 -21 -39 -40 -39c-10 0 -19 3 -27 11l-119 119l-118 -119c-8 -8 -17 -11 -27 -11c-21 0 -41 18 -41 40c0 9 4 19 11 26l119 120l-118 118c-8 8 -12 17 -12 27c0 20 17 41 39 41c11 0 21 -4 29 -12l118 -119l119 120c7 7 16 11 26 11c20 0 41 -17 41 -40
c0 -10 -4 -20 -11 -27l-119 -119l119 -120c7 -8 11 -17 11 -27z" />
    <glyph glyph-name="Oslash" unicode="&#xd8;" horiz-adv-x="765" 
d="M731 333c0 -201 -147 -345 -349 -345c-69 0 -132 17 -184 47l-20 -26c-8 -10 -19 -16 -31 -16c-22 0 -42 18 -42 40c0 9 3 17 8 25l20 26c-62 61 -99 148 -99 249c0 201 147 345 348 345c64 0 123 -15 173 -41l15 19c8 10 19 15 32 15c21 0 42 -16 42 -39
c0 -7 -3 -15 -8 -22l-14 -19c68 -62 109 -152 109 -258zM585 333c0 58 -17 109 -48 147l-259 -339c29 -17 64 -27 104 -27c123 0 203 95 203 219zM474 531c-27 13 -58 21 -92 21c-123 0 -202 -94 -202 -219c0 -53 14 -100 39 -137z" />
    <glyph glyph-name="Ugrave" unicode="&#xd9;" horiz-adv-x="733" 
d="M668 267c0 -166 -98 -279 -301 -279s-301 114 -301 278v336c0 39 32 71 73 71c39 0 71 -32 71 -71v-331c0 -93 54 -157 157 -157s156 64 156 157v331c0 39 32 71 74 71c39 0 71 -32 71 -71v-335zM394 750c0 -17 -15 -33 -33 -33c-8 0 -15 3 -21 8l-93 82
c-8 7 -12 17 -12 27c0 20 18 39 39 39c10 0 20 -4 28 -12l83 -89c6 -6 9 -14 9 -22z" />
    <glyph glyph-name="Uacute" unicode="&#xda;" horiz-adv-x="733" 
d="M668 267c0 -166 -98 -279 -301 -279s-301 114 -301 278v336c0 39 32 71 73 71c39 0 71 -32 71 -71v-331c0 -93 54 -157 157 -157s156 64 156 157v331c0 39 32 71 74 71c39 0 71 -32 71 -71v-335zM500 834c0 -10 -4 -20 -12 -27l-93 -82c-6 -5 -13 -8 -21 -8
c-16 0 -33 14 -33 33c0 8 3 16 9 22l83 89c7 8 17 12 27 12c20 0 40 -17 40 -39z" />
    <glyph glyph-name="Ucircumflex" unicode="&#xdb;" horiz-adv-x="733" 
d="M668 267c0 -166 -98 -279 -301 -279s-301 114 -301 278v336c0 39 32 71 73 71c39 0 71 -32 71 -71v-331c0 -93 54 -157 157 -157s156 64 156 157v331c0 39 32 71 74 71c39 0 71 -32 71 -71v-335zM497 750c0 -15 -13 -34 -34 -34c-10 0 -19 4 -25 13l-68 83l-67 -83
c-7 -8 -16 -12 -25 -12c-18 0 -35 14 -35 32c0 6 2 13 6 18l40 62c17 27 48 44 82 44c32 0 62 -17 80 -44l41 -62c4 -5 5 -11 5 -17z" />
    <glyph glyph-name="Udieresis" unicode="&#xdc;" horiz-adv-x="733" 
d="M668 267c0 -166 -98 -279 -301 -279s-301 114 -301 278v336c0 39 32 71 73 71c39 0 71 -32 71 -71v-331c0 -93 54 -157 157 -157s156 64 156 157v331c0 39 32 71 74 71c39 0 71 -32 71 -71v-335zM331 778c0 -38 -30 -68 -67 -68c-38 0 -68 30 -68 68c0 37 30 67 68 67
c37 0 67 -30 67 -67zM543 778c0 -38 -31 -68 -68 -68s-68 30 -68 68c0 37 31 67 68 67s68 -30 68 -67z" />
    <glyph glyph-name="Yacute" unicode="&#xdd;" horiz-adv-x="645" 
d="M597 607c0 -12 -3 -24 -10 -35l-193 -299v-209c0 -38 -32 -70 -72 -70c-38 0 -70 32 -70 70v209l-195 300c-7 10 -10 22 -10 34c0 32 28 65 68 65c22 0 45 -11 58 -32l150 -241l147 240c13 21 35 33 59 33c41 0 68 -32 68 -65zM455 834c0 -10 -4 -20 -12 -27l-93 -82
c-6 -5 -13 -8 -21 -8c-16 0 -33 14 -33 33c0 8 3 16 9 22l83 89c7 8 17 12 27 12c20 0 40 -17 40 -39z" />
    <glyph glyph-name="Thorn" unicode="&#xde;" horiz-adv-x="624" 
d="M602 343c0 -116 -80 -213 -224 -213h-170v-66c0 -38 -32 -70 -72 -70c-38 0 -70 32 -70 70v539c0 38 32 70 72 70c38 0 70 -32 70 -70v-44h170c145 0 224 -99 224 -216zM457 344c0 55 -43 90 -100 90h-149v-179h149c57 0 100 34 100 89z" />
    <glyph glyph-name="germandbls" unicode="&#xdf;" horiz-adv-x="643" 
d="M627 144c0 -90 -78 -156 -201 -156c-72 0 -151 24 -177 64c-6 9 -9 18 -9 28c0 29 22 50 48 50c10 0 19 -3 28 -8c31 -21 70 -35 110 -35c53 0 79 25 79 52c0 79 -261 23 -261 205c0 104 123 126 123 170c0 33 -39 50 -77 50c-56 0 -100 -33 -100 -89v-418
c0 -35 -28 -63 -64 -63c-35 0 -63 28 -63 63v418c0 110 84 202 229 202c106 0 206 -55 206 -145c0 -112 -132 -124 -132 -184c0 -70 261 -9 261 -204z" />
    <glyph glyph-name="agrave" unicode="&#xe0;" horiz-adv-x="543" 
d="M480 57c0 -35 -28 -63 -62 -63h-10c-10 0 -55 8 -55 56v0c-33 -39 -90 -62 -153 -62c-77 0 -168 52 -168 160c0 113 91 156 168 156c64 0 121 -21 153 -59v65c0 49 -42 81 -106 81c-38 0 -75 -9 -108 -31c-7 -4 -15 -7 -23 -7c-23 0 -48 19 -48 49c0 9 3 18 7 25
c30 48 138 68 194 68c110 0 211 -44 211 -183v-255zM353 116v60c-21 28 -61 42 -102 42c-50 0 -91 -26 -91 -73c0 -45 41 -71 91 -71c41 0 81 14 102 42zM295 583c0 -17 -15 -33 -33 -33c-8 0 -15 3 -21 8l-93 82c-8 7 -12 17 -12 27c0 20 18 39 39 39c10 0 20 -4 28 -12
l83 -89c6 -6 9 -14 9 -22z" />
    <glyph glyph-name="aacute" unicode="&#xe1;" horiz-adv-x="543" 
d="M480 57c0 -35 -28 -63 -62 -63h-10c-10 0 -55 8 -55 56v0c-33 -39 -90 -62 -153 -62c-77 0 -168 52 -168 160c0 113 91 156 168 156c64 0 121 -21 153 -59v65c0 49 -42 81 -106 81c-38 0 -75 -9 -108 -31c-7 -4 -15 -7 -23 -7c-23 0 -48 19 -48 49c0 9 3 18 7 25
c30 48 138 68 194 68c110 0 211 -44 211 -183v-255zM353 116v60c-21 28 -61 42 -102 42c-50 0 -91 -26 -91 -73c0 -45 41 -71 91 -71c41 0 81 14 102 42zM401 667c0 -10 -4 -20 -12 -27l-93 -82c-6 -5 -13 -8 -21 -8c-16 0 -33 14 -33 33c0 8 3 16 9 22l83 89
c7 8 17 12 27 12c20 0 40 -17 40 -39z" />
    <glyph glyph-name="acircumflex" unicode="&#xe2;" horiz-adv-x="543" 
d="M480 57c0 -35 -28 -63 -62 -63h-10c-10 0 -55 8 -55 56v0c-33 -39 -90 -62 -153 -62c-77 0 -168 52 -168 160c0 113 91 156 168 156c64 0 121 -21 153 -59v65c0 49 -42 81 -106 81c-38 0 -75 -9 -108 -31c-7 -4 -15 -7 -23 -7c-23 0 -48 19 -48 49c0 9 3 18 7 25
c30 48 138 68 194 68c110 0 211 -44 211 -183v-255zM353 116v60c-21 28 -61 42 -102 42c-50 0 -91 -26 -91 -73c0 -45 41 -71 91 -71c41 0 81 14 102 42zM397 583c0 -15 -13 -34 -34 -34c-10 0 -19 4 -25 13l-68 83l-67 -83c-7 -8 -16 -12 -25 -12c-18 0 -35 14 -35 32
c0 6 2 13 6 18l40 62c17 27 48 44 82 44c32 0 62 -17 80 -44l41 -62c4 -5 5 -11 5 -17z" />
    <glyph glyph-name="atilde" unicode="&#xe3;" horiz-adv-x="543" 
d="M480 57c0 -35 -28 -63 -62 -63h-10c-10 0 -55 8 -55 56v0c-33 -39 -90 -62 -153 -62c-77 0 -168 52 -168 160c0 113 91 156 168 156c64 0 121 -21 153 -59v65c0 49 -42 81 -106 81c-38 0 -75 -9 -108 -31c-7 -4 -15 -7 -23 -7c-23 0 -48 19 -48 49c0 9 3 18 7 25
c30 48 138 68 194 68c110 0 211 -44 211 -183v-255zM353 116v60c-21 28 -61 42 -102 42c-50 0 -91 -26 -91 -73c0 -45 41 -71 91 -71c41 0 81 14 102 42zM431 662c0 -32 -21 -108 -105 -108c-68 0 -79 68 -117 68c-15 0 -27 -10 -33 -36c-4 -18 -21 -32 -40 -32
c-17 0 -28 15 -28 32c0 32 22 108 106 108c66 0 78 -67 116 -67c15 0 27 10 33 35c4 18 21 32 39 32s29 -15 29 -32z" />
    <glyph glyph-name="adieresis" unicode="&#xe4;" horiz-adv-x="543" 
d="M480 57c0 -35 -28 -63 -62 -63h-10c-10 0 -55 8 -55 56v0c-33 -39 -90 -62 -153 -62c-77 0 -168 52 -168 160c0 113 91 156 168 156c64 0 121 -21 153 -59v65c0 49 -42 81 -106 81c-38 0 -75 -9 -108 -31c-7 -4 -15 -7 -23 -7c-23 0 -48 19 -48 49c0 9 3 18 7 25
c30 48 138 68 194 68c110 0 211 -44 211 -183v-255zM353 116v60c-21 28 -61 42 -102 42c-50 0 -91 -26 -91 -73c0 -45 41 -71 91 -71c41 0 81 14 102 42zM231 611c0 -38 -30 -68 -67 -68c-38 0 -68 30 -68 68c0 37 30 67 68 67c37 0 67 -30 67 -67zM443 611
c0 -38 -31 -68 -68 -68s-68 30 -68 68c0 37 31 67 68 67s68 -30 68 -67z" />
    <glyph glyph-name="aring" unicode="&#xe5;" horiz-adv-x="543" 
d="M480 57c0 -35 -28 -63 -62 -63h-10c-10 0 -55 8 -55 56v0c-33 -39 -90 -62 -153 -62c-77 0 -168 52 -168 160c0 113 91 156 168 156c64 0 121 -21 153 -59v65c0 49 -42 81 -106 81c-38 0 -75 -9 -108 -31c-7 -4 -15 -7 -23 -7c-23 0 -48 19 -48 49c0 9 3 18 7 25
c30 48 138 68 194 68c110 0 211 -44 211 -183v-255zM353 116v60c-21 28 -61 42 -102 42c-50 0 -91 -26 -91 -73c0 -45 41 -71 91 -71c41 0 81 14 102 42zM375 636c0 -58 -46 -105 -104 -105c-57 0 -105 47 -105 105c0 57 48 106 105 106c58 0 104 -49 104 -106zM317 636
c0 26 -20 47 -46 47c-25 0 -47 -21 -47 -47c0 -25 22 -47 47 -47c26 0 46 22 46 47z" />
    <glyph glyph-name="ae" unicode="&#xe6;" horiz-adv-x="870" 
d="M839 261c0 -33 -27 -60 -60 -60h-279c9 -59 53 -109 130 -109c27 0 57 7 84 21c8 4 18 6 27 6c26 0 53 -20 53 -49c0 -9 -3 -17 -7 -24c-27 -42 -122 -58 -166 -58c-78 0 -142 25 -186 88c-40 -51 -115 -88 -201 -88c-106 0 -202 50 -202 158c0 106 81 158 175 158
c66 0 128 -20 165 -58v65c0 48 -46 80 -115 80c-40 0 -80 -9 -117 -32c-7 -4 -16 -7 -24 -7c-23 0 -47 20 -47 49c0 9 2 17 7 25c29 49 141 69 196 69c85 0 142 -30 169 -83c35 46 84 83 175 83c102 0 179 -62 210 -162c6 -19 13 -43 13 -72zM718 287
c-2 46 -32 107 -110 107c-72 0 -105 -59 -110 -107h220zM372 169v6c-24 27 -68 43 -113 43c-55 0 -99 -22 -99 -65c0 -44 44 -65 96 -65c64 0 116 43 116 81z" />
    <glyph glyph-name="ccedilla" unicode="&#xe7;" horiz-adv-x="499" 
d="M461 77c0 -8 -2 -16 -6 -23c-19 -35 -80 -59 -141 -65l-16 -40c10 6 23 10 36 10c37 0 67 -28 67 -70c0 -53 -51 -85 -111 -85c-47 0 -107 15 -107 46c0 16 13 28 28 28c4 0 8 -1 12 -3c21 -11 44 -17 63 -17c27 0 52 11 52 33c0 16 -10 26 -29 26c-16 0 -24 -12 -40 -12
c-20 0 -33 16 -33 31c0 4 1 7 2 11l16 43c-131 14 -222 114 -222 252c0 148 107 253 256 253c75 0 145 -27 166 -66c4 -7 6 -15 6 -23c0 -34 -32 -54 -60 -54c-12 0 -24 3 -35 10c-21 13 -46 20 -71 20c-77 0 -131 -56 -131 -140s54 -141 131 -141c26 0 50 7 72 21
c11 7 22 10 34 10c31 0 61 -22 61 -55z" />
    <glyph glyph-name="egrave" unicode="&#xe8;" horiz-adv-x="553" 
d="M522 259c0 -31 -26 -58 -59 -58h-298c8 -61 57 -112 139 -112c27 0 64 8 94 24c8 4 17 6 25 6c27 0 54 -21 54 -51c0 -57 -123 -80 -187 -80c-147 0 -258 99 -258 254c0 140 103 253 250 253c109 0 192 -63 226 -163c7 -22 14 -49 14 -73zM401 287
c-3 46 -35 107 -119 107c-79 0 -113 -59 -119 -107h238zM309 583c0 -17 -15 -33 -33 -33c-8 0 -15 3 -21 8l-93 82c-8 7 -12 17 -12 27c0 20 18 39 39 39c10 0 20 -4 28 -12l83 -89c6 -6 9 -14 9 -22z" />
    <glyph glyph-name="eacute" unicode="&#xe9;" horiz-adv-x="553" 
d="M522 259c0 -31 -26 -58 -59 -58h-298c8 -61 57 -112 139 -112c27 0 64 8 94 24c8 4 17 6 25 6c27 0 54 -21 54 -51c0 -57 -123 -80 -187 -80c-147 0 -258 99 -258 254c0 140 103 253 250 253c109 0 192 -63 226 -163c7 -22 14 -49 14 -73zM401 287
c-3 46 -35 107 -119 107c-79 0 -113 -59 -119 -107h238zM415 667c0 -10 -4 -20 -12 -27l-93 -82c-6 -5 -13 -8 -21 -8c-16 0 -33 14 -33 33c0 8 3 16 9 22l83 89c7 8 17 12 27 12c20 0 40 -17 40 -39z" />
    <glyph glyph-name="ecircumflex" unicode="&#xea;" horiz-adv-x="553" 
d="M522 259c0 -31 -26 -58 -59 -58h-298c8 -61 57 -112 139 -112c27 0 64 8 94 24c8 4 17 6 25 6c27 0 54 -21 54 -51c0 -57 -123 -80 -187 -80c-147 0 -258 99 -258 254c0 140 103 253 250 253c109 0 192 -63 226 -163c7 -22 14 -49 14 -73zM401 287
c-3 46 -35 107 -119 107c-79 0 -113 -59 -119 -107h238zM409 583c0 -15 -13 -34 -34 -34c-10 0 -19 4 -25 13l-68 83l-67 -83c-7 -8 -16 -12 -25 -12c-18 0 -35 14 -35 32c0 6 2 13 6 18l40 62c17 27 48 44 82 44c32 0 62 -17 80 -44l41 -62c4 -5 5 -11 5 -17z" />
    <glyph glyph-name="edieresis" unicode="&#xeb;" horiz-adv-x="553" 
d="M522 259c0 -31 -26 -58 -59 -58h-298c8 -61 57 -112 139 -112c27 0 64 8 94 24c8 4 17 6 25 6c27 0 54 -21 54 -51c0 -57 -123 -80 -187 -80c-147 0 -258 99 -258 254c0 140 103 253 250 253c109 0 192 -63 226 -163c7 -22 14 -49 14 -73zM401 287
c-3 46 -35 107 -119 107c-79 0 -113 -59 -119 -107h238zM245 611c0 -38 -30 -68 -67 -68c-38 0 -68 30 -68 68c0 37 30 67 68 67c37 0 67 -30 67 -67zM457 611c0 -38 -31 -68 -68 -68s-68 30 -68 68c0 37 31 67 68 67s68 -30 68 -67z" />
    <glyph glyph-name="igrave" unicode="&#xec;" horiz-adv-x="253" 
d="M154 583c0 -17 -15 -33 -33 -33c-8 0 -15 3 -21 8l-93 82c-8 7 -12 17 -12 27c0 20 18 39 39 39c10 0 20 -4 28 -12l83 -89c6 -6 9 -14 9 -22zM190 57c0 -35 -28 -63 -64 -63c-35 0 -63 28 -63 63v370c0 34 28 62 65 62c34 0 62 -28 62 -62v-370z" />
    <glyph glyph-name="iacute" unicode="&#xed;" horiz-adv-x="253" 
d="M259 667c0 -10 -4 -20 -12 -27l-93 -82c-6 -5 -13 -8 -21 -8c-16 0 -33 14 -33 33c0 8 3 16 9 22l83 89c7 8 17 12 27 12c20 0 40 -17 40 -39zM190 57c0 -35 -28 -63 -64 -63c-35 0 -63 28 -63 63v370c0 34 28 62 65 62c34 0 62 -28 62 -62v-370z" />
    <glyph glyph-name="icircumflex" unicode="&#xee;" horiz-adv-x="253" 
d="M190 57c0 -35 -28 -63 -64 -63c-35 0 -63 28 -63 63v370c0 34 28 62 65 62c34 0 62 -28 62 -62v-370zM253 583c0 -15 -13 -34 -34 -34c-10 0 -19 4 -25 13l-68 83l-67 -83c-7 -8 -16 -12 -25 -12c-18 0 -35 14 -35 32c0 6 2 13 6 18l40 62c17 27 48 44 82 44
c32 0 62 -17 80 -44l41 -62c4 -5 5 -11 5 -17z" />
    <glyph glyph-name="idieresis" unicode="&#xef;" horiz-adv-x="253" 
d="M89 611c0 -38 -30 -68 -67 -68c-38 0 -68 30 -68 68c0 37 30 67 68 67c37 0 67 -30 67 -67zM301 611c0 -38 -31 -68 -68 -68s-68 30 -68 68c0 37 31 67 68 67s68 -30 68 -67zM190 57c0 -35 -28 -63 -64 -63c-35 0 -63 28 -63 63v370c0 34 28 62 65 62c34 0 62 -28 62 -62
v-370z" />
    <glyph glyph-name="eth" unicode="&#xf0;" horiz-adv-x="574" 
d="M543 252c0 -156 -96 -264 -256 -264c-154 0 -255 99 -255 236c0 138 93 236 214 236c69 0 121 -31 160 -93c-27 61 -87 117 -157 166l-123 -54c-4 -2 -9 -3 -13 -3c-15 0 -32 13 -32 33c0 13 8 25 20 30l84 37c-25 13 -42 31 -42 59c1 36 31 61 62 61
c32 0 81 -40 111 -63l81 36c3 1 7 2 11 2c15 0 32 -12 32 -32c0 -12 -7 -23 -18 -28l-51 -23c107 -95 172 -203 172 -336zM411 224c0 67 -45 123 -124 123s-123 -56 -123 -123s44 -123 123 -123s124 56 124 123z" />
    <glyph glyph-name="ntilde" unicode="&#xf1;" 
d="M516 57c0 -35 -28 -63 -64 -63c-35 0 -63 28 -63 63v235c0 67 -35 90 -89 90c-50 0 -89 -28 -110 -57v-268c0 -35 -28 -63 -64 -63c-35 0 -63 28 -63 63v370c0 34 28 62 65 62c34 0 62 -28 62 -62v-7c31 37 90 75 169 75c106 0 157 -60 157 -154v-284zM452 662
c0 -32 -21 -108 -105 -108c-68 0 -79 68 -117 68c-15 0 -27 -10 -33 -36c-4 -18 -21 -32 -40 -32c-17 0 -28 15 -28 32c0 32 22 108 106 108c66 0 78 -67 116 -67c15 0 27 10 33 35c4 18 21 32 39 32s29 -15 29 -32z" />
    <glyph glyph-name="ograve" unicode="&#xf2;" horiz-adv-x="574" 
d="M543 242c0 -138 -96 -254 -256 -254c-159 0 -255 116 -255 254c0 137 96 253 255 253c160 0 256 -116 256 -253zM411 242c0 75 -45 140 -124 140s-123 -65 -123 -140c0 -76 44 -141 123 -141s124 65 124 141zM314 583c0 -17 -15 -33 -33 -33c-8 0 -15 3 -21 8l-93 82
c-8 7 -12 17 -12 27c0 20 18 39 39 39c10 0 20 -4 28 -12l83 -89c6 -6 9 -14 9 -22z" />
    <glyph glyph-name="oacute" unicode="&#xf3;" horiz-adv-x="574" 
d="M543 242c0 -138 -96 -254 -256 -254c-159 0 -255 116 -255 254c0 137 96 253 255 253c160 0 256 -116 256 -253zM411 242c0 75 -45 140 -124 140s-123 -65 -123 -140c0 -76 44 -141 123 -141s124 65 124 141zM420 667c0 -10 -4 -20 -12 -27l-93 -82c-6 -5 -13 -8 -21 -8
c-16 0 -33 14 -33 33c0 8 3 16 9 22l83 89c7 8 17 12 27 12c20 0 40 -17 40 -39z" />
    <glyph glyph-name="ocircumflex" unicode="&#xf4;" horiz-adv-x="574" 
d="M543 242c0 -138 -96 -254 -256 -254c-159 0 -255 116 -255 254c0 137 96 253 255 253c160 0 256 -116 256 -253zM411 242c0 75 -45 140 -124 140s-123 -65 -123 -140c0 -76 44 -141 123 -141s124 65 124 141zM413 583c0 -15 -13 -34 -34 -34c-10 0 -19 4 -25 13l-68 83
l-67 -83c-7 -8 -16 -12 -25 -12c-18 0 -35 14 -35 32c0 6 2 13 6 18l40 62c17 27 48 44 82 44c32 0 62 -17 80 -44l41 -62c4 -5 5 -11 5 -17z" />
    <glyph glyph-name="otilde" unicode="&#xf5;" horiz-adv-x="574" 
d="M543 242c0 -138 -96 -254 -256 -254c-159 0 -255 116 -255 254c0 137 96 253 255 253c160 0 256 -116 256 -253zM411 242c0 75 -45 140 -124 140s-123 -65 -123 -140c0 -76 44 -141 123 -141s124 65 124 141zM449 662c0 -32 -21 -108 -105 -108c-68 0 -79 68 -117 68
c-15 0 -27 -10 -33 -36c-4 -18 -21 -32 -40 -32c-17 0 -28 15 -28 32c0 32 22 108 106 108c66 0 78 -67 116 -67c15 0 27 10 33 35c4 18 21 32 39 32s29 -15 29 -32z" />
    <glyph glyph-name="odieresis" unicode="&#xf6;" horiz-adv-x="574" 
d="M543 242c0 -138 -96 -254 -256 -254c-159 0 -255 116 -255 254c0 137 96 253 255 253c160 0 256 -116 256 -253zM411 242c0 75 -45 140 -124 140s-123 -65 -123 -140c0 -76 44 -141 123 -141s124 65 124 141zM249 611c0 -38 -30 -68 -67 -68c-38 0 -68 30 -68 68
c0 37 30 67 68 67c37 0 67 -30 67 -67zM461 611c0 -38 -31 -68 -68 -68s-68 30 -68 68c0 37 31 67 68 67s68 -30 68 -67z" />
    <glyph glyph-name="divide" unicode="&#xf7;" horiz-adv-x="511" 
d="M255 576c34 0 61 -27 61 -60c0 -34 -27 -62 -61 -62s-61 28 -61 62c0 33 27 60 61 60zM488 339c0 -24 -17 -41 -38 -41h-388c-22 0 -39 17 -39 41c0 21 17 38 39 38h388c21 0 38 -17 38 -38zM316 157c0 -34 -27 -61 -61 -61s-61 27 -61 61c0 33 27 61 61 61
s61 -28 61 -61z" />
    <glyph glyph-name="oslash" unicode="&#xf8;" horiz-adv-x="574" 
d="M142 28l-21 -25c-6 -7 -14 -10 -22 -10c-16 0 -30 14 -30 30c0 7 2 14 7 19l21 25c-42 46 -65 107 -65 175c0 137 96 253 255 253c55 0 103 -14 141 -38l18 21c5 7 13 10 22 10c16 0 32 -13 32 -29c0 -7 -3 -14 -7 -19l-18 -21c44 -46 68 -109 68 -177
c0 -138 -96 -254 -256 -254c-57 0 -106 14 -145 40zM220 120c18 -13 41 -19 67 -19c79 0 124 65 124 141c0 29 -7 56 -20 79zM287 382c-79 0 -123 -65 -123 -140c0 -28 6 -54 17 -76l169 199c-18 11 -39 17 -63 17z" />
    <glyph glyph-name="ugrave" unicode="&#xf9;" 
d="M516 57c0 -35 -28 -63 -64 -63c-35 0 -63 28 -63 63v4c-33 -37 -91 -73 -170 -73c-106 0 -156 58 -156 152v287c0 34 28 62 65 62c34 0 62 -28 62 -62v-237c0 -67 35 -89 89 -89c49 0 88 27 110 55v271c0 34 28 62 65 62c34 0 62 -28 62 -62v-370zM316 583
c0 -17 -15 -33 -33 -33c-8 0 -15 3 -21 8l-93 82c-8 7 -12 17 -12 27c0 20 18 39 39 39c10 0 20 -4 28 -12l83 -89c6 -6 9 -14 9 -22z" />
    <glyph glyph-name="uacute" unicode="&#xfa;" 
d="M516 57c0 -35 -28 -63 -64 -63c-35 0 -63 28 -63 63v4c-33 -37 -91 -73 -170 -73c-106 0 -156 58 -156 152v287c0 34 28 62 65 62c34 0 62 -28 62 -62v-237c0 -67 35 -89 89 -89c49 0 88 27 110 55v271c0 34 28 62 65 62c34 0 62 -28 62 -62v-370zM421 667
c0 -10 -4 -20 -12 -27l-93 -82c-6 -5 -13 -8 -21 -8c-16 0 -33 14 -33 33c0 8 3 16 9 22l83 89c7 8 17 12 27 12c20 0 40 -17 40 -39z" />
    <glyph glyph-name="ucircumflex" unicode="&#xfb;" 
d="M516 57c0 -35 -28 -63 -64 -63c-35 0 -63 28 -63 63v4c-33 -37 -91 -73 -170 -73c-106 0 -156 58 -156 152v287c0 34 28 62 65 62c34 0 62 -28 62 -62v-237c0 -67 35 -89 89 -89c49 0 88 27 110 55v271c0 34 28 62 65 62c34 0 62 -28 62 -62v-370zM416 583
c0 -15 -13 -34 -34 -34c-10 0 -19 4 -25 13l-68 83l-67 -83c-7 -8 -16 -12 -25 -12c-18 0 -35 14 -35 32c0 6 2 13 6 18l40 62c17 27 48 44 82 44c32 0 62 -17 80 -44l41 -62c4 -5 5 -11 5 -17z" />
    <glyph glyph-name="udieresis" unicode="&#xfc;" 
d="M516 57c0 -35 -28 -63 -64 -63c-35 0 -63 28 -63 63v4c-33 -37 -91 -73 -170 -73c-106 0 -156 58 -156 152v287c0 34 28 62 65 62c34 0 62 -28 62 -62v-237c0 -67 35 -89 89 -89c49 0 88 27 110 55v271c0 34 28 62 65 62c34 0 62 -28 62 -62v-370zM251 611
c0 -38 -30 -68 -67 -68c-38 0 -68 30 -68 68c0 37 30 67 68 67c37 0 67 -30 67 -67zM463 611c0 -38 -31 -68 -68 -68s-68 30 -68 68c0 37 31 67 68 67s68 -30 68 -67z" />
    <glyph glyph-name="yacute" unicode="&#xfd;" horiz-adv-x="513" 
d="M491 427c0 -8 -1 -16 -4 -23l-195 -483c-34 -84 -95 -117 -166 -117c-44 0 -78 22 -78 57c0 30 24 56 60 56c5 0 11 0 16 1c21 4 39 14 48 34l18 41l-165 412c-3 7 -4 14 -4 21c0 31 25 63 64 63c25 0 49 -16 59 -42l112 -300l112 300c9 25 34 42 61 42
c38 0 62 -31 62 -62zM388 667c0 -10 -4 -20 -12 -27l-93 -82c-6 -5 -13 -8 -21 -8c-16 0 -33 14 -33 33c0 8 3 16 9 22l83 89c7 8 17 12 27 12c20 0 40 -17 40 -39z" />
    <glyph glyph-name="thorn" unicode="&#xfe;" horiz-adv-x="583" 
d="M553 242c0 -161 -90 -254 -214 -254c-57 0 -110 24 -149 74v-190c0 -34 -28 -62 -64 -62c-35 0 -63 28 -63 62v739c0 34 28 62 65 62c34 0 62 -28 62 -62v-189c37 47 90 73 149 73c124 0 214 -92 214 -253zM421 242c0 83 -49 140 -122 140c-41 0 -88 -24 -109 -55v-171
c21 -30 68 -55 109 -55c73 0 122 57 122 141z" />
    <glyph glyph-name="ydieresis" unicode="&#xff;" horiz-adv-x="513" 
d="M491 427c0 -8 -1 -16 -4 -23l-195 -483c-34 -84 -95 -117 -166 -117c-44 0 -78 22 -78 57c0 30 24 56 60 56c5 0 11 0 16 1c21 4 39 14 48 34l18 41l-165 412c-3 7 -4 14 -4 21c0 31 25 63 64 63c25 0 49 -16 59 -42l112 -300l112 300c9 25 34 42 61 42
c38 0 62 -31 62 -62zM218 611c0 -38 -30 -68 -67 -68c-38 0 -68 30 -68 68c0 37 30 67 68 67c37 0 67 -30 67 -67zM430 611c0 -38 -31 -68 -68 -68s-68 30 -68 68c0 37 31 67 68 67s68 -30 68 -67z" />
    <glyph glyph-name="Amacron" unicode="&#x100;" horiz-adv-x="684" 
d="M656 70c0 -37 -30 -76 -76 -76c-30 0 -58 18 -69 47l-26 72h-286l-27 -72c-11 -29 -39 -47 -70 -47c-45 0 -75 38 -75 76c0 9 1 18 5 27l195 501c17 45 62 75 109 75c51 4 102 -26 121 -75l194 -501c3 -9 5 -18 5 -27zM446 238l-104 287l-104 -287h208zM523 766
c0 -21 -16 -37 -35 -37h-293c-19 0 -35 16 -35 37c0 19 16 35 35 35h293c19 0 35 -16 35 -35z" />
    <glyph glyph-name="amacron" unicode="&#x101;" horiz-adv-x="543" 
d="M480 57c0 -35 -28 -63 -62 -63h-10c-10 0 -55 8 -55 56v0c-33 -39 -90 -62 -153 -62c-77 0 -168 52 -168 160c0 113 91 156 168 156c64 0 121 -21 153 -59v65c0 49 -42 81 -106 81c-38 0 -75 -9 -108 -31c-7 -4 -15 -7 -23 -7c-23 0 -48 19 -48 49c0 9 3 18 7 25
c30 48 138 68 194 68c110 0 211 -44 211 -183v-255zM353 116v60c-21 28 -61 42 -102 42c-50 0 -91 -26 -91 -73c0 -45 41 -71 91 -71c41 0 81 14 102 42zM451 599c0 -21 -16 -37 -35 -37h-293c-19 0 -35 16 -35 37c0 19 16 35 35 35h293c19 0 35 -16 35 -35z" />
    <glyph glyph-name="Abreve" unicode="&#x102;" horiz-adv-x="684" 
d="M656 70c0 -37 -30 -76 -76 -76c-30 0 -58 18 -69 47l-26 72h-286l-27 -72c-11 -29 -39 -47 -70 -47c-45 0 -75 38 -75 76c0 9 1 18 5 27l195 501c17 45 62 75 109 75c51 4 102 -26 121 -75l194 -501c3 -9 5 -18 5 -27zM446 238l-104 287l-104 -287h208zM503 781
c0 -8 -3 -16 -9 -22c-40 -38 -93 -61 -152 -61s-112 23 -152 61c-6 6 -9 14 -9 22c0 19 17 36 36 36c10 0 20 -4 29 -11c25 -22 57 -35 96 -35c37 0 70 13 95 36c8 7 19 11 29 11c19 0 37 -17 37 -37z" />
    <glyph glyph-name="abreve" unicode="&#x103;" horiz-adv-x="543" 
d="M480 57c0 -35 -28 -63 -62 -63h-10c-10 0 -55 8 -55 56v0c-33 -39 -90 -62 -153 -62c-77 0 -168 52 -168 160c0 113 91 156 168 156c64 0 121 -21 153 -59v65c0 49 -42 81 -106 81c-38 0 -75 -9 -108 -31c-7 -4 -15 -7 -23 -7c-23 0 -48 19 -48 49c0 9 3 18 7 25
c30 48 138 68 194 68c110 0 211 -44 211 -183v-255zM353 116v60c-21 28 -61 42 -102 42c-50 0 -91 -26 -91 -73c0 -45 41 -71 91 -71c41 0 81 14 102 42zM431 614c0 -8 -3 -16 -9 -22c-40 -38 -93 -61 -152 -61s-112 23 -152 61c-6 6 -9 14 -9 22c0 19 17 36 36 36
c10 0 20 -4 29 -11c25 -22 57 -35 96 -35c37 0 70 13 95 36c8 7 19 11 29 11c19 0 37 -17 37 -37z" />
    <glyph glyph-name="Aogonek" unicode="&#x104;" horiz-adv-x="684" 
d="M742 -133c0 -31 -52 -53 -87 -53c-53 0 -100 26 -100 90c0 35 14 66 41 92c-6 -1 -11 -2 -17 -2c-30 0 -58 18 -68 47l-26 72h-286l-27 -72c-11 -29 -39 -47 -70 -47c-45 0 -75 38 -75 76c0 9 1 18 5 27l195 501c17 45 62 75 109 75c51 4 102 -26 121 -75l201 -519
c4 -11 6 -20 6 -30c0 -25 -12 -46 -24 -69c-11 -21 -22 -43 -22 -70c0 -31 18 -43 37 -43c18 0 28 14 42 21c5 3 10 5 17 5c16 0 28 -12 28 -26zM446 238l-104 287l-104 -287h208z" />
    <glyph glyph-name="aogonek" unicode="&#x105;" horiz-adv-x="543" 
d="M534 -133c0 -31 -52 -53 -87 -53c-53 0 -100 26 -100 90c0 36 15 67 42 93c-22 7 -36 29 -36 53c-33 -39 -90 -62 -153 -62c-77 0 -168 52 -168 160c0 113 91 156 168 156c64 0 121 -21 153 -59v65c0 49 -42 81 -106 81c-38 0 -75 -9 -108 -31c-7 -4 -15 -7 -23 -7
c-23 0 -48 19 -48 49c0 9 3 18 7 25c30 48 138 68 194 68c110 0 211 -44 211 -183v-255c0 -12 -3 -22 -8 -32c-19 -34 -62 -55 -62 -115c0 -31 18 -43 37 -43c18 0 28 14 42 21c5 3 10 5 17 5c16 0 28 -12 28 -26zM353 116v60c-21 28 -61 42 -102 42c-50 0 -91 -26 -91 -73
c0 -45 41 -71 91 -71c41 0 81 14 102 42z" />
    <glyph glyph-name="Cacute" unicode="&#x106;" horiz-adv-x="687" 
d="M389 678c115 0 192 -49 243 -110c9 -11 14 -26 14 -39c0 -36 -31 -64 -68 -64c-19 0 -38 8 -52 23c-38 40 -87 64 -137 64c-121 0 -209 -93 -209 -219s88 -219 209 -219c50 0 100 22 137 63c14 15 34 23 54 23c36 0 65 -28 65 -62c0 -14 -4 -28 -14 -39
c-50 -61 -127 -111 -242 -111c-200 0 -355 140 -355 345s155 345 355 345zM521 834c0 -10 -4 -20 -12 -27l-93 -82c-6 -5 -13 -8 -21 -8c-16 0 -33 14 -33 33c0 8 3 16 9 22l83 89c7 8 17 12 27 12c20 0 40 -17 40 -39z" />
    <glyph glyph-name="cacute" unicode="&#x107;" horiz-adv-x="499" 
d="M461 77c0 -15 -7 -31 -20 -41c-35 -28 -85 -48 -153 -48c-149 0 -256 105 -256 254c0 148 107 253 256 253c75 0 145 -27 166 -66c4 -7 6 -15 6 -23c0 -34 -32 -54 -60 -54c-12 0 -24 3 -35 10c-21 13 -46 20 -71 20c-77 0 -131 -56 -131 -140s54 -141 131 -141
c26 0 50 7 72 21c11 7 22 10 34 10c31 0 61 -22 61 -55zM420 667c0 -10 -4 -20 -12 -27l-93 -82c-6 -5 -13 -8 -21 -8c-16 0 -33 14 -33 33c0 8 3 16 9 22l83 89c7 8 17 12 27 12c20 0 40 -17 40 -39z" />
    <glyph glyph-name="Ccaron" unicode="&#x10c;" horiz-adv-x="687" 
d="M389 678c115 0 192 -49 243 -110c9 -11 14 -26 14 -39c0 -36 -31 -64 -68 -64c-19 0 -38 8 -52 23c-38 40 -87 64 -137 64c-121 0 -209 -93 -209 -219s88 -219 209 -219c50 0 100 22 137 63c14 15 34 23 54 23c36 0 65 -28 65 -62c0 -14 -4 -28 -14 -39
c-50 -61 -127 -111 -242 -111c-200 0 -355 140 -355 345s155 345 355 345zM517 839c0 -6 -1 -12 -5 -17l-41 -62c-18 -27 -48 -44 -82 -44c-32 0 -63 17 -80 44l-40 62c-4 5 -6 11 -6 17c0 15 13 33 34 33c9 0 19 -4 26 -12l67 -83l68 83c6 8 15 12 24 12
c18 0 35 -14 35 -33z" />
    <glyph glyph-name="ccaron" unicode="&#x10d;" horiz-adv-x="499" 
d="M461 77c0 -15 -7 -31 -20 -41c-35 -28 -85 -48 -153 -48c-149 0 -256 105 -256 254c0 148 107 253 256 253c75 0 145 -27 166 -66c4 -7 6 -15 6 -23c0 -34 -32 -54 -60 -54c-12 0 -24 3 -35 10c-21 13 -46 20 -71 20c-77 0 -131 -56 -131 -140s54 -141 131 -141
c26 0 50 7 72 21c11 7 22 10 34 10c31 0 61 -22 61 -55zM421 672c0 -6 -1 -12 -5 -17l-41 -62c-18 -27 -48 -44 -82 -44c-32 0 -63 17 -80 44l-40 62c-4 5 -6 11 -6 17c0 15 13 33 34 33c9 0 19 -4 26 -12l67 -83l68 83c6 8 15 12 24 12c18 0 35 -14 35 -33z" />
    <glyph glyph-name="Dcaron" unicode="&#x10e;" horiz-adv-x="718" 
d="M683 333c0 -201 -145 -333 -354 -333h-183c-44 0 -80 36 -80 80v507c0 44 36 80 80 80h183c209 0 354 -133 354 -334zM538 333c0 118 -72 209 -209 209h-121v-417h121c132 0 209 95 209 208zM491 839c0 -6 -1 -12 -5 -17l-41 -62c-18 -27 -48 -44 -82 -44
c-32 0 -63 17 -80 44l-40 62c-4 5 -6 11 -6 17c0 15 13 33 34 33c9 0 19 -4 26 -12l67 -83l68 83c6 8 15 12 24 12c18 0 35 -14 35 -33z" />
    <glyph glyph-name="dcaron" unicode="&#x10f;" horiz-adv-x="690" 
d="M523 57c0 -35 -28 -63 -65 -63c-35 0 -63 28 -63 63v5c-38 -48 -91 -74 -149 -74c-122 0 -214 92 -214 253c0 158 91 254 214 254c57 0 111 -25 149 -74v189c0 35 28 63 65 63c35 0 63 -28 63 -63v-553zM395 156v171c-21 32 -67 55 -110 55c-72 0 -122 -57 -122 -141
c0 -83 50 -140 122 -140c43 0 89 23 110 55zM696 598c0 -52 -25 -100 -67 -136c-6 -5 -14 -8 -23 -8c-7 0 -13 3 -18 7l-1 1c-4 5 -7 10 -7 17c0 4 2 8 5 13c12 17 41 42 47 70c-2 -1 -9 -2 -15 -2c-30 0 -53 23 -53 56c0 35 27 63 61 63c37 0 71 -29 71 -81z" />
    <glyph glyph-name="Dcroat" unicode="&#x110;" horiz-adv-x="742" 
d="M708 333c0 -201 -145 -333 -354 -333h-183c-44 0 -80 36 -80 80v197h-37c-29 0 -52 23 -52 54c0 28 23 51 52 51h37v205c0 44 36 80 80 80h183c209 0 354 -133 354 -334zM563 333c0 118 -72 209 -209 209h-121v-160h104c28 0 51 -23 51 -53c0 -29 -23 -52 -51 -52h-104
v-152h121c132 0 209 95 209 208z" />
    <glyph glyph-name="dcroat" unicode="&#x111;" horiz-adv-x="590" 
d="M587 563c0 -19 -16 -35 -35 -35h-29v-471c0 -35 -28 -63 -65 -63c-35 0 -63 28 -63 63v5c-38 -48 -91 -74 -149 -74c-122 0 -214 92 -214 253c0 158 91 254 214 254c57 0 111 -25 149 -74v107h-116c-19 0 -35 16 -35 37c0 19 16 35 35 35h116v10c0 35 28 63 65 63
c35 0 63 -28 63 -63v-10h29c19 0 35 -16 35 -37zM395 156v171c-21 32 -67 55 -110 55c-72 0 -122 -57 -122 -141c0 -83 50 -140 122 -140c43 0 89 23 110 55z" />
    <glyph glyph-name="Emacron" unicode="&#x112;" horiz-adv-x="583" 
d="M544 64c0 -36 -28 -64 -61 -64h-337c-44 0 -80 36 -80 80v507c0 44 36 80 80 80h337c33 0 61 -28 61 -63c0 -34 -28 -62 -61 -62h-275v-141h268c33 0 61 -28 61 -63c0 -34 -28 -62 -61 -62h-268v-151h275c33 0 61 -28 61 -61zM482 766c0 -21 -16 -37 -35 -37h-293
c-19 0 -35 16 -35 37c0 19 16 35 35 35h293c19 0 35 -16 35 -35z" />
    <glyph glyph-name="emacron" unicode="&#x113;" horiz-adv-x="553" 
d="M522 259c0 -31 -26 -58 -59 -58h-298c8 -61 57 -112 139 -112c27 0 64 8 94 24c8 4 17 6 25 6c27 0 54 -21 54 -51c0 -57 -123 -80 -187 -80c-147 0 -258 99 -258 254c0 140 103 253 250 253c109 0 192 -63 226 -163c7 -22 14 -49 14 -73zM401 287
c-3 46 -35 107 -119 107c-79 0 -113 -59 -119 -107h238zM463 599c0 -21 -16 -37 -35 -37h-293c-19 0 -35 16 -35 37c0 19 16 35 35 35h293c19 0 35 -16 35 -35z" />
    <glyph glyph-name="Edotaccent" unicode="&#x116;" horiz-adv-x="583" 
d="M544 64c0 -36 -28 -64 -61 -64h-337c-44 0 -80 36 -80 80v507c0 44 36 80 80 80h337c33 0 61 -28 61 -63c0 -34 -28 -62 -61 -62h-275v-141h268c33 0 61 -28 61 -63c0 -34 -28 -62 -61 -62h-268v-151h275c33 0 61 -28 61 -61zM370 778c0 -38 -31 -68 -67 -68
c-38 0 -68 30 -68 68c0 37 30 68 68 68c36 0 67 -31 67 -68z" />
    <glyph glyph-name="edotaccent" unicode="&#x117;" horiz-adv-x="553" 
d="M522 259c0 -31 -26 -58 -59 -58h-298c8 -61 57 -112 139 -112c27 0 64 8 94 24c8 4 17 6 25 6c27 0 54 -21 54 -51c0 -57 -123 -80 -187 -80c-147 0 -258 99 -258 254c0 140 103 253 250 253c109 0 192 -63 226 -163c7 -22 14 -49 14 -73zM401 287
c-3 46 -35 107 -119 107c-79 0 -113 -59 -119 -107h238zM352 611c0 -38 -31 -68 -67 -68c-38 0 -68 30 -68 68c0 37 30 68 68 68c36 0 67 -31 67 -68z" />
    <glyph glyph-name="Eogonek" unicode="&#x118;" horiz-adv-x="583" 
d="M592 -133c0 -31 -52 -53 -87 -53c-53 0 -100 26 -100 90c0 37 16 70 45 96h-304c-44 0 -80 36 -80 80v507c0 44 36 80 80 80h337c33 0 61 -28 61 -63c0 -34 -28 -62 -61 -62h-275v-141h268c33 0 61 -28 61 -63c0 -34 -28 -62 -61 -62h-268v-151h275c33 0 61 -28 61 -61
c0 -28 -16 -47 -33 -67c-20 -24 -43 -48 -43 -87c0 -31 18 -43 37 -43c18 0 28 14 42 21c5 3 10 5 17 5c16 0 28 -12 28 -26z" />
    <glyph glyph-name="eogonek" unicode="&#x119;" horiz-adv-x="553" 
d="M522 259c0 -31 -26 -58 -59 -58h-298c8 -61 57 -112 139 -112c27 0 64 8 94 24c8 4 17 6 25 6c27 0 54 -21 54 -51c0 -43 -63 -58 -93 -68c-25 -8 -71 -41 -71 -90c0 -31 18 -43 37 -43c18 0 28 14 42 21c5 3 10 5 17 5c16 0 28 -12 28 -26c0 -31 -52 -53 -87 -53
c-53 0 -100 26 -100 90c0 32 11 60 33 84c-144 3 -251 101 -251 254c0 140 103 253 250 253c127 0 240 -98 240 -236zM401 287c-3 46 -35 107 -119 107c-79 0 -113 -59 -119 -107h238z" />
    <glyph glyph-name="Ecaron" unicode="&#x11a;" horiz-adv-x="583" 
d="M544 64c0 -36 -28 -64 -61 -64h-337c-44 0 -80 36 -80 80v507c0 44 36 80 80 80h337c33 0 61 -28 61 -63c0 -34 -28 -62 -61 -62h-275v-141h268c33 0 61 -28 61 -63c0 -34 -28 -62 -61 -62h-268v-151h275c33 0 61 -28 61 -61zM432 839c0 -6 -1 -12 -5 -17l-41 -62
c-18 -27 -48 -44 -82 -44c-32 0 -63 17 -80 44l-40 62c-4 5 -6 11 -6 17c0 15 13 33 34 33c9 0 19 -4 26 -12l67 -83l68 83c6 8 15 12 24 12c18 0 35 -14 35 -33z" />
    <glyph glyph-name="ecaron" unicode="&#x11b;" horiz-adv-x="553" 
d="M522 259c0 -31 -26 -58 -59 -58h-298c8 -61 57 -112 139 -112c27 0 64 8 94 24c8 4 17 6 25 6c27 0 54 -21 54 -51c0 -57 -123 -80 -187 -80c-147 0 -258 99 -258 254c0 140 103 253 250 253c109 0 192 -63 226 -163c7 -22 14 -49 14 -73zM401 287
c-3 46 -35 107 -119 107c-79 0 -113 -59 -119 -107h238zM411 672c0 -6 -1 -12 -5 -17l-41 -62c-18 -27 -48 -44 -82 -44c-32 0 -63 17 -80 44l-40 62c-4 5 -6 11 -6 17c0 15 13 33 34 33c9 0 19 -4 26 -12l67 -83l68 83c6 8 15 12 24 12c18 0 35 -14 35 -33z" />
    <glyph glyph-name="uni0122" unicode="&#x122;" horiz-adv-x="720" 
d="M673 176c0 -121 -149 -189 -284 -189c-195 0 -355 136 -355 346c0 211 160 345 355 345c108 0 185 -42 237 -98c11 -12 17 -28 17 -43c0 -35 -32 -64 -67 -64c-17 0 -35 7 -48 20c-38 37 -88 59 -139 59c-121 0 -209 -93 -209 -219s88 -219 209 -219c59 0 115 26 142 51
v80h-121c-34 0 -61 27 -61 63c0 34 27 61 61 61h183c44 0 80 -36 80 -80v-113zM461 -138c0 -52 -25 -100 -67 -136c-6 -5 -14 -8 -23 -8c-7 0 -13 3 -18 7l-1 1c-4 5 -7 10 -7 17c0 4 2 8 5 13c12 17 41 42 47 70c-2 -1 -9 -2 -15 -2c-30 0 -53 23 -53 56c0 35 27 63 61 63
c37 0 71 -29 71 -81z" />
    <glyph glyph-name="uni0123" unicode="&#x123;" horiz-adv-x="585" 
d="M293 535c-26 0 -64 18 -64 76c0 48 31 147 79 147c13 0 30 -10 30 -26c0 -17 -44 -47 -45 -74c33 0 64 -25 64 -59s-27 -64 -64 -64zM522 33c0 -184 -142 -229 -261 -229c-70 0 -195 21 -195 88c0 31 25 53 53 53c9 0 18 -2 27 -7c34 -21 72 -30 115 -30
c61 0 133 27 133 122v49c-38 -48 -90 -76 -149 -76c-121 0 -213 85 -213 246c0 158 91 246 213 246c58 0 110 -25 149 -74v5c0 35 28 63 65 63c35 0 63 -28 63 -63v-393zM394 171v156c-21 32 -67 55 -109 55c-72 0 -122 -50 -122 -133s50 -133 122 -133c42 0 88 24 109 55z
" />
    <glyph glyph-name="Imacron" unicode="&#x12a;" horiz-adv-x="274" 
d="M208 64c0 -38 -32 -70 -72 -70c-38 0 -70 32 -70 70v539c0 38 32 70 72 70c38 0 70 -32 70 -70v-539zM320 766c0 -21 -16 -37 -35 -37h-293c-19 0 -35 16 -35 37c0 19 16 35 35 35h293c19 0 35 -16 35 -35z" />
    <glyph glyph-name="imacron" unicode="&#x12b;" horiz-adv-x="253" 
d="M309 599c0 -21 -16 -37 -35 -37h-293c-19 0 -35 16 -35 37c0 19 16 35 35 35h293c19 0 35 -16 35 -35zM190 57c0 -35 -28 -63 -64 -63c-35 0 -63 28 -63 63v370c0 34 28 62 65 62c34 0 62 -28 62 -62v-370z" />
    <glyph glyph-name="Iogonek" unicode="&#x12e;" horiz-adv-x="274" 
d="M262 -133c0 -31 -52 -53 -87 -53c-53 0 -100 26 -100 90c0 36 15 67 42 93c-29 8 -51 35 -51 67v539c0 38 32 70 72 70c38 0 70 -32 70 -70v-539c0 -17 -5 -30 -12 -42c-20 -34 -58 -57 -58 -112c0 -31 18 -43 37 -43c18 0 28 14 42 21c5 3 10 5 17 5c16 0 28 -12 28 -26
z" />
    <glyph glyph-name="iogonek" unicode="&#x12f;" horiz-adv-x="253" 
d="M126 686c42 0 76 -33 76 -75s-34 -76 -76 -76c-41 0 -76 34 -76 76s35 75 76 75zM244 -133c0 -31 -52 -53 -87 -53c-53 0 -100 26 -100 90c0 37 16 69 44 95c-23 9 -38 31 -38 58v370c0 34 28 62 65 62c34 0 62 -28 62 -62v-370c0 -58 -70 -71 -70 -147
c0 -31 18 -43 37 -43c24 0 35 26 59 26c16 0 28 -12 28 -26z" />
    <glyph glyph-name="dotlessi" unicode="&#x131;" horiz-adv-x="253" 
d="M190 57c0 -35 -28 -63 -64 -63c-35 0 -63 28 -63 63v370c0 34 28 62 65 62c34 0 62 -28 62 -62v-370z" />
    <glyph glyph-name="uni0136" unicode="&#x136;" horiz-adv-x="648" 
d="M569 63c0 -35 -30 -69 -69 -69c-21 0 -41 9 -54 27l-186 246l-52 -62v-141c0 -38 -32 -70 -72 -70c-38 0 -70 32 -70 70v539c0 38 32 70 72 70c38 0 70 -32 70 -70v-234l220 278c12 16 32 24 51 24c36 0 68 -29 68 -65c0 -15 -5 -30 -15 -42l-178 -210l201 -251
c9 -12 14 -26 14 -40zM395 -138c0 -52 -25 -100 -67 -136c-6 -5 -14 -8 -23 -8c-7 0 -13 3 -18 7l-1 1c-4 5 -7 10 -7 17c0 4 2 8 5 13c12 17 41 42 47 70c-2 -1 -9 -2 -15 -2c-30 0 -53 23 -53 56c0 35 27 63 61 63c37 0 71 -29 71 -81z" />
    <glyph glyph-name="uni0137" unicode="&#x137;" horiz-adv-x="535" 
d="M477 58c0 -31 -26 -64 -63 -64c-20 0 -41 9 -53 27l-113 165l-58 -62v-67c0 -35 -28 -63 -64 -63c-35 0 -63 28 -63 63v554c0 34 28 62 65 62c34 0 62 -28 62 -62v-343l171 202c11 13 27 20 43 20c32 0 60 -28 60 -60c0 -14 -5 -27 -14 -38l-112 -128l127 -170
c8 -11 12 -24 12 -36zM339 -138c0 -52 -25 -100 -67 -136c-6 -5 -14 -8 -23 -8c-7 0 -13 3 -18 7l-1 1c-4 5 -7 10 -7 17c0 4 2 8 5 13c12 17 41 42 47 70c-2 -1 -9 -2 -15 -2c-30 0 -53 23 -53 56c0 35 27 63 61 63c37 0 71 -29 71 -81z" />
    <glyph glyph-name="Lacute" unicode="&#x139;" horiz-adv-x="523" 
d="M496 64c0 -36 -28 -64 -61 -64h-289c-44 0 -80 36 -80 80v523c0 38 32 70 72 70c38 0 70 -32 70 -70v-478h227c33 0 61 -28 61 -61zM410 834c0 -10 -4 -20 -12 -27l-93 -82c-6 -5 -13 -8 -21 -8c-16 0 -33 14 -33 33c0 8 3 16 9 22l83 89c7 8 17 12 27 12
c20 0 40 -17 40 -39z" />
    <glyph glyph-name="lacute" unicode="&#x13a;" horiz-adv-x="253" 
d="M190 57c0 -35 -28 -63 -64 -63c-35 0 -63 28 -63 63v554c0 34 28 62 65 62c34 0 62 -28 62 -62v-554zM259 834c0 -10 -4 -20 -12 -27l-93 -82c-6 -5 -13 -8 -21 -8c-16 0 -33 14 -33 33c0 8 3 16 9 22l83 89c7 8 17 12 27 12c20 0 40 -17 40 -39z" />
    <glyph glyph-name="uni013B" unicode="&#x13b;" horiz-adv-x="523" 
d="M496 64c0 -36 -28 -64 -61 -64h-289c-44 0 -80 36 -80 80v523c0 38 32 70 72 70c38 0 70 -32 70 -70v-478h227c33 0 61 -28 61 -61zM331 -138c0 -52 -25 -100 -67 -136c-6 -5 -14 -8 -23 -8c-7 0 -13 3 -18 7l-1 1c-4 5 -7 10 -7 17c0 4 2 8 5 13c12 17 41 42 47 70
c-2 -1 -9 -2 -15 -2c-30 0 -53 23 -53 56c0 35 27 63 61 63c37 0 71 -29 71 -81z" />
    <glyph glyph-name="uni013C" unicode="&#x13c;" horiz-adv-x="253" 
d="M190 57c0 -35 -28 -63 -64 -63c-35 0 -63 28 -63 63v554c0 34 28 62 65 62c34 0 62 -28 62 -62v-554zM198 -138c0 -52 -25 -100 -67 -136c-6 -5 -14 -8 -23 -8c-7 0 -13 3 -18 7l-1 1c-4 5 -7 10 -7 17c0 4 2 8 5 13c12 17 41 42 47 70c-2 -1 -9 -2 -15 -2
c-30 0 -53 23 -53 56c0 35 27 63 61 63c37 0 71 -29 71 -81z" />
    <glyph glyph-name="Lcaron" unicode="&#x13d;" horiz-adv-x="523" 
d="M496 64c0 -36 -28 -64 -61 -64h-289c-44 0 -80 36 -80 80v523c0 38 32 70 72 70c38 0 70 -32 70 -70v-478h227c33 0 61 -28 61 -61zM421 599c0 -52 -25 -100 -67 -136c-6 -5 -14 -8 -23 -8c-7 0 -13 3 -18 7l-1 1c-4 5 -7 10 -7 17c0 4 2 8 5 13c12 17 41 42 47 70
c-2 -1 -9 -2 -15 -2c-30 0 -53 23 -53 56c0 35 27 63 61 63c37 0 71 -29 71 -81z" />
    <glyph glyph-name="lcaron" unicode="&#x13e;" horiz-adv-x="354" 
d="M190 57c0 -35 -28 -63 -64 -63c-35 0 -63 28 -63 63v554c0 34 28 62 65 62c34 0 62 -28 62 -62v-554zM373 599c0 -52 -25 -100 -67 -136c-6 -5 -14 -8 -23 -8c-7 0 -13 3 -18 7l-1 1c-4 5 -7 10 -7 17c0 4 2 8 5 13c12 17 41 42 47 70c-2 -1 -9 -2 -15 -2
c-30 0 -53 23 -53 56c0 35 27 63 61 63c37 0 71 -29 71 -81z" />
    <glyph glyph-name="Lslash" unicode="&#x141;" horiz-adv-x="537" 
d="M510 62c0 -34 -28 -62 -61 -62h-289c-44 0 -80 36 -80 80v153l-5 -3c-7 -4 -15 -6 -23 -6c-25 0 -50 21 -50 51c0 18 9 35 25 44l53 30v254c0 38 32 70 72 70c38 0 70 -32 70 -70v-172l10 6c7 4 15 6 22 6c24 0 51 -20 51 -51c0 -18 -10 -35 -26 -44l-57 -33v-190h227
c33 0 61 -28 61 -63z" />
    <glyph glyph-name="lslash" unicode="&#x142;" horiz-adv-x="308" 
d="M305 398c0 -14 -7 -28 -20 -35l-67 -39v-267c0 -35 -28 -63 -64 -63c-35 0 -63 28 -63 63v194l-30 -17c-6 -3 -13 -5 -19 -5c-19 0 -40 16 -40 41c0 14 7 27 20 34l69 40v267c0 34 28 62 65 62c34 0 62 -28 62 -62v-194l29 17c6 3 12 5 18 5c20 0 40 -17 40 -41z" />
    <glyph glyph-name="Nacute" unicode="&#x143;" horiz-adv-x="729" 
d="M663 80c0 -45 -37 -86 -88 -86c-27 0 -54 13 -71 36l-296 405v-371c0 -38 -32 -70 -72 -70c-38 0 -70 32 -70 70v518c0 47 40 91 93 91c30 0 60 -14 78 -39l284 -386v355c0 38 32 70 72 70c38 0 70 -32 70 -70v-523zM497 834c0 -10 -4 -20 -12 -27l-93 -82
c-6 -5 -13 -8 -21 -8c-16 0 -33 14 -33 33c0 8 3 16 9 22l83 89c7 8 17 12 27 12c20 0 40 -17 40 -39z" />
    <glyph glyph-name="nacute" unicode="&#x144;" 
d="M516 57c0 -35 -28 -63 -64 -63c-35 0 -63 28 -63 63v235c0 67 -35 90 -89 90c-50 0 -89 -28 -110 -57v-268c0 -35 -28 -63 -64 -63c-35 0 -63 28 -63 63v370c0 34 28 62 65 62c34 0 62 -28 62 -62v-7c31 37 90 75 169 75c106 0 157 -60 157 -154v-284zM422 667
c0 -10 -4 -20 -12 -27l-93 -82c-6 -5 -13 -8 -21 -8c-16 0 -33 14 -33 33c0 8 3 16 9 22l83 89c7 8 17 12 27 12c20 0 40 -17 40 -39z" />
    <glyph glyph-name="uni0145" unicode="&#x145;" horiz-adv-x="729" 
d="M663 80c0 -45 -37 -86 -88 -86c-27 0 -54 13 -71 36l-296 405v-371c0 -38 -32 -70 -72 -70c-38 0 -70 32 -70 70v518c0 47 40 91 93 91c30 0 60 -14 78 -39l284 -386v355c0 38 32 70 72 70c38 0 70 -32 70 -70v-523zM436 -138c0 -52 -25 -100 -67 -136
c-6 -5 -14 -8 -23 -8c-7 0 -13 3 -18 7l-1 1c-4 5 -7 10 -7 17c0 4 2 8 5 13c12 17 41 42 47 70c-2 -1 -9 -2 -15 -2c-30 0 -53 23 -53 56c0 35 27 63 61 63c37 0 71 -29 71 -81z" />
    <glyph glyph-name="uni0146" unicode="&#x146;" 
d="M516 57c0 -35 -28 -63 -64 -63c-35 0 -63 28 -63 63v235c0 67 -35 90 -89 90c-50 0 -89 -28 -110 -57v-268c0 -35 -28 -63 -64 -63c-35 0 -63 28 -63 63v370c0 34 28 62 65 62c34 0 62 -28 62 -62v-7c31 37 90 75 169 75c106 0 157 -60 157 -154v-284zM358 -138
c0 -52 -25 -100 -67 -136c-6 -5 -14 -8 -23 -8c-7 0 -13 3 -18 7l-1 1c-4 5 -7 10 -7 17c0 4 2 8 5 13c12 17 41 42 47 70c-2 -1 -9 -2 -15 -2c-30 0 -53 23 -53 56c0 35 27 63 61 63c37 0 71 -29 71 -81z" />
    <glyph glyph-name="Ncaron" unicode="&#x147;" horiz-adv-x="729" 
d="M663 80c0 -45 -37 -86 -88 -86c-27 0 -54 13 -71 36l-296 405v-371c0 -38 -32 -70 -72 -70c-38 0 -70 32 -70 70v518c0 47 40 91 93 91c30 0 60 -14 78 -39l284 -386v355c0 38 32 70 72 70c38 0 70 -32 70 -70v-523zM492 839c0 -6 -1 -12 -5 -17l-41 -62
c-18 -27 -48 -44 -82 -44c-32 0 -63 17 -80 44l-40 62c-4 5 -6 11 -6 17c0 15 13 33 34 33c9 0 19 -4 26 -12l67 -83l68 83c6 8 15 12 24 12c18 0 35 -14 35 -33z" />
    <glyph glyph-name="ncaron" unicode="&#x148;" 
d="M516 57c0 -35 -28 -63 -64 -63c-35 0 -63 28 -63 63v235c0 67 -35 90 -89 90c-50 0 -89 -28 -110 -57v-268c0 -35 -28 -63 -64 -63c-35 0 -63 28 -63 63v370c0 34 28 62 65 62c34 0 62 -28 62 -62v-7c31 37 90 75 169 75c106 0 157 -60 157 -154v-284zM419 672
c0 -6 -1 -12 -5 -17l-41 -62c-18 -27 -48 -44 -82 -44c-32 0 -63 17 -80 44l-40 62c-4 5 -6 11 -6 17c0 15 13 33 34 33c9 0 19 -4 26 -12l67 -83l68 83c6 8 15 12 24 12c18 0 35 -14 35 -33z" />
    <glyph glyph-name="Omacron" unicode="&#x14c;" horiz-adv-x="765" 
d="M731 333c0 -201 -147 -345 -349 -345c-201 0 -348 144 -348 345s147 345 348 345c202 0 349 -144 349 -345zM585 333c0 125 -80 219 -203 219s-202 -94 -202 -219c0 -124 79 -219 202 -219s203 95 203 219zM563 766c0 -21 -16 -37 -35 -37h-293c-19 0 -35 16 -35 37
c0 19 16 35 35 35h293c19 0 35 -16 35 -35z" />
    <glyph glyph-name="omacron" unicode="&#x14d;" horiz-adv-x="574" 
d="M543 242c0 -138 -96 -254 -256 -254c-159 0 -255 116 -255 254c0 137 96 253 255 253c160 0 256 -116 256 -253zM411 242c0 75 -45 140 -124 140s-123 -65 -123 -140c0 -76 44 -141 123 -141s124 65 124 141zM469 599c0 -21 -16 -37 -35 -37h-293c-19 0 -35 16 -35 37
c0 19 16 35 35 35h293c19 0 35 -16 35 -35z" />
    <glyph glyph-name="Ohungarumlaut" unicode="&#x150;" horiz-adv-x="765" 
d="M731 333c0 -201 -147 -345 -349 -345c-201 0 -348 144 -348 345s147 345 348 345c202 0 349 -144 349 -345zM585 333c0 125 -80 219 -203 219s-202 -94 -202 -219c0 -124 79 -219 202 -219s203 95 203 219zM412 833c0 -8 -2 -16 -7 -22l-66 -82c-6 -8 -15 -12 -25 -12
c-18 0 -33 15 -33 32c0 5 1 10 4 15l54 89c7 12 20 19 34 19c24 0 39 -20 39 -39zM561 833c0 -8 -2 -16 -7 -22l-65 -82c-7 -8 -16 -12 -26 -12c-16 0 -34 11 -34 31c0 5 2 11 5 16l54 89c7 12 20 19 34 19c24 0 39 -20 39 -39z" />
    <glyph glyph-name="ohungarumlaut" unicode="&#x151;" horiz-adv-x="574" 
d="M543 242c0 -138 -96 -254 -256 -254c-159 0 -255 116 -255 254c0 137 96 253 255 253c160 0 256 -116 256 -253zM411 242c0 75 -45 140 -124 140s-123 -65 -123 -140c0 -76 44 -141 123 -141s124 65 124 141zM316 666c0 -8 -2 -16 -7 -22l-66 -82c-6 -8 -15 -12 -25 -12
c-18 0 -33 15 -33 32c0 5 1 10 4 15l54 89c7 12 20 19 34 19c24 0 39 -20 39 -39zM465 666c0 -8 -2 -16 -7 -22l-65 -82c-7 -8 -16 -12 -26 -12c-16 0 -34 11 -34 31c0 5 2 11 5 16l54 89c7 12 20 19 34 19c24 0 39 -20 39 -39z" />
    <glyph glyph-name="OE" unicode="&#x152;" horiz-adv-x="1084" 
d="M1047 64c0 -36 -28 -64 -61 -64h-340c-42 0 -77 35 -77 78c-45 -60 -128 -90 -201 -90c-194 0 -334 143 -334 345s140 344 334 344c73 0 156 -29 201 -88c0 43 35 78 78 78h339c33 0 61 -28 61 -63c0 -34 -28 -62 -61 -62h-274v-141h267c33 0 61 -28 61 -63
c0 -34 -28 -62 -61 -62h-267v-151h274c33 0 61 -28 61 -61zM569 230v206c-32 76 -100 115 -181 115c-129 0 -208 -93 -208 -218c0 -124 79 -219 208 -219c81 0 149 42 181 116z" />
    <glyph glyph-name="oe" unicode="&#x153;" horiz-adv-x="931" 
d="M900 261c0 -33 -27 -60 -60 -60h-296c9 -59 56 -112 139 -112c29 0 64 8 93 23c8 4 16 6 25 6c27 0 54 -20 54 -50c0 -9 -3 -18 -9 -26c-30 -38 -124 -54 -177 -54c-107 0 -161 59 -194 107c-32 -46 -87 -107 -188 -107c-159 0 -255 116 -255 254c0 137 96 253 255 253
c101 0 156 -62 189 -108c30 47 86 108 185 108c110 0 192 -63 225 -163c6 -19 14 -43 14 -71zM780 287c-3 46 -36 107 -120 107c-78 0 -113 -59 -118 -107h238zM411 242c0 82 -49 140 -124 140c-74 0 -123 -58 -123 -140c0 -83 49 -142 123 -142c75 0 124 59 124 142z" />
    <glyph glyph-name="Racute" unicode="&#x154;" horiz-adv-x="643" 
d="M602 452c0 -118 -74 -181 -146 -198l92 -156c6 -11 9 -23 9 -34c0 -34 -28 -70 -70 -70c-25 0 -48 13 -61 36l-114 207h-104v-173c0 -38 -32 -70 -72 -70c-38 0 -70 32 -70 70v523c0 44 36 80 80 80h232c139 0 224 -91 224 -215zM357 542h-149v-180h149
c57 0 100 34 100 90s-43 90 -100 90zM462 834c0 -10 -4 -20 -12 -27l-93 -82c-6 -5 -13 -8 -21 -8c-16 0 -33 14 -33 33c0 8 3 16 9 22l83 89c7 8 17 12 27 12c20 0 40 -17 40 -39z" />
    <glyph glyph-name="racute" unicode="&#x155;" horiz-adv-x="360" 
d="M350 435c0 -38 -26 -60 -61 -65c-39 -5 -76 -21 -99 -51v-262c0 -35 -28 -63 -62 -63h-2c-35 0 -63 28 -63 63v370c0 34 28 62 65 62c34 0 62 -28 62 -62v-10c24 32 56 70 104 70c37 0 56 -23 56 -52zM336 667c0 -10 -4 -20 -12 -27l-93 -82c-6 -5 -13 -8 -21 -8
c-16 0 -33 14 -33 33c0 8 3 16 9 22l83 89c7 8 17 12 27 12c20 0 40 -17 40 -39z" />
    <glyph glyph-name="uni0156" unicode="&#x156;" horiz-adv-x="643" 
d="M602 452c0 -118 -74 -181 -146 -198l92 -156c6 -11 9 -23 9 -34c0 -34 -28 -70 -70 -70c-25 0 -48 13 -61 36l-114 207h-104v-173c0 -38 -32 -70 -72 -70c-38 0 -70 32 -70 70v523c0 44 36 80 80 80h232c139 0 224 -91 224 -215zM357 542h-149v-180h149
c57 0 100 34 100 90s-43 90 -100 90zM396 -138c0 -52 -25 -100 -67 -136c-6 -5 -14 -8 -23 -8c-7 0 -13 3 -18 7l-1 1c-4 5 -7 10 -7 17c0 4 2 8 5 13c12 17 41 42 47 70c-2 -1 -9 -2 -15 -2c-30 0 -53 23 -53 56c0 35 27 63 61 63c37 0 71 -29 71 -81z" />
    <glyph glyph-name="uni0157" unicode="&#x157;" horiz-adv-x="360" 
d="M350 435c0 -38 -26 -60 -61 -65c-39 -5 -76 -21 -99 -51v-262c0 -35 -28 -63 -62 -63h-2c-35 0 -63 28 -63 63v370c0 34 28 62 65 62c34 0 62 -28 62 -62v-10c24 32 56 70 104 70c37 0 56 -23 56 -52zM251 -138c0 -52 -25 -100 -67 -136c-6 -5 -14 -8 -23 -8
c-7 0 -13 3 -18 7l-1 1c-4 5 -7 10 -7 17c0 4 2 8 5 13c12 17 41 42 47 70c-2 -1 -9 -2 -15 -2c-30 0 -53 23 -53 56c0 35 27 63 61 63c37 0 71 -29 71 -81z" />
    <glyph glyph-name="Rcaron" unicode="&#x158;" horiz-adv-x="643" 
d="M602 452c0 -118 -74 -181 -146 -198l92 -156c6 -11 9 -23 9 -34c0 -34 -28 -70 -70 -70c-25 0 -48 13 -61 36l-114 207h-104v-173c0 -38 -32 -70 -72 -70c-38 0 -70 32 -70 70v523c0 44 36 80 80 80h232c139 0 224 -91 224 -215zM357 542h-149v-180h149
c57 0 100 34 100 90s-43 90 -100 90zM453 839c0 -6 -1 -12 -5 -17l-41 -62c-18 -27 -48 -44 -82 -44c-32 0 -63 17 -80 44l-40 62c-4 5 -6 11 -6 17c0 15 13 33 34 33c9 0 19 -4 26 -12l67 -83l68 83c6 8 15 12 24 12c18 0 35 -14 35 -33z" />
    <glyph glyph-name="rcaron" unicode="&#x159;" horiz-adv-x="360" 
d="M350 435c0 -38 -26 -60 -61 -65c-39 -5 -76 -21 -99 -51v-262c0 -35 -28 -63 -62 -63h-2c-35 0 -63 28 -63 63v370c0 34 28 62 65 62c34 0 62 -28 62 -62v-10c24 32 56 70 104 70c37 0 56 -23 56 -52zM331 672c0 -6 -1 -12 -5 -17l-41 -62c-18 -27 -48 -44 -82 -44
c-32 0 -63 17 -80 44l-40 62c-4 5 -6 11 -6 17c0 15 13 33 34 33c9 0 19 -4 26 -12l67 -83l68 83c6 8 15 12 24 12c18 0 35 -14 35 -33z" />
    <glyph glyph-name="Sacute" unicode="&#x15a;" horiz-adv-x="600" 
d="M570 202c0 -122 -87 -214 -267 -214c-97 0 -217 32 -254 87c-7 10 -11 22 -11 34c0 38 33 66 67 66c13 0 27 -3 38 -11c45 -31 102 -52 167 -52c78 0 116 36 116 74c0 118 -384 37 -384 288c0 111 96 203 253 203c76 0 192 -25 229 -74c8 -10 12 -22 12 -34
c0 -38 -37 -64 -71 -64c-12 0 -24 3 -36 10c-46 26 -98 38 -147 38c-61 0 -95 -27 -95 -67c0 -106 383 -35 383 -284zM431 834c0 -10 -4 -20 -12 -27l-93 -82c-6 -5 -13 -8 -21 -8c-16 0 -33 14 -33 33c0 8 3 16 9 22l83 89c7 8 17 12 27 12c20 0 40 -17 40 -39z" />
    <glyph glyph-name="sacute" unicode="&#x15b;" horiz-adv-x="477" 
d="M446 143c0 -88 -75 -155 -209 -155c-63 0 -164 21 -194 64c-6 8 -9 17 -9 27c0 30 26 53 53 53c9 0 18 -2 26 -7c38 -22 88 -39 130 -39c55 0 81 22 81 52c0 80 -287 15 -287 205c0 81 71 152 198 152c63 0 149 -20 176 -59c5 -7 8 -16 8 -25c0 -27 -24 -48 -50 -48
c-8 0 -17 2 -24 6c-31 18 -70 29 -109 29c-46 0 -76 -21 -76 -48c0 -72 286 -12 286 -207zM370 667c0 -10 -4 -20 -12 -27l-93 -82c-6 -5 -13 -8 -21 -8c-16 0 -33 14 -33 33c0 8 3 16 9 22l83 89c7 8 17 12 27 12c20 0 40 -17 40 -39z" />
    <glyph glyph-name="Scedilla" unicode="&#x15e;" horiz-adv-x="600" 
d="M570 202c0 -120 -83 -210 -255 -214l-16 -39c10 6 23 10 36 10c37 0 67 -28 67 -70c0 -53 -51 -85 -111 -85c-47 0 -107 15 -107 46c0 16 13 28 28 28c4 0 8 -1 12 -3c21 -11 44 -17 63 -17c27 0 52 11 52 33c0 16 -10 26 -29 26c-16 0 -24 -12 -40 -12
c-20 0 -33 16 -33 31c0 4 1 7 2 11l16 43c-78 7 -175 38 -207 86c-6 10 -10 21 -10 33c0 38 33 66 67 66c13 0 27 -3 38 -11c45 -31 102 -52 167 -52c78 0 116 36 116 74c0 118 -384 37 -384 288c0 111 96 203 253 203c76 0 192 -25 229 -74c8 -10 12 -22 12 -34
c0 -38 -37 -64 -71 -64c-12 0 -24 3 -36 10c-46 26 -98 38 -147 38c-61 0 -95 -27 -95 -67c0 -106 383 -35 383 -284z" />
    <glyph glyph-name="scedilla" unicode="&#x15f;" horiz-adv-x="477" 
d="M446 143c0 -83 -67 -147 -186 -154l-16 -40c10 6 23 10 36 10c37 0 67 -28 67 -70c0 -53 -51 -85 -111 -85c-47 0 -107 15 -107 46c0 16 13 28 28 28c4 0 8 -1 12 -3c21 -11 44 -17 63 -17c27 0 52 11 52 33c0 16 -10 26 -29 26c-16 0 -24 -12 -40 -12
c-20 0 -33 16 -33 31c0 4 1 7 2 11l16 43c-55 5 -133 26 -158 63c-5 8 -8 17 -8 26c0 30 26 53 53 53c9 0 18 -2 26 -7c38 -22 88 -39 130 -39c55 0 81 22 81 52c0 80 -287 15 -287 205c0 81 71 152 198 152c63 0 149 -20 176 -59c5 -7 8 -16 8 -25c0 -27 -24 -48 -50 -48
c-8 0 -17 2 -24 6c-31 18 -70 29 -109 29c-46 0 -76 -21 -76 -48c0 -72 286 -12 286 -207z" />
    <glyph glyph-name="Scaron" unicode="&#x160;" horiz-adv-x="600" 
d="M570 202c0 -122 -87 -214 -267 -214c-97 0 -217 32 -254 87c-7 10 -11 22 -11 34c0 38 33 66 67 66c13 0 27 -3 38 -11c45 -31 102 -52 167 -52c78 0 116 36 116 74c0 118 -384 37 -384 288c0 111 96 203 253 203c76 0 192 -25 229 -74c8 -10 12 -22 12 -34
c0 -38 -37 -64 -71 -64c-12 0 -24 3 -36 10c-46 26 -98 38 -147 38c-61 0 -95 -27 -95 -67c0 -106 383 -35 383 -284zM422 839c0 -6 -1 -12 -5 -17l-41 -62c-18 -27 -48 -44 -82 -44c-32 0 -63 17 -80 44l-40 62c-4 5 -6 11 -6 17c0 15 13 33 34 33c9 0 19 -4 26 -12l67 -83
l68 83c6 8 15 12 24 12c18 0 35 -14 35 -33z" />
    <glyph glyph-name="scaron" unicode="&#x161;" horiz-adv-x="477" 
d="M446 143c0 -88 -75 -155 -209 -155c-63 0 -164 21 -194 64c-6 8 -9 17 -9 27c0 30 26 53 53 53c9 0 18 -2 26 -7c38 -22 88 -39 130 -39c55 0 81 22 81 52c0 80 -287 15 -287 205c0 81 71 152 198 152c63 0 149 -20 176 -59c5 -7 8 -16 8 -25c0 -27 -24 -48 -50 -48
c-8 0 -17 2 -24 6c-31 18 -70 29 -109 29c-46 0 -76 -21 -76 -48c0 -72 286 -12 286 -207zM366 672c0 -6 -1 -12 -5 -17l-41 -62c-18 -27 -48 -44 -82 -44c-32 0 -63 17 -80 44l-40 62c-4 5 -6 11 -6 17c0 15 13 33 34 33c9 0 19 -4 26 -12l67 -83l68 83c6 8 15 12 24 12
c18 0 35 -14 35 -33z" />
    <glyph glyph-name="uni0162" unicode="&#x162;" horiz-adv-x="582" 
d="M563 604c0 -34 -28 -62 -61 -62h-139v-477c0 -39 -32 -71 -72 -71c-39 0 -71 32 -71 71v477h-139c-34 0 -62 28 -62 64c0 33 28 61 62 61h421c33 0 61 -28 61 -63zM362 -138c0 -52 -25 -100 -67 -136c-6 -5 -14 -8 -23 -8c-7 0 -13 3 -18 7l-1 1c-4 5 -7 10 -7 17
c0 4 2 8 5 13c12 17 41 42 47 70c-2 -1 -9 -2 -15 -2c-30 0 -53 23 -53 56c0 35 27 63 61 63c37 0 71 -29 71 -81z" />
    <glyph glyph-name="uni0163" unicode="&#x163;" horiz-adv-x="338" 
d="M327 46c0 -32 -19 -58 -102 -58c-89 0 -137 46 -137 132v252h-31c-30 0 -55 25 -55 57c0 29 25 54 55 54h31v75c0 35 28 63 65 63c35 0 63 -28 63 -63v-75h50c29 0 54 -25 54 -56c0 -30 -25 -55 -54 -55h-50v-218c0 -38 24 -53 44 -53h11c36 0 56 -24 56 -55zM240 -138
c0 -52 -25 -100 -67 -136c-6 -5 -14 -8 -23 -8c-7 0 -13 3 -18 7l-1 1c-4 5 -7 10 -7 17c0 4 2 8 5 13c12 17 41 42 47 70c-2 -1 -9 -2 -15 -2c-30 0 -53 23 -53 56c0 35 27 63 61 63c37 0 71 -29 71 -81z" />
    <glyph glyph-name="Tcaron" unicode="&#x164;" horiz-adv-x="582" 
d="M563 604c0 -34 -28 -62 -61 -62h-139v-477c0 -39 -32 -71 -72 -71c-39 0 -71 32 -71 71v477h-139c-34 0 -62 28 -62 64c0 33 28 61 62 61h421c33 0 61 -28 61 -63zM420 839c0 -6 -1 -12 -5 -17l-41 -62c-18 -27 -48 -44 -82 -44c-32 0 -63 17 -80 44l-40 62
c-4 5 -6 11 -6 17c0 15 13 33 34 33c9 0 19 -4 26 -12l67 -83l68 83c6 8 15 12 24 12c18 0 35 -14 35 -33z" />
    <glyph glyph-name="tcaron" unicode="&#x165;" horiz-adv-x="380" 
d="M327 46c0 -32 -19 -58 -102 -58c-89 0 -137 46 -137 132v252h-31c-30 0 -55 25 -55 57c0 29 25 54 55 54h31v75c0 35 28 63 65 63c35 0 63 -28 63 -63v-75h50c29 0 54 -25 54 -56c0 -30 -25 -55 -54 -55h-50v-218c0 -38 24 -53 44 -53h11c36 0 56 -24 56 -55zM402 683
c0 -52 -25 -100 -67 -136c-6 -5 -14 -8 -23 -8c-7 0 -13 3 -18 7l-1 1c-4 5 -7 10 -7 17c0 4 2 8 5 13c12 17 41 42 47 70c-2 -1 -9 -2 -15 -2c-30 0 -53 23 -53 56c0 35 27 63 61 63c37 0 71 -29 71 -81z" />
    <glyph glyph-name="Umacron" unicode="&#x16a;" horiz-adv-x="733" 
d="M668 267c0 -166 -98 -279 -301 -279s-301 114 -301 278v336c0 39 32 71 73 71c39 0 71 -32 71 -71v-331c0 -93 54 -157 157 -157s156 64 156 157v331c0 39 32 71 74 71c39 0 71 -32 71 -71v-335zM550 766c0 -21 -16 -37 -35 -37h-293c-19 0 -35 16 -35 37
c0 19 16 35 35 35h293c19 0 35 -16 35 -35z" />
    <glyph glyph-name="umacron" unicode="&#x16b;" 
d="M516 57c0 -35 -28 -63 -64 -63c-35 0 -63 28 -63 63v4c-33 -37 -91 -73 -170 -73c-106 0 -156 58 -156 152v287c0 34 28 62 65 62c34 0 62 -28 62 -62v-237c0 -67 35 -89 89 -89c49 0 88 27 110 55v271c0 34 28 62 65 62c34 0 62 -28 62 -62v-370zM470 599
c0 -21 -16 -37 -35 -37h-293c-19 0 -35 16 -35 37c0 19 16 35 35 35h293c19 0 35 -16 35 -35z" />
    <glyph glyph-name="Uring" unicode="&#x16e;" horiz-adv-x="733" 
d="M668 267c0 -166 -98 -279 -301 -279s-301 114 -301 278v336c0 39 32 71 73 71c39 0 71 -32 71 -71v-331c0 -93 54 -157 157 -157s156 64 156 157v331c0 39 32 71 74 71c39 0 71 -32 71 -71v-335zM473 803c0 -58 -46 -105 -104 -105c-57 0 -105 47 -105 105
c0 57 48 106 105 106c58 0 104 -49 104 -106zM415 803c0 26 -20 47 -46 47c-25 0 -47 -21 -47 -47c0 -25 22 -47 47 -47c26 0 46 22 46 47z" />
    <glyph glyph-name="uring" unicode="&#x16f;" 
d="M516 57c0 -35 -28 -63 -64 -63c-35 0 -63 28 -63 63v4c-33 -37 -91 -73 -170 -73c-106 0 -156 58 -156 152v287c0 34 28 62 65 62c34 0 62 -28 62 -62v-237c0 -67 35 -89 89 -89c49 0 88 27 110 55v271c0 34 28 62 65 62c34 0 62 -28 62 -62v-370zM394 636
c0 -58 -46 -105 -104 -105c-57 0 -105 47 -105 105c0 57 48 106 105 106c58 0 104 -49 104 -106zM336 636c0 26 -20 47 -46 47c-25 0 -47 -21 -47 -47c0 -25 22 -47 47 -47c26 0 46 22 46 47z" />
    <glyph glyph-name="Uhungarumlaut" unicode="&#x170;" horiz-adv-x="733" 
d="M668 267c0 -166 -98 -279 -301 -279s-301 114 -301 278v336c0 39 32 71 73 71c39 0 71 -32 71 -71v-331c0 -93 54 -157 157 -157s156 64 156 157v331c0 39 32 71 74 71c39 0 71 -32 71 -71v-335zM398 833c0 -8 -2 -16 -7 -22l-66 -82c-6 -8 -15 -12 -25 -12
c-18 0 -33 15 -33 32c0 5 1 10 4 15l54 89c7 12 20 19 34 19c24 0 39 -20 39 -39zM547 833c0 -8 -2 -16 -7 -22l-65 -82c-7 -8 -16 -12 -26 -12c-16 0 -34 11 -34 31c0 5 2 11 5 16l54 89c7 12 20 19 34 19c24 0 39 -20 39 -39z" />
    <glyph glyph-name="uhungarumlaut" unicode="&#x171;" 
d="M516 57c0 -35 -28 -63 -64 -63c-35 0 -63 28 -63 63v4c-33 -37 -91 -73 -170 -73c-106 0 -156 58 -156 152v287c0 34 28 62 65 62c34 0 62 -28 62 -62v-237c0 -67 35 -89 89 -89c49 0 88 27 110 55v271c0 34 28 62 65 62c34 0 62 -28 62 -62v-370zM318 666
c0 -8 -2 -16 -7 -22l-66 -82c-6 -8 -15 -12 -25 -12c-18 0 -33 15 -33 32c0 5 1 10 4 15l54 89c7 12 20 19 34 19c24 0 39 -20 39 -39zM467 666c0 -8 -2 -16 -7 -22l-65 -82c-7 -8 -16 -12 -26 -12c-16 0 -34 11 -34 31c0 5 2 11 5 16l54 89c7 12 20 19 34 19
c24 0 39 -20 39 -39z" />
    <glyph glyph-name="Uogonek" unicode="&#x172;" horiz-adv-x="733" 
d="M668 267c0 -135 -64 -234 -196 -267c-48 -24 -70 -55 -70 -90c0 -31 18 -43 37 -43c17 0 28 13 41 21c5 3 11 5 17 5c17 0 29 -11 29 -26c0 -31 -52 -53 -87 -53c-53 0 -100 26 -100 90c0 32 12 60 28 84c-203 0 -301 114 -301 278v336c0 39 32 71 73 71
c39 0 71 -32 71 -71v-331c0 -93 54 -157 157 -157s156 64 156 157v331c0 39 32 71 74 71c39 0 71 -32 71 -71v-335z" />
    <glyph glyph-name="uogonek" unicode="&#x173;" 
d="M540 -133c0 -31 -52 -53 -87 -53c-53 0 -100 26 -100 90c0 42 20 78 57 105c-13 12 -21 29 -21 48v4c-33 -37 -91 -73 -170 -73c-106 0 -156 58 -156 152v287c0 34 28 62 65 62c34 0 62 -28 62 -62v-237c0 -67 35 -89 89 -89c49 0 88 27 110 55v271c0 34 28 62 65 62
c34 0 62 -28 62 -62v-370c0 -65 -100 -72 -100 -147c0 -31 18 -43 37 -43c24 0 35 26 59 26c16 0 28 -12 28 -26z" />
    <glyph glyph-name="Ydieresis" unicode="&#x178;" horiz-adv-x="645" 
d="M597 607c0 -12 -3 -24 -10 -35l-193 -299v-209c0 -38 -32 -70 -72 -70c-38 0 -70 32 -70 70v209l-195 300c-7 10 -10 22 -10 34c0 32 28 65 68 65c22 0 45 -11 58 -32l150 -241l147 240c13 21 35 33 59 33c41 0 68 -32 68 -65zM285 778c0 -38 -30 -68 -67 -68
c-38 0 -68 30 -68 68c0 37 30 67 68 67c37 0 67 -30 67 -67zM497 778c0 -38 -31 -68 -68 -68s-68 30 -68 68c0 37 31 67 68 67s68 -30 68 -67z" />
    <glyph glyph-name="Zacute" unicode="&#x179;" horiz-adv-x="592" 
d="M556 64c0 -36 -28 -64 -61 -64h-381c-40 0 -78 34 -78 80c0 17 5 33 15 47l306 415h-259c-34 0 -62 28 -62 64c0 33 28 61 62 61h377c38 0 73 -33 73 -78c0 -18 -6 -37 -17 -52l-303 -412h267c33 0 61 -28 61 -61zM413 834c0 -10 -4 -20 -12 -27l-93 -82
c-6 -5 -13 -8 -21 -8c-16 0 -33 14 -33 33c0 8 3 16 9 22l83 89c7 8 17 12 27 12c20 0 40 -17 40 -39z" />
    <glyph glyph-name="zacute" unicode="&#x17a;" horiz-adv-x="479" 
d="M442 57c0 -32 -25 -57 -54 -57h-289c-33 0 -63 28 -63 65c0 14 5 28 14 40l210 267h-169c-30 0 -55 25 -55 57c0 29 25 54 55 54h285c30 0 61 -26 61 -62c0 -15 -4 -29 -13 -40l-213 -270h177c29 0 54 -25 54 -54zM371 667c0 -10 -4 -20 -12 -27l-93 -82
c-6 -5 -13 -8 -21 -8c-16 0 -33 14 -33 33c0 8 3 16 9 22l83 89c7 8 17 12 27 12c20 0 40 -17 40 -39z" />
    <glyph glyph-name="Zdotaccent" unicode="&#x17b;" horiz-adv-x="592" 
d="M556 64c0 -36 -28 -64 -61 -64h-381c-40 0 -78 34 -78 80c0 17 5 33 15 47l306 415h-259c-34 0 -62 28 -62 64c0 33 28 61 62 61h377c38 0 73 -33 73 -78c0 -18 -6 -37 -17 -52l-303 -412h267c33 0 61 -28 61 -61zM358 778c0 -38 -31 -68 -67 -68c-38 0 -68 30 -68 68
c0 37 30 68 68 68c36 0 67 -31 67 -68z" />
    <glyph glyph-name="zdotaccent" unicode="&#x17c;" horiz-adv-x="479" 
d="M442 57c0 -32 -25 -57 -54 -57h-289c-33 0 -63 28 -63 65c0 14 5 28 14 40l210 267h-169c-30 0 -55 25 -55 57c0 29 25 54 55 54h285c30 0 61 -26 61 -62c0 -15 -4 -29 -13 -40l-213 -270h177c29 0 54 -25 54 -54zM305 611c0 -38 -31 -68 -67 -68c-38 0 -68 30 -68 68
c0 37 30 68 68 68c36 0 67 -31 67 -68z" />
    <glyph glyph-name="Zcaron" unicode="&#x17d;" horiz-adv-x="592" 
d="M556 64c0 -36 -28 -64 -61 -64h-381c-40 0 -78 34 -78 80c0 17 5 33 15 47l306 415h-259c-34 0 -62 28 -62 64c0 33 28 61 62 61h377c38 0 73 -33 73 -78c0 -18 -6 -37 -17 -52l-303 -412h267c33 0 61 -28 61 -61zM422 839c0 -6 -1 -12 -5 -17l-41 -62
c-18 -27 -48 -44 -82 -44c-32 0 -63 17 -80 44l-40 62c-4 5 -6 11 -6 17c0 15 13 33 34 33c9 0 19 -4 26 -12l67 -83l68 83c6 8 15 12 24 12c18 0 35 -14 35 -33z" />
    <glyph glyph-name="zcaron" unicode="&#x17e;" horiz-adv-x="479" 
d="M442 57c0 -32 -25 -57 -54 -57h-289c-33 0 -63 28 -63 65c0 14 5 28 14 40l210 267h-169c-30 0 -55 25 -55 57c0 29 25 54 55 54h285c30 0 61 -26 61 -62c0 -15 -4 -29 -13 -40l-213 -270h177c29 0 54 -25 54 -54zM364 672c0 -6 -1 -12 -5 -17l-41 -62
c-18 -27 -48 -44 -82 -44c-32 0 -63 17 -80 44l-40 62c-4 5 -6 11 -6 17c0 15 13 33 34 33c9 0 19 -4 26 -12l67 -83l68 83c6 8 15 12 24 12c18 0 35 -14 35 -33z" />
    <glyph glyph-name="florin" unicode="&#x192;" horiz-adv-x="454" 
d="M460 609c0 -25 -15 -62 -56 -62c-10 0 -22 4 -33 4c-35 0 -66 -24 -75 -66l-30 -135h64c30 0 55 -25 55 -57c0 -30 -25 -55 -55 -55h-89l-77 -351c-7 -32 -36 -54 -69 -54c-40 0 -71 34 -71 71c0 5 1 9 2 14l70 320h-5c-30 0 -55 25 -55 57c0 30 25 55 55 55h29l37 166
c21 96 101 161 198 161c49 0 105 -12 105 -68z" />
    <glyph glyph-name="uni0218" unicode="&#x218;" horiz-adv-x="600" 
d="M570 202c0 -122 -87 -214 -267 -214c-97 0 -217 32 -254 87c-7 10 -11 22 -11 34c0 38 33 66 67 66c13 0 27 -3 38 -11c45 -31 102 -52 167 -52c78 0 116 36 116 74c0 118 -384 37 -384 288c0 111 96 203 253 203c76 0 192 -25 229 -74c8 -10 12 -22 12 -34
c0 -38 -37 -64 -71 -64c-12 0 -24 3 -36 10c-46 26 -98 38 -147 38c-61 0 -95 -27 -95 -67c0 -106 383 -35 383 -284zM368 -138c0 -52 -25 -100 -67 -136c-6 -5 -14 -8 -23 -8c-7 0 -13 3 -18 7l-1 1c-4 5 -7 10 -7 17c0 4 2 8 5 13c12 17 41 42 47 70c-2 -1 -9 -2 -15 -2
c-30 0 -53 23 -53 56c0 35 27 63 61 63c37 0 71 -29 71 -81z" />
    <glyph glyph-name="uni0219" unicode="&#x219;" horiz-adv-x="477" 
d="M446 143c0 -88 -75 -155 -209 -155c-63 0 -164 21 -194 64c-6 8 -9 17 -9 27c0 30 26 53 53 53c9 0 18 -2 26 -7c38 -22 88 -39 130 -39c55 0 81 22 81 52c0 80 -287 15 -287 205c0 81 71 152 198 152c63 0 149 -20 176 -59c5 -7 8 -16 8 -25c0 -27 -24 -48 -50 -48
c-8 0 -17 2 -24 6c-31 18 -70 29 -109 29c-46 0 -76 -21 -76 -48c0 -72 286 -12 286 -207zM314 -138c0 -52 -25 -100 -67 -136c-6 -5 -14 -8 -23 -8c-7 0 -13 3 -18 7l-1 1c-4 5 -7 10 -7 17c0 4 2 8 5 13c12 17 41 42 47 70c-2 -1 -9 -2 -15 -2c-30 0 -53 23 -53 56
c0 35 27 63 61 63c37 0 71 -29 71 -81z" />
    <glyph glyph-name="uni021A" unicode="&#x21a;" horiz-adv-x="582" 
d="M563 604c0 -34 -28 -62 -61 -62h-139v-477c0 -39 -32 -71 -72 -71c-39 0 -71 32 -71 71v477h-139c-34 0 -62 28 -62 64c0 33 28 61 62 61h421c33 0 61 -28 61 -63zM362 -138c0 -52 -25 -100 -67 -136c-6 -5 -14 -8 -23 -8c-7 0 -13 3 -18 7l-1 1c-4 5 -7 10 -7 17
c0 4 2 8 5 13c12 17 41 42 47 70c-2 -1 -9 -2 -15 -2c-30 0 -53 23 -53 56c0 35 27 63 61 63c37 0 71 -29 71 -81z" />
    <glyph glyph-name="uni021B" unicode="&#x21b;" horiz-adv-x="338" 
d="M327 46c0 -32 -19 -58 -102 -58c-89 0 -137 46 -137 132v252h-31c-30 0 -55 25 -55 57c0 29 25 54 55 54h31v75c0 35 28 63 65 63c35 0 63 -28 63 -63v-75h50c29 0 54 -25 54 -56c0 -30 -25 -55 -54 -55h-50v-218c0 -38 24 -53 44 -53h11c36 0 56 -24 56 -55zM240 -138
c0 -52 -25 -100 -67 -136c-6 -5 -14 -8 -23 -8c-7 0 -13 3 -18 7l-1 1c-4 5 -7 10 -7 17c0 4 2 8 5 13c12 17 41 42 47 70c-2 -1 -9 -2 -15 -2c-30 0 -53 23 -53 56c0 35 27 63 61 63c37 0 71 -29 71 -81z" />
    <glyph glyph-name="circumflex" unicode="&#x2c6;" horiz-adv-x="300" 
d="M276 583c0 -15 -13 -34 -34 -34c-10 0 -19 4 -25 13l-68 83l-67 -83c-7 -8 -16 -12 -25 -12c-18 0 -35 14 -35 32c0 6 2 13 6 18l40 62c17 27 48 44 82 44c32 0 62 -17 80 -44l41 -62c4 -5 5 -11 5 -17z" />
    <glyph glyph-name="caron" unicode="&#x2c7;" horiz-adv-x="300" 
d="M279 672c0 -6 -1 -12 -5 -17l-41 -62c-18 -27 -48 -44 -82 -44c-32 0 -63 17 -80 44l-40 62c-4 5 -6 11 -6 17c0 15 13 33 34 33c9 0 19 -4 26 -12l67 -83l68 83c6 8 15 12 24 12c18 0 35 -14 35 -33z" />
    <glyph glyph-name="breve" unicode="&#x2d8;" horiz-adv-x="351" 
d="M337 614c0 -8 -3 -16 -9 -22c-40 -38 -93 -61 -152 -61s-112 23 -152 61c-6 6 -9 14 -9 22c0 19 17 36 36 36c10 0 20 -4 29 -11c25 -22 57 -35 96 -35c37 0 70 13 95 36c8 7 19 11 29 11c19 0 37 -17 37 -37z" />
    <glyph glyph-name="dotaccent" unicode="&#x2d9;" horiz-adv-x="174" 
d="M155 611c0 -38 -31 -68 -67 -68c-38 0 -68 30 -68 68c0 37 30 68 68 68c36 0 67 -31 67 -68z" />
    <glyph glyph-name="ring" unicode="&#x2da;" horiz-adv-x="209" 
d="M209 636c0 -58 -46 -105 -104 -105c-57 0 -105 47 -105 105c0 57 48 106 105 106c58 0 104 -49 104 -106zM151 636c0 26 -20 47 -46 47c-25 0 -47 -21 -47 -47c0 -25 22 -47 47 -47c26 0 46 22 46 47z" />
    <glyph glyph-name="ogonek" unicode="&#x2db;" horiz-adv-x="194" 
d="M187 -133c0 -31 -52 -53 -87 -53c-53 0 -100 26 -100 90c0 45 24 83 66 112c6 5 15 8 23 8c10 0 25 -6 25 -23c0 -6 -3 -13 -10 -18c-26 -18 -41 -44 -41 -73c0 -31 18 -43 37 -43c18 0 28 14 42 21c5 3 10 5 17 5c16 0 28 -12 28 -26z" />
    <glyph glyph-name="tilde" unicode="&#x2dc;" horiz-adv-x="327" 
d="M325 662c0 -32 -21 -108 -105 -108c-68 0 -79 68 -117 68c-15 0 -27 -10 -33 -36c-4 -18 -21 -32 -40 -32c-17 0 -28 15 -28 32c0 32 22 108 106 108c66 0 78 -67 116 -67c15 0 27 10 33 35c4 18 21 32 39 32s29 -15 29 -32z" />
    <glyph glyph-name="hungarumlaut" unicode="&#x2dd;" horiz-adv-x="338" 
d="M152 666c0 -8 -2 -16 -7 -22l-66 -82c-6 -8 -15 -12 -25 -12c-18 0 -33 15 -33 32c0 5 1 10 4 15l54 89c7 12 20 19 34 19c24 0 39 -20 39 -39zM301 666c0 -8 -2 -16 -7 -22l-65 -82c-7 -8 -16 -12 -26 -12c-16 0 -34 11 -34 31c0 5 2 11 5 16l54 89c7 12 20 19 34 19
c24 0 39 -20 39 -39z" />
    <glyph glyph-name="uni03A9" unicode="&#x3a9;" horiz-adv-x="765" 
d="M731 366c0 -114 -65 -193 -136 -241h64c33 0 61 -28 61 -63c0 -34 -28 -62 -61 -62h-153c-35 0 -68 31 -68 68c0 28 11 53 49 76c60 37 98 110 98 190c0 106 -61 217 -203 217c-141 0 -202 -111 -202 -217c0 -80 40 -154 98 -189c38 -23 48 -49 48 -77
c0 -37 -32 -68 -67 -68h-151c-34 0 -62 28 -62 62c0 35 28 63 62 63h63c-71 48 -137 127 -137 241c0 190 148 312 348 312c202 0 349 -122 349 -312z" />
    <glyph glyph-name="pi" unicode="&#x3c0;" horiz-adv-x="631" 
d="M629 427c0 -30 -25 -55 -54 -55h-32v-315c0 -35 -28 -63 -65 -63c-35 0 -63 28 -63 63v315h-199v-315c0 -35 -28 -63 -65 -63c-35 0 -63 28 -63 63v315h-31c-30 0 -55 25 -55 57c0 29 25 54 55 54h518c29 0 54 -25 54 -56z" />
    <glyph glyph-name="endash" unicode="&#x2013;" horiz-adv-x="593" 
d="M569 243c0 -31 -24 -55 -53 -55h-439c-29 0 -53 24 -53 55c0 29 24 53 53 53h439c29 0 53 -24 53 -53z" />
    <glyph glyph-name="emdash" unicode="&#x2014;" horiz-adv-x="833" 
d="M809 243c0 -31 -24 -55 -53 -55h-679c-29 0 -53 24 -53 55c0 29 24 53 53 53h679c29 0 53 -24 53 -53z" />
    <glyph glyph-name="quoteleft" unicode="&#x2018;" horiz-adv-x="255" 
d="M207 470c0 -44 -36 -80 -78 -80c-47 0 -90 37 -90 102c0 64 31 124 81 169c7 7 17 10 27 10c24 0 36 -19 36 -33c0 -8 -3 -16 -9 -21c-26 -21 -48 -52 -54 -78c3 1 12 3 19 3c38 0 68 -29 68 -72z" />
    <glyph glyph-name="quoteright" unicode="&#x2019;" horiz-adv-x="255" 
d="M215 575c0 -64 -31 -124 -81 -169c-7 -7 -17 -10 -27 -10c-22 0 -36 18 -36 33c0 8 3 15 9 21c26 21 48 52 54 78c-3 -1 -12 -3 -19 -3c-38 0 -68 29 -68 72c0 44 36 80 78 80c47 0 90 -37 90 -102z" />
    <glyph glyph-name="quotesinglbase" unicode="&#x201a;" horiz-adv-x="256" 
d="M215 49c0 -64 -31 -124 -81 -169c-7 -7 -17 -10 -27 -10c-22 0 -36 18 -36 33c0 8 3 15 9 21c26 21 48 52 54 78c-3 -1 -12 -3 -19 -3c-38 0 -68 29 -68 72c0 44 36 80 78 80c47 0 90 -37 90 -102z" />
    <glyph glyph-name="quotedblleft" unicode="&#x201c;" horiz-adv-x="459" 
d="M410 470c0 -44 -36 -80 -78 -80c-47 0 -90 37 -90 102c0 64 31 124 81 169c7 7 17 10 27 10c23 0 36 -20 36 -33c0 -8 -3 -16 -9 -21c-26 -21 -48 -52 -54 -78c3 1 12 3 19 3c38 0 68 -29 68 -72zM207 470c0 -44 -36 -80 -78 -80c-47 0 -90 37 -90 102
c0 64 31 124 81 169c7 7 17 10 27 10c24 0 36 -19 36 -33c0 -8 -3 -16 -9 -21c-26 -21 -48 -52 -54 -78c3 1 12 3 19 3c38 0 68 -29 68 -72z" />
    <glyph glyph-name="quotedblright" unicode="&#x201d;" horiz-adv-x="459" 
d="M419 575c0 -64 -31 -124 -81 -169c-8 -7 -18 -10 -27 -10c-24 0 -36 18 -36 33c0 8 3 15 9 21c26 21 48 52 54 78c-3 -1 -12 -3 -19 -3c-38 0 -68 29 -68 72c0 44 36 80 78 80c47 0 90 -37 90 -102zM216 575c0 -64 -31 -124 -81 -169c-8 -7 -18 -10 -27 -10
c-24 0 -36 19 -36 33c0 8 3 15 9 21c26 21 48 52 54 78c-3 -1 -12 -3 -19 -3c-38 0 -68 29 -68 72c0 44 36 80 78 80c47 0 90 -37 90 -102z" />
    <glyph glyph-name="quotedblbase" unicode="&#x201e;" horiz-adv-x="459" 
d="M215 49c0 -64 -31 -124 -81 -169c-8 -7 -18 -10 -27 -10c-24 0 -36 19 -36 33c0 8 3 15 9 21c26 21 48 52 54 78c-3 -1 -12 -3 -19 -3c-38 0 -68 29 -68 72c0 44 36 80 78 80c47 0 90 -37 90 -102zM419 49c0 -64 -31 -124 -81 -169c-8 -7 -18 -10 -27 -10
c-24 0 -36 19 -36 33c0 8 3 15 9 21c26 21 48 52 54 78c-3 -1 -12 -3 -19 -3c-38 0 -68 29 -68 72c0 44 36 80 78 80c47 0 90 -37 90 -102z" />
    <glyph glyph-name="dagger" unicode="&#x2020;" horiz-adv-x="277" 
d="M263 554c0 -18 -14 -32 -30 -31l-65 3l3 -172c0 -18 -14 -33 -34 -33c-19 0 -32 15 -32 33l4 172l-65 -3c-16 -1 -30 13 -30 31c0 16 14 29 30 29l65 -2l-3 69c-1 18 13 33 33 33c17 0 33 -15 32 -33l-3 -69l65 2c16 0 30 -13 30 -29z" />
    <glyph glyph-name="daggerdbl" unicode="&#x2021;" horiz-adv-x="277" 
d="M263 304c0 -16 -14 -29 -30 -29l-65 2l3 -70c1 -18 -15 -33 -34 -33c-18 0 -33 15 -32 33l3 70l-64 -2c-16 -1 -30 13 -30 31c0 15 14 30 30 29l64 -3v194l-64 -3c-16 -1 -30 13 -30 31c0 16 14 29 30 29l64 -2l-3 69c-1 18 14 33 34 33c17 0 33 -15 32 -33l-3 -69l65 2
c16 0 30 -13 30 -31c0 -16 -14 -30 -30 -29l-65 3v-194l65 3c16 1 30 -14 30 -31z" />
    <glyph glyph-name="bullet" unicode="&#x2022;" horiz-adv-x="358" 
d="M299 242c0 -65 -53 -118 -119 -118s-119 53 -119 118c0 66 53 119 119 119s119 -53 119 -119z" />
    <glyph glyph-name="ellipsis" unicode="&#x2026;" horiz-adv-x="768" 
d="M208 70c0 -43 -37 -80 -81 -80s-80 37 -80 80c0 44 36 81 80 81s81 -37 81 -81zM464 70c0 -43 -37 -80 -81 -80s-80 37 -80 80c0 44 36 81 80 81s81 -37 81 -81zM720 70c0 -43 -37 -80 -81 -80s-80 37 -80 80c0 44 36 81 80 81s81 -37 81 -81z" />
    <glyph glyph-name="perthousand" unicode="&#x2030;" horiz-adv-x="1122" 
d="M195 677c103 0 170 -74 170 -168c0 -93 -67 -164 -170 -164c-102 0 -169 71 -169 164c0 94 67 168 169 168zM562 321c102 0 170 -74 170 -168c0 -93 -68 -165 -170 -165s-169 72 -169 165c0 94 67 168 169 168zM562 58c46 0 80 36 80 95c0 61 -34 97 -80 97
s-79 -36 -79 -97c0 -59 33 -95 79 -95zM926 58c46 0 80 36 80 95c0 61 -34 97 -80 97s-79 -36 -79 -97c0 -59 33 -95 79 -95zM926 321c102 0 170 -74 170 -168c0 -93 -68 -165 -170 -165s-169 72 -169 165c0 94 67 168 169 168zM195 415c46 0 79 35 79 94
c0 61 -33 97 -79 97c-45 0 -79 -36 -79 -97c0 -59 34 -94 79 -94zM605 625l-394 -617c-6 -9 -16 -14 -26 -14c-18 0 -33 14 -33 31c0 6 2 12 5 17l394 617c6 9 16 14 26 14c17 0 33 -15 33 -32c0 -5 -2 -11 -5 -16z" />
    <glyph glyph-name="guilsinglleft" unicode="&#x2039;" horiz-adv-x="337" 
d="M257 102c0 -21 -17 -45 -43 -45c-11 0 -23 5 -31 14l-100 112c-15 17 -22 38 -22 59s8 43 23 60l99 110c8 9 19 13 30 13c22 0 44 -18 44 -43c0 -10 -3 -20 -10 -28l-100 -111l100 -112c7 -8 10 -18 10 -29z" />
    <glyph glyph-name="guilsinglright" unicode="&#x203a;" horiz-adv-x="337" 
d="M276 242c0 -21 -7 -42 -22 -59l-100 -112c-8 -9 -19 -14 -31 -14c-22 0 -44 20 -44 45c0 10 3 20 11 29l100 112l-100 111c-7 8 -10 17 -10 27c0 22 18 44 43 44c12 0 23 -4 31 -13l99 -110c15 -17 23 -39 23 -60z" />
    <glyph glyph-name="fraction" unicode="&#x2044;" horiz-adv-x="159" 
d="M308 641c0 -5 -2 -11 -5 -16l-394 -617c-6 -9 -16 -14 -26 -14c-18 0 -33 14 -33 31c0 6 2 12 5 17l394 617c6 9 16 14 26 14c17 0 33 -15 33 -32z" />
    <glyph glyph-name="Euro" unicode="&#x20ac;" horiz-adv-x="709" 
d="M412 678c115 0 192 -49 243 -110c9 -11 14 -26 14 -39c0 -36 -31 -64 -68 -64c-19 0 -38 8 -52 23c-38 40 -87 64 -137 64c-82 0 -149 -43 -184 -110h215c19 0 36 -17 36 -38c0 -20 -17 -37 -36 -37h-238c-2 -11 -2 -23 -2 -34s1 -21 2 -31h237c20 0 37 -17 37 -39
c0 -20 -17 -37 -37 -37h-215c34 -68 102 -112 185 -112c50 0 100 22 137 63c14 15 34 23 54 23c37 0 65 -29 65 -62c0 -14 -4 -28 -14 -39c-50 -61 -127 -111 -242 -111c-163 0 -296 93 -340 238h-20c-20 0 -37 17 -37 39c0 20 17 37 37 37h6c-1 10 -1 20 -1 31s0 23 1 34
h-6c-20 0 -37 17 -37 39c0 19 17 36 37 36h21c44 144 177 236 339 236z" />
    <glyph glyph-name="trademark" unicode="&#x2122;" horiz-adv-x="454" 
d="M419 454c0 -7 -6 -13 -14 -13s-14 6 -14 13v175l-69 -168c-2 -5 -6 -8 -10 -8s-8 3 -10 8l-69 168v-175c0 -7 -6 -13 -14 -13s-14 6 -14 13v197c0 12 10 22 24 22c10 0 18 -5 22 -14l61 -152l60 151c4 9 12 15 23 15c14 0 24 -10 24 -22v-197zM175 654
c0 -7 -6 -13 -12 -13h-56v-187c0 -7 -6 -13 -14 -13s-14 6 -14 13v187h-56c-6 0 -12 6 -12 13s6 13 12 13h140c6 0 12 -6 12 -13z" />
    <glyph glyph-name="partialdiff" unicode="&#x2202;" horiz-adv-x="574" 
d="M543 256c0 -160 -96 -268 -256 -268c-159 0 -255 108 -255 236c0 129 91 236 214 236c67 0 119 -24 154 -79c-31 75 -85 147 -163 198c-19 12 -27 29 -27 47c0 31 26 55 54 55c16 0 32 -6 46 -15c129 -90 233 -239 233 -410zM411 224c0 69 -45 123 -124 123
s-123 -54 -123 -123s44 -123 123 -123s124 54 124 123z" />
    <glyph glyph-name="Delta" unicode="&#x2206;" horiz-adv-x="684" 
d="M663 55c0 -29 -23 -55 -55 -55h-533c-32 0 -55 26 -55 55c0 6 1 13 4 20l202 523c17 45 62 75 109 75c52 5 104 -25 123 -75l201 -523c2 -7 4 -14 4 -20zM488 125l-146 400l-146 -400h292z" />
    <glyph glyph-name="product" unicode="&#x220f;" horiz-adv-x="788" 
d="M769 604c0 -34 -28 -62 -61 -62h-49v-568c0 -38 -32 -70 -72 -70c-39 0 -71 32 -71 70v568h-244v-568c0 -38 -32 -70 -72 -70c-39 0 -71 32 -71 70v568h-48c-34 0 -62 28 -62 64c0 33 28 61 62 61h627c33 0 61 -28 61 -63z" />
    <glyph glyph-name="summation" unicode="&#x2211;" horiz-adv-x="586" 
d="M546 -29c0 -33 -28 -61 -61 -61h-364c-43 0 -81 36 -81 86c0 21 7 41 20 58l188 241l-187 228c-13 16 -20 38 -20 59c0 48 35 85 80 85h364c33 0 61 -28 61 -63c0 -34 -28 -62 -61 -62h-261l149 -184c14 -18 22 -40 22 -62c0 -23 -8 -45 -22 -63l-156 -198h268
c33 0 61 -28 61 -64z" />
    <glyph glyph-name="radical" unicode="&#x221a;" horiz-adv-x="682" 
d="M640 629c0 -5 0 -9 -2 -14l-222 -585c-8 -21 -30 -36 -55 -36c-23 0 -45 15 -53 37l-100 271l-101 -36c-4 -2 -8 -2 -12 -2c-20 0 -39 16 -39 40c0 16 10 31 26 37l105 36c8 3 17 4 26 4c33 0 65 -21 77 -53l74 -201l190 518c7 18 22 28 42 28c26 0 44 -20 44 -44z" />
    <glyph glyph-name="infinity" unicode="&#x221e;" horiz-adv-x="690" 
d="M661 335c0 -85 -47 -177 -167 -177c-67 0 -121 44 -149 100c-27 -57 -83 -100 -150 -100c-118 0 -166 93 -166 177c0 86 48 177 166 177c68 0 122 -44 150 -100c28 56 82 100 149 100c120 0 167 -92 167 -177zM309 335c-18 53 -53 99 -102 99c-55 0 -94 -39 -94 -99
c0 -59 39 -99 94 -99c49 0 84 46 102 99zM576 335c0 60 -38 99 -92 99c-49 0 -85 -46 -103 -99c18 -53 54 -98 103 -98c54 0 92 38 92 98z" />
    <glyph glyph-name="integral" unicode="&#x222b;" horiz-adv-x="373" 
d="M362 726c0 -24 -15 -43 -45 -43h-22c-34 0 -62 -29 -62 -74v-550c0 -99 -75 -159 -155 -159h-21c-31 0 -46 19 -46 42c0 24 15 43 46 43h21c34 0 63 30 63 75v548c0 99 74 160 154 160h22c30 0 45 -19 45 -42z" />
    <glyph glyph-name="approxequal" unicode="&#x2248;" horiz-adv-x="504" 
d="M479 257c0 -23 -18 -39 -38 -39c-4 0 -7 1 -11 2c-21 6 -43 9 -67 9c-94 0 -110 -52 -222 -52c-36 0 -116 4 -116 51c0 23 18 39 38 39c4 0 7 -1 11 -2c21 -6 43 -9 67 -9c95 0 111 51 222 51c37 0 116 -3 116 -50zM479 440c0 -23 -18 -39 -38 -39c-4 0 -7 1 -11 2
c-21 6 -43 9 -67 9c-94 0 -110 -52 -222 -52c-36 0 -116 4 -116 51c0 23 18 39 38 39c4 0 7 -1 11 -2c21 -6 43 -9 67 -9c95 0 111 51 222 51c37 0 116 -3 116 -50z" />
    <glyph glyph-name="notequal" unicode="&#x2260;" horiz-adv-x="504" 
d="M481 239c0 -21 -17 -38 -38 -38h-238l-62 -99c-6 -9 -16 -14 -27 -14c-17 0 -33 15 -33 32c0 6 2 11 5 16l41 65h-68c-21 0 -38 17 -38 40c0 21 17 38 38 38h118l70 109h-187c-21 0 -39 18 -39 41c0 21 18 39 39 39h237l62 97c6 9 16 14 26 14c20 0 33 -18 33 -33
c0 -5 -1 -10 -4 -15l-40 -63h66c21 0 39 -18 39 -41c0 -21 -18 -39 -39 -39h-116l-71 -109h188c21 0 38 -17 38 -40z" />
    <glyph glyph-name="lessequal" unicode="&#x2264;" horiz-adv-x="504" 
d="M480 173c0 -26 -22 -42 -42 -42c-6 0 -11 1 -16 3l-361 161c-23 10 -38 34 -38 61c0 24 15 48 38 58l361 162c5 2 10 3 16 3c21 0 42 -17 42 -43c0 -16 -9 -32 -25 -39l-335 -143l335 -142c16 -7 25 -22 25 -39zM481 40c1 -23 -18 -40 -38 -40h-382c-21 0 -38 17 -38 40
c0 21 17 38 38 38h382c21 0 38 -17 38 -38z" />
    <glyph glyph-name="greaterequal" unicode="&#x2265;" horiz-adv-x="504" 
d="M481 356c0 -27 -15 -51 -38 -61l-361 -161c-5 -2 -11 -3 -16 -3c-21 0 -42 17 -42 42c0 17 9 32 25 39l335 142l-335 143c-17 7 -26 23 -26 39c-1 26 21 43 43 43c5 0 11 -1 16 -3l361 -162c23 -10 38 -34 38 -58zM481 40c0 -23 -17 -40 -38 -40h-383
c-21 0 -38 17 -38 40c0 21 17 38 38 38h383c21 0 38 -17 38 -38z" />
    <glyph glyph-name="lozenge" unicode="&#x25ca;" horiz-adv-x="375" 
d="M345 334c0 -15 -3 -31 -10 -46l-133 -279c-2 -5 -8 -9 -15 -9c-6 0 -12 4 -14 9l-132 278c-8 16 -10 32 -11 47c0 14 3 30 11 46l132 278c2 5 8 9 16 9c5 0 11 -4 13 -9l133 -278c6 -17 10 -31 10 -46zM320 334l-133 292l-132 -292l133 -293z" />
    <glyph glyph-name="uniF8FF" unicode="&#xf8ff;" horiz-adv-x="667" 
d="M625 154c0 -61 -50 -112 -111 -112s-112 51 -112 112v66h-137v-66c0 -61 -51 -112 -112 -112s-111 51 -111 112s50 111 111 111h66v137h-65c-61 0 -112 51 -112 112s51 111 112 111s111 -50 111 -111v-67h137v67c0 61 51 111 112 111s111 -50 111 -111
s-50 -112 -111 -112h-66v-137h66c61 0 111 -50 111 -111zM579 514c0 36 -29 66 -65 66c-37 0 -66 -30 -66 -66v-67h66c36 0 65 30 65 67zM402 265v137h-137v-137h137zM579 154c0 36 -28 66 -65 66h-66v-66c0 -37 29 -67 66 -67c36 0 65 30 65 67zM219 447v67
c0 36 -29 66 -65 66c-37 0 -67 -30 -67 -66c0 -37 30 -67 67 -67h65zM219 154v66h-67c-36 0 -65 -30 -65 -66c0 -37 29 -67 66 -67c36 0 66 30 66 67z" />
    <glyph glyph-name="commaaccent" unicode="&#xf6c3;" horiz-adv-x="255" 
d="M197 -138c0 -52 -25 -100 -67 -136c-6 -5 -14 -8 -23 -8c-7 0 -13 3 -18 7l-1 1c-4 5 -7 10 -7 17c0 4 2 8 5 13c12 17 41 42 47 70c-2 -1 -9 -2 -15 -2c-30 0 -53 23 -53 56c0 35 27 63 61 63c37 0 71 -29 71 -81z" />
    </font>
</defs>
</svg>
