<?xml version="1.0" standalone="no"?>
<!DOCTYPE svg PUBLIC "-//W3C//DTD SVG 1.1//EN" "http://www.w3.org/Graphics/SVG/1.1/DTD/svg11.dtd" >
<svg xmlns="http://www.w3.org/2000/svg" xmlns:xlink="http://www.w3.org/1999/xlink" version="1.1">
<metadata>
Created by FontForge 20150504 at Fri Jun 12 11:19:33 2015
 By Jimmy Wärting
Copyright (c) Mark Simonson, 2010. All rights reserved.
</metadata>
<defs>
<font id="ProximaNovaSoft-Regular" horiz-adv-x="551" >
  <font-face 
    font-family="Proxima Nova Soft"
    font-weight="400"
    font-stretch="normal"
    units-per-em="1000"
    panose-1="2 0 5 6 3 0 0 2 0 4"
    ascent="775"
    descent="-225"
    x-height="483"
    cap-height="673"
    bbox="-159 -265 1057 907"
    underline-thickness="20"
    underline-position="-133"
    stemh="71"
    stemv="78"
    unicode-range="U+000D-FB02"
  />
<missing-glyph horiz-adv-x="507" 
d="M429 -60c0 -17 -14 -30 -30 -30h-291c-17 0 -30 13 -30 30v782c0 16 13 30 30 30h291c16 0 30 -14 30 -30v-782zM397 -60v782h-288v-782h288z" />
    <glyph glyph-name="fi" unicode="fi" horiz-adv-x="509" 
d="M395 653c28 0 51 -23 51 -51s-23 -50 -51 -50c-27 0 -50 22 -50 50s23 51 50 51zM433 31c0 -20 -17 -37 -38 -37c-20 0 -37 17 -37 37v422c0 19 17 36 39 36c19 0 36 -17 36 -36v-422zM307 643c0 -19 -9 -33 -27 -33c-8 0 -19 5 -33 5c-49 0 -76 -34 -76 -95v-37h72
c18 0 32 -14 32 -32c0 -19 -13 -34 -32 -34h-72v-386c0 -20 -17 -37 -36 -37c-21 0 -39 15 -39 37v386h-54c-18 0 -32 14 -32 32c0 19 12 34 32 34h54v37c0 100 56 157 140 157c28 0 71 -3 71 -34z" />
    <glyph glyph-name="fl" unicode="fl" horiz-adv-x="509" 
d="M433 31c0 -20 -17 -37 -38 -37c-20 0 -37 17 -37 37v606c0 19 17 36 39 36c19 0 36 -17 36 -36v-606zM307 643c0 -19 -9 -33 -27 -33c-8 0 -19 5 -33 5c-49 0 -76 -34 -76 -95v-37h72c18 0 32 -14 32 -32c0 -19 -13 -34 -32 -34h-72v-386c0 -20 -17 -37 -36 -37
c-21 0 -39 15 -39 37v386h-54c-18 0 -32 14 -32 32c0 19 12 34 32 34h54v37c0 100 56 157 140 157c28 0 71 -3 71 -34z" />
    <glyph glyph-name=".notdef" horiz-adv-x="507" 
d="M429 -60c0 -17 -14 -30 -30 -30h-291c-17 0 -30 13 -30 30v782c0 16 13 30 30 30h291c16 0 30 -14 30 -30v-782zM397 -60v782h-288v-782h288z" />
    <glyph glyph-name="NULL" horiz-adv-x="0" 
 />
    <glyph glyph-name="NULL" horiz-adv-x="0" 
 />
    <glyph glyph-name="CR" unicode="&#xd;" horiz-adv-x="0" 
 />
    <glyph glyph-name="space" unicode=" " horiz-adv-x="258" 
 />
    <glyph glyph-name="exclam" unicode="!" horiz-adv-x="230" 
d="M161 627l-14 -416c-1 -17 -14 -30 -33 -30c-17 0 -30 13 -31 30l-14 416c-1 25 20 46 47 46c25 0 46 -21 45 -46zM170 45c0 -29 -25 -55 -55 -55s-55 26 -55 55c0 30 25 55 55 55s55 -25 55 -55z" />
    <glyph glyph-name="quotedbl" unicode="&#x22;" horiz-adv-x="343" 
d="M145 631c0 -11 -18 -157 -25 -208c-1 -9 -10 -17 -22 -17c-9 0 -18 8 -19 17c-7 51 -25 197 -25 208c0 25 20 46 45 46c26 0 46 -21 46 -46zM290 631c0 -11 -18 -157 -25 -208c-1 -9 -10 -17 -22 -17c-9 0 -18 8 -19 17c-7 51 -25 197 -25 208c0 25 20 46 46 46
c25 0 45 -21 45 -46z" />
    <glyph glyph-name="numbersign" unicode="#" horiz-adv-x="590" 
d="M564 458c0 -14 -11 -25 -25 -25h-94l-67 -199h81c13 0 25 -12 25 -27c0 -14 -12 -26 -25 -26h-99l-56 -168c-4 -12 -15 -20 -28 -20c-17 0 -29 14 -29 28c0 3 1 6 2 9l51 151h-111l-56 -168c-4 -12 -15 -20 -28 -20c-18 0 -30 14 -30 29c0 3 1 6 2 9l51 150h-74
c-14 0 -26 12 -26 28c0 13 12 25 26 25h92l66 199h-78c-14 0 -25 11 -25 27c0 14 11 25 25 25h96l56 169c4 12 15 19 28 19c17 0 29 -13 29 -28c0 -3 0 -6 -1 -9l-50 -151h110l56 169c4 12 15 19 27 19c18 0 29 -13 29 -28c0 -3 0 -5 -1 -8l-51 -152h77c14 0 25 -11 25 -27z
M383 433h-110l-66 -199h110z" />
    <glyph glyph-name="dollar" unicode="$" horiz-adv-x="593" 
d="M544 184c0 -91 -58 -183 -212 -195v-66c0 -16 -13 -29 -29 -29c-19 0 -32 13 -32 29v66c-86 5 -156 36 -207 82c-9 8 -13 19 -13 30c0 20 16 42 38 42c9 0 17 -3 24 -9c40 -35 94 -64 158 -71v244c-102 28 -208 62 -208 185c0 104 87 177 208 184v69c0 16 13 29 32 29
c16 0 29 -13 29 -29v-70c70 -7 125 -28 174 -70c9 -7 13 -18 13 -29c0 -22 -17 -41 -39 -41c-8 0 -17 3 -24 9c-39 33 -79 49 -124 55v-217c103 -29 212 -68 212 -198zM271 398v204c-72 -5 -122 -46 -122 -105c0 -56 54 -79 122 -99zM458 177c0 65 -56 92 -126 113v-227
c95 10 126 67 126 114z" />
    <glyph glyph-name="percent" unicode="%" horiz-adv-x="731" 
d="M353 511c0 -93 -66 -163 -162 -163c-95 0 -160 70 -160 163c0 94 65 166 160 166c96 0 162 -72 162 -166zM591 638l-406 -635c-4 -6 -11 -10 -18 -10c-12 0 -24 10 -24 23c0 4 1 8 4 12l405 635c4 6 12 10 19 10c13 0 23 -12 23 -24c0 -4 -1 -8 -3 -11zM700 151
c0 -93 -66 -163 -161 -163s-160 70 -160 163c0 94 65 166 160 166s161 -72 161 -166zM91 511c0 -63 41 -113 100 -113c60 0 102 50 102 113c0 66 -42 115 -102 115c-59 0 -100 -49 -100 -115zM438 151c0 -63 41 -113 101 -113s102 50 102 113c0 66 -42 115 -102 115
s-101 -49 -101 -115z" />
    <glyph glyph-name="ampersand" unicode="&#x26;" horiz-adv-x="641" 
d="M483 126c35 -39 83 -71 83 -96c0 -18 -15 -36 -37 -36c-26 0 -70 53 -93 76c-49 -49 -111 -82 -192 -82c-115 0 -208 62 -208 186c0 104 70 157 147 198c-30 51 -51 103 -51 150c0 89 74 155 168 155c87 0 151 -47 151 -131c0 -100 -85 -144 -170 -188
c62 -85 107 -132 156 -184c28 41 49 89 63 126c5 13 18 21 32 21c20 0 34 -17 34 -34c0 -5 -1 -10 -3 -14c-21 -48 -48 -102 -80 -147zM117 179c0 -83 64 -129 134 -129c55 0 102 28 140 66c-96 101 -124 133 -176 207c-55 -34 -98 -75 -98 -144zM303 618
c-51 0 -93 -40 -93 -97c0 -35 17 -76 40 -115c71 35 132 71 132 137c0 49 -34 75 -79 75z" />
    <glyph glyph-name="quotesingle" unicode="'" horiz-adv-x="199" 
d="M145 631c0 -11 -18 -157 -25 -208c-1 -9 -10 -17 -22 -17c-9 0 -18 8 -19 17c-7 51 -25 197 -25 208c0 25 20 46 45 46c26 0 46 -21 46 -46z" />
    <glyph glyph-name="parenleft" unicode="(" horiz-adv-x="248" 
d="M226 -161c0 -14 -13 -31 -31 -31c-9 0 -18 4 -24 12c-81 120 -127 271 -127 423s45 303 128 423c5 8 14 13 24 13c17 0 30 -13 30 -29c0 -4 0 -8 -2 -12c-59 -119 -98 -238 -98 -395c0 -155 38 -274 97 -392c2 -4 3 -8 3 -12z" />
    <glyph glyph-name="parenright" unicode=")" horiz-adv-x="248" 
d="M204 243c0 -152 -46 -303 -127 -423c-6 -8 -15 -12 -24 -12c-18 0 -31 15 -31 30c0 4 1 9 3 13c59 118 97 237 97 392c0 157 -39 276 -98 395c-2 3 -3 7 -3 11c0 14 12 30 30 30c10 0 19 -4 25 -13c83 -120 128 -271 128 -423z" />
    <glyph glyph-name="asterisk" unicode="*" horiz-adv-x="340" 
d="M171 683c12 0 22 -10 21 -22l-5 -99l84 53c3 2 7 3 11 3c9 0 22 -8 22 -22c0 -7 -4 -15 -11 -18l-89 -45l88 -45c7 -3 11 -11 11 -19c0 -12 -9 -22 -22 -22c-4 0 -8 1 -11 3l-83 54l5 -99c1 -12 -9 -22 -23 -22c-13 0 -21 10 -21 22l4 99l-84 -54c-3 -2 -7 -3 -10 -3
c-10 0 -22 9 -22 22c0 8 4 15 11 19l89 45l-89 45c-7 4 -11 11 -11 19c0 13 10 22 22 22c3 0 7 -1 10 -3l84 -54l-4 99c0 12 8 22 23 22z" />
    <glyph glyph-name="plus" unicode="+" horiz-adv-x="499" 
d="M476 338c0 -16 -11 -27 -25 -27h-173v-191c0 -16 -12 -28 -29 -28c-16 0 -28 12 -28 28v191h-173c-14 0 -25 11 -25 27c0 14 11 25 25 25h173v186c0 15 12 27 30 27c15 0 27 -12 27 -27v-186h173c14 0 25 -11 25 -25z" />
    <glyph glyph-name="comma" unicode="," horiz-adv-x="230" 
d="M176 24c0 -53 -30 -109 -71 -143c-4 -3 -9 -5 -13 -5c-11 0 -25 9 -25 23c0 7 3 14 8 19c24 22 44 52 47 79c-2 -1 -9 -2 -14 -2c-28 0 -48 21 -48 51c0 29 23 54 53 54c33 0 63 -28 63 -76z" />
    <glyph glyph-name="hyphen" unicode="-" horiz-adv-x="300" 
d="M276 243c0 -20 -14 -34 -32 -34h-188c-18 0 -32 14 -32 34c0 18 14 32 32 32h188c18 0 32 -14 32 -32z" />
    <glyph glyph-name="period" unicode="." horiz-adv-x="230" 
d="M170 45c0 -30 -25 -55 -55 -55s-55 25 -55 55s25 55 55 55s55 -25 55 -55z" />
    <glyph glyph-name="slash" unicode="/" horiz-adv-x="296" 
d="M288 670c0 -3 0 -6 -1 -9l-225 -674c-4 -11 -14 -18 -26 -18c-16 0 -29 13 -29 28c0 3 1 6 2 9l225 674c4 11 14 18 26 18c16 0 28 -14 28 -28z" />
    <glyph glyph-name="zero" unicode="0" horiz-adv-x="612" 
d="M561 333c0 -162 -73 -345 -255 -345c-183 0 -255 183 -255 345c0 163 72 344 255 344c182 0 255 -181 255 -344zM476 333c0 133 -43 270 -170 270s-170 -137 -170 -270s43 -271 170 -271s170 138 170 271z" />
    <glyph glyph-name="one" unicode="1" horiz-adv-x="339" 
d="M261 35c0 -23 -18 -41 -42 -41c-23 0 -41 18 -41 41v522l-88 -93c-7 -7 -15 -10 -24 -10c-18 0 -36 15 -36 36c0 9 3 18 10 25l141 144c8 9 20 13 33 13c25 0 47 -19 47 -45v-592z" />
    <glyph glyph-name="two" unicode="2" horiz-adv-x="588" 
d="M518 38c0 -22 -16 -38 -36 -38h-399c-19 0 -38 17 -38 40c0 12 5 23 15 31c234 181 364 298 364 410c0 85 -70 122 -139 122c-66 0 -121 -23 -161 -62c-7 -7 -16 -10 -24 -10c-19 0 -38 16 -38 37c0 9 3 19 10 26c55 55 131 83 213 83c111 0 224 -63 224 -196
c0 -136 -138 -260 -324 -407h297c20 0 36 -16 36 -36z" />
    <glyph glyph-name="three" unicode="3" horiz-adv-x="557" 
d="M502 180c0 -111 -89 -192 -236 -192c-96 0 -172 37 -219 88c-7 7 -10 15 -10 24c0 19 15 39 35 39c9 0 18 -4 25 -10c42 -42 101 -67 167 -67c97 0 156 48 156 125c0 83 -68 118 -166 118c-30 0 -75 -6 -75 38c0 20 16 36 36 36c100 0 194 15 194 110
c0 74 -68 114 -149 114c-62 0 -112 -21 -157 -61c-6 -6 -14 -9 -22 -9c-17 0 -36 15 -36 36c0 9 4 19 11 25c52 50 121 83 210 83c128 0 226 -65 226 -178c0 -96 -81 -144 -144 -155c61 -5 154 -57 154 -164z" />
    <glyph glyph-name="four" unicode="4" horiz-adv-x="558" 
d="M532 205c0 -20 -16 -36 -35 -36h-65v-134c0 -23 -18 -41 -42 -41c-23 0 -41 18 -41 41v134h-282c-21 0 -41 18 -41 45c0 9 3 19 8 27l267 401c13 19 36 31 60 31c38 0 71 -33 71 -70v-361h65c19 0 35 -16 35 -37zM349 242v348l-234 -348h234z" />
    <glyph glyph-name="five" unicode="5" horiz-adv-x="590" 
d="M538 208c0 -136 -103 -220 -237 -220c-97 0 -165 30 -216 84c-7 7 -10 16 -10 26c0 17 14 39 36 39c9 0 19 -3 26 -10c43 -43 95 -65 164 -65c91 0 154 62 154 143c0 88 -63 144 -153 144c-50 0 -99 -16 -138 -48c-10 -8 -22 -13 -34 -13c-23 0 -43 17 -43 41v278
c0 33 27 60 60 60h318c20 0 36 -16 36 -38c0 -20 -16 -36 -36 -36h-295v-232c32 32 89 60 156 60c111 0 212 -76 212 -213z" />
    <glyph glyph-name="six" unicode="6" horiz-adv-x="591" 
d="M542 206c0 -116 -88 -218 -234 -218c-186 0 -257 163 -257 344s84 345 271 345c73 0 125 -21 170 -64c7 -7 10 -16 10 -25c0 -20 -17 -37 -37 -37c-9 0 -18 3 -25 9c-29 26 -64 43 -118 43c-129 0 -188 -131 -188 -262c0 -9 0 -17 1 -26c29 46 103 104 189 104
c120 0 218 -71 218 -213zM458 203c0 98 -68 144 -154 144c-66 0 -130 -41 -167 -100c8 -83 52 -185 168 -185c103 0 153 77 153 141z" />
    <glyph glyph-name="seven" unicode="7" horiz-adv-x="515" 
d="M491 628c0 -5 -1 -10 -3 -14l-267 -596c-7 -15 -22 -24 -38 -24c-25 0 -43 20 -43 41c0 5 2 11 4 16l246 542h-329c-20 0 -36 16 -36 38c0 20 16 36 36 36h391c17 0 39 -15 39 -39z" />
    <glyph glyph-name="eight" unicode="8" horiz-adv-x="581" 
d="M530 169c0 -113 -108 -181 -239 -181c-132 0 -239 67 -239 181c0 89 76 150 159 175c-77 22 -148 72 -148 160c0 120 117 173 228 173c110 0 229 -53 229 -173c0 -88 -72 -138 -149 -160c83 -25 159 -86 159 -175zM436 493c0 69 -65 110 -145 110
c-81 0 -145 -41 -145 -110c0 -81 105 -108 145 -115c41 7 145 34 145 115zM446 178c0 87 -114 124 -155 129c-41 -5 -156 -42 -156 -129c0 -72 73 -116 156 -116c82 0 155 44 155 116z" />
    <glyph glyph-name="nine" unicode="9" horiz-adv-x="591" 
d="M540 334c0 -181 -84 -345 -271 -345c-73 0 -125 21 -170 64c-7 6 -11 15 -11 25c0 20 18 37 38 37c9 0 18 -3 25 -9c29 -26 64 -43 118 -43c129 0 188 131 188 262c0 9 0 17 -1 26c-29 -46 -103 -104 -189 -104c-120 0 -218 71 -218 213c0 116 88 218 234 218
c186 0 257 -163 257 -344zM454 419c-8 83 -52 185 -168 185c-103 0 -153 -77 -153 -141c0 -98 68 -144 154 -144c66 0 130 41 167 100z" />
    <glyph glyph-name="colon" unicode=":" horiz-adv-x="230" 
d="M170 435c0 -30 -25 -55 -55 -55s-55 25 -55 55s25 55 55 55s55 -25 55 -55zM170 45c0 -30 -25 -55 -55 -55s-55 25 -55 55s25 55 55 55s55 -25 55 -55z" />
    <glyph glyph-name="semicolon" unicode=";" horiz-adv-x="230" 
d="M170 435c0 -29 -25 -55 -55 -55s-55 26 -55 55c0 30 25 55 55 55s55 -25 55 -55zM176 26c0 -53 -30 -109 -71 -143c-4 -3 -9 -5 -13 -5c-11 0 -25 9 -25 23c0 7 3 14 8 19c24 22 44 52 47 79c-2 -1 -9 -2 -14 -2c-28 0 -48 21 -48 51c0 29 23 54 53 54
c33 0 63 -28 63 -76z" />
    <glyph glyph-name="less" unicode="&#x3c;" horiz-adv-x="499" 
d="M476 133c0 -18 -17 -29 -29 -29c-4 0 -7 1 -11 3l-393 194c-12 6 -20 19 -20 35c0 13 8 26 20 32l392 195c4 2 8 2 12 2c13 0 29 -11 29 -28c0 -11 -6 -20 -16 -25l-367 -178l368 -177c9 -4 15 -15 15 -24z" />
    <glyph glyph-name="equal" unicode="=" horiz-adv-x="499" 
d="M476 238c0 -16 -11 -27 -25 -27h-403c-14 0 -25 11 -25 27c0 14 11 25 25 25h403c14 0 25 -11 25 -25zM476 432c0 -16 -12 -28 -25 -28h-402c-14 0 -26 12 -26 28c0 13 12 25 26 25h402c13 0 25 -12 25 -25z" />
    <glyph glyph-name="greater" unicode="&#x3e;" horiz-adv-x="499" 
d="M475 336c0 -16 -8 -29 -20 -35l-393 -194c-4 -2 -8 -3 -12 -3c-12 0 -28 12 -28 29c0 9 6 20 15 24l368 177l-367 178c-10 5 -16 14 -16 24c0 17 14 29 29 29c4 0 8 0 12 -2l392 -195c12 -6 20 -19 20 -32z" />
    <glyph glyph-name="question" unicode="?" horiz-adv-x="462" 
d="M431 522c0 -151 -194 -164 -194 -262c0 -14 13 -30 13 -45c0 -17 -13 -33 -32 -33c-40 0 -54 65 -54 84c0 127 181 138 181 244c0 50 -39 93 -118 93c-61 0 -105 -23 -140 -59c-6 -7 -15 -10 -24 -10c-18 0 -36 17 -36 37c0 9 3 19 10 26c50 51 117 80 198 80
c122 0 196 -69 196 -155zM279 45c0 -30 -25 -55 -55 -55s-55 25 -55 55s25 55 55 55s55 -25 55 -55z" />
    <glyph glyph-name="at" unicode="@" horiz-adv-x="783" 
d="M747 321c0 -157 -89 -236 -173 -236c-56 0 -88 39 -91 84c-36 -46 -95 -84 -159 -84c-93 0 -153 66 -153 163c0 139 117 251 235 251c65 0 109 -35 128 -78l9 44c3 15 17 25 32 25c20 0 34 -14 34 -31c0 -2 -1 -5 -1 -7l-50 -240c-1 -6 -2 -15 -2 -21
c0 -34 21 -52 47 -52c39 0 108 44 108 182c0 164 -113 283 -283 283c-193 0 -359 -171 -359 -358c0 -161 121 -283 287 -283c66 0 126 19 179 52c2 1 5 2 7 2c7 0 17 -6 17 -16c0 -5 -2 -10 -6 -12c-59 -37 -132 -59 -201 -59c-182 0 -317 137 -317 314
c0 216 189 394 397 394c189 0 315 -142 315 -317zM522 369c-11 31 -44 74 -103 74c-100 0 -177 -95 -177 -191c0 -64 38 -111 102 -111c69 0 120 48 149 90z" />
    <glyph glyph-name="A" unicode="A" horiz-adv-x="658" 
d="M630 38c0 -20 -18 -44 -45 -44c-17 0 -33 10 -40 27l-50 127h-332l-50 -127c-7 -17 -23 -27 -40 -27c-26 0 -45 21 -45 44c0 5 1 11 3 16l230 574c11 27 37 45 68 45c29 0 55 -18 66 -45l232 -574c2 -5 3 -11 3 -16zM470 222l-141 359l-142 -359h283z" />
    <glyph glyph-name="B" unicode="B" horiz-adv-x="629" 
d="M575 180c0 -107 -71 -180 -193 -180h-244c-33 0 -60 27 -60 60v547c0 33 27 60 60 60h237c116 0 187 -70 187 -170c0 -84 -56 -140 -117 -153c71 -11 130 -84 130 -164zM476 485c0 60 -40 108 -115 108h-200v-215h200c75 0 115 46 115 107zM489 189
c0 61 -42 115 -124 115h-204v-230h204c78 0 124 44 124 115z" />
    <glyph glyph-name="C" unicode="C" horiz-adv-x="676" 
d="M394 678c100 0 172 -40 223 -95c7 -8 11 -18 11 -29c0 -21 -17 -40 -39 -40c-10 0 -21 4 -28 13c-39 47 -105 77 -167 77c-146 0 -257 -112 -257 -271c0 -158 111 -271 257 -271c63 0 125 27 167 76c7 8 18 13 28 13c23 0 39 -20 39 -41c0 -10 -4 -20 -11 -28
c-52 -54 -123 -94 -223 -94c-192 0 -343 140 -343 345s151 345 343 345z" />
    <glyph glyph-name="D" unicode="D" horiz-adv-x="700" 
d="M648 333c0 -190 -135 -333 -342 -333h-168c-33 0 -60 27 -60 60v547c0 33 27 60 60 60h168c207 0 342 -145 342 -334zM562 333c0 144 -91 260 -256 260h-145v-519h145c162 0 256 116 256 259z" />
    <glyph glyph-name="E" unicode="E" horiz-adv-x="569" 
d="M521 38c0 -22 -16 -38 -36 -38h-347c-33 0 -60 27 -60 60v547c0 33 27 60 60 60h347c20 0 36 -16 36 -38c0 -20 -16 -36 -36 -36h-324v-215h317c20 0 36 -16 36 -38c0 -20 -16 -36 -36 -36h-317v-230h324c20 0 36 -16 36 -36z" />
    <glyph glyph-name="F" unicode="F" horiz-adv-x="550" 
d="M521 629c0 -20 -16 -36 -36 -36h-324v-215h317c20 0 36 -16 36 -38c0 -20 -16 -36 -36 -36h-317v-269c0 -23 -18 -41 -42 -41c-23 0 -41 18 -41 41v572c0 33 27 60 60 60h347c20 0 36 -16 36 -38z" />
    <glyph glyph-name="G" unicode="G" horiz-adv-x="713" 
d="M656 151c0 -103 -144 -164 -262 -164c-190 0 -343 139 -343 346s153 345 343 345c100 0 176 -38 229 -91c8 -7 11 -18 11 -28c0 -22 -16 -39 -38 -39c-10 0 -19 4 -27 12c-42 45 -109 72 -175 72c-146 0 -257 -112 -257 -271c0 -158 111 -272 257 -272
c80 0 146 39 179 72v136h-199c-20 0 -36 16 -36 38c0 20 16 36 36 36h222c33 0 60 -27 60 -60v-132z" />
    <glyph glyph-name="H" unicode="H" horiz-adv-x="712" 
d="M634 35c0 -23 -18 -41 -42 -41c-23 0 -41 18 -41 41v271h-390v-271c0 -23 -18 -41 -42 -41c-23 0 -41 18 -41 41v598c0 22 18 40 43 40c22 0 40 -18 40 -40v-253h390v253c0 22 18 40 43 40c22 0 40 -18 40 -40v-598z" />
    <glyph glyph-name="I" unicode="I" horiz-adv-x="239" 
d="M161 35c0 -23 -18 -41 -42 -41c-23 0 -41 18 -41 41v598c0 22 18 40 43 40c22 0 40 -18 40 -40v-598z" />
    <glyph glyph-name="J" unicode="J" horiz-adv-x="475" 
d="M397 201c0 -145 -93 -213 -212 -213c-59 0 -110 16 -154 57c-8 7 -12 16 -12 26c0 20 17 39 37 39c8 0 16 -2 23 -8c26 -23 58 -40 101 -40c82 0 134 57 134 140v431c0 22 18 40 43 40c22 0 40 -18 40 -40v-432z" />
    <glyph glyph-name="K" unicode="K" horiz-adv-x="601" 
d="M544 33c0 -19 -16 -40 -40 -40c-11 0 -22 5 -30 14l-246 293l-67 -76v-189c0 -23 -18 -41 -42 -41c-23 0 -41 18 -41 41v598c0 22 18 40 43 40c22 0 40 -18 40 -40v-311l288 337c8 9 18 13 29 13c22 0 41 -17 41 -39c0 -8 -3 -17 -9 -23l-228 -260l253 -293
c6 -7 9 -15 9 -24z" />
    <glyph glyph-name="L" unicode="L" horiz-adv-x="510" 
d="M477 38c0 -22 -16 -38 -36 -38h-303c-33 0 -60 27 -60 60v573c0 22 18 40 43 40c22 0 40 -18 40 -40v-559h280c20 0 36 -16 36 -36z" />
    <glyph glyph-name="M" unicode="M" horiz-adv-x="809" 
d="M731 35c0 -23 -18 -41 -42 -41c-23 0 -41 18 -41 41v514l-224 -542c-3 -8 -11 -13 -21 -13c-8 0 -16 5 -19 13l-223 542v-514c0 -23 -18 -41 -42 -41c-23 0 -41 18 -41 41v570c0 36 31 67 69 67c27 0 55 -16 66 -42l191 -465l192 465c11 26 38 42 66 42
c38 0 69 -31 69 -67v-570z" />
    <glyph glyph-name="N" unicode="N" horiz-adv-x="708" 
d="M630 41c0 -24 -20 -47 -50 -47c-16 0 -32 8 -41 21l-378 517v-497c0 -23 -18 -41 -42 -41c-23 0 -41 18 -41 41v588c0 26 22 50 53 50c17 0 34 -8 44 -22l372 -505v487c0 22 18 40 43 40c22 0 40 -18 40 -40v-592z" />
    <glyph glyph-name="O" unicode="O" horiz-adv-x="765" 
d="M713 333c0 -197 -134 -345 -331 -345c-198 0 -331 148 -331 345s133 345 331 345c197 0 331 -148 331 -345zM627 333c0 156 -96 271 -245 271c-150 0 -245 -115 -245 -271c0 -155 95 -271 245 -271c149 0 245 116 245 271z" />
    <glyph glyph-name="P" unicode="P" horiz-adv-x="587" 
d="M555 466c0 -109 -77 -201 -209 -201h-185v-230c0 -23 -18 -41 -42 -41c-23 0 -41 18 -41 41v572c0 33 27 60 60 60h208c134 0 209 -92 209 -201zM469 466c0 75 -54 127 -133 127h-175v-254h175c79 0 133 52 133 127z" />
    <glyph glyph-name="Q" unicode="Q" horiz-adv-x="765" 
d="M713 333c0 -99 -34 -185 -92 -246l42 -45c6 -7 9 -15 9 -24c0 -20 -17 -39 -39 -39c-10 0 -20 4 -27 12l-44 47c-50 -32 -111 -50 -180 -50c-198 0 -331 148 -331 345s133 345 331 345c197 0 331 -148 331 -345zM627 333c0 156 -96 271 -245 271
c-150 0 -245 -115 -245 -271c0 -155 95 -271 245 -271c48 0 91 12 127 34l-74 80c-7 7 -10 15 -10 24c0 19 17 39 39 39c10 0 20 -4 27 -12l75 -81c39 48 61 113 61 187z" />
    <glyph glyph-name="R" unicode="R" horiz-adv-x="608" 
d="M555 466c0 -120 -82 -186 -173 -194l143 -217c4 -7 6 -14 6 -21c0 -20 -17 -40 -41 -40c-13 0 -25 6 -33 18l-163 253h-133v-230c0 -23 -18 -41 -42 -41c-23 0 -41 18 -41 41v572c0 33 27 60 60 60h208c122 0 209 -78 209 -201zM336 593h-175v-255h175
c79 0 133 53 133 128s-54 127 -133 127z" />
    <glyph glyph-name="S" unicode="S" horiz-adv-x="586" 
d="M540 184c0 -97 -66 -196 -246 -196c-99 0 -177 33 -234 83c-9 8 -13 19 -13 30c0 20 15 42 39 42c8 0 17 -2 24 -8c46 -41 110 -73 187 -73c119 0 157 64 157 115c0 172 -395 77 -395 315c0 110 98 185 229 185c86 0 160 -26 214 -71c9 -8 14 -19 14 -30
c0 -20 -17 -40 -39 -40c-8 0 -17 3 -24 9c-49 40 -110 58 -171 58c-80 0 -137 -43 -137 -106c0 -150 395 -64 395 -313z" />
    <glyph glyph-name="T" unicode="T" horiz-adv-x="570" 
d="M544 629c0 -20 -16 -36 -36 -36h-182v-558c0 -23 -18 -41 -42 -41c-23 0 -41 18 -41 41v558h-181c-20 0 -36 16 -36 38c0 20 16 36 36 36h446c20 0 36 -16 36 -38z" />
    <glyph glyph-name="U" unicode="U" horiz-adv-x="700" 
d="M622 260c0 -166 -91 -272 -272 -272s-272 107 -272 271v374c0 22 18 40 43 40c22 0 40 -18 40 -40v-372c0 -122 66 -199 189 -199s189 77 189 199v372c0 22 18 40 43 40c22 0 40 -18 40 -40v-373z" />
    <glyph glyph-name="V" unicode="V" horiz-adv-x="658" 
d="M630 629c0 -5 -1 -11 -3 -16l-231 -574c-11 -27 -38 -45 -66 -45h-2c-29 0 -56 18 -67 45l-230 574c-2 5 -3 10 -3 16c0 20 18 44 45 44c17 0 33 -10 40 -27l216 -555l216 555c6 16 22 27 40 27c26 0 45 -21 45 -44z" />
    <glyph glyph-name="W" unicode="W" horiz-adv-x="883" 
d="M856 631c0 -4 -1 -8 -2 -12l-166 -584c-7 -24 -30 -41 -56 -41h-1c-26 0 -47 18 -53 41l-137 503l-138 -503c-7 -24 -28 -41 -55 -41h-1c-27 0 -47 17 -53 40l-166 585c-1 4 -2 8 -2 12c0 21 17 42 43 42c20 0 39 -13 44 -33l141 -529l146 531c5 18 21 31 42 31
c19 0 36 -13 41 -31l146 -531l140 529c5 19 23 32 43 32c25 0 44 -18 44 -41z" />
    <glyph glyph-name="X" unicode="X" horiz-adv-x="652" 
d="M603 34c0 -22 -18 -41 -40 -41c-12 0 -23 5 -30 15l-207 276l-208 -276c-7 -10 -18 -15 -30 -15c-22 0 -40 17 -40 40c0 8 2 17 8 24l216 285l-201 268c-5 7 -8 15 -8 23c0 19 16 40 40 40c12 0 24 -6 32 -16l191 -257l191 258c7 10 18 15 30 15c21 0 41 -17 41 -40
c0 -8 -2 -16 -7 -23l-201 -267l216 -286c5 -7 7 -15 7 -23z" />
    <glyph glyph-name="Y" unicode="Y" horiz-adv-x="626" 
d="M585 633c0 -7 -2 -15 -6 -21l-224 -330v-247c0 -23 -18 -41 -42 -41c-23 0 -41 18 -41 41v247l-225 330c-4 6 -7 13 -7 21c0 19 15 40 40 40c12 0 26 -6 34 -17l199 -299l199 299c7 10 20 16 32 16c22 0 41 -18 41 -39z" />
    <glyph glyph-name="Z" unicode="Z" horiz-adv-x="585" 
d="M542 38c0 -22 -16 -38 -36 -38h-421c-21 0 -42 19 -42 46c0 10 3 20 9 28l371 519h-345c-20 0 -36 16 -36 38c0 20 16 36 36 36h414c21 0 42 -19 42 -46c0 -10 -3 -20 -9 -28l-371 -519h352c20 0 36 -16 36 -36z" />
    <glyph glyph-name="bracketleft" unicode="[" horiz-adv-x="243" 
d="M232 -162c0 -16 -12 -28 -26 -28h-106c-33 0 -60 27 -60 60v748c0 33 27 60 60 60h106c14 0 26 -12 26 -28c0 -15 -12 -27 -26 -27h-108v-758h108c14 0 26 -12 26 -27z" />
    <glyph glyph-name="backslash" unicode="\" horiz-adv-x="296" 
d="M288 -3c0 -13 -11 -29 -28 -29c-11 0 -22 8 -26 19l-225 674c-1 3 -2 5 -2 8c0 14 12 29 29 29c11 0 22 -7 26 -18l225 -674c1 -3 1 -6 1 -9z" />
    <glyph glyph-name="bracketright" unicode="]" horiz-adv-x="243" 
d="M203 -130c0 -33 -27 -60 -60 -60h-105c-15 0 -27 12 -27 28c0 15 12 27 27 27h107v758h-107c-15 0 -27 12 -27 29c0 14 12 26 27 26h105c33 0 60 -27 60 -60v-748z" />
    <glyph glyph-name="asciicircum" unicode="^" horiz-adv-x="432" 
d="M399 354c0 -12 -11 -28 -28 -28c-9 0 -19 5 -23 14l-132 272l-131 -272c-4 -9 -14 -14 -23 -14c-16 0 -29 14 -29 29c0 4 1 8 3 12l144 284c7 13 21 22 38 22c14 0 28 -9 35 -22l143 -284c2 -4 3 -8 3 -13z" />
    <glyph glyph-name="underscore" unicode="_" horiz-adv-x="564" 
d="M573 -67c0 -16 -12 -28 -26 -28h-529c-15 0 -27 12 -27 28c0 15 12 27 27 27h529c14 0 26 -12 26 -27z" />
    <glyph glyph-name="grave" unicode="`" horiz-adv-x="226" 
d="M203 571c0 -10 -8 -21 -20 -21c-5 0 -9 2 -13 5l-126 108c-5 4 -8 10 -8 17c0 13 12 25 26 25c6 0 13 -2 18 -7l118 -114c3 -4 5 -8 5 -13z" />
    <glyph glyph-name="a" unicode="a" horiz-adv-x="527" 
d="M452 31c0 -20 -17 -37 -38 -37v0c-21 0 -37 18 -37 39v22c-40 -44 -95 -67 -160 -67c-82 0 -169 55 -169 160c0 108 87 159 169 159c66 0 121 -21 160 -66v87c0 65 -52 102 -122 102c-48 0 -89 -15 -126 -46c-6 -5 -14 -8 -21 -8c-16 0 -33 12 -33 30c0 8 3 16 10 22
c51 46 111 67 180 67c102 0 187 -46 187 -163v-301zM377 102v91c-29 40 -80 60 -133 60c-70 0 -119 -44 -119 -106c0 -61 49 -105 119 -105c53 0 104 20 133 60z" />
    <glyph glyph-name="b" unicode="b" horiz-adv-x="575" 
d="M528 241c0 -157 -89 -253 -215 -253c-68 0 -127 35 -163 84v-41c0 -20 -17 -37 -38 -37c-20 0 -37 17 -37 37v606c0 19 17 36 39 36c19 0 36 -17 36 -36v-227c39 53 97 85 163 85c126 0 215 -100 215 -254zM450 241c0 107 -58 187 -156 187c-59 0 -118 -36 -144 -78v-219
c26 -42 85 -76 144 -76c98 0 156 79 156 186z" />
    <glyph glyph-name="c" unicode="c" horiz-adv-x="495" 
d="M455 72c0 -7 -2 -15 -8 -21c-37 -38 -86 -63 -159 -63c-144 0 -241 110 -241 254c0 143 97 253 241 253c73 0 122 -25 159 -63c5 -6 8 -13 8 -21c0 -17 -15 -34 -34 -34c-10 0 -19 4 -26 11c-29 28 -63 40 -103 40c-103 0 -167 -79 -167 -186s64 -187 167 -187
c40 0 74 13 103 41c7 6 16 9 25 9c18 0 35 -14 35 -33z" />
    <glyph glyph-name="d" unicode="d" horiz-adv-x="575" 
d="M500 31c0 -20 -17 -37 -38 -37c-20 0 -37 17 -37 37v41c-36 -49 -95 -84 -163 -84c-126 0 -215 96 -215 253c0 154 88 254 215 254c65 0 124 -32 163 -85v227c0 19 17 36 39 36c19 0 36 -17 36 -36v-606zM425 131v219c-27 42 -85 78 -145 78c-97 0 -155 -80 -155 -187
s58 -186 155 -186c60 0 118 34 145 76z" />
    <glyph glyph-name="e" unicode="e" horiz-adv-x="563" 
d="M516 258c0 -22 -18 -41 -41 -41h-349c6 -91 70 -167 174 -167c46 0 92 15 130 45c5 3 11 5 17 5c13 0 30 -12 30 -31c0 -52 -125 -81 -184 -81c-143 0 -246 103 -246 254c0 140 100 253 238 253c120 0 199 -76 224 -187c3 -15 7 -33 7 -50zM443 272
c-1 72 -49 161 -159 161c-103 0 -154 -87 -158 -161h317z" />
    <glyph glyph-name="f" unicode="f" horiz-adv-x="283" 
d="M332 631c0 -17 -15 -30 -30 -30c-16 0 -34 14 -55 14c-49 0 -76 -34 -76 -95v-37h72c18 0 32 -14 32 -34c0 -18 -14 -32 -32 -32h-72v-386c0 -20 -17 -37 -38 -37c-20 0 -37 17 -37 37v386h-54c-18 0 -32 14 -32 34c0 18 14 32 32 32h54v37c0 99 54 157 140 157
c33 0 96 -11 96 -46z" />
    <glyph glyph-name="g" unicode="g" horiz-adv-x="574" 
d="M499 14c0 -160 -112 -210 -230 -210c-71 0 -128 13 -181 58c-7 6 -11 15 -11 25c0 17 15 32 33 32c8 0 15 -2 21 -7c38 -34 81 -46 138 -46c80 0 155 39 155 145v69c-35 -49 -94 -86 -162 -86c-126 0 -215 94 -215 250c0 155 88 251 215 251c65 0 123 -32 162 -85v43
c0 19 17 36 39 36c19 0 36 -17 36 -36v-439zM424 139v211c-26 42 -84 78 -144 78c-97 0 -155 -77 -155 -184c0 -106 58 -184 155 -184c60 0 118 37 144 79z" />
    <glyph glyph-name="h" unicode="h" horiz-adv-x="552" 
d="M477 31c0 -20 -17 -37 -38 -37c-20 0 -37 17 -37 37v287c0 85 -44 110 -109 110c-58 0 -114 -36 -143 -75v-322c0 -20 -17 -37 -38 -37c-20 0 -37 17 -37 37v606c0 19 17 36 39 36c19 0 36 -17 36 -36v-224c34 40 100 82 173 82c101 0 154 -49 154 -154v-310z" />
    <glyph glyph-name="i" unicode="i" horiz-adv-x="225" 
d="M112 653c28 0 51 -23 51 -51s-23 -50 -51 -50c-27 0 -50 22 -50 50s23 51 50 51zM150 31c0 -20 -17 -37 -38 -37c-20 0 -37 17 -37 37v422c0 19 17 36 39 36c19 0 36 -17 36 -36v-422z" />
    <glyph glyph-name="j" unicode="j" horiz-adv-x="225" 
d="M112 653c28 0 51 -23 51 -51s-24 -50 -51 -50s-50 22 -50 50s23 51 50 51zM150 -47c0 -95 -51 -149 -143 -149c-45 0 -103 15 -103 48c0 17 16 30 32 30s35 -16 61 -16c45 0 78 26 78 87v500c0 19 17 36 39 36c19 0 36 -17 36 -36v-500z" />
    <glyph glyph-name="k" unicode="k" horiz-adv-x="514" 
d="M464 31c0 -17 -14 -38 -37 -38c-11 0 -22 5 -29 14l-168 210l-80 -79v-107c0 -20 -17 -37 -38 -37c-20 0 -37 17 -37 37v606c0 19 17 36 39 36c19 0 36 -17 36 -36v-411l250 254c6 6 15 10 23 10c18 0 35 -17 35 -36c0 -8 -3 -16 -9 -22l-164 -168l171 -211
c5 -6 8 -14 8 -22z" />
    <glyph glyph-name="l" unicode="l" horiz-adv-x="225" 
d="M150 31c0 -20 -17 -37 -38 -37c-20 0 -37 17 -37 37v606c0 19 17 36 39 36c19 0 36 -17 36 -36v-606z" />
    <glyph glyph-name="m" unicode="m" horiz-adv-x="808" 
d="M733 31c0 -20 -17 -37 -38 -37c-20 0 -37 17 -37 37v297c0 61 -27 100 -89 100c-50 0 -103 -36 -128 -74v-323c0 -20 -17 -37 -38 -37c-20 0 -37 17 -37 37v297c0 61 -26 100 -89 100c-49 0 -101 -36 -127 -75v-322c0 -20 -17 -37 -38 -37c-20 0 -37 17 -37 37v422
c0 19 17 36 39 36c19 0 36 -17 36 -36v-40c20 31 85 82 156 82c74 0 116 -40 130 -90c27 44 92 90 162 90c88 0 135 -49 135 -146v-318z" />
    <glyph glyph-name="n" unicode="n" 
d="M476 31c0 -20 -17 -37 -38 -37c-20 0 -37 17 -37 37v285c0 85 -43 112 -108 112c-59 0 -115 -36 -143 -75v-322c0 -20 -17 -37 -38 -37c-20 0 -37 17 -37 37v422c0 19 17 36 39 36c19 0 36 -17 36 -36v-40c34 40 100 82 172 82c101 0 154 -51 154 -156v-308z" />
    <glyph glyph-name="o" unicode="o" horiz-adv-x="572" 
d="M525 242c0 -140 -92 -254 -239 -254s-239 114 -239 254s92 253 239 253s239 -113 239 -253zM446 242c0 98 -57 186 -160 186s-161 -88 -161 -186c0 -99 58 -187 161 -187s160 88 160 187z" />
    <glyph glyph-name="p" unicode="p" horiz-adv-x="572" 
d="M528 242c0 -156 -88 -254 -215 -254c-66 0 -124 31 -163 85v-227c0 -19 -17 -36 -38 -36c-20 0 -37 17 -37 36v607c0 19 17 36 39 36c19 0 36 -17 36 -36v-42c35 49 95 84 163 84c127 0 215 -96 215 -253zM449 242c0 107 -58 186 -155 186c-59 0 -118 -35 -144 -77v-218
c26 -42 85 -78 144 -78c97 0 155 80 155 187z" />
    <glyph glyph-name="q" unicode="q" horiz-adv-x="572" 
d="M496 -154c0 -19 -17 -36 -38 -36c-20 0 -37 17 -37 36v227c-39 -54 -97 -85 -162 -85c-127 0 -215 98 -215 254c0 157 88 253 215 253c68 0 128 -35 162 -84v42c0 19 17 36 39 36c19 0 36 -17 36 -36v-607zM421 133v218c-25 42 -84 77 -144 77c-97 0 -154 -79 -154 -186
s57 -187 154 -187c60 0 119 36 144 78z" />
    <glyph glyph-name="r" unicode="r" horiz-adv-x="330" 
d="M317 456c0 -22 -17 -40 -39 -41c-49 -3 -96 -25 -128 -73v-311c0 -20 -17 -37 -38 -37h-1c-20 1 -36 17 -36 37v422c0 19 17 36 39 36c19 0 36 -17 36 -36v-48c29 38 77 86 133 86c18 0 34 -15 34 -35z" />
    <glyph glyph-name="s" unicode="s" horiz-adv-x="465" 
d="M418 134c0 -81 -65 -146 -190 -146c-68 0 -130 18 -180 62c-7 6 -11 14 -11 23c0 18 15 32 34 32c8 0 15 -2 22 -7c35 -28 85 -49 138 -49c74 0 114 35 114 83c0 117 -299 45 -299 224c0 75 65 139 180 139c70 0 122 -21 164 -57c7 -6 10 -14 10 -22
c0 -17 -14 -30 -30 -30c-7 0 -14 2 -20 7c-31 24 -75 41 -124 41c-66 0 -107 -33 -107 -76c0 -106 299 -36 299 -224z" />
    <glyph glyph-name="t" unicode="t" horiz-adv-x="294" 
d="M286 31c0 -32 -46 -43 -89 -43c-71 0 -107 41 -107 113v316h-54c-18 0 -32 14 -32 34c0 18 14 32 32 32h54v102c0 19 17 36 39 36c19 0 36 -17 36 -36v-102h72c18 0 32 -14 32 -34c0 -18 -14 -32 -32 -32h-72v-300c0 -36 16 -62 49 -62c13 0 28 7 40 7
c17 0 32 -14 32 -31z" />
    <glyph glyph-name="u" unicode="u" 
d="M476 31c0 -20 -17 -37 -38 -37c-20 0 -37 17 -37 37v37c-37 -42 -100 -80 -172 -80c-101 0 -154 49 -154 154v311c0 19 17 36 39 36c19 0 36 -17 36 -36v-288c0 -85 43 -110 108 -110c59 0 115 34 143 73v325c0 19 17 36 39 36c19 0 36 -17 36 -36v-422z" />
    <glyph glyph-name="v" unicode="v" horiz-adv-x="490" 
d="M472 452c0 -4 -1 -9 -3 -13l-170 -410c-9 -21 -30 -35 -55 -35h-1c-23 0 -43 14 -52 35l-170 410c-2 4 -3 9 -3 13c0 19 16 37 38 37c15 0 29 -8 35 -23l154 -379l153 379c6 14 20 23 35 23c22 0 39 -17 39 -37z" />
    <glyph glyph-name="w" unicode="w" horiz-adv-x="734" 
d="M711 453c0 -3 -1 -7 -2 -10l-133 -416c-6 -19 -24 -33 -46 -33h-1c-21 0 -39 14 -45 33l-117 361l-117 -361c-6 -19 -25 -33 -47 -33h-1c-21 0 -38 14 -44 33l-133 416c-1 3 -2 7 -2 10c0 17 15 36 36 36c16 0 32 -10 37 -25l112 -366l120 363c6 17 20 28 40 28
c17 0 32 -11 38 -28l120 -363l112 366c5 15 20 25 36 25c21 0 37 -17 37 -36z" />
    <glyph glyph-name="x" unicode="x" horiz-adv-x="486" 
d="M445 28c0 -16 -14 -35 -35 -35c-10 0 -21 5 -27 14l-140 191l-140 -191c-7 -9 -16 -14 -27 -14c-18 0 -35 16 -35 35c0 7 2 14 7 20l149 200l-139 186c-4 6 -7 12 -7 19c0 16 14 36 36 36c10 0 20 -4 27 -13l129 -177l128 176c6 9 17 14 27 14c19 0 36 -17 36 -35
c0 -7 -2 -15 -7 -21l-138 -185l150 -200c4 -6 6 -13 6 -20z" />
    <glyph glyph-name="y" unicode="y" horiz-adv-x="490" 
d="M472 452c0 -4 -1 -9 -3 -13l-224 -537c-29 -69 -80 -98 -142 -98c-26 0 -59 2 -59 34c0 20 16 34 33 34c9 0 17 -1 25 -1c30 -1 53 11 71 51l32 73l-184 444c-2 4 -3 9 -3 13c0 19 16 37 38 37c15 0 29 -8 35 -23l154 -379l153 379c6 14 20 23 35 23c22 0 39 -17 39 -37z
" />
    <glyph glyph-name="z" unicode="z" horiz-adv-x="472" 
d="M426 34c0 -20 -14 -34 -31 -34h-314c-19 0 -34 16 -34 38c0 9 4 18 9 25l262 354h-240c-18 0 -32 14 -32 34c0 18 14 32 32 32h310c17 0 33 -15 33 -37c0 -9 -3 -17 -8 -24l-265 -357h247c17 0 31 -14 31 -31z" />
    <glyph glyph-name="braceleft" unicode="{" horiz-adv-x="260" 
d="M249 -162c0 -16 -12 -28 -26 -28h-41c-63 0 -125 52 -125 134v206c0 37 -10 60 -34 67c-14 4 -24 13 -24 28c0 14 10 22 24 26c24 7 34 30 34 67v205c0 83 62 135 125 135h41c14 0 26 -12 26 -28c0 -15 -12 -27 -26 -27h-41c-36 0 -66 -33 -66 -80v-211
c0 -42 -13 -74 -46 -88c33 -14 46 -46 46 -88v-211c0 -46 30 -80 66 -80h41c14 0 26 -12 26 -27z" />
    <glyph glyph-name="bar" unicode="|" horiz-adv-x="211" 
d="M133 1c0 -15 -12 -27 -28 -27c-15 0 -27 12 -27 27v666c0 14 12 26 29 26c14 0 26 -12 26 -26v-666z" />
    <glyph glyph-name="braceright" unicode="}" horiz-adv-x="260" 
d="M261 244c0 -14 -10 -23 -24 -27c-24 -7 -34 -30 -34 -67v-206c0 -82 -62 -134 -125 -134h-40c-15 0 -27 12 -27 28c0 15 12 27 27 27h40c36 0 66 34 66 80v211c0 42 13 74 46 88c-33 14 -46 46 -46 88v211c0 47 -30 80 -66 80h-40c-15 0 -27 12 -27 29c0 14 12 26 27 26
h40c63 0 125 -52 125 -135v-205c0 -37 10 -60 34 -67c14 -4 24 -12 24 -27z" />
    <glyph glyph-name="asciitilde" unicode="~" horiz-adv-x="503" 
d="M472 633c-12 -110 -43 -210 -135 -210c-125 0 -95 190 -172 190c-45 0 -67 -67 -79 -164c-2 -14 -14 -23 -28 -23c-19 0 -28 13 -28 30c13 111 44 210 135 210c126 0 95 -191 172 -191c44 0 68 66 79 165c1 14 13 23 28 23c17 0 28 -14 28 -30z" />
    <glyph glyph-name="uni00A0" unicode="&#xa0;" horiz-adv-x="258" 
 />
    <glyph glyph-name="exclamdown" unicode="&#xa1;" horiz-adv-x="230" 
d="M170 438c-1 -30 -25 -55 -55 -55s-55 25 -55 55c0 29 25 55 55 55s55 -26 55 -55zM161 -145c1 -24 -21 -45 -44 -45c-27 0 -48 21 -47 45l13 417c1 17 14 30 33 30c17 0 30 -13 31 -30z" />
    <glyph glyph-name="cent" unicode="&#xa2;" horiz-adv-x="495" 
d="M455 73c0 -8 -2 -16 -8 -22c-35 -35 -75 -57 -136 -62v-67c0 -15 -13 -28 -28 -28c-18 0 -31 13 -31 28v69c-124 16 -205 119 -205 251c0 130 81 233 205 250v51c0 15 13 28 31 28c15 0 28 -13 28 -28v-49c61 -5 102 -27 136 -62c5 -6 8 -14 8 -21c0 -18 -16 -34 -35 -34
c-9 0 -18 4 -25 11c-26 25 -52 35 -84 39v-371c32 3 58 15 84 40c7 6 15 9 25 9c17 0 35 -13 35 -32zM252 59v364c-79 -18 -127 -89 -127 -181c0 -93 48 -165 127 -183z" />
    <glyph glyph-name="sterling" unicode="&#xa3;" horiz-adv-x="518" 
d="M505 48c0 -39 -76 -61 -132 -61c-90 0 -104 46 -179 46c-27 0 -61 -12 -94 -28c-5 -2 -10 -3 -15 -3c-18 0 -33 13 -33 33c0 13 6 26 18 32c70 37 109 88 109 141c0 22 -6 42 -15 60h-125c-14 0 -26 12 -26 28c0 14 12 26 26 26h86c-36 42 -77 88 -77 158
c0 110 102 197 224 197c77 0 146 -31 187 -86c4 -6 6 -13 6 -20c0 -20 -17 -36 -39 -36c-13 0 -26 6 -35 17c-26 31 -65 55 -111 55c-76 0 -143 -48 -143 -128c0 -73 47 -111 81 -157h130c14 0 26 -12 26 -28c0 -14 -12 -26 -26 -26h-102c4 -13 7 -27 7 -43
c0 -61 -35 -103 -76 -132c14 5 34 9 52 9c64 0 91 -41 148 -41c37 0 66 23 87 23c19 0 41 -15 41 -36z" />
    <glyph glyph-name="currency" unicode="&#xa4;" horiz-adv-x="598" 
d="M556 110c0 -16 -15 -33 -33 -33c-8 0 -16 3 -22 9l-55 53c-39 -29 -88 -46 -147 -46c-60 0 -110 18 -149 47l-53 -54c-6 -6 -14 -9 -22 -9c-16 0 -34 14 -34 32c0 8 3 16 9 22l55 55c-29 41 -45 92 -45 147s16 107 46 147l-56 56c-7 7 -10 14 -10 23c0 16 14 33 33 33
c9 0 16 -3 23 -10l56 -56c39 29 88 46 147 46c58 0 108 -17 146 -46l56 56c6 6 13 9 21 9c16 0 34 -14 34 -33c0 -8 -3 -16 -9 -22l-56 -56c30 -40 47 -92 47 -147c0 -56 -17 -107 -46 -148l55 -54c6 -6 9 -14 9 -21zM461 333c0 89 -57 170 -162 170
c-104 0 -162 -81 -162 -170c0 -90 58 -172 162 -172c105 0 162 82 162 172z" />
    <glyph glyph-name="yen" unicode="&#xa5;" horiz-adv-x="626" 
d="M611 148c0 -14 -12 -26 -25 -26h-231v-87c0 -23 -18 -41 -40 -41c-24 0 -43 16 -43 41v87h-230c-14 0 -26 12 -26 28c0 13 12 25 26 25h230v107h-231c-14 0 -25 11 -25 27c0 14 11 25 25 25h195l-189 278c-5 6 -7 13 -7 21c0 19 15 40 40 40c12 0 26 -6 34 -17l199 -299
l199 299c7 10 20 16 32 16c22 0 41 -18 41 -39c0 -7 -2 -15 -6 -21l-189 -278h196c14 0 25 -11 25 -27c0 -14 -11 -25 -25 -25h-231v-107h231c13 0 25 -12 25 -27z" />
    <glyph glyph-name="brokenbar" unicode="&#xa6;" horiz-adv-x="211" 
d="M133 7c0 -15 -12 -27 -28 -27c-15 0 -27 12 -27 27v263c0 14 12 26 29 26c14 0 26 -12 26 -26v-263zM133 398c0 -15 -12 -27 -28 -27c-15 0 -27 12 -27 27v263c0 14 12 26 29 26c14 0 26 -12 26 -26v-263z" />
    <glyph glyph-name="section" unicode="&#xa7;" horiz-adv-x="468" 
d="M418 66c0 -93 -78 -147 -190 -147c-82 0 -136 28 -177 62c-7 5 -11 14 -11 23c0 17 13 31 30 31c6 0 13 -2 18 -6c33 -29 83 -55 140 -55c69 0 117 32 117 87c0 123 -299 52 -299 229c0 71 55 112 115 128c-70 22 -115 57 -115 123c0 74 66 136 180 136
c80 0 173 -37 173 -77c0 -16 -11 -30 -27 -30c-6 0 -11 2 -16 6c-35 30 -85 45 -128 45c-64 0 -109 -31 -109 -80c0 -113 299 -38 299 -226c0 -56 -31 -101 -92 -128c55 -21 92 -56 92 -121zM344 305c0 58 -58 78 -113 92c-87 -22 -112 -56 -112 -99c0 -57 70 -73 142 -91
c53 23 83 51 83 98z" />
    <glyph glyph-name="dieresis" unicode="&#xa8;" horiz-adv-x="272" 
d="M79 604c0 -26 -21 -47 -46 -47c-26 0 -47 21 -47 47c0 25 21 46 47 46c25 0 46 -21 46 -46zM286 604c0 -26 -22 -47 -47 -47s-47 21 -47 47c0 25 22 46 47 46s47 -21 47 -46z" />
    <glyph glyph-name="copyright" unicode="&#xa9;" horiz-adv-x="778" 
d="M734 334c0 -190 -154 -345 -345 -345c-190 0 -345 155 -345 345c0 191 155 345 345 345c191 0 345 -154 345 -345zM703 334c0 173 -141 314 -314 314s-314 -141 -314 -314s141 -314 314 -314s314 141 314 314zM535 191c0 -5 -1 -9 -4 -12c-37 -38 -84 -58 -140 -58
c-115 0 -208 92 -208 214s93 213 208 213c56 0 105 -21 139 -59c3 -3 4 -7 4 -11c0 -9 -7 -18 -17 -18c-4 0 -8 2 -11 6c-29 32 -73 49 -115 49c-90 0 -171 -72 -171 -180c0 -105 81 -181 171 -181c42 0 87 19 114 50c3 3 7 5 12 5c8 0 18 -8 18 -18z" />
    <glyph glyph-name="ordfeminine" unicode="&#xaa;" horiz-adv-x="378" 
d="M317 348c0 -16 -12 -28 -29 -28c-16 0 -28 12 -28 28v13c-24 -26 -59 -43 -107 -43c-55 0 -112 37 -112 104c0 69 57 103 112 103c48 0 83 -17 107 -42v55c0 41 -36 65 -79 65c-29 0 -59 -10 -84 -31c-4 -4 -9 -6 -15 -6c-11 0 -23 10 -23 22c0 5 2 11 7 15
c35 31 77 45 122 45c69 0 129 -30 129 -111v-189zM260 394v56c-18 24 -51 38 -85 38c-44 0 -76 -27 -76 -66c0 -40 32 -66 76 -66c34 0 67 14 85 38z" />
    <glyph glyph-name="guillemotleft" unicode="&#xab;" horiz-adv-x="439" 
d="M237 85c0 -14 -13 -29 -29 -29c-8 0 -15 3 -20 9l-118 133c-11 12 -17 28 -17 44s6 33 17 45l118 130c5 6 12 9 20 9c13 0 29 -11 29 -27c0 -7 -2 -13 -7 -18l-125 -138l125 -141c4 -5 7 -11 7 -17zM381 85c0 -14 -13 -29 -29 -29c-8 0 -15 3 -20 9l-118 133
c-12 13 -17 29 -17 45s5 32 17 45l117 129c5 6 12 9 20 9c14 0 29 -12 29 -28c0 -6 -2 -12 -6 -17l-125 -138l125 -141c4 -5 7 -11 7 -17z" />
    <glyph glyph-name="logicalnot" unicode="&#xac;" horiz-adv-x="504" 
d="M470 232c0 -15 -12 -27 -28 -27c-15 0 -27 12 -27 27v172h-366c-14 0 -26 12 -26 28c0 13 12 25 26 25h361c33 0 60 -27 60 -60v-165z" />
    <glyph glyph-name="uni00AD" unicode="&#xad;" horiz-adv-x="300" 
d="M238 275c18 0 32 -14 32 -32c0 -19 -13 -34 -32 -34h-176c-18 0 -32 14 -32 32c0 19 12 34 32 34h176z" />
    <glyph glyph-name="registered" unicode="&#xae;" horiz-adv-x="494" 
d="M459 465c0 -117 -94 -212 -212 -212c-117 0 -212 95 -212 212c0 118 95 212 212 212c118 0 212 -94 212 -212zM430 465c0 102 -82 183 -183 183c-102 0 -184 -81 -184 -183c0 -101 82 -184 184 -184c101 0 183 83 183 184zM342 512c0 -54 -48 -72 -62 -72l51 -76
c2 -3 3 -5 3 -8c0 -8 -8 -18 -18 -18c-5 0 -10 3 -13 7l-61 94h-44v-87c0 -8 -7 -15 -17 -15c-8 0 -15 7 -15 15v207c0 15 12 27 27 27h72c41 0 77 -29 77 -74zM309 512c0 27 -23 46 -44 46h-67v-90h67c21 0 44 19 44 44z" />
    <glyph glyph-name="macron" unicode="&#xaf;" horiz-adv-x="363" 
d="M363 597c0 -15 -10 -25 -23 -25h-317c-13 0 -23 10 -23 25c0 13 10 23 23 23h317c13 0 23 -10 23 -23z" />
    <glyph glyph-name="degree" unicode="&#xb0;" horiz-adv-x="290" 
d="M267 555c0 -68 -55 -122 -123 -122c-67 0 -121 54 -121 122c0 67 54 122 121 122c68 0 123 -55 123 -122zM219 555c0 40 -34 74 -75 74c-40 0 -72 -34 -72 -74c0 -41 32 -74 72 -74c41 0 75 33 75 74z" />
    <glyph glyph-name="plusminus" unicode="&#xb1;" horiz-adv-x="499" 
d="M476 351c0 -16 -11 -27 -25 -27h-173v-192c0 -16 -12 -28 -29 -28c-16 0 -28 12 -28 28v192h-173c-14 0 -25 11 -25 27c0 14 11 25 25 25h173v186c0 15 12 27 30 27c15 0 27 -12 27 -27v-186h173c14 0 25 -11 25 -25zM476 27c0 -16 -11 -27 -25 -27h-403
c-14 0 -25 11 -25 27c0 14 11 25 25 25h403c14 0 25 -11 25 -25z" />
    <glyph glyph-name="twosuperior" unicode="&#xb2;" horiz-adv-x="388" 
d="M347 447c0 -15 -11 -26 -23 -26h-258c-12 0 -22 10 -22 23c0 14 7 22 17 29c142 102 218 170 218 232c0 51 -42 73 -85 73c-39 0 -75 -16 -100 -37c-5 -4 -10 -6 -16 -6c-12 0 -25 9 -25 25c0 7 2 14 8 19c37 33 87 48 135 48c73 0 143 -37 143 -118s-83 -154 -201 -239
h186c12 0 23 -11 23 -23z" />
    <glyph glyph-name="threesuperior" unicode="&#xb3;" horiz-adv-x="388" 
d="M343 530c0 -68 -58 -116 -151 -116c-61 0 -147 32 -147 68c0 13 11 27 26 27c5 0 11 -2 15 -6c28 -25 67 -40 104 -40c58 0 93 27 93 70c0 51 -46 69 -104 69h-15c-10 0 -25 7 -25 24c0 16 14 24 25 24h14c56 0 98 17 98 64c0 41 -40 64 -89 64c-36 0 -69 -11 -97 -37
c-4 -4 -9 -5 -14 -5c-12 0 -25 10 -25 24c0 6 3 13 8 17c34 32 78 50 133 50c85 0 144 -41 144 -107c0 -58 -50 -86 -89 -93c38 -3 96 -33 96 -97z" />
    <glyph glyph-name="acute" unicode="&#xb4;" horiz-adv-x="226" 
d="M190 680c0 -6 -3 -13 -8 -17l-126 -108c-4 -3 -8 -5 -12 -5c-10 0 -21 9 -21 21c0 5 1 9 5 13l118 114c5 5 11 7 18 7c12 0 26 -11 26 -25z" />
    <glyph glyph-name="mu" unicode="&#xb5;" horiz-adv-x="565" 
d="M550 21c0 -15 -9 -32 -33 -32c-52 0 -98 14 -113 85c-34 -47 -91 -86 -153 -86c-57 0 -87 22 -101 48v-190c0 -19 -17 -36 -38 -36c-20 0 -37 17 -37 36v607c0 19 17 36 39 36c19 0 36 -17 36 -36v-288c0 -80 43 -112 110 -112c57 0 113 36 141 75v325c0 19 17 36 39 36
c19 0 36 -17 36 -36v-340c0 -82 74 -37 74 -92z" />
    <glyph glyph-name="paragraph" unicode="&#xb6;" horiz-adv-x="449" 
d="M378 -85c0 -11 -10 -21 -23 -21c-12 0 -22 10 -22 21v707h-89v-707c0 -11 -10 -21 -23 -21c-12 0 -22 10 -22 21v408c-95 0 -172 77 -172 172s77 172 172 172h137c23 0 42 -19 42 -42v-710z" />
    <glyph glyph-name="periodcentered" unicode="&#xb7;" horiz-adv-x="230" 
d="M170 244c0 -29 -25 -54 -55 -54s-55 25 -55 54c0 30 25 55 55 55s55 -25 55 -55z" />
    <glyph glyph-name="cedilla" unicode="&#xb8;" horiz-adv-x="205" 
d="M205 -111c0 -49 -47 -80 -104 -80c-39 0 -100 13 -100 41c0 11 10 20 21 20c3 0 5 0 8 -2c23 -15 47 -20 69 -20c32 0 61 15 61 42c0 21 -12 35 -37 35c-17 0 -32 -16 -47 -16c-12 0 -21 11 -21 22c0 2 0 5 1 7l20 53c4 12 16 20 29 20c9 1 16 -6 16 -14c0 -2 0 -4 -1 -6
l-18 -46c10 7 24 11 37 11c38 0 66 -26 66 -67z" />
    <glyph glyph-name="onesuperior" unicode="&#xb9;" horiz-adv-x="235" 
d="M175 444c0 -16 -13 -29 -31 -29c-16 0 -29 13 -29 29v299l-53 -55c-5 -5 -11 -8 -17 -8c-13 0 -25 12 -25 27c0 6 2 12 7 17l84 85c11 11 21 18 36 18c16 0 28 -12 28 -25v-358z" />
    <glyph glyph-name="ordmasculine" unicode="&#xba;" horiz-adv-x="405" 
d="M365 483c0 -91 -62 -165 -163 -165c-99 0 -162 74 -162 165s63 165 162 165c101 0 163 -74 163 -165zM306 483c0 65 -38 115 -104 115c-65 0 -102 -50 -102 -115c0 -66 37 -117 102 -117c66 0 104 51 104 117z" />
    <glyph glyph-name="guillemotright" unicode="&#xbb;" horiz-adv-x="439" 
d="M242 243c0 -16 -6 -32 -17 -45l-118 -133c-5 -6 -12 -9 -20 -9c-14 0 -29 12 -29 28c0 6 2 13 7 18l125 141l-125 138c-4 5 -7 11 -7 17c0 14 12 28 29 28c8 0 15 -3 21 -9l117 -129c12 -13 17 -29 17 -45zM386 242c0 -16 -6 -31 -17 -44l-118 -133c-5 -6 -12 -9 -20 -9
c-14 0 -29 12 -29 28c0 6 2 13 7 18l125 141l-125 138c-5 5 -7 11 -7 17c0 13 11 28 28 28c8 0 15 -3 21 -9l118 -130c11 -13 17 -29 17 -45z" />
    <glyph glyph-name="onequarter" unicode="&#xbc;" horiz-adv-x="770" 
d="M739 126c0 -15 -11 -26 -23 -26h-41v-77c0 -16 -13 -29 -30 -29c-16 0 -29 13 -29 29v77h-181c-11 0 -21 10 -21 23c0 12 8 22 15 33l148 221c14 21 31 29 55 29c25 0 43 -18 43 -40v-217h41c12 0 23 -11 23 -23zM577 653c0 -4 -2 -9 -4 -12l-409 -640
c-5 -6 -12 -10 -19 -10c-13 0 -24 11 -24 24c0 4 1 7 4 11l409 641c4 6 12 10 19 10c15 0 24 -13 24 -24zM175 290c0 -16 -13 -29 -31 -29c-16 0 -29 13 -29 29v299l-53 -55c-5 -5 -11 -8 -17 -8c-13 0 -25 12 -25 27c0 6 2 12 7 17l84 85c11 11 21 18 36 18
c16 0 28 -12 28 -25v-358zM616 149v198l-136 -198h136z" />
    <glyph glyph-name="onehalf" unicode="&#xbd;" horiz-adv-x="807" 
d="M765 26c0 -15 -11 -26 -23 -26h-258c-12 0 -22 10 -22 23c0 14 7 22 17 29c142 102 218 170 218 232c0 51 -42 73 -85 73c-39 0 -75 -16 -100 -37c-5 -4 -10 -6 -16 -6c-12 0 -25 9 -25 25c0 45 103 67 143 67c73 0 143 -37 143 -118s-83 -154 -201 -239h186
c12 0 23 -11 23 -23zM577 653c0 -4 -2 -9 -4 -12l-409 -640c-5 -6 -12 -10 -19 -10c-13 0 -24 11 -24 24c0 4 1 7 4 11l409 641c4 6 12 10 19 10c15 0 24 -13 24 -24zM175 290c0 -16 -13 -29 -31 -29c-16 0 -29 13 -29 29v299l-53 -55c-5 -5 -11 -8 -17 -8
c-13 0 -25 12 -25 27c0 6 2 12 7 17l84 85c11 11 21 18 36 18c16 0 28 -12 28 -25v-358z" />
    <glyph glyph-name="threequarters" unicode="&#xbe;" horiz-adv-x="878" 
d="M848 126c0 -15 -11 -26 -23 -26h-41v-77c0 -16 -13 -29 -30 -29c-16 0 -29 13 -29 29v77h-181c-11 0 -21 10 -21 23c0 12 8 22 15 33l148 221c14 21 31 29 55 29c25 0 43 -18 43 -40v-217h41c12 0 23 -11 23 -23zM685 653c0 -4 -2 -9 -4 -12l-409 -640
c-5 -6 -12 -10 -19 -10c-13 0 -24 11 -24 24c0 4 1 7 4 11l409 641c4 6 12 10 19 10c15 0 24 -13 24 -24zM343 376c0 -68 -58 -116 -151 -116c-61 0 -147 32 -147 68c0 13 11 27 26 27c5 0 11 -2 15 -6c28 -25 67 -40 104 -40c58 0 93 27 93 70c0 51 -46 69 -104 69h-15
c-10 0 -25 7 -25 24c0 16 14 24 25 24h14c56 0 98 17 98 64c0 41 -40 64 -89 64c-36 0 -69 -11 -97 -37c-4 -4 -9 -5 -14 -5c-12 0 -25 10 -25 24c0 40 93 67 141 67c85 0 144 -41 144 -107c0 -58 -50 -86 -89 -93c38 -3 96 -33 96 -97zM725 149v198l-136 -198h136z" />
    <glyph glyph-name="questiondown" unicode="&#xbf;" horiz-adv-x="394" 
d="M293 437c0 -29 -25 -54 -55 -54s-55 25 -55 54c0 30 25 56 55 56s55 -26 55 -56zM435 -90c0 -65 -138 -106 -208 -106c-122 0 -196 69 -196 155c0 151 194 164 194 262c0 14 -14 30 -14 45c0 16 12 33 33 33c39 0 54 -66 54 -84c0 -127 -181 -138 -181 -244
c0 -50 39 -93 118 -93c77 0 129 69 164 69c18 0 36 -17 36 -37z" />
    <glyph glyph-name="Agrave" unicode="&#xc0;" horiz-adv-x="658" 
d="M630 38c0 -20 -18 -44 -45 -44c-17 0 -33 10 -40 27l-50 127h-332l-50 -127c-7 -17 -23 -27 -40 -27c-26 0 -45 21 -45 44c0 5 1 11 3 16l230 574c11 27 37 45 68 45c29 0 55 -18 66 -45l232 -574c2 -5 3 -11 3 -16zM470 222l-141 359l-142 -359h283zM363 738
c0 -10 -8 -21 -20 -21c-5 0 -9 2 -13 5l-126 108c-5 4 -8 10 -8 17c0 13 12 25 26 25c6 0 13 -2 18 -7l118 -114c3 -4 5 -8 5 -13z" />
    <glyph glyph-name="Aacute" unicode="&#xc1;" horiz-adv-x="658" 
d="M630 38c0 -20 -18 -44 -45 -44c-17 0 -33 10 -40 27l-50 127h-332l-50 -127c-7 -17 -23 -27 -40 -27c-26 0 -45 21 -45 44c0 5 1 11 3 16l230 574c11 27 37 45 68 45c29 0 55 -18 66 -45l232 -574c2 -5 3 -11 3 -16zM470 222l-141 359l-142 -359h283zM462 847
c0 -6 -3 -13 -8 -17l-126 -108c-4 -3 -8 -5 -12 -5c-10 0 -21 9 -21 21c0 5 1 9 5 13l118 114c5 5 11 7 18 7c12 0 26 -11 26 -25z" />
    <glyph glyph-name="Acircumflex" unicode="&#xc2;" horiz-adv-x="658" 
d="M630 38c0 -20 -18 -44 -45 -44c-17 0 -33 10 -40 27l-50 127h-332l-50 -127c-7 -17 -23 -27 -40 -27c-26 0 -45 21 -45 44c0 5 1 11 3 16l230 574c11 27 37 45 68 45c29 0 55 -18 66 -45l232 -574c2 -5 3 -11 3 -16zM470 222l-141 359l-142 -359h283zM449 737
c0 -9 -8 -21 -22 -21c-6 0 -12 3 -16 8l-82 105l-79 -104c-4 -5 -10 -8 -17 -8c-11 0 -22 8 -22 20c0 3 2 7 4 11l65 99c10 16 29 26 50 26c19 0 37 -10 48 -26l68 -99c2 -3 3 -7 3 -11z" />
    <glyph glyph-name="Atilde" unicode="&#xc3;" horiz-adv-x="658" 
d="M630 38c0 -20 -18 -44 -45 -44c-17 0 -33 10 -40 27l-50 127h-332l-50 -127c-7 -17 -23 -27 -40 -27c-26 0 -45 21 -45 44c0 5 1 11 3 16l230 574c11 27 37 45 68 45c29 0 55 -18 66 -45l232 -574c2 -5 3 -11 3 -16zM470 222l-141 359l-142 -359h283zM485 834
c-6 -67 -39 -113 -96 -113c-73 0 -75 92 -123 92c-24 0 -42 -20 -47 -64c-1 -13 -12 -22 -25 -22c-12 0 -20 9 -20 19c0 68 43 115 96 115c72 0 75 -92 123 -92c24 0 42 20 47 64c1 13 12 22 25 22s20 -10 20 -21z" />
    <glyph glyph-name="Adieresis" unicode="&#xc4;" horiz-adv-x="658" 
d="M630 38c0 -20 -18 -44 -45 -44c-17 0 -33 10 -40 27l-50 127h-332l-50 -127c-7 -17 -23 -27 -40 -27c-26 0 -45 21 -45 44c0 5 1 11 3 16l230 574c11 27 37 45 68 45c29 0 55 -18 66 -45l232 -574c2 -5 3 -11 3 -16zM470 222l-141 359l-142 -359h283zM273 771
c0 -26 -21 -47 -46 -47c-26 0 -47 21 -47 47c0 25 21 46 47 46c25 0 46 -21 46 -46zM480 771c0 -26 -22 -47 -47 -47s-47 21 -47 47c0 25 22 46 47 46s47 -21 47 -46z" />
    <glyph glyph-name="Aring" unicode="&#xc5;" horiz-adv-x="658" 
d="M630 38c0 -20 -18 -44 -45 -44c-17 0 -33 10 -40 27l-50 127h-332l-50 -127c-7 -17 -23 -27 -40 -27c-26 0 -45 21 -45 44c0 5 1 11 3 16l230 574c11 27 37 45 68 45c29 0 55 -18 66 -45l232 -574c2 -5 3 -11 3 -16zM470 222l-141 359l-142 -359h283zM427 788
c0 -54 -44 -98 -98 -98s-98 44 -98 98s44 99 98 99s98 -45 98 -99zM387 788c0 33 -25 59 -58 59c-32 0 -58 -26 -58 -59c0 -32 26 -59 58 -59c33 0 58 27 58 59z" />
    <glyph glyph-name="AE" unicode="&#xc6;" horiz-adv-x="947" 
d="M899 38c0 -22 -16 -38 -36 -38h-347c-33 0 -60 27 -60 60v88h-263l-81 -133c-7 -12 -20 -18 -33 -18c-22 0 -42 18 -42 41c0 7 2 14 6 21l348 557c19 31 56 51 92 51h380c20 0 36 -16 36 -38c0 -20 -16 -36 -36 -36h-324v-215h317c20 0 36 -16 36 -38
c0 -20 -16 -36 -36 -36h-317v-230h324c20 0 36 -16 36 -36zM456 222v359l-222 -359h222z" />
    <glyph glyph-name="Ccedilla" unicode="&#xc7;" horiz-adv-x="676" 
d="M394 678c100 0 172 -40 223 -95c7 -8 11 -18 11 -29c0 -21 -17 -40 -39 -40c-10 0 -21 4 -28 13c-39 47 -105 77 -167 77c-146 0 -257 -112 -257 -271c0 -158 111 -271 257 -271c63 0 125 27 167 76c7 8 18 13 28 13c22 0 39 -19 39 -41c0 -10 -4 -20 -11 -28
c-51 -54 -117 -91 -213 -94l-15 -39c10 7 24 11 37 11c38 0 66 -26 66 -67c0 -49 -47 -80 -104 -80c-39 0 -100 13 -100 41c0 11 10 20 21 20c3 0 5 0 8 -2c23 -15 47 -20 69 -20c32 0 61 15 61 42c0 21 -12 35 -37 35c-17 0 -32 -16 -46 -16c-12 0 -22 10 -22 22
c0 2 0 5 1 7l17 48c-176 15 -309 150 -309 343c0 205 151 345 343 345z" />
    <glyph glyph-name="Egrave" unicode="&#xc8;" horiz-adv-x="569" 
d="M521 38c0 -22 -16 -38 -36 -38h-347c-33 0 -60 27 -60 60v547c0 33 27 60 60 60h347c20 0 36 -16 36 -38c0 -20 -16 -36 -36 -36h-324v-215h317c20 0 36 -16 36 -38c0 -20 -16 -36 -36 -36h-317v-230h324c20 0 36 -16 36 -36zM330 738c0 -10 -8 -21 -20 -21
c-5 0 -9 2 -13 5l-126 108c-5 4 -8 10 -8 17c0 13 12 25 26 25c6 0 13 -2 18 -7l118 -114c3 -4 5 -8 5 -13z" />
    <glyph glyph-name="Eacute" unicode="&#xc9;" horiz-adv-x="569" 
d="M521 38c0 -22 -16 -38 -36 -38h-347c-33 0 -60 27 -60 60v547c0 33 27 60 60 60h347c20 0 36 -16 36 -38c0 -20 -16 -36 -36 -36h-324v-215h317c20 0 36 -16 36 -38c0 -20 -16 -36 -36 -36h-317v-230h324c20 0 36 -16 36 -36zM429 847c0 -6 -3 -13 -8 -17l-126 -108
c-4 -3 -8 -5 -12 -5c-10 0 -21 9 -21 21c0 5 1 9 5 13l118 114c5 5 11 7 18 7c12 0 26 -11 26 -25z" />
    <glyph glyph-name="Ecircumflex" unicode="&#xca;" horiz-adv-x="569" 
d="M521 38c0 -22 -16 -38 -36 -38h-347c-33 0 -60 27 -60 60v547c0 33 27 60 60 60h347c20 0 36 -16 36 -38c0 -20 -16 -36 -36 -36h-324v-215h317c20 0 36 -16 36 -38c0 -20 -16 -36 -36 -36h-317v-230h324c20 0 36 -16 36 -36zM414 737c0 -9 -8 -21 -22 -21
c-6 0 -12 3 -16 8l-82 105l-79 -104c-4 -5 -10 -8 -17 -8c-11 0 -22 8 -22 20c0 3 2 7 4 11l65 99c10 16 29 26 50 26c19 0 37 -10 48 -26l68 -99c2 -3 3 -7 3 -11z" />
    <glyph glyph-name="Edieresis" unicode="&#xcb;" horiz-adv-x="569" 
d="M521 38c0 -22 -16 -38 -36 -38h-347c-33 0 -60 27 -60 60v547c0 33 27 60 60 60h347c20 0 36 -16 36 -38c0 -20 -16 -36 -36 -36h-324v-215h317c20 0 36 -16 36 -38c0 -20 -16 -36 -36 -36h-317v-230h324c20 0 36 -16 36 -36zM239 771c0 -26 -21 -47 -46 -47
c-26 0 -47 21 -47 47c0 25 21 46 47 46c25 0 46 -21 46 -46zM446 771c0 -26 -22 -47 -47 -47s-47 21 -47 47c0 25 22 46 47 46s47 -21 47 -46z" />
    <glyph glyph-name="Igrave" unicode="&#xcc;" horiz-adv-x="239" 
d="M161 35c0 -23 -18 -41 -42 -41c-23 0 -41 18 -41 41v598c0 22 18 40 43 40c22 0 40 -18 40 -40v-598zM154 738c0 -10 -8 -21 -20 -21c-5 0 -9 2 -13 5l-126 108c-5 4 -8 10 -8 17c0 13 12 25 26 25c6 0 13 -2 18 -7l118 -114c3 -4 5 -8 5 -13z" />
    <glyph glyph-name="Iacute" unicode="&#xcd;" horiz-adv-x="239" 
d="M161 35c0 -23 -18 -41 -42 -41c-23 0 -41 18 -41 41v598c0 22 18 40 43 40c22 0 40 -18 40 -40v-598zM253 847c0 -6 -3 -13 -8 -17l-126 -108c-4 -3 -8 -5 -12 -5c-10 0 -21 9 -21 21c0 5 1 9 5 13l118 114c5 5 11 7 18 7c12 0 26 -11 26 -25z" />
    <glyph glyph-name="Icircumflex" unicode="&#xce;" horiz-adv-x="239" 
d="M161 35c0 -23 -18 -41 -42 -41c-23 0 -41 18 -41 41v598c0 22 18 40 43 40c22 0 40 -18 40 -40v-598zM240 737c0 -9 -8 -21 -22 -21c-6 0 -12 3 -16 8l-82 105l-79 -104c-4 -5 -10 -8 -17 -8c-11 0 -22 8 -22 20c0 3 2 7 4 11l65 99c10 16 29 26 50 26
c19 0 37 -10 48 -26l68 -99c2 -3 3 -7 3 -11z" />
    <glyph glyph-name="Idieresis" unicode="&#xcf;" horiz-adv-x="239" 
d="M161 35c0 -23 -18 -41 -42 -41c-23 0 -41 18 -41 41v598c0 22 18 40 43 40c22 0 40 -18 40 -40v-598zM64 771c0 -26 -21 -47 -46 -47c-26 0 -47 21 -47 47c0 25 21 46 47 46c25 0 46 -21 46 -46zM271 771c0 -26 -22 -47 -47 -47s-47 21 -47 47c0 25 22 46 47 46
s47 -21 47 -46z" />
    <glyph glyph-name="Eth" unicode="&#xd0;" horiz-adv-x="728" 
d="M676 333c0 -190 -135 -333 -342 -333h-168c-33 0 -60 27 -60 60v239h-72c-17 0 -30 13 -30 32c0 16 13 29 30 29h72v247c0 33 27 60 60 60h168c207 0 342 -145 342 -334zM590 333c0 144 -91 260 -256 260h-145v-233h146c16 0 29 -13 29 -31c0 -17 -13 -30 -29 -30h-146
v-225h145c162 0 256 116 256 259z" />
    <glyph glyph-name="Ntilde" unicode="&#xd1;" horiz-adv-x="708" 
d="M630 41c0 -24 -20 -47 -50 -47c-16 0 -32 8 -41 21l-378 517v-497c0 -23 -18 -41 -42 -41c-23 0 -41 18 -41 41v588c0 26 22 50 53 50c17 0 34 -8 44 -22l372 -505v487c0 22 18 40 43 40c22 0 40 -18 40 -40v-592zM508 834c-6 -67 -39 -113 -96 -113
c-73 0 -75 92 -123 92c-24 0 -42 -20 -47 -64c-1 -13 -12 -22 -25 -22c-12 0 -20 9 -20 19c0 68 43 115 96 115c72 0 75 -92 123 -92c24 0 42 20 47 64c1 13 12 22 25 22s20 -10 20 -21z" />
    <glyph glyph-name="Ograve" unicode="&#xd2;" horiz-adv-x="765" 
d="M713 333c0 -197 -134 -345 -331 -345c-198 0 -331 148 -331 345s133 345 331 345c197 0 331 -148 331 -345zM627 333c0 156 -96 271 -245 271c-150 0 -245 -115 -245 -271c0 -155 95 -271 245 -271c149 0 245 116 245 271zM417 738c0 -10 -8 -21 -20 -21c-5 0 -9 2 -13 5
l-126 108c-5 4 -8 10 -8 17c0 13 12 25 26 25c6 0 13 -2 18 -7l118 -114c3 -4 5 -8 5 -13z" />
    <glyph glyph-name="Oacute" unicode="&#xd3;" horiz-adv-x="765" 
d="M713 333c0 -197 -134 -345 -331 -345c-198 0 -331 148 -331 345s133 345 331 345c197 0 331 -148 331 -345zM627 333c0 156 -96 271 -245 271c-150 0 -245 -115 -245 -271c0 -155 95 -271 245 -271c149 0 245 116 245 271zM516 847c0 -6 -3 -13 -8 -17l-126 -108
c-4 -3 -8 -5 -12 -5c-10 0 -21 9 -21 21c0 5 1 9 5 13l118 114c5 5 11 7 18 7c12 0 26 -11 26 -25z" />
    <glyph glyph-name="Ocircumflex" unicode="&#xd4;" horiz-adv-x="765" 
d="M713 333c0 -197 -134 -345 -331 -345c-198 0 -331 148 -331 345s133 345 331 345c197 0 331 -148 331 -345zM627 333c0 156 -96 271 -245 271c-150 0 -245 -115 -245 -271c0 -155 95 -271 245 -271c149 0 245 116 245 271zM503 737c0 -9 -8 -21 -22 -21c-6 0 -12 3 -16 8
l-82 105l-79 -104c-4 -5 -10 -8 -17 -8c-11 0 -22 8 -22 20c0 3 2 7 4 11l65 99c10 16 29 26 50 26c19 0 37 -10 48 -26l68 -99c2 -3 3 -7 3 -11z" />
    <glyph glyph-name="Otilde" unicode="&#xd5;" horiz-adv-x="765" 
d="M713 333c0 -197 -134 -345 -331 -345c-198 0 -331 148 -331 345s133 345 331 345c197 0 331 -148 331 -345zM627 333c0 156 -96 271 -245 271c-150 0 -245 -115 -245 -271c0 -155 95 -271 245 -271c149 0 245 116 245 271zM538 834c-6 -67 -39 -113 -96 -113
c-73 0 -75 92 -123 92c-24 0 -42 -20 -47 -64c-1 -13 -12 -22 -25 -22c-12 0 -20 9 -20 19c0 68 43 115 96 115c72 0 75 -92 123 -92c24 0 42 20 47 64c1 13 12 22 25 22s20 -10 20 -21z" />
    <glyph glyph-name="Odieresis" unicode="&#xd6;" horiz-adv-x="765" 
d="M713 333c0 -197 -134 -345 -331 -345c-198 0 -331 148 -331 345s133 345 331 345c197 0 331 -148 331 -345zM627 333c0 156 -96 271 -245 271c-150 0 -245 -115 -245 -271c0 -155 95 -271 245 -271c149 0 245 116 245 271zM325 771c0 -26 -21 -47 -46 -47
c-26 0 -47 21 -47 47c0 25 21 46 47 46c25 0 46 -21 46 -46zM532 771c0 -26 -22 -47 -47 -47s-47 21 -47 47c0 25 22 46 47 46s47 -21 47 -46z" />
    <glyph glyph-name="multiply" unicode="&#xd7;" horiz-adv-x="499" 
d="M424 185c0 -16 -15 -27 -26 -27c-7 0 -13 3 -18 8l-131 131l-130 -131c-5 -5 -11 -8 -18 -8c-13 0 -27 12 -27 27c0 6 3 13 8 18l130 131l-130 130c-5 5 -8 11 -8 18c0 13 11 27 27 27c6 0 13 -2 18 -7l130 -131l131 131c5 5 11 7 17 7c13 0 27 -12 27 -27
c0 -7 -2 -13 -7 -18l-130 -130l130 -131c5 -5 7 -12 7 -18z" />
    <glyph glyph-name="Oslash" unicode="&#xd8;" horiz-adv-x="765" 
d="M713 333c0 -197 -134 -345 -331 -345c-66 0 -124 16 -173 45l-21 -31c-5 -7 -13 -10 -21 -10c-15 0 -29 11 -29 26c0 5 2 10 5 14l22 33c-72 62 -114 157 -114 268c0 197 133 345 331 345c63 0 119 -15 167 -42l19 28c5 7 13 11 22 11c14 0 28 -11 28 -26
c0 -5 -1 -11 -4 -15l-20 -29c75 -62 119 -159 119 -272zM627 333c0 84 -28 157 -78 205l-297 -441c36 -23 80 -35 130 -35c149 0 245 116 245 271zM506 572c-35 20 -77 32 -124 32c-150 0 -245 -115 -245 -271c0 -82 26 -153 73 -201z" />
    <glyph glyph-name="Ugrave" unicode="&#xd9;" horiz-adv-x="700" 
d="M622 260c0 -166 -91 -272 -272 -272s-272 107 -272 271v374c0 22 18 40 43 40c22 0 40 -18 40 -40v-372c0 -122 66 -199 189 -199s189 77 189 199v372c0 22 18 40 43 40c22 0 40 -18 40 -40v-373zM384 738c0 -10 -8 -21 -20 -21c-5 0 -9 2 -13 5l-126 108
c-5 4 -8 10 -8 17c0 13 12 25 26 25c6 0 13 -2 18 -7l118 -114c3 -4 5 -8 5 -13z" />
    <glyph glyph-name="Uacute" unicode="&#xda;" horiz-adv-x="700" 
d="M622 260c0 -166 -91 -272 -272 -272s-272 107 -272 271v374c0 22 18 40 43 40c22 0 40 -18 40 -40v-372c0 -122 66 -199 189 -199s189 77 189 199v372c0 22 18 40 43 40c22 0 40 -18 40 -40v-373zM483 847c0 -6 -3 -13 -8 -17l-126 -108c-4 -3 -8 -5 -12 -5
c-10 0 -21 9 -21 21c0 5 1 9 5 13l118 114c5 5 11 7 18 7c12 0 26 -11 26 -25z" />
    <glyph glyph-name="Ucircumflex" unicode="&#xdb;" horiz-adv-x="700" 
d="M622 260c0 -166 -91 -272 -272 -272s-272 107 -272 271v374c0 22 18 40 43 40c22 0 40 -18 40 -40v-372c0 -122 66 -199 189 -199s189 77 189 199v372c0 22 18 40 43 40c22 0 40 -18 40 -40v-373zM471 737c0 -9 -8 -21 -22 -21c-6 0 -12 3 -16 8l-82 105l-79 -104
c-4 -5 -10 -8 -17 -8c-11 0 -22 8 -22 20c0 3 2 7 4 11l65 99c10 16 29 26 50 26c19 0 37 -10 48 -26l68 -99c2 -3 3 -7 3 -11z" />
    <glyph glyph-name="Udieresis" unicode="&#xdc;" horiz-adv-x="700" 
d="M622 260c0 -166 -91 -272 -272 -272s-272 107 -272 271v374c0 22 18 40 43 40c22 0 40 -18 40 -40v-372c0 -122 66 -199 189 -199s189 77 189 199v372c0 22 18 40 43 40c22 0 40 -18 40 -40v-373zM294 771c0 -26 -21 -47 -46 -47c-26 0 -47 21 -47 47c0 25 21 46 47 46
c25 0 46 -21 46 -46zM501 771c0 -26 -22 -47 -47 -47s-47 21 -47 47c0 25 22 46 47 46s47 -21 47 -46z" />
    <glyph glyph-name="Yacute" unicode="&#xdd;" horiz-adv-x="626" 
d="M585 633c0 -7 -2 -15 -6 -21l-224 -330v-247c0 -23 -18 -41 -42 -41c-23 0 -41 18 -41 41v247l-225 330c-4 6 -7 13 -7 21c0 19 15 40 40 40c12 0 26 -6 34 -17l199 -299l199 299c7 10 20 16 32 16c22 0 41 -18 41 -39zM446 847c0 -6 -3 -13 -8 -17l-126 -108
c-4 -3 -8 -5 -12 -5c-10 0 -21 9 -21 21c0 5 1 9 5 13l118 114c5 5 11 7 18 7c12 0 26 -11 26 -25z" />
    <glyph glyph-name="Thorn" unicode="&#xde;" horiz-adv-x="587" 
d="M555 346c0 -109 -77 -200 -209 -200h-185v-105c0 -23 -18 -41 -42 -41c-23 0 -41 18 -41 41v586c0 22 18 40 43 40c22 0 40 -18 40 -40v-79h185c134 0 209 -93 209 -202zM469 346c0 75 -54 128 -133 128h-175v-254h175c79 0 133 51 133 126z" />
    <glyph glyph-name="germandbls" unicode="&#xdf;" horiz-adv-x="597" 
d="M578 135c0 -78 -62 -147 -186 -147c-81 0 -129 25 -168 61c-7 7 -11 16 -11 25c0 17 12 33 29 33c7 0 13 -3 19 -8c31 -29 77 -50 131 -50c76 0 113 41 113 84c0 116 -287 48 -287 223c0 109 146 122 146 186c0 45 -52 68 -99 68c-63 0 -115 -42 -115 -111v-468
c0 -20 -17 -37 -38 -37c-20 0 -37 17 -37 37v468c0 98 74 178 191 178c92 0 175 -48 175 -126c0 -110 -150 -112 -150 -194c0 -105 287 -34 287 -222z" />
    <glyph glyph-name="agrave" unicode="&#xe0;" horiz-adv-x="527" 
d="M452 31c0 -20 -17 -37 -38 -37v0c-21 0 -37 18 -37 39v22c-40 -44 -95 -67 -160 -67c-82 0 -169 55 -169 160c0 108 87 159 169 159c66 0 121 -21 160 -66v87c0 65 -52 102 -122 102c-48 0 -89 -15 -126 -46c-6 -5 -14 -8 -21 -8c-16 0 -33 12 -33 30c0 8 3 16 10 22
c51 46 111 67 180 67c102 0 187 -46 187 -163v-301zM377 102v91c-29 40 -80 60 -133 60c-70 0 -119 -44 -119 -106c0 -61 49 -105 119 -105c53 0 104 20 133 60zM299 571c0 -10 -8 -21 -20 -21c-5 0 -9 2 -13 5l-126 108c-5 4 -8 10 -8 17c0 13 12 25 26 25c6 0 13 -2 18 -7
l118 -114c3 -4 5 -8 5 -13z" />
    <glyph glyph-name="aacute" unicode="&#xe1;" horiz-adv-x="527" 
d="M452 31c0 -20 -17 -37 -38 -37v0c-21 0 -37 18 -37 39v22c-40 -44 -95 -67 -160 -67c-82 0 -169 55 -169 160c0 108 87 159 169 159c66 0 121 -21 160 -66v87c0 65 -52 102 -122 102c-48 0 -89 -15 -126 -46c-6 -5 -14 -8 -21 -8c-16 0 -33 12 -33 30c0 8 3 16 10 22
c51 46 111 67 180 67c102 0 187 -46 187 -163v-301zM377 102v91c-29 40 -80 60 -133 60c-70 0 -119 -44 -119 -106c0 -61 49 -105 119 -105c53 0 104 20 133 60zM398 680c0 -6 -3 -13 -8 -17l-126 -108c-4 -3 -8 -5 -12 -5c-10 0 -21 9 -21 21c0 5 1 9 5 13l118 114
c5 5 11 7 18 7c12 0 26 -11 26 -25z" />
    <glyph glyph-name="acircumflex" unicode="&#xe2;" horiz-adv-x="527" 
d="M452 31c0 -20 -17 -37 -38 -37v0c-21 0 -37 18 -37 39v22c-40 -44 -95 -67 -160 -67c-82 0 -169 55 -169 160c0 108 87 159 169 159c66 0 121 -21 160 -66v87c0 65 -52 102 -122 102c-48 0 -89 -15 -126 -46c-6 -5 -14 -8 -21 -8c-16 0 -33 12 -33 30c0 8 3 16 10 22
c51 46 111 67 180 67c102 0 187 -46 187 -163v-301zM377 102v91c-29 40 -80 60 -133 60c-70 0 -119 -44 -119 -106c0 -61 49 -105 119 -105c53 0 104 20 133 60zM384 570c0 -9 -8 -21 -22 -21c-6 0 -12 3 -16 8l-82 105l-79 -104c-4 -5 -10 -8 -17 -8c-11 0 -22 8 -22 20
c0 3 2 7 4 11l65 99c10 16 29 26 50 26c19 0 37 -10 48 -26l68 -99c2 -3 3 -7 3 -11z" />
    <glyph glyph-name="atilde" unicode="&#xe3;" horiz-adv-x="527" 
d="M452 31c0 -20 -17 -37 -38 -37v0c-21 0 -37 18 -37 39v22c-40 -44 -95 -67 -160 -67c-82 0 -169 55 -169 160c0 108 87 159 169 159c66 0 121 -21 160 -66v87c0 65 -52 102 -122 102c-48 0 -89 -15 -126 -46c-6 -5 -14 -8 -21 -8c-16 0 -33 12 -33 30c0 8 3 16 10 22
c51 46 111 67 180 67c102 0 187 -46 187 -163v-301zM377 102v91c-29 40 -80 60 -133 60c-70 0 -119 -44 -119 -106c0 -61 49 -105 119 -105c53 0 104 20 133 60zM421 667c-6 -67 -39 -113 -96 -113c-73 0 -75 92 -123 92c-24 0 -42 -20 -47 -64c-1 -13 -12 -22 -25 -22
c-12 0 -20 9 -20 19c0 68 43 115 96 115c72 0 75 -92 123 -92c24 0 42 20 47 64c1 13 12 22 25 22s20 -10 20 -21z" />
    <glyph glyph-name="adieresis" unicode="&#xe4;" horiz-adv-x="527" 
d="M452 31c0 -20 -17 -37 -38 -37v0c-21 0 -37 18 -37 39v22c-40 -44 -95 -67 -160 -67c-82 0 -169 55 -169 160c0 108 87 159 169 159c66 0 121 -21 160 -66v87c0 65 -52 102 -122 102c-48 0 -89 -15 -126 -46c-6 -5 -14 -8 -21 -8c-16 0 -33 12 -33 30c0 8 3 16 10 22
c51 46 111 67 180 67c102 0 187 -46 187 -163v-301zM377 102v91c-29 40 -80 60 -133 60c-70 0 -119 -44 -119 -106c0 -61 49 -105 119 -105c53 0 104 20 133 60zM208 604c0 -26 -21 -47 -46 -47c-26 0 -47 21 -47 47c0 25 21 46 47 46c25 0 46 -21 46 -46zM415 604
c0 -26 -22 -47 -47 -47s-47 21 -47 47c0 25 22 46 47 46s47 -21 47 -46z" />
    <glyph glyph-name="aring" unicode="&#xe5;" horiz-adv-x="527" 
d="M452 31c0 -20 -17 -37 -38 -37v0c-21 0 -37 18 -37 39v22c-40 -44 -95 -67 -160 -67c-82 0 -169 55 -169 160c0 108 87 159 169 159c66 0 121 -21 160 -66v87c0 65 -52 102 -122 102c-48 0 -89 -15 -126 -46c-6 -5 -14 -8 -21 -8c-16 0 -33 12 -33 30c0 8 3 16 10 22
c51 46 111 67 180 67c102 0 187 -46 187 -163v-301zM377 102v91c-29 40 -80 60 -133 60c-70 0 -119 -44 -119 -106c0 -61 49 -105 119 -105c53 0 104 20 133 60zM363 641c0 -54 -44 -98 -98 -98s-98 44 -98 98s44 99 98 99s98 -45 98 -99zM323 641c0 33 -25 59 -58 59
c-32 0 -58 -26 -58 -59c0 -32 26 -59 58 -59c33 0 58 27 58 59z" />
    <glyph glyph-name="ae" unicode="&#xe6;" horiz-adv-x="889" 
d="M842 258c0 -22 -18 -41 -41 -41h-325c7 -91 65 -165 161 -165c42 0 84 14 117 40c6 5 13 7 21 7c16 0 32 -12 32 -30c0 -8 -4 -16 -10 -22c-48 -40 -104 -59 -163 -59c-85 0 -154 36 -193 116c-34 -69 -110 -116 -199 -116c-104 0 -194 55 -194 160c0 104 84 159 178 159
c71 0 132 -20 175 -64v86c0 64 -54 101 -133 101c-53 0 -98 -14 -139 -47c-6 -5 -13 -7 -20 -7c-15 0 -33 12 -33 31c0 8 3 16 10 22c53 45 118 66 191 66c79 0 153 -31 171 -105c33 58 91 105 179 105c111 0 186 -72 209 -187c3 -16 6 -33 6 -50zM769 272
c-1 72 -43 161 -147 161c-95 0 -143 -87 -146 -161h293zM401 180v12c-33 39 -88 61 -145 61c-78 0 -131 -40 -131 -101s53 -100 131 -100c85 0 145 64 145 128z" />
    <glyph glyph-name="ccedilla" unicode="&#xe7;" horiz-adv-x="495" 
d="M455 73c0 -8 -2 -16 -8 -22c-35 -37 -77 -58 -141 -62l-16 -42c10 7 24 11 37 11c38 0 66 -26 66 -67c0 -49 -47 -80 -104 -80c-39 0 -100 13 -100 41c0 11 10 20 21 20c3 0 5 0 8 -2c23 -15 47 -20 69 -20c32 0 61 15 61 42c0 21 -12 35 -37 35c-17 0 -32 -16 -46 -16
c-12 0 -22 10 -22 22c0 2 0 5 1 7l18 50c-129 12 -215 116 -215 252c0 143 97 253 241 253c73 0 122 -25 159 -63c5 -6 8 -13 8 -21c0 -17 -15 -34 -34 -34c-10 0 -19 4 -26 11c-29 28 -63 40 -103 40c-103 0 -167 -79 -167 -186s64 -187 167 -187c40 0 74 13 103 41
c7 6 16 9 25 9c18 0 35 -13 35 -32z" />
    <glyph glyph-name="egrave" unicode="&#xe8;" horiz-adv-x="563" 
d="M516 258c0 -22 -18 -41 -41 -41h-349c6 -91 70 -167 174 -167c46 0 92 15 130 45c5 3 11 5 17 5c13 0 30 -12 30 -31c0 -52 -125 -81 -184 -81c-143 0 -246 103 -246 254c0 140 100 253 238 253c120 0 199 -76 224 -187c3 -15 7 -33 7 -50zM443 272
c-1 72 -49 161 -159 161c-103 0 -154 -87 -158 -161h317zM319 571c0 -10 -8 -21 -20 -21c-5 0 -9 2 -13 5l-126 108c-5 4 -8 10 -8 17c0 13 12 25 26 25c6 0 13 -2 18 -7l118 -114c3 -4 5 -8 5 -13z" />
    <glyph glyph-name="eacute" unicode="&#xe9;" horiz-adv-x="563" 
d="M516 258c0 -22 -18 -41 -41 -41h-349c6 -91 70 -167 174 -167c46 0 92 15 130 45c5 3 11 5 17 5c13 0 30 -12 30 -31c0 -52 -125 -81 -184 -81c-143 0 -246 103 -246 254c0 140 100 253 238 253c120 0 199 -76 224 -187c3 -15 7 -33 7 -50zM443 272
c-1 72 -49 161 -159 161c-103 0 -154 -87 -158 -161h317zM418 680c0 -6 -3 -13 -8 -17l-126 -108c-4 -3 -8 -5 -12 -5c-10 0 -21 9 -21 21c0 5 1 9 5 13l118 114c5 5 11 7 18 7c12 0 26 -11 26 -25z" />
    <glyph glyph-name="ecircumflex" unicode="&#xea;" horiz-adv-x="563" 
d="M516 258c0 -22 -18 -41 -41 -41h-349c6 -91 70 -167 174 -167c46 0 92 15 130 45c5 3 11 5 17 5c13 0 30 -12 30 -31c0 -52 -125 -81 -184 -81c-143 0 -246 103 -246 254c0 140 100 253 238 253c120 0 199 -76 224 -187c3 -15 7 -33 7 -50zM443 272
c-1 72 -49 161 -159 161c-103 0 -154 -87 -158 -161h317zM405 570c0 -9 -8 -21 -22 -21c-6 0 -12 3 -16 8l-82 105l-79 -104c-4 -5 -10 -8 -17 -8c-11 0 -22 8 -22 20c0 3 2 7 4 11l65 99c10 16 29 26 50 26c19 0 37 -10 48 -26l68 -99c2 -3 3 -7 3 -11z" />
    <glyph glyph-name="edieresis" unicode="&#xeb;" horiz-adv-x="563" 
d="M516 258c0 -22 -18 -41 -41 -41h-349c6 -91 70 -167 174 -167c46 0 92 15 130 45c5 3 11 5 17 5c13 0 30 -12 30 -31c0 -52 -125 -81 -184 -81c-143 0 -246 103 -246 254c0 140 100 253 238 253c120 0 199 -76 224 -187c3 -15 7 -33 7 -50zM443 272
c-1 72 -49 161 -159 161c-103 0 -154 -87 -158 -161h317zM229 604c0 -26 -21 -47 -46 -47c-26 0 -47 21 -47 47c0 25 21 46 47 46c25 0 46 -21 46 -46zM436 604c0 -26 -22 -47 -47 -47s-47 21 -47 47c0 25 22 46 47 46s47 -21 47 -46z" />
    <glyph glyph-name="igrave" unicode="&#xec;" horiz-adv-x="225" 
d="M147 571c0 -10 -8 -21 -20 -21c-5 0 -9 2 -13 5l-126 108c-5 4 -8 10 -8 17c0 13 12 25 26 25c6 0 13 -2 18 -7l118 -114c3 -4 5 -8 5 -13zM150 31c0 -20 -17 -37 -38 -37c-20 0 -37 17 -37 37v422c0 19 17 36 39 36c19 0 36 -17 36 -36v-422z" />
    <glyph glyph-name="iacute" unicode="&#xed;" horiz-adv-x="225" 
d="M246 680c0 -6 -3 -13 -8 -17l-126 -108c-4 -3 -8 -5 -12 -5c-10 0 -21 9 -21 21c0 5 1 9 5 13l118 114c5 5 11 7 18 7c12 0 26 -11 26 -25zM150 31c0 -20 -17 -37 -38 -37c-20 0 -37 17 -37 37v422c0 19 17 36 39 36c19 0 36 -17 36 -36v-422z" />
    <glyph glyph-name="icircumflex" unicode="&#xee;" horiz-adv-x="225" 
d="M150 31c0 -20 -17 -37 -38 -37c-20 0 -37 17 -37 37v422c0 19 17 36 39 36c19 0 36 -17 36 -36v-422zM232 570c0 -9 -8 -21 -22 -21c-6 0 -12 3 -16 8l-82 105l-79 -104c-4 -5 -10 -8 -17 -8c-11 0 -22 8 -22 20c0 3 2 7 4 11l65 99c10 16 29 26 50 26
c19 0 37 -10 48 -26l68 -99c2 -3 3 -7 3 -11z" />
    <glyph glyph-name="idieresis" unicode="&#xef;" horiz-adv-x="225" 
d="M57 604c0 -26 -21 -47 -46 -47c-26 0 -47 21 -47 47c0 25 21 46 47 46c25 0 46 -21 46 -46zM264 604c0 -26 -22 -47 -47 -47s-47 21 -47 47c0 25 22 46 47 46s47 -21 47 -46zM150 31c0 -20 -17 -37 -38 -37c-20 0 -37 17 -37 37v422c0 19 17 36 39 36c19 0 36 -17 36 -36
v-422z" />
    <glyph glyph-name="eth" unicode="&#xf0;" horiz-adv-x="572" 
d="M525 247c0 -149 -92 -259 -239 -259c-144 0 -239 106 -239 246s91 245 220 245c62 0 114 -26 158 -89c-37 66 -94 121 -160 170l-123 -54c-3 -1 -6 -2 -9 -2c-10 0 -22 9 -22 24c0 8 5 16 13 20l98 43c-22 13 -61 32 -61 59c0 21 18 38 38 38c24 0 74 -42 101 -63l89 39
c2 1 5 2 8 2c10 0 21 -8 21 -22c0 -9 -4 -17 -12 -21l-67 -29c108 -92 186 -206 186 -347zM446 234c0 94 -57 178 -160 178s-161 -84 -161 -178c0 -95 58 -179 161 -179s160 84 160 179z" />
    <glyph glyph-name="ntilde" unicode="&#xf1;" 
d="M476 31c0 -20 -17 -37 -38 -37c-20 0 -37 17 -37 37v285c0 85 -43 112 -108 112c-59 0 -115 -36 -143 -75v-322c0 -20 -17 -37 -38 -37c-20 0 -37 17 -37 37v422c0 19 17 36 39 36c19 0 36 -17 36 -36v-40c34 40 100 82 172 82c101 0 154 -51 154 -156v-308zM432 667
c-6 -67 -39 -113 -96 -113c-73 0 -75 92 -123 92c-24 0 -42 -20 -47 -64c-1 -13 -12 -22 -25 -22c-12 0 -20 9 -20 19c0 68 43 115 96 115c72 0 75 -92 123 -92c24 0 42 20 47 64c1 13 12 22 25 22s20 -10 20 -21z" />
    <glyph glyph-name="ograve" unicode="&#xf2;" horiz-adv-x="572" 
d="M525 242c0 -140 -92 -254 -239 -254s-239 114 -239 254s92 253 239 253s239 -113 239 -253zM446 242c0 98 -57 186 -160 186s-161 -88 -161 -186c0 -99 58 -187 161 -187s160 88 160 187zM320 571c0 -10 -8 -21 -20 -21c-5 0 -9 2 -13 5l-126 108c-5 4 -8 10 -8 17
c0 13 12 25 26 25c6 0 13 -2 18 -7l118 -114c3 -4 5 -8 5 -13z" />
    <glyph glyph-name="oacute" unicode="&#xf3;" horiz-adv-x="572" 
d="M525 242c0 -140 -92 -254 -239 -254s-239 114 -239 254s92 253 239 253s239 -113 239 -253zM446 242c0 98 -57 186 -160 186s-161 -88 -161 -186c0 -99 58 -187 161 -187s160 88 160 187zM419 680c0 -6 -3 -13 -8 -17l-126 -108c-4 -3 -8 -5 -12 -5c-10 0 -21 9 -21 21
c0 5 1 9 5 13l118 114c5 5 11 7 18 7c12 0 26 -11 26 -25z" />
    <glyph glyph-name="ocircumflex" unicode="&#xf4;" horiz-adv-x="572" 
d="M525 242c0 -140 -92 -254 -239 -254s-239 114 -239 254s92 253 239 253s239 -113 239 -253zM446 242c0 98 -57 186 -160 186s-161 -88 -161 -186c0 -99 58 -187 161 -187s160 88 160 187zM405 570c0 -9 -8 -21 -22 -21c-6 0 -12 3 -16 8l-82 105l-79 -104
c-4 -5 -10 -8 -17 -8c-11 0 -22 8 -22 20c0 3 2 7 4 11l65 99c10 16 29 26 50 26c19 0 37 -10 48 -26l68 -99c2 -3 3 -7 3 -11z" />
    <glyph glyph-name="otilde" unicode="&#xf5;" horiz-adv-x="572" 
d="M525 242c0 -140 -92 -254 -239 -254s-239 114 -239 254s92 253 239 253s239 -113 239 -253zM446 242c0 98 -57 186 -160 186s-161 -88 -161 -186c0 -99 58 -187 161 -187s160 88 160 187zM442 667c-6 -67 -39 -113 -96 -113c-73 0 -75 92 -123 92c-24 0 -42 -20 -47 -64
c-1 -13 -12 -22 -25 -22c-12 0 -20 9 -20 19c0 68 43 115 96 115c72 0 75 -92 123 -92c24 0 42 20 47 64c1 13 12 22 25 22s20 -10 20 -21z" />
    <glyph glyph-name="odieresis" unicode="&#xf6;" horiz-adv-x="572" 
d="M525 242c0 -140 -92 -254 -239 -254s-239 114 -239 254s92 253 239 253s239 -113 239 -253zM446 242c0 98 -57 186 -160 186s-161 -88 -161 -186c0 -99 58 -187 161 -187s160 88 160 187zM229 604c0 -26 -21 -47 -46 -47c-26 0 -47 21 -47 47c0 25 21 46 47 46
c25 0 46 -21 46 -46zM436 604c0 -26 -22 -47 -47 -47s-47 21 -47 47c0 25 22 46 47 46s47 -21 47 -46z" />
    <glyph glyph-name="divide" unicode="&#xf7;" horiz-adv-x="511" 
d="M255 572c26 0 47 -20 47 -46c0 -25 -21 -46 -47 -46c-25 0 -45 21 -45 46c0 26 20 46 45 46zM482 338c0 -16 -11 -27 -25 -27h-403c-14 0 -25 11 -25 27c0 14 11 25 25 25h403c14 0 25 -11 25 -25zM302 144c0 -25 -21 -46 -47 -46c-25 0 -45 21 -45 46s20 46 45 46
c26 0 47 -21 47 -46z" />
    <glyph glyph-name="oslash" unicode="&#xf8;" horiz-adv-x="572" 
d="M144 33l-31 -38c-3 -4 -8 -7 -14 -7c-11 0 -22 9 -22 21c0 4 1 9 4 12l31 40c-42 46 -65 110 -65 181c0 140 92 253 239 253c53 0 100 -15 137 -41l27 34c3 5 9 7 14 7c11 0 22 -9 22 -21c0 -5 -1 -9 -4 -13l-27 -35c45 -46 70 -111 70 -184c0 -140 -92 -254 -239 -254
c-56 0 -104 16 -142 45zM188 89c26 -21 58 -34 98 -34c103 0 160 88 160 187c0 47 -13 91 -38 125zM286 428c-103 0 -161 -88 -161 -186c0 -45 12 -88 34 -121l219 277c-24 19 -55 30 -92 30z" />
    <glyph glyph-name="ugrave" unicode="&#xf9;" 
d="M476 31c0 -20 -17 -37 -38 -37c-20 0 -37 17 -37 37v37c-37 -42 -100 -80 -172 -80c-101 0 -154 49 -154 154v311c0 19 17 36 39 36c19 0 36 -17 36 -36v-288c0 -85 43 -110 108 -110c59 0 115 34 143 73v325c0 19 17 36 39 36c19 0 36 -17 36 -36v-422zM309 571
c0 -10 -8 -21 -20 -21c-5 0 -9 2 -13 5l-126 108c-5 4 -8 10 -8 17c0 13 12 25 26 25c6 0 13 -2 18 -7l118 -114c3 -4 5 -8 5 -13z" />
    <glyph glyph-name="uacute" unicode="&#xfa;" 
d="M476 31c0 -20 -17 -37 -38 -37c-20 0 -37 17 -37 37v37c-37 -42 -100 -80 -172 -80c-101 0 -154 49 -154 154v311c0 19 17 36 39 36c19 0 36 -17 36 -36v-288c0 -85 43 -110 108 -110c59 0 115 34 143 73v325c0 19 17 36 39 36c19 0 36 -17 36 -36v-422zM408 680
c0 -6 -3 -13 -8 -17l-126 -108c-4 -3 -8 -5 -12 -5c-10 0 -21 9 -21 21c0 5 1 9 5 13l118 114c5 5 11 7 18 7c12 0 26 -11 26 -25z" />
    <glyph glyph-name="ucircumflex" unicode="&#xfb;" 
d="M476 31c0 -20 -17 -37 -38 -37c-20 0 -37 17 -37 37v37c-37 -42 -100 -80 -172 -80c-101 0 -154 49 -154 154v311c0 19 17 36 39 36c19 0 36 -17 36 -36v-288c0 -85 43 -110 108 -110c59 0 115 34 143 73v325c0 19 17 36 39 36c19 0 36 -17 36 -36v-422zM394 570
c0 -9 -8 -21 -22 -21c-6 0 -12 3 -16 8l-82 105l-79 -104c-4 -5 -10 -8 -17 -8c-11 0 -22 8 -22 20c0 3 2 7 4 11l65 99c10 16 29 26 50 26c19 0 37 -10 48 -26l68 -99c2 -3 3 -7 3 -11z" />
    <glyph glyph-name="udieresis" unicode="&#xfc;" 
d="M476 31c0 -20 -17 -37 -38 -37c-20 0 -37 17 -37 37v37c-37 -42 -100 -80 -172 -80c-101 0 -154 49 -154 154v311c0 19 17 36 39 36c19 0 36 -17 36 -36v-288c0 -85 43 -110 108 -110c59 0 115 34 143 73v325c0 19 17 36 39 36c19 0 36 -17 36 -36v-422zM220 604
c0 -26 -21 -47 -46 -47c-26 0 -47 21 -47 47c0 25 21 46 47 46c25 0 46 -21 46 -46zM427 604c0 -26 -22 -47 -47 -47s-47 21 -47 47c0 25 22 46 47 46s47 -21 47 -46z" />
    <glyph glyph-name="yacute" unicode="&#xfd;" horiz-adv-x="490" 
d="M472 452c0 -4 -1 -9 -3 -13l-224 -537c-29 -69 -80 -98 -142 -98c-26 0 -59 2 -59 34c0 20 16 34 33 34c9 0 17 -1 25 -1c30 -1 53 11 71 51l32 73l-184 444c-2 4 -3 9 -3 13c0 19 16 37 38 37c15 0 29 -8 35 -23l154 -379l153 379c6 14 20 23 35 23c22 0 39 -17 39 -37z
M378 680c0 -6 -3 -13 -8 -17l-126 -108c-4 -3 -8 -5 -12 -5c-10 0 -21 9 -21 21c0 5 1 9 5 13l118 114c5 5 11 7 18 7c12 0 26 -11 26 -25z" />
    <glyph glyph-name="thorn" unicode="&#xfe;" horiz-adv-x="572" 
d="M528 242c0 -156 -88 -254 -215 -254c-66 0 -124 31 -163 85v-221c0 -19 -17 -36 -38 -36c-20 0 -37 17 -37 36v779c0 19 17 36 39 36c19 0 36 -17 36 -36v-220c35 49 95 84 163 84c127 0 215 -96 215 -253zM449 242c0 107 -58 186 -155 186c-59 0 -118 -35 -144 -77v-218
c26 -42 85 -78 144 -78c97 0 155 80 155 187z" />
    <glyph glyph-name="ydieresis" unicode="&#xff;" horiz-adv-x="490" 
d="M472 452c0 -4 -1 -9 -3 -13l-224 -537c-29 -69 -80 -98 -142 -98c-26 0 -59 2 -59 34c0 20 16 34 33 34c9 0 17 -1 25 -1c30 -1 53 11 71 51l32 73l-184 444c-2 4 -3 9 -3 13c0 19 16 37 38 37c15 0 29 -8 35 -23l154 -379l153 379c6 14 20 23 35 23c22 0 39 -17 39 -37z
M188 604c0 -26 -21 -47 -46 -47c-26 0 -47 21 -47 47c0 25 21 46 47 46c25 0 46 -21 46 -46zM395 604c0 -26 -22 -47 -47 -47s-47 21 -47 47c0 25 22 46 47 46s47 -21 47 -46z" />
    <glyph glyph-name="Amacron" unicode="&#x100;" horiz-adv-x="658" 
d="M630 38c0 -20 -18 -44 -45 -44c-17 0 -33 10 -40 27l-50 127h-332l-50 -127c-7 -17 -23 -27 -40 -27c-26 0 -45 21 -45 44c0 5 1 11 3 16l230 574c11 27 37 45 68 45c29 0 55 -18 66 -45l232 -574c2 -5 3 -11 3 -16zM470 222l-141 359l-142 -359h283zM510 764
c0 -15 -10 -25 -23 -25h-317c-13 0 -23 10 -23 25c0 13 10 23 23 23h317c13 0 23 -10 23 -23z" />
    <glyph glyph-name="amacron" unicode="&#x101;" horiz-adv-x="527" 
d="M452 31c0 -20 -17 -37 -38 -37v0c-21 0 -37 18 -37 39v22c-40 -44 -95 -67 -160 -67c-82 0 -169 55 -169 160c0 108 87 159 169 159c66 0 121 -21 160 -66v87c0 65 -52 102 -122 102c-48 0 -89 -15 -126 -46c-6 -5 -14 -8 -21 -8c-16 0 -33 12 -33 30c0 8 3 16 10 22
c51 46 111 67 180 67c102 0 187 -46 187 -163v-301zM377 102v91c-29 40 -80 60 -133 60c-70 0 -119 -44 -119 -106c0 -61 49 -105 119 -105c53 0 104 20 133 60zM445 597c0 -15 -10 -25 -23 -25h-317c-13 0 -23 10 -23 25c0 13 10 23 23 23h317c13 0 23 -10 23 -23z" />
    <glyph glyph-name="Abreve" unicode="&#x102;" horiz-adv-x="658" 
d="M630 38c0 -20 -18 -44 -45 -44c-17 0 -33 10 -40 27l-50 127h-332l-50 -127c-7 -17 -23 -27 -40 -27c-26 0 -45 21 -45 44c0 5 1 11 3 16l230 574c11 27 37 45 68 45c29 0 55 -18 66 -45l232 -574c2 -5 3 -11 3 -16zM470 222l-141 359l-142 -359h283zM495 790
c0 -6 -2 -11 -6 -15c-40 -43 -96 -70 -160 -70c-63 0 -120 27 -161 70c-4 4 -6 9 -6 15c0 11 10 24 25 24c6 0 13 -2 18 -7c31 -34 74 -54 124 -54s93 20 123 54c5 5 11 7 18 7c16 0 25 -14 25 -24z" />
    <glyph glyph-name="abreve" unicode="&#x103;" horiz-adv-x="527" 
d="M452 31c0 -20 -17 -37 -38 -37v0c-21 0 -37 18 -37 39v22c-40 -44 -95 -67 -160 -67c-82 0 -169 55 -169 160c0 108 87 159 169 159c66 0 121 -21 160 -66v87c0 65 -52 102 -122 102c-48 0 -89 -15 -126 -46c-6 -5 -14 -8 -21 -8c-16 0 -33 12 -33 30c0 8 3 16 10 22
c51 46 111 67 180 67c102 0 187 -46 187 -163v-301zM377 102v91c-29 40 -80 60 -133 60c-70 0 -119 -44 -119 -106c0 -61 49 -105 119 -105c53 0 104 20 133 60zM430 623c0 -6 -2 -11 -6 -15c-40 -43 -96 -70 -160 -70c-63 0 -120 27 -161 70c-4 4 -6 9 -6 15
c0 11 10 24 25 24c6 0 13 -2 18 -7c31 -34 74 -54 124 -54s93 20 123 54c5 5 11 7 18 7c16 0 25 -14 25 -24z" />
    <glyph glyph-name="Aogonek" unicode="&#x104;" horiz-adv-x="658" 
d="M699 -134c0 -28 -45 -52 -82 -52c-47 0 -89 26 -89 87c0 38 20 73 52 99c-2 0 -5 0 -7 1c-13 2 -24 11 -29 23l-49 124h-332l-50 -127c-7 -17 -23 -27 -40 -27c-26 0 -45 21 -45 44c0 5 1 11 3 16l230 574c11 27 37 45 68 45c29 0 55 -18 66 -45l227 -560
c7 -18 11 -31 11 -43c0 -20 -11 -36 -33 -59c-18 -18 -27 -39 -27 -63c0 -34 18 -50 44 -50c21 0 34 8 44 24c3 6 10 9 17 9c11 0 21 -8 21 -20zM470 222l-141 359l-142 -359h283z" />
    <glyph glyph-name="aogonek" unicode="&#x105;" horiz-adv-x="527" 
d="M502 -134c0 -28 -45 -52 -82 -52c-47 0 -89 26 -89 87c0 40 23 77 58 103c-14 12 -13 25 -12 51c-40 -44 -95 -67 -160 -67c-82 0 -169 55 -169 160c0 108 87 159 169 159c66 0 121 -21 160 -66v87c0 65 -52 102 -122 102c-48 0 -89 -15 -126 -46c-6 -5 -14 -8 -21 -8
c-16 0 -33 12 -33 30c0 8 3 16 10 22c51 46 111 67 180 67c102 0 187 -46 187 -163v-301c0 -11 -5 -20 -12 -27c-38 -30 -64 -64 -64 -101c0 -34 18 -50 44 -50c21 0 34 8 44 24c3 6 10 9 17 9c11 0 21 -8 21 -20zM377 102v91c-29 40 -80 60 -133 60
c-70 0 -119 -44 -119 -106c0 -61 49 -105 119 -105c53 0 104 20 133 60z" />
    <glyph glyph-name="Cacute" unicode="&#x106;" horiz-adv-x="676" 
d="M394 678c100 0 172 -40 223 -95c7 -8 11 -18 11 -29c0 -21 -17 -40 -39 -40c-10 0 -21 4 -28 13c-39 47 -105 77 -167 77c-146 0 -257 -112 -257 -271c0 -158 111 -271 257 -271c63 0 125 27 167 76c7 8 18 13 28 13c23 0 39 -20 39 -41c0 -10 -4 -20 -11 -28
c-52 -54 -123 -94 -223 -94c-192 0 -343 140 -343 345s151 345 343 345zM527 847c0 -6 -3 -13 -8 -17l-126 -108c-4 -3 -8 -5 -12 -5c-10 0 -21 9 -21 21c0 5 1 9 5 13l118 114c5 5 11 7 18 7c12 0 26 -11 26 -25z" />
    <glyph glyph-name="cacute" unicode="&#x107;" horiz-adv-x="495" 
d="M455 72c0 -7 -2 -15 -8 -21c-37 -38 -86 -63 -159 -63c-144 0 -241 110 -241 254c0 143 97 253 241 253c73 0 122 -25 159 -63c5 -6 8 -13 8 -21c0 -17 -15 -34 -34 -34c-10 0 -19 4 -26 11c-29 28 -63 40 -103 40c-103 0 -167 -79 -167 -186s64 -187 167 -187
c40 0 74 13 103 41c7 6 16 9 25 9c18 0 35 -14 35 -33zM420 680c0 -6 -3 -13 -8 -17l-126 -108c-4 -3 -8 -5 -12 -5c-10 0 -21 9 -21 21c0 5 1 9 5 13l118 114c5 5 11 7 18 7c12 0 26 -11 26 -25z" />
    <glyph glyph-name="Ccaron" unicode="&#x10c;" horiz-adv-x="676" 
d="M394 678c100 0 172 -40 223 -95c7 -8 11 -18 11 -29c0 -21 -17 -40 -39 -40c-10 0 -21 4 -28 13c-39 47 -105 77 -167 77c-146 0 -257 -112 -257 -271c0 -158 111 -271 257 -271c63 0 125 27 167 76c7 8 18 13 28 13c23 0 39 -20 39 -41c0 -10 -4 -20 -11 -28
c-52 -54 -123 -94 -223 -94c-192 0 -343 140 -343 345s151 345 343 345zM515 853c0 -4 -1 -8 -3 -11l-68 -99c-11 -16 -29 -26 -50 -26c-19 0 -38 10 -48 26l-65 99c-2 3 -3 7 -3 11c0 8 8 20 21 20c6 0 13 -3 17 -8l79 -104l82 105c4 5 10 7 16 7c11 0 22 -8 22 -20z" />
    <glyph glyph-name="ccaron" unicode="&#x10d;" horiz-adv-x="495" 
d="M455 72c0 -7 -2 -15 -8 -21c-37 -38 -86 -63 -159 -63c-144 0 -241 110 -241 254c0 143 97 253 241 253c73 0 122 -25 159 -63c5 -6 8 -13 8 -21c0 -17 -15 -34 -34 -34c-10 0 -19 4 -26 11c-29 28 -63 40 -103 40c-103 0 -167 -79 -167 -186s64 -187 167 -187
c40 0 74 13 103 41c7 6 16 9 25 9c18 0 35 -14 35 -33zM410 686c0 -4 -1 -8 -3 -11l-68 -99c-11 -16 -29 -26 -50 -26c-19 0 -38 10 -48 26l-65 99c-2 3 -3 7 -3 11c0 8 8 20 21 20c6 0 13 -3 17 -8l79 -104l82 105c4 5 10 7 16 7c11 0 22 -8 22 -20z" />
    <glyph glyph-name="Dcaron" unicode="&#x10e;" horiz-adv-x="700" 
d="M648 333c0 -190 -135 -333 -342 -333h-168c-33 0 -60 27 -60 60v547c0 33 27 60 60 60h168c207 0 342 -145 342 -334zM562 333c0 144 -91 260 -256 260h-145v-519h145c162 0 256 116 256 259zM473 853c0 -4 -1 -8 -3 -11l-68 -99c-11 -16 -29 -26 -50 -26
c-19 0 -38 10 -48 26l-65 99c-2 3 -3 7 -3 11c0 8 8 20 21 20c6 0 13 -3 17 -8l79 -104l82 105c4 5 10 7 16 7c11 0 22 -8 22 -20z" />
    <glyph glyph-name="dcaron" unicode="&#x10f;" horiz-adv-x="644" 
d="M500 31c0 -20 -17 -37 -38 -37c-20 0 -37 17 -37 37v41c-36 -49 -95 -84 -163 -84c-126 0 -215 96 -215 253c0 154 88 254 215 254c65 0 124 -32 163 -85v227c0 19 17 36 39 36c19 0 36 -17 36 -36v-606zM425 131v219c-27 42 -85 78 -145 78c-97 0 -155 -80 -155 -187
s58 -186 155 -186c60 0 118 34 145 76zM648 613c0 -47 -24 -91 -56 -121c-4 -4 -10 -6 -15 -6c-6 0 -11 1 -15 5l-1 1c-4 3 -7 8 -7 13s2 9 6 12c22 21 40 50 42 74c-1 -1 -8 -2 -11 -2c-24 0 -42 19 -42 44c0 26 20 47 46 47c28 0 53 -24 53 -67z" />
    <glyph glyph-name="Dcroat" unicode="&#x110;" horiz-adv-x="728" 
d="M676 333c0 -190 -135 -333 -342 -333h-168c-33 0 -60 27 -60 60v239h-72c-17 0 -30 13 -30 32c0 16 13 29 30 29h72v247c0 33 27 60 60 60h168c207 0 342 -145 342 -334zM590 333c0 144 -91 260 -256 260h-145v-233h146c16 0 29 -13 29 -31c0 -17 -13 -30 -29 -30h-146
v-225h145c162 0 256 116 256 259z" />
    <glyph glyph-name="dcroat" unicode="&#x111;" horiz-adv-x="577" 
d="M574 558c0 -13 -10 -23 -23 -23h-51v-504c0 -20 -17 -37 -38 -37c-20 0 -37 17 -37 37v41c-36 -49 -95 -84 -163 -84c-126 0 -215 96 -215 253c0 154 88 254 215 254c65 0 124 -32 163 -85v125h-140c-13 0 -23 10 -23 25c0 13 10 23 23 23h140v54c0 19 17 36 39 36
c19 0 36 -17 36 -36v-54h51c13 0 23 -10 23 -25zM425 131v219c-27 42 -85 78 -145 78c-97 0 -155 -80 -155 -187s58 -186 155 -186c60 0 118 34 145 76z" />
    <glyph glyph-name="Emacron" unicode="&#x112;" horiz-adv-x="569" 
d="M521 38c0 -22 -16 -38 -36 -38h-347c-33 0 -60 27 -60 60v547c0 33 27 60 60 60h347c20 0 36 -16 36 -38c0 -20 -16 -36 -36 -36h-324v-215h317c20 0 36 -16 36 -38c0 -20 -16 -36 -36 -36h-317v-230h324c20 0 36 -16 36 -36zM477 764c0 -15 -10 -25 -23 -25h-317
c-13 0 -23 10 -23 25c0 13 10 23 23 23h317c13 0 23 -10 23 -23z" />
    <glyph glyph-name="emacron" unicode="&#x113;" horiz-adv-x="563" 
d="M516 258c0 -22 -18 -41 -41 -41h-349c6 -91 70 -167 174 -167c46 0 92 15 130 45c5 3 11 5 17 5c13 0 30 -12 30 -31c0 -52 -125 -81 -184 -81c-143 0 -246 103 -246 254c0 140 100 253 238 253c120 0 199 -76 224 -187c3 -15 7 -33 7 -50zM443 272
c-1 72 -49 161 -159 161c-103 0 -154 -87 -158 -161h317zM466 597c0 -15 -10 -25 -23 -25h-317c-13 0 -23 10 -23 25c0 13 10 23 23 23h317c13 0 23 -10 23 -23z" />
    <glyph glyph-name="Edotaccent" unicode="&#x116;" horiz-adv-x="569" 
d="M521 38c0 -22 -16 -38 -36 -38h-347c-33 0 -60 27 -60 60v547c0 33 27 60 60 60h347c20 0 36 -16 36 -38c0 -20 -16 -36 -36 -36h-324v-215h317c20 0 36 -16 36 -38c0 -20 -16 -36 -36 -36h-317v-230h324c20 0 36 -16 36 -36zM346 769c0 -26 -20 -47 -46 -47
c-25 0 -47 21 -47 47s22 47 47 47c26 0 46 -21 46 -47z" />
    <glyph glyph-name="edotaccent" unicode="&#x117;" horiz-adv-x="563" 
d="M516 258c0 -22 -18 -41 -41 -41h-349c6 -91 70 -167 174 -167c46 0 92 15 130 45c5 3 11 5 17 5c13 0 30 -12 30 -31c0 -52 -125 -81 -184 -81c-143 0 -246 103 -246 254c0 140 100 253 238 253c120 0 199 -76 224 -187c3 -15 7 -33 7 -50zM443 272
c-1 72 -49 161 -159 161c-103 0 -154 -87 -158 -161h317zM332 602c0 -26 -20 -47 -46 -47c-25 0 -47 21 -47 47s22 47 47 47c26 0 46 -21 46 -47z" />
    <glyph glyph-name="Eogonek" unicode="&#x118;" horiz-adv-x="569" 
d="M549 -134c0 -28 -45 -52 -82 -52c-47 0 -89 26 -89 87c0 38 20 73 53 99h-293c-33 0 -60 27 -60 60v547c0 33 27 60 60 60h347c20 0 36 -16 36 -38c0 -20 -16 -36 -36 -36h-324v-215h317c20 0 36 -16 36 -38c0 -20 -16 -36 -36 -36h-317v-230h324c20 0 36 -16 36 -36
c0 -24 -27 -42 -48 -55c-33 -21 -50 -47 -50 -80c0 -34 18 -50 44 -50c21 0 34 8 44 24c3 6 10 9 17 9c11 0 21 -8 21 -20z" />
    <glyph glyph-name="eogonek" unicode="&#x119;" horiz-adv-x="563" 
d="M516 262c0 -24 -17 -45 -42 -45h-348c6 -91 70 -167 174 -167c46 0 92 15 130 45c5 3 11 5 17 5c13 0 30 -12 30 -31c0 -33 -64 -59 -98 -69c-48 -24 -75 -55 -75 -97c0 -34 18 -50 44 -50c21 0 34 8 44 24c3 6 10 9 17 9c11 0 21 -8 21 -20c0 -28 -45 -52 -82 -52
c-47 0 -89 26 -89 87c0 33 15 63 34 87c-143 0 -246 103 -246 254c0 140 100 253 238 253c141 0 215 -100 231 -233zM443 272c-1 72 -49 161 -159 161c-103 0 -154 -87 -158 -161h317z" />
    <glyph glyph-name="Ecaron" unicode="&#x11a;" horiz-adv-x="569" 
d="M521 38c0 -22 -16 -38 -36 -38h-347c-33 0 -60 27 -60 60v547c0 33 27 60 60 60h347c20 0 36 -16 36 -38c0 -20 -16 -36 -36 -36h-324v-215h317c20 0 36 -16 36 -38c0 -20 -16 -36 -36 -36h-317v-230h324c20 0 36 -16 36 -36zM419 853c0 -4 -1 -8 -3 -11l-68 -99
c-11 -16 -29 -26 -50 -26c-19 0 -38 10 -48 26l-65 99c-2 3 -3 7 -3 11c0 8 8 20 21 20c6 0 13 -3 17 -8l79 -104l82 105c4 5 10 7 16 7c11 0 22 -8 22 -20z" />
    <glyph glyph-name="ecaron" unicode="&#x11b;" horiz-adv-x="563" 
d="M516 258c0 -22 -18 -41 -41 -41h-349c6 -91 70 -167 174 -167c46 0 92 15 130 45c5 3 11 5 17 5c13 0 30 -12 30 -31c0 -52 -125 -81 -184 -81c-143 0 -246 103 -246 254c0 140 100 253 238 253c120 0 199 -76 224 -187c3 -15 7 -33 7 -50zM443 272
c-1 72 -49 161 -159 161c-103 0 -154 -87 -158 -161h317zM407 686c0 -4 -1 -8 -3 -11l-68 -99c-11 -16 -29 -26 -50 -26c-19 0 -38 10 -48 26l-65 99c-2 3 -3 7 -3 11c0 8 8 20 21 20c6 0 13 -3 17 -8l79 -104l82 105c4 5 10 7 16 7c11 0 22 -8 22 -20z" />
    <glyph glyph-name="uni0122" unicode="&#x122;" horiz-adv-x="713" 
d="M656 151c0 -103 -144 -164 -262 -164c-190 0 -343 139 -343 346s153 345 343 345c100 0 176 -38 229 -91c8 -7 11 -18 11 -28c0 -22 -16 -39 -38 -39c-10 0 -19 4 -27 12c-42 45 -109 72 -175 72c-146 0 -257 -112 -257 -271c0 -158 111 -272 257 -272
c80 0 146 39 179 72v136h-199c-20 0 -36 16 -36 38c0 20 16 36 36 36h222c33 0 60 -27 60 -60v-132zM448 -138c0 -47 -24 -91 -56 -121c-4 -4 -10 -6 -15 -6c-6 0 -11 1 -15 5l-1 1c-4 3 -7 8 -7 13s2 9 6 12c22 21 40 50 42 74c-1 -1 -8 -2 -11 -2c-24 0 -42 19 -42 44
c0 26 20 47 46 47c28 0 53 -24 53 -67z" />
    <glyph glyph-name="uni0123" unicode="&#x123;" horiz-adv-x="574" 
d="M286 551c-23 0 -48 19 -48 60c0 54 36 134 68 134c11 0 23 -8 23 -21c0 -17 -44 -53 -44 -82c25 0 49 -20 49 -45c0 -24 -21 -46 -48 -46zM499 14c0 -160 -112 -210 -230 -210c-55 0 -192 20 -192 83c0 17 15 32 33 32c8 0 15 -2 21 -7c38 -34 81 -46 138 -46
c80 0 155 39 155 145v69c-35 -49 -94 -86 -162 -86c-126 0 -215 94 -215 250c0 155 88 251 215 251c65 0 123 -32 162 -85v43c0 19 17 36 39 36c19 0 36 -17 36 -36v-439zM424 139v211c-26 42 -84 78 -144 78c-97 0 -155 -77 -155 -184c0 -106 58 -184 155 -184
c60 0 118 37 144 79z" />
    <glyph glyph-name="Imacron" unicode="&#x12a;" horiz-adv-x="239" 
d="M161 35c0 -23 -18 -41 -42 -41c-23 0 -41 18 -41 41v598c0 22 18 40 43 40c22 0 40 -18 40 -40v-598zM303 764c0 -15 -10 -25 -23 -25h-317c-13 0 -23 10 -23 25c0 13 10 23 23 23h317c13 0 23 -10 23 -23z" />
    <glyph glyph-name="imacron" unicode="&#x12b;" horiz-adv-x="225" 
d="M295 597c0 -15 -10 -25 -23 -25h-317c-13 0 -23 10 -23 25c0 13 10 23 23 23h317c13 0 23 -10 23 -23zM150 31c0 -20 -17 -37 -38 -37c-20 0 -37 17 -37 37v422c0 19 17 36 39 36c19 0 36 -17 36 -36v-422z" />
    <glyph glyph-name="Iogonek" unicode="&#x12e;" horiz-adv-x="239" 
d="M211 -134c0 -28 -45 -52 -82 -52c-47 0 -89 26 -89 87c0 39 22 74 55 100c-11 8 -17 20 -17 34v598c0 22 18 40 43 40c22 0 40 -18 40 -40v-598c0 -13 -6 -27 -16 -36c-39 -36 -60 -59 -60 -96c0 -34 18 -50 44 -50c21 0 34 8 44 24c3 6 10 9 17 9c11 0 21 -8 21 -20z
" />
    <glyph glyph-name="iogonek" unicode="&#x12f;" horiz-adv-x="225" 
d="M112 653c28 0 51 -23 51 -51s-23 -50 -51 -50c-27 0 -50 22 -50 50s23 51 50 51zM200 -134c0 -28 -45 -52 -82 -52c-47 0 -89 26 -89 87c0 40 23 77 58 103c-8 7 -12 16 -12 27v422c0 19 17 36 39 36c19 0 36 -17 36 -36v-422c0 -39 -76 -81 -76 -128
c0 -34 18 -50 44 -50c33 0 40 33 61 33c11 0 21 -8 21 -20z" />
    <glyph glyph-name="dotlessi" unicode="&#x131;" horiz-adv-x="225" 
d="M150 31c0 -20 -17 -37 -38 -37c-20 0 -37 17 -37 37v422c0 19 17 36 39 36c19 0 36 -17 36 -36v-422z" />
    <glyph glyph-name="uni0136" unicode="&#x136;" horiz-adv-x="606" 
d="M544 33c0 -19 -16 -40 -40 -40c-11 0 -22 5 -30 14l-246 293l-67 -76v-189c0 -23 -18 -41 -42 -41c-23 0 -41 18 -41 41v598c0 22 18 40 43 40c22 0 40 -18 40 -40v-311l288 337c8 9 18 13 29 13c22 0 41 -17 41 -39c0 -8 -3 -17 -9 -23l-228 -260l253 -293
c6 -7 9 -15 9 -24zM360 -138c0 -47 -24 -91 -56 -121c-4 -4 -10 -6 -15 -6c-6 0 -11 1 -15 5l-1 1c-4 3 -7 8 -7 13s2 9 6 12c22 21 40 50 42 74c-1 -1 -8 -2 -11 -2c-24 0 -42 19 -42 44c0 26 20 47 46 47c28 0 53 -24 53 -67z" />
    <glyph glyph-name="uni0137" unicode="&#x137;" horiz-adv-x="514" 
d="M464 31c0 -17 -14 -38 -37 -38c-11 0 -22 5 -29 14l-168 210l-80 -79v-107c0 -20 -17 -37 -38 -37c-20 0 -37 17 -37 37v606c0 19 17 36 39 36c19 0 36 -17 36 -36v-411l250 254c6 6 15 10 23 10c18 0 35 -17 35 -36c0 -8 -3 -16 -9 -22l-164 -168l171 -211
c5 -6 8 -14 8 -22zM314 -138c0 -47 -24 -91 -56 -121c-4 -4 -10 -6 -15 -6c-6 0 -11 1 -15 5l-1 1c-4 3 -7 8 -7 13s2 9 6 12c22 21 40 50 42 74c-1 -1 -8 -2 -11 -2c-24 0 -42 19 -42 44c0 26 20 47 46 47c28 0 53 -24 53 -67z" />
    <glyph glyph-name="Lacute" unicode="&#x139;" horiz-adv-x="510" 
d="M477 38c0 -22 -16 -38 -36 -38h-303c-33 0 -60 27 -60 60v573c0 22 18 40 43 40c22 0 40 -18 40 -40v-559h280c20 0 36 -16 36 -36zM407 847c0 -6 -3 -13 -8 -17l-126 -108c-4 -3 -8 -5 -12 -5c-10 0 -21 9 -21 21c0 5 1 9 5 13l118 114c5 5 11 7 18 7
c12 0 26 -11 26 -25z" />
    <glyph glyph-name="lacute" unicode="&#x13a;" horiz-adv-x="225" 
d="M150 31c0 -20 -17 -37 -38 -37c-20 0 -37 17 -37 37v606c0 19 17 36 39 36c19 0 36 -17 36 -36v-606zM246 847c0 -6 -3 -13 -8 -17l-126 -108c-4 -3 -8 -5 -12 -5c-10 0 -21 9 -21 21c0 5 1 9 5 13l118 114c5 5 11 7 18 7c12 0 26 -11 26 -25z" />
    <glyph glyph-name="uni013B" unicode="&#x13b;" horiz-adv-x="510" 
d="M477 38c0 -22 -16 -38 -36 -38h-303c-33 0 -60 27 -60 60v573c0 22 18 40 43 40c22 0 40 -18 40 -40v-559h280c20 0 36 -16 36 -36zM319 -138c0 -47 -24 -91 -56 -121c-4 -4 -10 -6 -15 -6c-6 0 -11 1 -15 5l-1 1c-4 3 -7 8 -7 13s2 9 6 12c22 21 40 50 42 74
c-1 -1 -8 -2 -11 -2c-24 0 -42 19 -42 44c0 26 20 47 46 47c28 0 53 -24 53 -67z" />
    <glyph glyph-name="uni013C" unicode="&#x13c;" horiz-adv-x="225" 
d="M150 31c0 -20 -17 -37 -38 -37c-20 0 -37 17 -37 37v606c0 19 17 36 39 36c19 0 36 -17 36 -36v-606zM170 -138c0 -47 -24 -91 -56 -121c-4 -4 -10 -6 -15 -6c-6 0 -11 1 -15 5l-1 1c-4 3 -7 8 -7 13s2 9 6 12c22 21 40 50 42 74c-1 -1 -8 -2 -11 -2c-24 0 -42 19 -42 44
c0 26 20 47 46 47c28 0 53 -24 53 -67z" />
    <glyph glyph-name="Lcaron" unicode="&#x13d;" horiz-adv-x="510" 
d="M477 38c0 -22 -16 -38 -36 -38h-303c-33 0 -60 27 -60 60v573c0 22 18 40 43 40c22 0 40 -18 40 -40v-559h280c20 0 36 -16 36 -36zM354 613c0 -47 -24 -91 -56 -121c-4 -4 -10 -6 -15 -6c-6 0 -11 1 -15 5l-1 1c-4 3 -7 8 -7 13s2 9 6 12c22 21 40 50 42 74
c-1 -1 -8 -2 -11 -2c-24 0 -42 19 -42 44c0 26 20 47 46 47c28 0 53 -24 53 -67z" />
    <glyph glyph-name="lcaron" unicode="&#x13e;" horiz-adv-x="291" 
d="M150 31c0 -20 -17 -37 -38 -37c-20 0 -37 17 -37 37v606c0 19 17 36 39 36c19 0 36 -17 36 -36v-606zM311 613c0 -47 -24 -91 -56 -121c-4 -4 -10 -6 -15 -6c-6 0 -11 1 -15 5l-1 1c-4 3 -7 8 -7 13s2 9 6 12c22 21 40 50 42 74c-1 -1 -8 -2 -11 -2c-24 0 -42 19 -42 44
c0 26 20 47 46 47c28 0 53 -24 53 -67z" />
    <glyph glyph-name="Lslash" unicode="&#x141;" horiz-adv-x="529" 
d="M496 36c0 -20 -16 -36 -36 -36h-303c-33 0 -60 27 -60 60v211l-52 -30c-5 -3 -9 -4 -14 -4c-15 0 -32 12 -32 32c0 10 5 20 15 26l83 48v290c0 22 18 40 43 40c22 0 40 -18 40 -40v-242l61 35c4 2 9 4 14 4c15 0 33 -11 33 -31c0 -10 -6 -21 -15 -26l-93 -54v-245h280
c20 0 36 -16 36 -38z" />
    <glyph glyph-name="lslash" unicode="&#x142;" horiz-adv-x="287" 
d="M287 401c0 -9 -4 -17 -12 -21l-94 -54v-295c0 -20 -17 -37 -38 -37c-20 0 -37 17 -37 37v252l-69 -40c-3 -2 -7 -3 -11 -3c-11 0 -26 10 -26 26c0 9 4 17 12 22l94 55v294c0 19 17 36 39 36c19 0 36 -17 36 -36v-251l67 38c4 2 8 3 13 3c12 0 26 -10 26 -26z" />
    <glyph glyph-name="Nacute" unicode="&#x143;" horiz-adv-x="708" 
d="M630 41c0 -24 -20 -47 -50 -47c-16 0 -32 8 -41 21l-378 517v-497c0 -23 -18 -41 -42 -41c-23 0 -41 18 -41 41v588c0 26 22 50 53 50c17 0 34 -8 44 -22l372 -505v487c0 22 18 40 43 40c22 0 40 -18 40 -40v-592zM495 847c0 -6 -3 -13 -8 -17l-126 -108
c-4 -3 -8 -5 -12 -5c-10 0 -21 9 -21 21c0 5 1 9 5 13l118 114c5 5 11 7 18 7c12 0 26 -11 26 -25z" />
    <glyph glyph-name="nacute" unicode="&#x144;" 
d="M476 31c0 -20 -17 -37 -38 -37c-20 0 -37 17 -37 37v285c0 85 -43 112 -108 112c-59 0 -115 -36 -143 -75v-322c0 -20 -17 -37 -38 -37c-20 0 -37 17 -37 37v422c0 19 17 36 39 36c19 0 36 -17 36 -36v-40c34 40 100 82 172 82c101 0 154 -51 154 -156v-308zM408 680
c0 -6 -3 -13 -8 -17l-126 -108c-4 -3 -8 -5 -12 -5c-10 0 -21 9 -21 21c0 5 1 9 5 13l118 114c5 5 11 7 18 7c12 0 26 -11 26 -25z" />
    <glyph glyph-name="uni0145" unicode="&#x145;" horiz-adv-x="708" 
d="M630 41c0 -24 -20 -47 -50 -47c-16 0 -32 8 -41 21l-378 517v-497c0 -23 -18 -41 -42 -41c-23 0 -41 18 -41 41v588c0 26 22 50 53 50c17 0 34 -8 44 -22l372 -505v487c0 22 18 40 43 40c22 0 40 -18 40 -40v-592zM411 -138c0 -47 -24 -91 -56 -121c-4 -4 -10 -6 -15 -6
c-6 0 -11 1 -15 5l-1 1c-4 3 -7 8 -7 13s2 9 6 12c22 21 40 50 42 74c-1 -1 -8 -2 -11 -2c-24 0 -42 19 -42 44c0 26 20 47 46 47c28 0 53 -24 53 -67z" />
    <glyph glyph-name="uni0146" unicode="&#x146;" 
d="M476 31c0 -20 -17 -37 -38 -37c-20 0 -37 17 -37 37v285c0 85 -43 112 -108 112c-59 0 -115 -36 -143 -75v-322c0 -20 -17 -37 -38 -37c-20 0 -37 17 -37 37v422c0 19 17 36 39 36c19 0 36 -17 36 -36v-40c34 40 100 82 172 82c101 0 154 -51 154 -156v-308zM330 -138
c0 -47 -24 -91 -56 -121c-4 -4 -10 -6 -15 -6c-6 0 -11 1 -15 5l-1 1c-4 3 -7 8 -7 13s2 9 6 12c22 21 40 50 42 74c-1 -1 -8 -2 -11 -2c-24 0 -42 19 -42 44c0 26 20 47 46 47c28 0 53 -24 53 -67z" />
    <glyph glyph-name="Ncaron" unicode="&#x147;" horiz-adv-x="708" 
d="M630 41c0 -24 -20 -47 -50 -47c-16 0 -32 8 -41 21l-378 517v-497c0 -23 -18 -41 -42 -41c-23 0 -41 18 -41 41v588c0 26 22 50 53 50c17 0 34 -8 44 -22l372 -505v487c0 22 18 40 43 40c22 0 40 -18 40 -40v-592zM474 853c0 -4 -1 -8 -3 -11l-68 -99
c-11 -16 -29 -26 -50 -26c-19 0 -38 10 -48 26l-65 99c-2 3 -3 7 -3 11c0 8 8 20 21 20c6 0 13 -3 17 -8l79 -104l82 105c4 5 10 7 16 7c11 0 22 -8 22 -20z" />
    <glyph glyph-name="ncaron" unicode="&#x148;" 
d="M476 31c0 -20 -17 -37 -38 -37c-20 0 -37 17 -37 37v285c0 85 -43 112 -108 112c-59 0 -115 -36 -143 -75v-322c0 -20 -17 -37 -38 -37c-20 0 -37 17 -37 37v422c0 19 17 36 39 36c19 0 36 -17 36 -36v-40c34 40 100 82 172 82c101 0 154 -51 154 -156v-308zM398 686
c0 -4 -1 -8 -3 -11l-68 -99c-11 -16 -29 -26 -50 -26c-19 0 -38 10 -48 26l-65 99c-2 3 -3 7 -3 11c0 8 8 20 21 20c6 0 13 -3 17 -8l79 -104l82 105c4 5 10 7 16 7c11 0 22 -8 22 -20z" />
    <glyph glyph-name="Omacron" unicode="&#x14c;" horiz-adv-x="765" 
d="M713 333c0 -197 -134 -345 -331 -345c-198 0 -331 148 -331 345s133 345 331 345c197 0 331 -148 331 -345zM627 333c0 156 -96 271 -245 271c-150 0 -245 -115 -245 -271c0 -155 95 -271 245 -271c149 0 245 116 245 271zM563 764c0 -15 -10 -25 -23 -25h-317
c-13 0 -23 10 -23 25c0 13 10 23 23 23h317c13 0 23 -10 23 -23z" />
    <glyph glyph-name="omacron" unicode="&#x14d;" horiz-adv-x="572" 
d="M525 242c0 -140 -92 -254 -239 -254s-239 114 -239 254s92 253 239 253s239 -113 239 -253zM446 242c0 98 -57 186 -160 186s-161 -88 -161 -186c0 -99 58 -187 161 -187s160 88 160 187zM467 597c0 -15 -10 -25 -23 -25h-317c-13 0 -23 10 -23 25c0 13 10 23 23 23h317
c13 0 23 -10 23 -23z" />
    <glyph glyph-name="Ohungarumlaut" unicode="&#x150;" horiz-adv-x="765" 
d="M713 333c0 -197 -134 -345 -331 -345c-198 0 -331 148 -331 345s133 345 331 345c197 0 331 -148 331 -345zM627 333c0 156 -96 271 -245 271c-150 0 -245 -115 -245 -271c0 -155 95 -271 245 -271c149 0 245 116 245 271zM412 847c0 -6 -2 -11 -5 -15l-87 -109
c-3 -5 -9 -7 -14 -7c-10 0 -22 8 -22 20c0 4 1 7 3 10l75 115c5 8 13 12 22 12c18 0 28 -14 28 -26zM554 847c0 -6 -2 -11 -5 -15l-87 -109c-4 -5 -9 -7 -15 -7c-11 0 -21 9 -21 20c0 4 1 7 3 10l75 115c5 8 13 12 22 12c18 0 28 -14 28 -26z" />
    <glyph glyph-name="ohungarumlaut" unicode="&#x151;" horiz-adv-x="572" 
d="M525 242c0 -140 -92 -254 -239 -254s-239 114 -239 254s92 253 239 253s239 -113 239 -253zM446 242c0 98 -57 186 -160 186s-161 -88 -161 -186c0 -99 58 -187 161 -187s160 88 160 187zM316 680c0 -6 -2 -11 -5 -15l-87 -109c-3 -5 -9 -7 -14 -7c-10 0 -22 8 -22 20
c0 4 1 7 3 10l75 115c5 8 13 12 22 12c18 0 28 -14 28 -26zM458 680c0 -6 -2 -11 -5 -15l-87 -109c-4 -5 -9 -7 -15 -7c-11 0 -21 9 -21 20c0 4 1 7 3 10l75 115c5 8 13 12 22 12c18 0 28 -14 28 -26z" />
    <glyph glyph-name="OE" unicode="&#x152;" horiz-adv-x="1105" 
d="M1057 38c0 -22 -16 -38 -36 -38h-348c-58 0 -66 56 -60 120c-49 -87 -144 -132 -238 -132c-194 0 -324 148 -324 345s130 344 324 344c94 0 189 -44 238 -131c-6 64 1 121 60 121h348c20 0 36 -16 36 -38c0 -20 -16 -36 -36 -36h-325v-215h318c20 0 36 -16 36 -38
c0 -20 -16 -36 -36 -36h-318v-230h325c20 0 36 -16 36 -36zM613 223v220c-39 107 -126 160 -229 160c-152 0 -247 -114 -247 -270s95 -271 247 -271c103 0 190 55 229 161z" />
    <glyph glyph-name="oe" unicode="&#x153;" horiz-adv-x="962" 
d="M914 258c0 -22 -18 -41 -41 -41h-347c6 -91 69 -167 173 -167c47 0 93 15 131 45c5 3 11 5 17 5c13 0 30 -12 30 -31c0 -9 -3 -18 -11 -24c-48 -38 -106 -57 -173 -57c-124 0 -183 82 -208 138c-24 -53 -79 -138 -199 -138c-147 0 -239 114 -239 254s92 253 239 253
c120 0 178 -87 200 -138c22 52 83 138 198 138c117 0 198 -73 224 -187c3 -16 6 -33 6 -50zM843 272c-2 72 -50 161 -160 161c-103 0 -154 -87 -158 -161h318zM446 242c0 101 -59 186 -160 186s-161 -85 -161 -186c0 -102 60 -188 161 -188s160 86 160 188z" />
    <glyph glyph-name="Racute" unicode="&#x154;" horiz-adv-x="608" 
d="M555 466c0 -120 -82 -186 -173 -194l143 -217c4 -7 6 -14 6 -21c0 -20 -17 -40 -41 -40c-13 0 -25 6 -33 18l-163 253h-133v-230c0 -23 -18 -41 -42 -41c-23 0 -41 18 -41 41v572c0 33 27 60 60 60h208c122 0 209 -78 209 -201zM336 593h-175v-255h175
c79 0 133 53 133 128s-54 127 -133 127zM444 847c0 -6 -3 -13 -8 -17l-126 -108c-4 -3 -8 -5 -12 -5c-10 0 -21 9 -21 21c0 5 1 9 5 13l118 114c5 5 11 7 18 7c12 0 26 -11 26 -25z" />
    <glyph glyph-name="racute" unicode="&#x155;" horiz-adv-x="330" 
d="M317 456c0 -22 -17 -40 -39 -41c-49 -3 -96 -25 -128 -73v-311c0 -20 -17 -37 -38 -37h-1c-20 1 -36 17 -36 37v422c0 19 17 36 39 36c19 0 36 -17 36 -36v-48c29 38 77 86 133 86c18 0 34 -15 34 -35zM326 680c0 -6 -3 -13 -8 -17l-126 -108c-4 -3 -8 -5 -12 -5
c-10 0 -21 9 -21 21c0 5 1 9 5 13l118 114c5 5 11 7 18 7c12 0 26 -11 26 -25z" />
    <glyph glyph-name="uni0156" unicode="&#x156;" horiz-adv-x="608" 
d="M555 466c0 -120 -82 -186 -173 -194l143 -217c4 -7 6 -14 6 -21c0 -20 -17 -40 -41 -40c-13 0 -25 6 -33 18l-163 253h-133v-230c0 -23 -18 -41 -42 -41c-23 0 -41 18 -41 41v572c0 33 27 60 60 60h208c122 0 209 -78 209 -201zM336 593h-175v-255h175
c79 0 133 53 133 128s-54 127 -133 127zM362 -138c0 -47 -24 -91 -56 -121c-4 -4 -10 -6 -15 -6c-6 0 -11 1 -15 5l-1 1c-4 3 -7 8 -7 13s2 9 6 12c22 21 40 50 42 74c-1 -1 -8 -2 -11 -2c-24 0 -42 19 -42 44c0 26 20 47 46 47c28 0 53 -24 53 -67z" />
    <glyph glyph-name="uni0157" unicode="&#x157;" horiz-adv-x="330" 
d="M317 456c0 -22 -17 -40 -39 -41c-49 -3 -96 -25 -128 -73v-311c0 -20 -17 -37 -38 -37h-1c-20 1 -36 17 -36 37v422c0 19 17 36 39 36c19 0 36 -17 36 -36v-48c29 38 77 86 133 86c18 0 34 -15 34 -35zM221 -138c0 -47 -24 -91 -56 -121c-4 -4 -10 -6 -15 -6
c-6 0 -11 1 -15 5l-1 1c-4 3 -7 8 -7 13s2 9 6 12c22 21 40 50 42 74c-1 -1 -8 -2 -11 -2c-24 0 -42 19 -42 44c0 26 20 47 46 47c28 0 53 -24 53 -67z" />
    <glyph glyph-name="Rcaron" unicode="&#x158;" horiz-adv-x="608" 
d="M555 466c0 -120 -82 -186 -173 -194l143 -217c4 -7 6 -14 6 -21c0 -20 -17 -40 -41 -40c-13 0 -25 6 -33 18l-163 253h-133v-230c0 -23 -18 -41 -42 -41c-23 0 -41 18 -41 41v572c0 33 27 60 60 60h208c122 0 209 -78 209 -201zM336 593h-175v-255h175
c79 0 133 53 133 128s-54 127 -133 127zM427 853c0 -4 -1 -8 -3 -11l-68 -99c-11 -16 -29 -26 -50 -26c-19 0 -38 10 -48 26l-65 99c-2 3 -3 7 -3 11c0 8 8 20 21 20c6 0 13 -3 17 -8l79 -104l82 105c4 5 10 7 16 7c11 0 22 -8 22 -20z" />
    <glyph glyph-name="rcaron" unicode="&#x159;" horiz-adv-x="330" 
d="M317 456c0 -22 -17 -40 -39 -41c-49 -3 -96 -25 -128 -73v-311c0 -20 -17 -37 -38 -37h-1c-20 1 -36 17 -36 37v422c0 19 17 36 39 36c19 0 36 -17 36 -36v-48c29 38 77 86 133 86c18 0 34 -15 34 -35zM313 686c0 -4 -1 -8 -3 -11l-68 -99c-11 -16 -29 -26 -50 -26
c-19 0 -38 10 -48 26l-65 99c-2 3 -3 7 -3 11c0 8 8 20 21 20c6 0 13 -3 17 -8l79 -104l82 105c4 5 10 7 16 7c11 0 22 -8 22 -20z" />
    <glyph glyph-name="Sacute" unicode="&#x15a;" horiz-adv-x="586" 
d="M540 184c0 -97 -66 -196 -246 -196c-99 0 -177 33 -234 83c-9 8 -13 19 -13 30c0 20 15 42 39 42c8 0 17 -2 24 -8c46 -41 110 -73 187 -73c119 0 157 64 157 115c0 172 -395 77 -395 315c0 110 98 185 229 185c86 0 160 -26 214 -71c9 -8 14 -19 14 -30
c0 -20 -17 -40 -39 -40c-8 0 -17 3 -24 9c-49 40 -110 58 -171 58c-80 0 -137 -43 -137 -106c0 -150 395 -64 395 -313zM424 847c0 -6 -3 -13 -8 -17l-126 -108c-4 -3 -8 -5 -12 -5c-10 0 -21 9 -21 21c0 5 1 9 5 13l118 114c5 5 11 7 18 7c12 0 26 -11 26 -25z" />
    <glyph glyph-name="sacute" unicode="&#x15b;" horiz-adv-x="465" 
d="M418 134c0 -81 -65 -146 -190 -146c-68 0 -130 18 -180 62c-7 6 -11 14 -11 23c0 18 15 32 34 32c8 0 15 -2 22 -7c35 -28 85 -49 138 -49c74 0 114 35 114 83c0 117 -299 45 -299 224c0 75 65 139 180 139c70 0 122 -21 164 -57c7 -6 10 -14 10 -22
c0 -17 -14 -30 -30 -30c-7 0 -14 2 -20 7c-31 24 -75 41 -124 41c-66 0 -107 -33 -107 -76c0 -106 299 -36 299 -224zM361 680c0 -6 -3 -13 -8 -17l-126 -108c-4 -3 -8 -5 -12 -5c-10 0 -21 9 -21 21c0 5 1 9 5 13l118 114c5 5 11 7 18 7c12 0 26 -11 26 -25z" />
    <glyph glyph-name="Scedilla" unicode="&#x15e;" horiz-adv-x="586" 
d="M540 184c0 -95 -63 -191 -234 -196l-17 -43c10 7 24 11 37 11c38 0 66 -26 66 -67c0 -49 -47 -80 -104 -80c-39 0 -100 13 -100 41c0 11 10 20 21 20c3 0 5 0 8 -2c23 -15 47 -20 69 -20c32 0 61 15 61 42c0 21 -12 35 -37 35c-17 0 -32 -16 -47 -16c-12 0 -21 11 -21 22
c0 2 0 5 1 7l19 51c-84 6 -151 37 -202 82c-9 8 -13 19 -13 30c0 20 15 42 39 42c8 0 17 -2 24 -8c46 -41 110 -73 187 -73c119 0 157 64 157 115c0 172 -395 77 -395 315c0 110 98 185 229 185c86 0 160 -26 214 -71c9 -8 14 -19 14 -30c0 -20 -17 -40 -39 -40
c-8 0 -17 3 -24 9c-49 40 -110 58 -171 58c-80 0 -137 -43 -137 -106c0 -150 395 -64 395 -313z" />
    <glyph glyph-name="scedilla" unicode="&#x15f;" horiz-adv-x="465" 
d="M418 134c0 -78 -59 -140 -173 -145l-17 -44c10 7 24 11 37 11c38 0 66 -26 66 -67c0 -49 -47 -80 -104 -80c-39 0 -100 13 -100 41c0 11 10 20 21 20c3 0 5 0 8 -2c23 -15 47 -20 69 -20c32 0 61 15 61 42c0 21 -12 35 -37 35c-17 0 -32 -16 -47 -16c-12 0 -21 11 -21 22
c0 2 0 5 1 7l19 51c-58 5 -110 23 -153 61c-7 6 -11 14 -11 23c0 18 15 32 34 32c8 0 15 -2 22 -7c35 -28 85 -49 138 -49c74 0 114 35 114 83c0 117 -299 45 -299 224c0 75 65 139 180 139c70 0 122 -21 164 -57c7 -6 10 -14 10 -22c0 -17 -14 -30 -30 -30
c-7 0 -14 2 -20 7c-31 24 -75 41 -124 41c-66 0 -107 -33 -107 -76c0 -106 299 -36 299 -224z" />
    <glyph glyph-name="Scaron" unicode="&#x160;" horiz-adv-x="586" 
d="M540 184c0 -97 -66 -196 -246 -196c-99 0 -177 33 -234 83c-9 8 -13 19 -13 30c0 20 15 42 39 42c8 0 17 -2 24 -8c46 -41 110 -73 187 -73c119 0 157 64 157 115c0 172 -395 77 -395 315c0 110 98 185 229 185c86 0 160 -26 214 -71c9 -8 14 -19 14 -30
c0 -20 -17 -40 -39 -40c-8 0 -17 3 -24 9c-49 40 -110 58 -171 58c-80 0 -137 -43 -137 -106c0 -150 395 -64 395 -313zM407 853c0 -4 -1 -8 -3 -11l-68 -99c-11 -16 -29 -26 -50 -26c-19 0 -38 10 -48 26l-65 99c-2 3 -3 7 -3 11c0 8 8 20 21 20c6 0 13 -3 17 -8l79 -104
l82 105c4 5 10 7 16 7c11 0 22 -8 22 -20z" />
    <glyph glyph-name="scaron" unicode="&#x161;" horiz-adv-x="465" 
d="M418 134c0 -81 -65 -146 -190 -146c-68 0 -130 18 -180 62c-7 6 -11 14 -11 23c0 18 15 32 34 32c8 0 15 -2 22 -7c35 -28 85 -49 138 -49c74 0 114 35 114 83c0 117 -299 45 -299 224c0 75 65 139 180 139c70 0 122 -21 164 -57c7 -6 10 -14 10 -22
c0 -17 -14 -30 -30 -30c-7 0 -14 2 -20 7c-31 24 -75 41 -124 41c-66 0 -107 -33 -107 -76c0 -106 299 -36 299 -224zM350 686c0 -4 -1 -8 -3 -11l-68 -99c-11 -16 -29 -26 -50 -26c-19 0 -38 10 -48 26l-65 99c-2 3 -3 7 -3 11c0 8 8 20 21 20c6 0 13 -3 17 -8l79 -104
l82 105c4 5 10 7 16 7c11 0 22 -8 22 -20z" />
    <glyph glyph-name="uni0162" unicode="&#x162;" horiz-adv-x="570" 
d="M544 629c0 -20 -16 -36 -36 -36h-182v-558c0 -23 -18 -41 -42 -41c-23 0 -41 18 -41 41v558h-181c-20 0 -36 16 -36 38c0 20 16 36 36 36h446c20 0 36 -16 36 -38zM341 -138c0 -47 -24 -91 -56 -121c-4 -4 -10 -6 -15 -6c-6 0 -11 1 -15 5l-1 1c-4 3 -7 8 -7 13s2 9 6 12
c22 21 40 50 42 74c-1 -1 -8 -2 -11 -2c-24 0 -42 19 -42 44c0 26 20 47 46 47c28 0 53 -24 53 -67z" />
    <glyph glyph-name="uni0163" unicode="&#x163;" horiz-adv-x="294" 
d="M286 31c0 -32 -46 -43 -89 -43c-71 0 -107 41 -107 113v316h-54c-18 0 -32 14 -32 34c0 18 14 32 32 32h54v102c0 19 17 36 39 36c19 0 36 -17 36 -36v-102h72c18 0 32 -14 32 -34c0 -18 -14 -32 -32 -32h-72v-300c0 -36 16 -62 49 -62c13 0 28 7 40 7
c17 0 32 -14 32 -31zM203 -138c0 -47 -24 -91 -56 -121c-4 -4 -10 -6 -15 -6c-6 0 -11 1 -15 5l-1 1c-4 3 -7 8 -7 13s2 9 6 12c22 21 40 50 42 74c-1 -1 -8 -2 -11 -2c-24 0 -42 19 -42 44c0 26 20 47 46 47c28 0 53 -24 53 -67z" />
    <glyph glyph-name="Tcaron" unicode="&#x164;" horiz-adv-x="570" 
d="M544 629c0 -20 -16 -36 -36 -36h-182v-558c0 -23 -18 -41 -42 -41c-23 0 -41 18 -41 41v558h-181c-20 0 -36 16 -36 38c0 20 16 36 36 36h446c20 0 36 -16 36 -38zM406 853c0 -4 -1 -8 -3 -11l-68 -99c-11 -16 -29 -26 -50 -26c-19 0 -38 10 -48 26l-65 99
c-2 3 -3 7 -3 11c0 8 8 20 21 20c6 0 13 -3 17 -8l79 -104l82 105c4 5 10 7 16 7c11 0 22 -8 22 -20z" />
    <glyph glyph-name="tcaron" unicode="&#x165;" horiz-adv-x="313" 
d="M286 31c0 -32 -46 -43 -89 -43c-71 0 -107 41 -107 113v316h-54c-18 0 -32 14 -32 34c0 18 14 32 32 32h54v102c0 19 17 36 39 36c19 0 36 -17 36 -36v-102h72c18 0 32 -14 32 -34c0 -18 -14 -32 -32 -32h-72v-300c0 -36 16 -62 49 -62c13 0 28 7 40 7
c17 0 32 -14 32 -31zM325 676c0 -47 -24 -91 -56 -121c-4 -4 -10 -6 -15 -6c-6 0 -11 1 -15 5l-1 1c-4 3 -7 8 -7 13s2 9 6 12c22 21 40 50 42 74c-1 -1 -8 -2 -11 -2c-24 0 -42 19 -42 44c0 26 20 47 46 47c28 0 53 -24 53 -67z" />
    <glyph glyph-name="Umacron" unicode="&#x16a;" horiz-adv-x="700" 
d="M622 260c0 -166 -91 -272 -272 -272s-272 107 -272 271v374c0 22 18 40 43 40c22 0 40 -18 40 -40v-372c0 -122 66 -199 189 -199s189 77 189 199v372c0 22 18 40 43 40c22 0 40 -18 40 -40v-373zM532 764c0 -15 -10 -25 -23 -25h-317c-13 0 -23 10 -23 25
c0 13 10 23 23 23h317c13 0 23 -10 23 -23z" />
    <glyph glyph-name="umacron" unicode="&#x16b;" 
d="M476 31c0 -20 -17 -37 -38 -37c-20 0 -37 17 -37 37v37c-37 -42 -100 -80 -172 -80c-101 0 -154 49 -154 154v311c0 19 17 36 39 36c19 0 36 -17 36 -36v-288c0 -85 43 -110 108 -110c59 0 115 34 143 73v325c0 19 17 36 39 36c19 0 36 -17 36 -36v-422zM456 597
c0 -15 -10 -25 -23 -25h-317c-13 0 -23 10 -23 25c0 13 10 23 23 23h317c13 0 23 -10 23 -23z" />
    <glyph glyph-name="Uring" unicode="&#x16e;" horiz-adv-x="700" 
d="M622 260c0 -166 -91 -272 -272 -272s-272 107 -272 271v374c0 22 18 40 43 40c22 0 40 -18 40 -40v-372c0 -122 66 -199 189 -199s189 77 189 199v372c0 22 18 40 43 40c22 0 40 -18 40 -40v-373zM449 808c0 -54 -44 -98 -98 -98s-98 44 -98 98s44 99 98 99
s98 -45 98 -99zM409 808c0 33 -25 59 -58 59c-32 0 -58 -26 -58 -59c0 -32 26 -59 58 -59c33 0 58 27 58 59z" />
    <glyph glyph-name="uring" unicode="&#x16f;" 
d="M476 31c0 -20 -17 -37 -38 -37c-20 0 -37 17 -37 37v37c-37 -42 -100 -80 -172 -80c-101 0 -154 49 -154 154v311c0 19 17 36 39 36c19 0 36 -17 36 -36v-288c0 -85 43 -110 108 -110c59 0 115 34 143 73v325c0 19 17 36 39 36c19 0 36 -17 36 -36v-422zM374 641
c0 -54 -44 -98 -98 -98s-98 44 -98 98s44 99 98 99s98 -45 98 -99zM334 641c0 33 -25 59 -58 59c-32 0 -58 -26 -58 -59c0 -32 26 -59 58 -59c33 0 58 27 58 59z" />
    <glyph glyph-name="Uhungarumlaut" unicode="&#x170;" horiz-adv-x="700" 
d="M622 260c0 -166 -91 -272 -272 -272s-272 107 -272 271v374c0 22 18 40 43 40c22 0 40 -18 40 -40v-372c0 -122 66 -199 189 -199s189 77 189 199v372c0 22 18 40 43 40c22 0 40 -18 40 -40v-373zM381 847c0 -6 -2 -11 -5 -15l-87 -109c-3 -5 -9 -7 -14 -7
c-10 0 -22 8 -22 20c0 4 1 7 3 10l75 115c5 8 13 12 22 12c18 0 28 -14 28 -26zM523 847c0 -6 -2 -11 -5 -15l-87 -109c-4 -5 -9 -7 -15 -7c-11 0 -21 9 -21 20c0 4 1 7 3 10l75 115c5 8 13 12 22 12c18 0 28 -14 28 -26z" />
    <glyph glyph-name="uhungarumlaut" unicode="&#x171;" 
d="M476 31c0 -20 -17 -37 -38 -37c-20 0 -37 17 -37 37v37c-37 -42 -100 -80 -172 -80c-101 0 -154 49 -154 154v311c0 19 17 36 39 36c19 0 36 -17 36 -36v-288c0 -85 43 -110 108 -110c59 0 115 34 143 73v325c0 19 17 36 39 36c19 0 36 -17 36 -36v-422zM306 680
c0 -6 -2 -11 -5 -15l-87 -109c-3 -5 -9 -7 -14 -7c-10 0 -22 8 -22 20c0 4 1 7 3 10l75 115c5 8 13 12 22 12c18 0 28 -14 28 -26zM448 680c0 -6 -2 -11 -5 -15l-87 -109c-4 -5 -9 -7 -15 -7c-11 0 -21 9 -21 20c0 4 1 7 3 10l75 115c5 8 13 12 22 12c18 0 28 -14 28 -26z
" />
    <glyph glyph-name="Uogonek" unicode="&#x172;" horiz-adv-x="700" 
d="M622 260c0 -133 -59 -228 -175 -260c-48 -24 -76 -55 -76 -97c0 -34 18 -50 44 -50c21 0 34 8 44 24c3 6 10 9 17 9c11 0 21 -8 21 -20c0 -28 -45 -52 -82 -52c-47 0 -89 26 -89 87c0 33 15 63 39 87c-191 -6 -287 102 -287 271v374c0 22 18 40 43 40c22 0 40 -18 40 -40
v-372c0 -122 66 -199 189 -199s189 77 189 199v372c0 22 18 40 43 40c22 0 40 -18 40 -40v-373z" />
    <glyph glyph-name="uogonek" unicode="&#x173;" 
d="M526 -134c0 -28 -45 -52 -82 -52c-47 0 -89 26 -89 87c0 38 24 78 54 104c-3 4 -8 8 -8 30v33c-37 -42 -100 -80 -172 -80c-101 0 -154 49 -154 154v311c0 19 17 36 39 36c19 0 36 -17 36 -36v-288c0 -85 43 -110 108 -110c59 0 115 34 143 73v325c0 19 17 36 39 36
c19 0 36 -17 36 -36v-416c0 -49 -76 -74 -76 -134c0 -34 18 -50 44 -50c33 0 40 33 61 33c11 0 21 -8 21 -20z" />
    <glyph glyph-name="Ydieresis" unicode="&#x178;" horiz-adv-x="626" 
d="M585 633c0 -7 -2 -15 -6 -21l-224 -330v-247c0 -23 -18 -41 -42 -41c-23 0 -41 18 -41 41v247l-225 330c-4 6 -7 13 -7 21c0 19 15 40 40 40c12 0 26 -6 34 -17l199 -299l199 299c7 10 20 16 32 16c22 0 41 -18 41 -39zM258 771c0 -26 -21 -47 -46 -47
c-26 0 -47 21 -47 47c0 25 21 46 47 46c25 0 46 -21 46 -46zM465 771c0 -26 -22 -47 -47 -47s-47 21 -47 47c0 25 22 46 47 46s47 -21 47 -46z" />
    <glyph glyph-name="Zacute" unicode="&#x179;" horiz-adv-x="585" 
d="M542 38c0 -22 -16 -38 -36 -38h-421c-21 0 -42 19 -42 46c0 10 3 20 9 28l371 519h-345c-20 0 -36 16 -36 38c0 20 16 36 36 36h414c21 0 42 -19 42 -46c0 -10 -3 -20 -9 -28l-371 -519h352c20 0 36 -16 36 -36zM425 847c0 -6 -3 -13 -8 -17l-126 -108
c-4 -3 -8 -5 -12 -5c-10 0 -21 9 -21 21c0 5 1 9 5 13l118 114c5 5 11 7 18 7c12 0 26 -11 26 -25z" />
    <glyph glyph-name="zacute" unicode="&#x17a;" horiz-adv-x="472" 
d="M426 34c0 -20 -14 -34 -31 -34h-314c-19 0 -34 16 -34 38c0 9 4 18 9 25l262 354h-240c-18 0 -32 14 -32 34c0 18 14 32 32 32h310c17 0 33 -15 33 -37c0 -9 -3 -17 -8 -24l-265 -357h247c17 0 31 -14 31 -31zM368 680c0 -6 -3 -13 -8 -17l-126 -108c-4 -3 -8 -5 -12 -5
c-10 0 -21 9 -21 21c0 5 1 9 5 13l118 114c5 5 11 7 18 7c12 0 26 -11 26 -25z" />
    <glyph glyph-name="Zdotaccent" unicode="&#x17b;" horiz-adv-x="585" 
d="M542 38c0 -22 -16 -38 -36 -38h-421c-21 0 -42 19 -42 46c0 10 3 20 9 28l371 519h-345c-20 0 -36 16 -36 38c0 20 16 36 36 36h414c21 0 42 -19 42 -46c0 -10 -3 -20 -9 -28l-371 -519h352c20 0 36 -16 36 -36zM336 769c0 -26 -20 -47 -46 -47c-25 0 -47 21 -47 47
s22 47 47 47c26 0 46 -21 46 -47z" />
    <glyph glyph-name="zdotaccent" unicode="&#x17c;" horiz-adv-x="472" 
d="M426 34c0 -20 -14 -34 -31 -34h-314c-19 0 -34 16 -34 38c0 9 4 18 9 25l262 354h-240c-18 0 -32 14 -32 34c0 18 14 32 32 32h310c17 0 33 -15 33 -37c0 -9 -3 -17 -8 -24l-265 -357h247c17 0 31 -14 31 -31zM281 602c0 -26 -20 -47 -46 -47c-25 0 -47 21 -47 47
s22 47 47 47c26 0 46 -21 46 -47z" />
    <glyph glyph-name="Zcaron" unicode="&#x17d;" horiz-adv-x="585" 
d="M542 38c0 -22 -16 -38 -36 -38h-421c-21 0 -42 19 -42 46c0 10 3 20 9 28l371 519h-345c-20 0 -36 16 -36 38c0 20 16 36 36 36h414c21 0 42 -19 42 -46c0 -10 -3 -20 -9 -28l-371 -519h352c20 0 36 -16 36 -36zM411 853c0 -4 -1 -8 -3 -11l-68 -99
c-11 -16 -29 -26 -50 -26c-19 0 -38 10 -48 26l-65 99c-2 3 -3 7 -3 11c0 8 8 20 21 20c6 0 13 -3 17 -8l79 -104l82 105c4 5 10 7 16 7c11 0 22 -8 22 -20z" />
    <glyph glyph-name="zcaron" unicode="&#x17e;" horiz-adv-x="472" 
d="M426 34c0 -20 -14 -34 -31 -34h-314c-19 0 -34 16 -34 38c0 9 4 18 9 25l262 354h-240c-18 0 -32 14 -32 34c0 18 14 32 32 32h310c17 0 33 -15 33 -37c0 -9 -3 -17 -8 -24l-265 -357h247c17 0 31 -14 31 -31zM352 686c0 -4 -1 -8 -3 -11l-68 -99
c-11 -16 -29 -26 -50 -26c-19 0 -38 10 -48 26l-65 99c-2 3 -3 7 -3 11c0 8 8 20 21 20c6 0 13 -3 17 -8l79 -104l82 105c4 5 10 7 16 7c11 0 22 -8 22 -20z" />
    <glyph glyph-name="florin" unicode="&#x192;" horiz-adv-x="431" 
d="M440 628c0 -21 -17 -37 -35 -37c-14 0 -29 12 -47 12c-48 0 -87 -34 -100 -92l-42 -189h112c18 0 33 -15 33 -35c0 -18 -15 -33 -33 -33h-127l-87 -392c-4 -19 -21 -32 -40 -32c-23 0 -41 17 -41 39c0 3 0 6 1 9l83 376h-41c-18 0 -33 15 -33 35c0 18 15 33 33 33h55
l46 204c21 93 88 151 174 151c35 0 89 -11 89 -49z" />
    <glyph glyph-name="uni0218" unicode="&#x218;" horiz-adv-x="586" 
d="M540 184c0 -97 -66 -196 -246 -196c-99 0 -177 33 -234 83c-9 8 -13 19 -13 30c0 20 15 42 39 42c8 0 17 -2 24 -8c46 -41 110 -73 187 -73c119 0 157 64 157 115c0 172 -395 77 -395 315c0 110 98 185 229 185c86 0 160 -26 214 -71c9 -8 14 -19 14 -30
c0 -20 -17 -40 -39 -40c-8 0 -17 3 -24 9c-49 40 -110 58 -171 58c-80 0 -137 -43 -137 -106c0 -150 395 -64 395 -313zM342 -138c0 -47 -24 -91 -56 -121c-4 -4 -10 -6 -15 -6c-6 0 -11 1 -15 5l-1 1c-4 3 -7 8 -7 13s2 9 6 12c22 21 40 50 42 74c-1 -1 -8 -2 -11 -2
c-24 0 -42 19 -42 44c0 26 20 47 46 47c28 0 53 -24 53 -67z" />
    <glyph glyph-name="uni0219" unicode="&#x219;" horiz-adv-x="465" 
d="M418 134c0 -81 -65 -146 -190 -146c-68 0 -130 18 -180 62c-7 6 -11 14 -11 23c0 18 15 32 34 32c8 0 15 -2 22 -7c35 -28 85 -49 138 -49c74 0 114 35 114 83c0 117 -299 45 -299 224c0 75 65 139 180 139c70 0 122 -21 164 -57c7 -6 10 -14 10 -22
c0 -17 -14 -30 -30 -30c-7 0 -14 2 -20 7c-31 24 -75 41 -124 41c-66 0 -107 -33 -107 -76c0 -106 299 -36 299 -224zM282 -138c0 -47 -24 -91 -56 -121c-4 -4 -10 -6 -15 -6c-6 0 -11 1 -15 5l-1 1c-4 3 -7 8 -7 13s2 9 6 12c22 21 40 50 42 74c-1 -1 -8 -2 -11 -2
c-24 0 -42 19 -42 44c0 26 20 47 46 47c28 0 53 -24 53 -67z" />
    <glyph glyph-name="uni021A" unicode="&#x21a;" horiz-adv-x="570" 
d="M544 629c0 -20 -16 -36 -36 -36h-182v-558c0 -23 -18 -41 -42 -41c-23 0 -41 18 -41 41v558h-181c-20 0 -36 16 -36 38c0 20 16 36 36 36h446c20 0 36 -16 36 -38zM341 -138c0 -47 -24 -91 -56 -121c-4 -4 -10 -6 -15 -6c-6 0 -11 1 -15 5l-1 1c-4 3 -7 8 -7 13s2 9 6 12
c22 21 40 50 42 74c-1 -1 -8 -2 -11 -2c-24 0 -42 19 -42 44c0 26 20 47 46 47c28 0 53 -24 53 -67z" />
    <glyph glyph-name="uni021B" unicode="&#x21b;" horiz-adv-x="294" 
d="M286 31c0 -32 -46 -43 -89 -43c-71 0 -107 41 -107 113v316h-54c-18 0 -32 14 -32 34c0 18 14 32 32 32h54v102c0 19 17 36 39 36c19 0 36 -17 36 -36v-102h72c18 0 32 -14 32 -34c0 -18 -14 -32 -32 -32h-72v-300c0 -36 16 -62 49 -62c13 0 28 7 40 7
c17 0 32 -14 32 -31zM203 -138c0 -47 -24 -91 -56 -121c-4 -4 -10 -6 -15 -6c-6 0 -11 1 -15 5l-1 1c-4 3 -7 8 -7 13s2 9 6 12c22 21 40 50 42 74c-1 -1 -8 -2 -11 -2c-24 0 -42 19 -42 44c0 26 20 47 46 47c28 0 53 -24 53 -67z" />
    <glyph glyph-name="circumflex" unicode="&#x2c6;" horiz-adv-x="265" 
d="M251 570c0 -9 -8 -21 -22 -21c-6 0 -12 3 -16 8l-82 105l-79 -104c-4 -5 -10 -8 -17 -8c-11 0 -22 8 -22 20c0 3 2 7 4 11l65 99c10 16 29 26 50 26c19 0 37 -10 48 -26l68 -99c2 -3 3 -7 3 -11z" />
    <glyph glyph-name="caron" unicode="&#x2c7;" horiz-adv-x="265" 
d="M254 686c0 -4 -1 -8 -3 -11l-68 -99c-11 -16 -29 -26 -50 -26c-19 0 -38 10 -48 26l-65 99c-2 3 -3 7 -3 11c0 8 8 20 21 20c6 0 13 -3 17 -8l79 -104l82 105c4 5 10 7 16 7c11 0 22 -8 22 -20z" />
    <glyph glyph-name="breve" unicode="&#x2d8;" horiz-adv-x="351" 
d="M342 623c0 -6 -2 -11 -6 -15c-40 -43 -96 -70 -160 -70c-63 0 -120 27 -161 70c-4 4 -6 9 -6 15c0 11 10 24 25 24c6 0 13 -2 18 -7c31 -34 74 -54 124 -54s93 20 123 54c5 5 11 7 18 7c16 0 25 -14 25 -24z" />
    <glyph glyph-name="dotaccent" unicode="&#x2d9;" horiz-adv-x="111" 
d="M102 602c0 -26 -20 -47 -46 -47c-25 0 -47 21 -47 47s22 47 47 47c26 0 46 -21 46 -47z" />
    <glyph glyph-name="ring" unicode="&#x2da;" horiz-adv-x="196" 
d="M196 641c0 -54 -44 -98 -98 -98s-98 44 -98 98s44 99 98 99s98 -45 98 -99zM156 641c0 33 -25 59 -58 59c-32 0 -58 -26 -58 -59c0 -32 26 -59 58 -59c33 0 58 27 58 59z" />
    <glyph glyph-name="ogonek" unicode="&#x2db;" horiz-adv-x="178" 
d="M171 -134c0 -28 -45 -52 -82 -52c-47 0 -89 26 -89 87c0 45 29 85 71 112c5 3 10 4 15 4c8 0 24 -5 24 -16c0 -4 -2 -8 -6 -10c-37 -23 -59 -51 -59 -88c0 -34 18 -50 44 -50c21 0 34 8 44 24c3 6 10 9 17 9c11 0 21 -8 21 -20z" />
    <glyph glyph-name="tilde" unicode="&#x2dc;" horiz-adv-x="313" 
d="M312 667c-6 -67 -39 -113 -96 -113c-73 0 -75 92 -123 92c-24 0 -42 -20 -47 -64c-1 -13 -12 -22 -25 -22c-12 0 -20 9 -20 19c0 68 43 115 96 115c72 0 75 -92 123 -92c24 0 42 20 47 64c1 13 12 22 25 22s20 -10 20 -21z" />
    <glyph glyph-name="hungarumlaut" unicode="&#x2dd;" horiz-adv-x="305" 
d="M140 680c0 -6 -2 -11 -5 -15l-87 -109c-3 -5 -9 -7 -14 -7c-10 0 -22 8 -22 20c0 4 1 7 3 10l75 115c5 8 13 12 22 12c18 0 28 -14 28 -26zM282 680c0 -6 -2 -11 -5 -15l-87 -109c-4 -5 -9 -7 -15 -7c-11 0 -21 9 -21 20c0 4 1 7 3 10l75 115c5 8 13 12 22 12
c18 0 28 -14 28 -26z" />
    <glyph glyph-name="uni03A9" unicode="&#x3a9;" horiz-adv-x="765" 
d="M713 348c0 -131 -64 -221 -151 -274h98c20 0 36 -16 36 -38c0 -20 -16 -36 -36 -36h-168c-20 0 -36 16 -36 34c0 22 13 42 34 52c74 35 137 120 137 248c0 147 -86 269 -245 269s-245 -122 -245 -269c0 -128 64 -213 138 -248c20 -9 34 -31 34 -50c0 -20 -16 -36 -36 -36
h-168c-20 0 -36 16 -36 36c0 22 16 38 36 38h99c-88 53 -153 143 -153 274c0 192 134 330 331 330c198 0 331 -138 331 -330z" />
    <glyph glyph-name="pi" unicode="&#x3c0;" horiz-adv-x="582" 
d="M578 449c0 -18 -14 -32 -32 -32h-54v-386c0 -20 -17 -37 -38 -37c-20 0 -37 17 -37 37v386h-252v-386c0 -20 -17 -37 -38 -37c-20 0 -37 17 -37 37v386h-54c-18 0 -32 14 -32 34c0 18 14 32 32 32h510c18 0 32 -14 32 -34z" />
    <glyph glyph-name="endash" unicode="&#x2013;" horiz-adv-x="593" 
d="M569 243c0 -20 -14 -34 -32 -34h-481c-18 0 -32 14 -32 34c0 18 14 32 32 32h481c18 0 32 -14 32 -32z" />
    <glyph glyph-name="emdash" unicode="&#x2014;" horiz-adv-x="833" 
d="M809 243c0 -20 -14 -34 -32 -34h-721c-18 0 -32 14 -32 34c0 18 14 32 32 32h721c18 0 32 -14 32 -32z" />
    <glyph glyph-name="quoteleft" unicode="&#x2018;" horiz-adv-x="230" 
d="M163 505c0 -29 -23 -54 -53 -54c-33 0 -63 28 -63 76c0 53 30 109 71 143c4 3 8 5 13 5c11 0 25 -10 25 -24c0 -6 -3 -13 -8 -18c-24 -22 -44 -52 -47 -79c2 1 9 2 14 2c28 0 48 -21 48 -51z" />
    <glyph glyph-name="quoteright" unicode="&#x2019;" horiz-adv-x="230" 
d="M176 601c0 -53 -30 -109 -71 -143c-4 -3 -9 -5 -13 -5c-11 0 -25 9 -25 23c0 7 3 14 8 19c24 22 44 52 47 79c-2 -1 -9 -2 -14 -2c-28 0 -48 21 -48 51c0 29 23 54 53 54c33 0 63 -28 63 -76z" />
    <glyph glyph-name="quotesinglbase" unicode="&#x201a;" horiz-adv-x="230" 
d="M176 24c0 -53 -30 -109 -71 -143c-4 -3 -9 -5 -13 -5c-11 0 -25 9 -25 23c0 7 3 14 8 19c24 22 44 52 47 79c-2 -1 -9 -2 -14 -2c-28 0 -48 21 -48 51c0 29 23 54 53 54c33 0 63 -28 63 -76z" />
    <glyph glyph-name="quotedblleft" unicode="&#x201c;" horiz-adv-x="390" 
d="M329 505c0 -29 -23 -54 -53 -54c-33 0 -63 28 -63 76c0 53 30 109 71 143c4 3 8 5 13 5c11 0 25 -10 25 -24c0 -6 -3 -13 -8 -18c-24 -22 -44 -52 -47 -79c2 1 9 2 14 2c28 0 48 -21 48 -51zM169 505c0 -29 -23 -54 -53 -54c-33 0 -63 28 -63 76c0 53 30 109 71 143
c4 3 8 5 13 5c11 0 25 -10 25 -24c0 -6 -3 -13 -8 -18c-24 -22 -44 -52 -47 -79c2 1 9 2 14 2c28 0 48 -21 48 -51z" />
    <glyph glyph-name="quotedblright" unicode="&#x201d;" horiz-adv-x="390" 
d="M336 601c0 -53 -30 -109 -71 -143c-4 -3 -9 -5 -13 -5c-11 0 -25 9 -25 23c0 7 3 14 8 19c24 22 44 52 47 79c-2 -1 -9 -2 -14 -2c-28 0 -48 21 -48 51c0 29 23 54 53 54c33 0 63 -28 63 -76zM176 601c0 -53 -30 -109 -71 -143c-4 -3 -9 -5 -13 -5c-11 0 -25 9 -25 23
c0 7 3 14 8 19c24 22 44 52 47 79c-2 -1 -9 -2 -14 -2c-28 0 -48 21 -48 51c0 29 23 54 53 54c33 0 63 -28 63 -76z" />
    <glyph glyph-name="quotedblbase" unicode="&#x201e;" horiz-adv-x="390" 
d="M176 24c0 -53 -30 -109 -71 -143c-4 -3 -9 -5 -13 -5c-11 0 -25 9 -25 23c0 7 3 14 8 19c24 22 44 52 47 79c-2 -1 -9 -2 -14 -2c-28 0 -48 21 -48 51c0 29 23 54 53 54c33 0 63 -28 63 -76zM336 24c0 -53 -30 -109 -71 -143c-4 -3 -9 -5 -13 -5c-11 0 -25 9 -25 23
c0 7 3 14 8 19c24 22 44 52 47 79c-2 -1 -9 -2 -14 -2c-28 0 -48 21 -48 51c0 29 23 54 53 54c33 0 63 -28 63 -76z" />
    <glyph glyph-name="dagger" unicode="&#x2020;" horiz-adv-x="263" 
d="M246 554c0 -15 -9 -22 -20 -22l-75 3l4 -191c0 -12 -11 -23 -25 -23c-13 0 -22 11 -22 23l4 191l-75 -3c-11 0 -20 7 -20 22c0 12 9 19 20 19l75 -2l-4 89c-1 12 9 23 24 23c13 0 22 -11 22 -23l-3 -89l75 2c11 0 20 -7 20 -19z" />
    <glyph glyph-name="daggerdbl" unicode="&#x2021;" horiz-adv-x="263" 
d="M246 304c0 -13 -9 -20 -20 -20l-75 2l3 -89c0 -12 -9 -23 -24 -23c-13 0 -22 11 -22 23l3 89l-74 -2c-11 0 -20 7 -20 22c0 12 9 19 20 19l74 -3v213l-74 -3c-11 0 -20 7 -20 22c0 12 9 19 20 19l74 -2l-3 89c0 12 9 23 24 23c13 0 22 -11 22 -23l-3 -89l75 2
c11 0 20 -7 20 -21c0 -13 -9 -20 -20 -20l-75 3v-213l75 3c11 0 20 -7 20 -21z" />
    <glyph glyph-name="bullet" unicode="&#x2022;" horiz-adv-x="358" 
d="M288 242c0 -58 -49 -107 -108 -107s-108 49 -108 107c0 59 49 108 108 108s108 -49 108 -108z" />
    <glyph glyph-name="ellipsis" unicode="&#x2026;" horiz-adv-x="690" 
d="M169 45c0 -29 -25 -55 -55 -55s-54 26 -54 55c0 30 24 55 54 55s55 -25 55 -55zM400 45c0 -29 -26 -55 -56 -55s-54 26 -54 55c0 30 24 55 54 55s56 -25 56 -55zM630 45c0 -29 -25 -55 -55 -55s-55 26 -55 55c0 30 25 55 55 55s55 -25 55 -55z" />
    <glyph glyph-name="perthousand" unicode="&#x2030;" horiz-adv-x="1083" 
d="M191 677c96 0 162 -72 162 -166c0 -93 -66 -163 -162 -163c-95 0 -160 70 -160 163c0 94 65 166 160 166zM539 317c95 0 161 -72 161 -166c0 -93 -66 -163 -161 -163s-160 70 -160 163c0 94 65 166 160 166zM539 35c60 0 102 50 102 116c0 68 -42 119 -102 119
s-101 -51 -101 -119c0 -66 41 -116 101 -116zM891 35c60 0 102 50 102 116c0 68 -42 119 -102 119s-100 -51 -100 -119c0 -66 40 -116 100 -116zM891 317c95 0 161 -72 161 -166c0 -93 -66 -163 -161 -163s-160 70 -160 163c0 94 65 166 160 166zM191 395
c60 0 102 50 102 116c0 68 -42 119 -102 119c-59 0 -100 -51 -100 -119c0 -66 41 -116 100 -116zM591 638l-406 -635c-4 -6 -11 -10 -18 -10c-12 0 -24 10 -24 23c0 4 1 8 4 12l405 635c4 6 12 10 19 10c13 0 23 -12 23 -24c0 -4 -1 -8 -3 -11z" />
    <glyph glyph-name="guilsinglleft" unicode="&#x2039;" horiz-adv-x="295" 
d="M237 85c0 -14 -13 -29 -29 -29c-8 0 -15 3 -20 9l-118 133c-11 12 -17 28 -17 44s6 33 17 45l118 130c5 6 12 9 20 9c13 0 29 -11 29 -27c0 -7 -2 -13 -7 -18l-125 -138l125 -141c4 -5 7 -11 7 -17z" />
    <glyph glyph-name="guilsinglright" unicode="&#x203a;" horiz-adv-x="295" 
d="M242 242c0 -16 -6 -31 -17 -44l-118 -133c-5 -6 -12 -9 -20 -9c-14 0 -29 12 -29 28c0 6 2 13 7 18l125 141l-125 138c-5 5 -7 11 -7 17c0 13 11 28 28 28c8 0 15 -3 21 -9l118 -130c11 -13 17 -29 17 -45z" />
    <glyph glyph-name="fraction" unicode="&#x2044;" horiz-adv-x="138" 
d="M297 653c0 -4 -2 -9 -4 -12l-409 -640c-5 -6 -12 -10 -19 -10c-13 0 -24 11 -24 24c0 4 1 7 4 11l409 641c4 6 12 10 19 10c15 0 24 -13 24 -24z" />
    <glyph glyph-name="Euro" unicode="&#x20ac;" horiz-adv-x="695" 
d="M415 678c100 0 172 -40 223 -95c7 -8 11 -18 11 -29c0 -21 -17 -40 -39 -40c-10 0 -21 4 -28 13c-39 47 -105 77 -167 77c-114 0 -206 -68 -242 -173h284c14 0 25 -11 25 -27c0 -14 -11 -25 -25 -25h-296c-2 -15 -3 -30 -3 -46c0 -15 1 -30 3 -44h296c14 0 25 -11 25 -27
c0 -14 -11 -25 -25 -25h-284c35 -106 128 -175 242 -175c63 0 125 27 167 76c7 8 18 13 28 13c22 0 39 -19 39 -41c0 -10 -4 -20 -11 -28c-52 -54 -123 -94 -223 -94c-161 0 -292 97 -331 249h-34c-14 0 -25 11 -25 27c0 14 11 25 25 25h24c-1 14 -2 29 -2 44s1 31 2 46h-24
c-14 0 -25 11 -25 27c0 14 11 25 25 25h34c40 150 171 247 331 247z" />
    <glyph glyph-name="trademark" unicode="&#x2122;" horiz-adv-x="454" 
d="M419 454c0 -7 -6 -13 -15 -13c-7 0 -13 6 -13 13v175l-70 -168c-2 -4 -5 -6 -9 -6c-3 0 -7 2 -9 7l-70 167v-175c0 -7 -6 -13 -15 -13c-7 0 -13 6 -13 13v193c0 11 10 24 25 24c10 0 18 -5 22 -14l60 -150l60 150c3 8 11 14 21 14c14 0 26 -10 26 -24v-193zM175 655
c0 -8 -6 -14 -12 -14h-56v-187c0 -7 -6 -13 -15 -13c-7 0 -13 6 -13 13v187h-56c-6 0 -12 6 -12 14c0 6 6 12 12 12h140c6 0 12 -6 12 -12z" />
    <glyph glyph-name="partialdiff" unicode="&#x2202;" horiz-adv-x="572" 
d="M525 249c0 -151 -92 -261 -239 -261s-239 110 -239 246s90 245 220 245c62 0 114 -22 155 -82c-36 80 -113 163 -221 222c-10 6 -16 16 -16 27c0 20 16 34 35 34c5 0 10 -1 15 -3c153 -81 290 -240 290 -428zM446 234c0 94 -57 178 -160 178s-161 -84 -161 -178
c0 -96 58 -179 161 -179s160 83 160 179z" />
    <glyph glyph-name="Delta" unicode="&#x2206;" horiz-adv-x="658" 
d="M630 41c0 -21 -17 -41 -41 -41h-520c-24 0 -41 20 -41 41c0 5 1 10 3 15l230 572c11 27 38 45 69 45c28 0 55 -17 66 -45l231 -572c2 -5 3 -10 3 -15zM530 74l-201 507l-201 -507h402z" />
    <glyph glyph-name="product" unicode="&#x220f;" horiz-adv-x="707" 
d="M681 629c0 -20 -16 -36 -36 -36h-79v-649c0 -22 -18 -40 -42 -40c-23 0 -41 18 -41 40v649h-259v-649c0 -22 -18 -40 -42 -40c-23 0 -41 18 -41 40v649h-79c-20 0 -36 16 -36 38c0 20 16 36 36 36h583c20 0 36 -16 36 -38z" />
    <glyph glyph-name="summation" unicode="&#x2211;" horiz-adv-x="575" 
d="M527 -54c0 -20 -16 -36 -36 -36h-395c-22 0 -48 20 -48 50c0 10 3 19 9 28l228 309l-227 292c-6 8 -10 18 -10 28c0 26 22 50 49 50h394c20 0 36 -16 36 -38c0 -20 -16 -36 -36 -36h-334l192 -248c11 -14 17 -31 17 -48s-6 -33 -16 -47l-196 -266h337c20 0 36 -16 36 -38
z" />
    <glyph glyph-name="radical" unicode="&#x221a;" horiz-adv-x="725" 
d="M683 647c0 -3 -1 -7 -2 -10l-248 -620c-6 -14 -19 -23 -36 -23c-16 0 -28 9 -34 23l-124 310l-137 -54c-3 -1 -6 -2 -9 -2c-12 0 -26 11 -26 28c0 10 7 20 17 24l132 51c7 3 14 4 21 4c25 0 47 -15 57 -39l105 -261l231 579c4 10 14 17 25 17c16 0 28 -13 28 -27z" />
    <glyph glyph-name="infinity" unicode="&#x221e;" horiz-adv-x="656" 
d="M627 335c0 -79 -46 -165 -154 -165c-68 0 -118 51 -146 109c-27 -58 -76 -109 -144 -109c-108 0 -154 86 -154 165c0 81 46 165 154 165c68 0 118 -51 144 -109c28 58 78 109 146 109c108 0 154 -85 154 -165zM304 335c-21 55 -59 113 -115 113c-65 0 -104 -48 -104 -113
c0 -64 39 -113 104 -113c56 0 94 58 115 113zM571 335c0 65 -38 113 -103 113c-56 0 -95 -58 -115 -113c20 -55 59 -112 115 -112c65 0 103 47 103 112z" />
    <glyph glyph-name="integral" unicode="&#x222b;" horiz-adv-x="348" 
d="M337 740c0 -15 -12 -27 -26 -27h-42c-36 0 -66 -33 -66 -80v-599c0 -82 -61 -134 -125 -134h-40c-15 0 -27 12 -27 28c0 15 12 27 27 27h40c36 0 66 34 66 80v598c0 83 62 135 125 135h42c14 0 26 -12 26 -28z" />
    <glyph glyph-name="approxequal" unicode="&#x2248;" horiz-adv-x="499" 
d="M478 249c0 -14 -11 -26 -25 -26c-4 0 -8 0 -11 2c-26 12 -55 17 -83 17c-97 0 -110 -58 -220 -58c-29 0 -119 13 -119 46c0 15 12 26 24 26c4 0 7 0 11 -2c27 -12 56 -18 84 -18c96 0 109 59 220 59c30 0 119 -13 119 -46zM478 438c0 -14 -11 -26 -25 -26
c-4 0 -8 0 -11 2c-26 12 -55 17 -83 17c-97 0 -110 -58 -220 -58c-29 0 -119 13 -119 46c0 15 12 26 24 26c4 0 7 0 11 -2c27 -12 56 -18 84 -18c96 0 109 59 220 59c30 0 119 -13 119 -46z" />
    <glyph glyph-name="notequal" unicode="&#x2260;" horiz-adv-x="499" 
d="M476 236c0 -14 -11 -25 -25 -25h-253l-74 -118c-4 -6 -11 -10 -18 -10c-12 0 -24 10 -24 23c0 4 1 8 4 12l58 93h-96c-14 0 -25 11 -25 27c0 14 11 25 25 25h129l90 141h-218c-14 0 -26 12 -26 28c0 13 12 25 26 25h252l74 117c4 6 10 9 18 9c13 0 25 -10 25 -23
c0 -4 -2 -8 -4 -12l-59 -91h96c13 0 25 -12 25 -27c0 -14 -12 -26 -25 -26h-129l-90 -141h219c14 0 25 -11 25 -27z" />
    <glyph glyph-name="lessequal" unicode="&#x2264;" horiz-adv-x="499" 
d="M476 142c0 -18 -17 -29 -29 -29c-4 0 -7 1 -11 3l-393 194c-12 6 -20 19 -20 35c0 13 8 26 20 32l392 195c4 2 8 2 12 2c13 0 29 -11 29 -28c0 -11 -6 -20 -16 -25l-367 -178l368 -177c9 -4 15 -15 15 -24zM476 27c0 -16 -11 -27 -25 -27h-403c-14 0 -25 11 -25 27
c0 14 11 25 25 25h403c14 0 25 -11 25 -25z" />
    <glyph glyph-name="greaterequal" unicode="&#x2265;" horiz-adv-x="499" 
d="M475 345c0 -16 -8 -29 -20 -35l-393 -194c-4 -2 -8 -3 -12 -3c-12 0 -28 12 -28 29c0 9 6 20 15 24l368 177l-367 178c-10 5 -16 14 -16 24c0 17 14 29 29 29c4 0 8 0 12 -2l392 -195c12 -6 20 -19 20 -32zM475 27c0 -16 -11 -27 -25 -27h-403c-14 0 -25 11 -25 27
c0 14 11 25 25 25h403c14 0 25 -11 25 -25z" />
    <glyph glyph-name="lozenge" unicode="&#x25ca;" horiz-adv-x="375" 
d="M342 334c0 -19 -4 -38 -12 -54l-128 -271c-2 -5 -8 -9 -15 -9c-6 0 -12 4 -14 9l-128 271c-8 16 -12 35 -12 54s4 37 12 54l128 270c2 5 8 9 16 9c5 0 11 -4 13 -9l128 -270c8 -17 12 -35 12 -54zM320 334l-133 292l-132 -292l133 -293z" />
    <glyph glyph-name="uniF8FF" unicode="&#xf8ff;" horiz-adv-x="667" 
d="M625 154c0 -61 -50 -112 -111 -112s-112 51 -112 112v74h-137v-74c0 -61 -51 -112 -112 -112s-111 51 -111 112s50 111 111 111h73v137h-72c-61 0 -112 51 -112 112s51 111 112 111s111 -50 111 -111v-75h137v75c0 61 51 111 112 111s111 -50 111 -111
s-50 -112 -111 -112h-73v-137h73c61 0 111 -50 111 -111zM586 514c0 41 -31 74 -72 74s-73 -33 -73 -74v-75h73c41 0 72 34 72 75zM402 265v137h-137v-137h137zM586 154c0 41 -30 74 -72 74h-73v-74c0 -41 32 -75 73 -75s72 34 72 75zM226 439v75c0 41 -31 74 -72 74
s-74 -33 -74 -74s33 -75 74 -75h72zM226 154v74h-74c-41 0 -72 -33 -72 -74s32 -75 73 -75s73 34 73 75z" />
    <glyph glyph-name="commaaccent" unicode="&#xf6c3;" horiz-adv-x="230" 
d="M167 -138c0 -47 -24 -91 -56 -121c-4 -4 -10 -6 -15 -6c-6 0 -11 1 -15 5l-1 1c-4 3 -7 8 -7 13s2 9 6 12c22 21 40 50 42 74c-1 -1 -8 -2 -11 -2c-24 0 -42 19 -42 44c0 26 20 47 46 47c28 0 53 -24 53 -67z" />
    </font>
</defs>
</svg>
